<svg xmlns="http://www.w3.org/2000/svg" xmlns:xlink="http://www.w3.org/1999/xlink" preserveAspectRatio="xMidYMid" width="25.406" height="38.094" viewBox="0 0 25.406 38.094">
  <defs>
    <style>
      .cls-1 {
        fill: #fff;
        stroke: #000;
        stroke-linejoin: round;
        stroke-width: 1px;
        fill-opacity: 0;
        fill-rule: evenodd;
      }
    </style>
  </defs>
  <path d="M15.058,17.920 C14.684,18.437 14.150,18.795 13.556,18.979 L21.978,18.979 C23.074,18.979 24.077,19.595 24.575,20.573 C25.073,21.550 24.980,22.724 24.336,23.612 L15.058,36.404 C14.510,37.161 13.634,37.608 12.701,37.608 C11.767,37.608 10.891,37.160 10.343,36.404 L1.065,23.611 C0.697,23.104 0.509,22.501 0.509,21.896 C0.509,21.444 0.614,20.990 0.827,20.572 C1.324,19.594 2.328,18.979 3.423,18.979 L11.845,18.979 C11.251,18.795 10.717,18.437 10.343,17.920 L1.065,5.127 C0.697,4.620 0.509,4.017 0.509,3.412 C0.509,2.959 0.614,2.505 0.827,2.088 C1.324,1.110 2.328,0.494 3.423,0.494 L21.978,0.495 C23.074,0.495 24.077,1.111 24.575,2.088 C25.073,3.066 24.980,4.240 24.336,5.128 L15.058,17.920 Z" class="cls-1"/>
</svg>
