<svg xmlns="http://www.w3.org/2000/svg" xmlns:xlink="http://www.w3.org/1999/xlink" preserveAspectRatio="xMidYMid" width="39.906" height="26.031" viewBox="0 0 39.906 26.031">
  <defs>
    <style>
      .cls-1 {
        fill: #fff;
        fill-rule: evenodd;
      }
    </style>
  </defs>
  <path d="M38.611,15.529 L24.907,25.426 C24.363,25.819 23.717,26.019 23.069,26.019 C22.584,26.019 22.098,25.907 21.651,25.680 C20.603,25.149 19.943,24.079 19.943,22.910 L19.944,3.117 C19.944,1.948 20.604,0.878 21.651,0.347 C22.698,-0.184 23.956,-0.086 24.907,0.601 L38.611,10.499 C39.422,11.084 39.900,12.018 39.900,13.014 C39.900,14.010 39.421,14.944 38.611,15.529 ZM4.949,25.426 C4.405,25.819 3.760,26.019 3.112,26.019 C2.627,26.019 2.140,25.907 1.693,25.680 C0.645,25.149 -0.014,24.079 -0.014,22.910 L-0.013,3.117 C-0.013,1.948 0.646,0.878 1.694,0.347 C2.741,-0.184 3.999,-0.086 4.950,0.601 L18.654,10.499 C19.464,11.084 19.943,12.018 19.943,13.014 C19.943,14.010 19.463,14.944 18.654,15.529 L4.949,25.426 Z" class="cls-1"/>
</svg>
