<svg xmlns="http://www.w3.org/2000/svg" xmlns:xlink="http://www.w3.org/1999/xlink" preserveAspectRatio="xMidYMid" width="100.87" height="35.937" viewBox="0 0 100.87 35.937">
  <defs>
    <style>
      .cls-1 {
        fill: #fff;
        fill-rule: evenodd;
      }
    </style>
  </defs>
  <path d="M21.964,34.050 C21.404,33.915 20.991,33.646 20.706,33.225 C20.422,32.807 20.337,32.292 20.446,31.651 C20.564,30.956 20.813,30.233 21.187,29.500 C21.610,28.673 22.433,27.873 23.637,27.124 C24.892,26.341 25.993,25.723 26.911,25.286 C27.844,24.841 28.750,24.380 29.605,23.918 L29.780,23.830 C29.880,23.780 29.953,23.688 29.979,23.580 C30.012,23.445 30.076,23.282 30.167,23.097 C30.620,22.374 30.782,21.706 30.632,21.146 C30.597,21.014 30.495,20.913 30.365,20.878 C30.359,20.876 30.353,20.875 30.346,20.874 C30.222,20.847 30.093,20.885 30.002,20.976 C29.864,21.113 29.687,21.272 29.472,21.450 C28.958,21.813 28.433,22.122 27.930,22.350 C27.440,22.574 26.963,22.722 26.513,22.790 C26.261,22.828 26.024,22.825 25.812,22.780 C25.688,22.753 25.568,22.712 25.455,22.656 C25.210,22.547 25.070,22.393 25.000,22.167 C24.921,21.914 24.943,21.605 25.060,21.248 C25.222,20.782 25.503,20.402 25.920,20.091 C26.355,19.767 26.851,19.525 27.391,19.371 C27.947,19.213 28.540,19.123 29.154,19.103 C29.800,19.081 30.337,19.071 30.766,19.070 C30.866,19.070 30.962,19.030 31.033,18.960 C31.330,18.662 31.603,18.341 31.847,18.009 L32.390,17.261 C32.558,17.026 32.674,16.732 32.736,16.385 C32.807,15.987 32.665,15.544 32.315,15.065 C31.781,14.641 31.386,14.436 31.029,14.361 C30.707,14.294 30.375,14.251 30.029,14.228 C28.449,14.546 27.428,14.950 26.807,15.473 C26.223,15.967 25.713,16.445 25.289,16.892 C25.120,17.071 24.877,17.276 24.682,17.234 C24.413,17.096 24.326,16.962 24.336,16.755 C24.997,15.870 25.734,15.128 26.531,14.548 C27.338,13.959 28.347,13.528 29.531,13.268 C30.142,13.199 30.679,13.205 31.090,13.292 C31.207,13.317 31.315,13.349 31.413,13.388 C31.866,13.568 32.332,13.870 32.799,14.284 C33.241,14.675 33.493,15.110 33.570,15.615 C33.648,16.133 33.567,16.628 33.321,17.132 C33.060,17.668 32.638,18.250 32.068,18.864 C32.036,18.898 32.012,18.937 31.994,18.978 L31.414,19.617 C31.277,19.769 31.282,20.003 31.427,20.146 C31.528,20.439 31.603,20.832 31.621,21.229 C31.645,21.765 31.614,21.964 31.599,22.025 C31.562,22.173 31.617,22.329 31.738,22.420 C31.783,22.454 31.834,22.476 31.886,22.487 C31.976,22.506 32.072,22.492 32.156,22.443 L32.682,22.131 C33.430,21.615 34.151,21.096 34.866,20.563 C35.589,20.025 36.290,19.457 36.950,18.874 C37.310,18.555 37.662,18.216 38.010,17.854 C38.338,17.514 38.674,17.212 39.006,16.956 C39.087,16.897 39.176,16.855 39.258,16.818 C39.318,16.791 39.369,16.748 39.408,16.694 L39.702,16.299 C40.141,15.687 40.615,15.134 41.114,14.651 C41.278,14.471 41.419,14.384 41.566,14.365 C41.606,14.359 41.643,14.360 41.681,14.368 C41.767,14.386 41.861,14.442 41.959,14.532 C42.244,14.806 42.258,15.049 42.001,15.392 C41.538,16.044 41.065,16.660 40.588,17.234 C40.105,17.816 39.651,18.400 39.239,18.969 C38.814,19.557 38.429,20.193 38.091,20.860 C37.749,21.537 37.467,22.314 37.252,23.170 C37.221,23.298 37.257,23.433 37.349,23.528 C37.402,23.582 37.469,23.618 37.539,23.633 C37.592,23.644 37.648,23.645 37.702,23.632 C38.347,23.479 39.018,23.222 39.695,22.863 C40.362,22.511 41.013,22.096 41.634,21.629 C42.243,21.171 42.836,20.681 43.396,20.170 C43.948,19.667 44.453,19.185 44.912,18.723 C45.187,18.445 45.453,18.157 45.707,17.858 C45.802,17.747 45.908,17.646 46.014,17.545 L46.143,17.421 L46.315,17.224 C46.421,17.101 46.525,16.979 46.639,16.857 C47.292,16.161 48.008,15.532 48.766,14.989 C49.519,14.449 50.333,14.013 51.187,13.691 C52.025,13.376 52.918,13.215 53.838,13.214 C54.195,13.194 54.532,13.203 54.860,13.241 C55.024,13.261 55.183,13.285 55.336,13.318 C55.493,13.351 55.644,13.392 55.790,13.441 C56.008,13.505 56.147,13.593 56.229,13.715 C56.272,13.778 56.321,13.891 56.254,14.129 C56.215,14.285 56.146,14.471 56.026,14.527 C55.891,14.588 55.711,14.604 55.495,14.573 C55.210,14.532 54.946,14.493 54.702,14.451 C54.434,14.406 54.147,14.385 53.836,14.384 C53.162,14.386 52.505,14.487 51.882,14.685 C51.268,14.881 50.674,15.151 50.115,15.488 C49.558,15.823 49.026,16.202 48.535,16.614 C48.049,17.021 47.579,17.452 47.138,17.894 C47.109,17.924 47.067,17.991 47.047,18.029 C46.823,18.330 46.470,18.751 46.018,19.257 C46.005,19.270 45.911,19.373 45.902,19.387 C45.706,19.680 45.541,19.986 45.407,20.298 C45.262,20.632 45.189,20.967 45.189,21.290 C45.187,21.810 45.337,22.184 45.634,22.405 C45.802,22.530 45.994,22.616 46.203,22.660 C46.314,22.684 46.432,22.697 46.552,22.696 C46.878,22.694 47.213,22.641 47.546,22.537 C47.855,22.439 48.117,22.348 48.332,22.261 C48.975,22.001 49.575,21.671 50.114,21.278 C50.632,20.904 51.140,20.484 51.622,20.032 C52.092,19.591 52.552,19.132 53.001,18.658 C53.443,18.194 53.890,17.733 54.342,17.277 C54.538,17.081 54.719,16.963 54.883,16.927 C54.973,16.907 55.053,16.905 55.121,16.920 C55.161,16.928 55.197,16.941 55.230,16.962 C55.262,16.980 55.356,17.036 55.410,17.255 C55.453,17.426 55.425,17.644 55.328,17.900 C55.065,18.613 54.742,19.349 54.365,20.092 C53.982,20.854 53.623,21.578 53.292,22.265 C53.217,22.421 53.255,22.606 53.385,22.719 C53.433,22.761 53.492,22.790 53.552,22.802 C53.651,22.823 53.757,22.804 53.844,22.744 C54.569,22.242 55.291,21.724 56.007,21.191 C56.741,20.641 57.443,20.073 58.090,19.501 C58.449,19.182 58.803,18.843 59.151,18.481 C59.478,18.142 59.813,17.840 60.145,17.583 C60.243,17.514 60.345,17.457 60.446,17.416 C60.539,17.379 60.615,17.306 60.654,17.212 C60.694,17.119 60.695,17.014 60.658,16.920 C60.632,16.856 60.621,16.785 60.624,16.708 C61.286,15.822 62.024,15.079 62.818,14.502 C63.625,13.912 64.633,13.481 65.817,13.221 C66.429,13.152 66.967,13.158 67.378,13.245 C67.494,13.270 67.603,13.302 67.701,13.341 C68.155,13.523 68.622,13.825 69.087,14.238 C69.527,14.627 69.779,15.063 69.857,15.569 C69.937,16.086 69.856,16.582 69.609,17.085 C69.347,17.621 68.925,18.204 68.355,18.817 C68.324,18.851 68.299,18.890 68.281,18.932 L67.701,19.570 C67.564,19.722 67.570,19.956 67.714,20.099 C67.816,20.392 67.890,20.786 67.908,21.184 C67.933,21.723 67.901,21.918 67.886,21.976 C67.849,22.125 67.904,22.281 68.025,22.373 C68.070,22.407 68.120,22.429 68.173,22.440 C68.263,22.459 68.359,22.445 68.443,22.396 L68.969,22.084 C69.717,21.569 70.439,21.051 71.154,20.518 C71.871,19.983 72.572,19.414 73.238,18.828 C73.597,18.509 73.950,18.169 74.298,17.807 C74.626,17.467 74.961,17.166 75.293,16.910 C75.323,16.888 75.382,16.846 75.405,16.816 C76.185,15.801 76.908,14.880 77.557,14.088 C78.263,13.225 78.878,12.538 79.386,12.047 C79.549,11.867 79.691,11.779 79.838,11.760 C79.878,11.754 79.914,11.756 79.952,11.764 C80.038,11.783 80.132,11.838 80.232,11.928 C80.515,12.203 80.529,12.446 80.273,12.789 C79.805,13.444 79.200,14.177 78.469,14.975 C78.028,15.460 77.609,15.956 77.210,16.462 C77.106,16.595 77.100,16.781 77.198,16.919 C77.255,16.998 77.337,17.050 77.427,17.070 C77.493,17.084 77.564,17.080 77.631,17.056 C77.906,16.957 78.171,16.878 78.424,16.819 C78.914,16.713 79.376,16.703 79.793,16.791 C79.888,16.812 79.983,16.838 80.075,16.868 C80.414,16.987 80.701,17.201 80.947,17.519 C81.074,17.697 81.164,17.905 81.214,18.143 C81.240,18.264 81.323,18.366 81.437,18.414 C81.459,18.423 81.481,18.429 81.504,18.435 C81.600,18.455 81.701,18.437 81.784,18.383 C82.019,18.234 82.252,18.074 82.486,17.901 C83.234,17.358 83.980,16.775 84.703,16.172 C84.828,16.068 84.944,16.005 85.070,15.975 C85.129,15.961 85.184,15.932 85.230,15.893 L85.368,15.769 C85.435,15.707 85.503,15.645 85.574,15.588 C86.137,15.150 86.731,14.787 87.341,14.508 C87.433,14.466 87.504,14.390 87.539,14.296 C87.742,13.760 88.049,13.347 88.477,13.035 C88.916,12.716 89.399,12.507 89.916,12.414 C90.439,12.318 90.995,12.328 91.569,12.441 C91.569,12.441 91.570,12.441 91.571,12.441 C92.168,12.568 92.672,12.777 93.119,13.071 C93.572,13.370 93.954,13.774 94.251,14.271 C94.542,14.760 94.689,15.338 94.687,15.990 L94.562,17.265 C94.552,17.382 94.595,17.497 94.680,17.577 C94.731,17.624 94.793,17.656 94.860,17.671 C94.904,17.680 94.951,17.682 94.997,17.674 L96.238,17.470 C96.680,17.396 97.124,17.298 97.568,17.180 C98.025,17.059 98.480,16.899 98.921,16.709 C99.376,16.512 99.818,16.255 100.234,15.947 C100.401,15.817 100.541,15.757 100.626,15.775 C100.729,15.801 100.790,15.849 100.831,15.933 C100.886,16.044 100.896,16.183 100.861,16.359 C100.827,16.526 100.726,16.671 100.555,16.801 C100.006,17.215 99.452,17.541 98.904,17.767 C98.352,17.996 97.805,18.175 97.278,18.296 C96.753,18.416 96.238,18.492 95.747,18.523 C95.233,18.554 94.742,18.580 94.269,18.603 C94.135,18.609 94.015,18.687 93.951,18.808 C93.650,19.390 93.264,20.001 92.804,20.627 C92.342,21.253 91.821,21.832 91.257,22.350 C90.693,22.869 90.075,23.320 89.422,23.689 C88.788,24.048 88.138,24.269 87.491,24.346 C86.843,24.447 86.225,24.443 85.640,24.336 L85.484,24.305 C84.969,24.196 84.500,24.010 84.088,23.752 C83.651,23.476 83.294,23.096 83.030,22.625 C82.766,22.158 82.634,21.566 82.635,20.867 C82.635,20.580 82.666,20.275 82.726,19.935 C82.753,19.782 82.687,19.630 82.558,19.548 C82.519,19.523 82.477,19.506 82.434,19.497 C82.333,19.475 82.225,19.496 82.138,19.558 C81.733,19.846 81.316,20.124 80.886,20.389 C80.767,20.469 80.678,20.523 80.607,20.559 C80.560,20.582 80.518,20.615 80.485,20.656 L80.174,21.030 C79.675,21.633 79.134,22.178 78.566,22.650 C78.001,23.119 77.398,23.525 76.774,23.855 C76.154,24.184 75.533,24.437 74.930,24.607 C74.498,24.729 74.109,24.754 73.775,24.683 C73.685,24.664 73.599,24.638 73.516,24.606 C73.103,24.450 72.815,24.229 72.656,23.947 C72.483,23.642 72.404,23.309 72.413,22.929 C72.424,22.525 72.512,22.087 72.674,21.628 C72.736,21.487 72.756,21.443 72.774,21.395 C72.834,21.237 72.783,21.058 72.648,20.957 C72.603,20.923 72.553,20.901 72.501,20.890 C72.396,20.868 72.283,20.891 72.194,20.959 L71.865,21.216 C71.688,21.356 71.510,21.497 71.326,21.630 C70.018,22.572 68.640,23.435 67.234,24.197 C67.165,24.234 67.110,24.292 67.075,24.362 C66.847,24.817 66.565,25.372 66.224,26.024 C65.884,26.677 65.415,27.536 64.818,28.601 C64.229,29.651 63.687,30.495 63.207,31.110 C62.726,31.724 62.229,32.270 61.728,32.734 C61.247,33.180 60.781,33.505 60.346,33.697 C59.549,34.025 58.858,34.132 58.301,34.014 C57.691,33.868 57.279,33.599 56.994,33.179 C56.710,32.762 56.625,32.247 56.734,31.603 C56.851,30.908 57.101,30.185 57.475,29.455 C57.897,28.626 58.720,27.827 59.924,27.077 C61.179,26.295 62.280,25.677 63.198,25.239 C64.115,24.803 65.021,24.343 65.892,23.872 L66.069,23.783 C66.168,23.732 66.240,23.641 66.266,23.533 C66.301,23.393 66.364,23.232 66.453,23.055 C66.907,22.327 67.069,21.659 66.919,21.099 C66.884,20.967 66.782,20.867 66.653,20.831 C66.646,20.830 66.640,20.828 66.633,20.827 C66.510,20.801 66.380,20.838 66.289,20.929 C66.152,21.066 65.974,21.225 65.759,21.403 C65.247,21.767 64.720,22.075 64.218,22.303 C63.727,22.528 63.251,22.675 62.801,22.744 C62.548,22.782 62.312,22.779 62.099,22.733 C61.975,22.707 61.854,22.666 61.742,22.609 C61.496,22.499 61.356,22.346 61.285,22.120 C61.209,21.867 61.230,21.559 61.349,21.203 C61.509,20.735 61.790,20.356 62.207,20.045 C62.640,19.721 63.136,19.480 63.678,19.326 C64.234,19.168 64.827,19.077 65.443,19.057 C66.087,19.035 66.624,19.024 67.053,19.024 C67.154,19.024 67.250,18.983 67.321,18.912 C67.625,18.605 67.899,18.285 68.134,17.961 L68.677,17.214 C68.846,16.979 68.961,16.686 69.023,16.338 C69.094,15.943 68.953,15.498 68.602,15.018 C68.071,14.596 67.677,14.392 67.321,14.316 C66.995,14.248 66.664,14.204 66.316,14.182 C64.737,14.498 63.716,14.904 63.095,15.426 C62.514,15.916 62.004,16.394 61.577,16.845 C61.448,16.982 61.320,17.078 61.185,17.140 C61.014,17.217 60.924,17.409 60.976,17.591 C60.994,17.657 61.000,17.728 60.993,17.808 C60.977,17.989 60.895,18.190 60.748,18.404 C60.658,18.548 60.548,18.671 60.400,18.795 L59.917,19.203 C58.742,20.323 57.490,21.361 56.179,22.303 C54.865,23.248 53.489,24.112 52.087,24.871 C52.018,24.907 51.963,24.966 51.928,25.036 C51.701,25.491 51.418,26.045 51.077,26.698 C50.739,27.349 50.363,28.035 49.951,28.759 C49.540,29.482 49.104,30.209 48.642,30.943 C48.176,31.677 47.699,32.359 47.222,32.968 C46.740,33.584 46.243,34.130 45.744,34.592 C45.262,35.040 44.797,35.362 44.364,35.553 C43.566,35.883 42.874,35.992 42.314,35.873 C41.706,35.728 41.295,35.458 41.009,35.037 C40.717,34.607 40.574,34.058 40.585,33.404 C40.596,32.729 40.787,32.025 41.151,31.314 C41.580,30.470 42.165,29.727 42.888,29.105 C43.628,28.471 44.447,27.885 45.327,27.365 C46.207,26.844 47.124,26.355 48.052,25.913 C48.980,25.470 49.886,25.011 50.745,24.546 C50.814,24.509 50.870,24.451 50.904,24.381 L52.053,22.074 C52.130,21.920 52.095,21.734 51.968,21.620 C51.917,21.574 51.857,21.545 51.795,21.532 C51.699,21.511 51.597,21.529 51.511,21.584 C50.815,22.041 50.108,22.479 49.392,22.901 C48.693,23.313 47.956,23.656 47.200,23.918 C46.784,24.045 46.321,24.103 45.836,24.086 C45.630,24.078 45.431,24.054 45.241,24.013 C45.001,23.962 44.775,23.885 44.566,23.782 C44.211,23.609 43.940,23.358 43.740,23.013 C43.646,22.852 43.585,22.651 43.556,22.401 C43.540,22.264 43.451,22.148 43.325,22.095 C43.304,22.086 43.282,22.080 43.260,22.076 C43.151,22.053 43.035,22.079 42.946,22.151 L42.536,22.485 C41.868,23.010 41.191,23.467 40.523,23.845 C39.872,24.213 39.240,24.485 38.643,24.654 C38.211,24.775 37.822,24.801 37.487,24.730 C37.397,24.711 37.311,24.685 37.228,24.651 C36.815,24.497 36.528,24.276 36.368,23.993 C36.195,23.689 36.116,23.357 36.126,22.977 C36.136,22.575 36.224,22.137 36.387,21.675 C36.448,21.534 36.469,21.489 36.487,21.442 C36.547,21.284 36.495,21.105 36.361,21.004 C36.316,20.970 36.265,20.948 36.213,20.937 C36.108,20.914 35.996,20.937 35.906,21.005 L35.578,21.262 C35.401,21.403 35.223,21.544 35.038,21.677 C33.730,22.617 32.353,23.481 30.947,24.244 C30.878,24.280 30.822,24.339 30.788,24.408 C30.560,24.863 30.277,25.418 29.937,26.071 C29.596,26.724 29.127,27.583 28.531,28.648 C27.940,29.700 27.397,30.544 26.919,31.155 C26.438,31.771 25.942,32.317 25.441,32.779 C24.960,33.227 24.495,33.550 24.060,33.743 C23.262,34.071 22.571,34.179 22.014,34.061 L21.964,34.050 ZM28.356,25.954 C28.268,25.935 28.172,25.949 28.090,25.996 C27.800,26.164 27.384,26.409 26.846,26.735 C26.305,27.060 25.639,27.490 24.849,28.024 C24.022,28.584 23.402,29.125 22.955,29.676 C22.519,30.209 22.151,30.754 21.859,31.296 C21.522,31.924 21.504,32.556 21.809,33.122 C21.861,33.220 21.954,33.289 22.062,33.312 L22.063,33.313 C22.552,33.415 23.071,33.299 23.606,32.966 C24.088,32.667 24.576,32.265 25.057,31.769 C25.536,31.274 26.067,30.594 26.635,29.751 C27.195,28.917 27.629,28.226 27.923,27.698 C28.210,27.183 28.434,26.793 28.598,26.525 C28.689,26.377 28.669,26.186 28.548,26.061 C28.495,26.005 28.428,25.969 28.356,25.954 ZM49.498,26.146 C49.410,26.127 49.316,26.139 49.233,26.188 C48.941,26.356 48.527,26.601 47.989,26.924 C47.440,27.255 46.863,27.639 46.273,28.068 C45.690,28.488 45.089,28.961 44.485,29.473 C43.877,29.991 43.350,30.522 42.918,31.052 C42.467,31.608 42.147,32.175 41.967,32.735 C41.769,33.355 41.819,33.949 42.114,34.499 C42.166,34.597 42.259,34.666 42.367,34.689 C42.368,34.689 42.368,34.689 42.369,34.690 C42.856,34.791 43.374,34.674 43.910,34.343 C44.390,34.046 44.878,33.642 45.361,33.146 C45.834,32.659 46.309,32.088 46.775,31.452 C47.234,30.820 47.657,30.200 48.045,29.592 C48.432,28.980 48.772,28.413 49.065,27.889 C49.351,27.375 49.576,26.983 49.740,26.718 C49.831,26.570 49.811,26.378 49.692,26.253 C49.638,26.197 49.570,26.161 49.498,26.146 ZM64.643,25.907 C64.554,25.888 64.460,25.902 64.376,25.950 C64.087,26.119 63.671,26.363 63.134,26.688 C62.592,27.012 61.926,27.443 61.136,27.978 C60.324,28.527 59.687,29.083 59.242,29.629 C58.803,30.169 58.434,30.714 58.148,31.250 C57.810,31.877 57.792,32.509 58.097,33.077 C58.151,33.174 58.242,33.243 58.351,33.266 L58.352,33.266 C58.839,33.369 59.358,33.252 59.895,32.921 C60.373,32.623 60.861,32.221 61.345,31.723 C61.825,31.228 62.355,30.549 62.923,29.704 C63.497,28.848 63.918,28.176 64.211,27.650 C64.497,27.135 64.722,26.745 64.885,26.477 C64.977,26.329 64.955,26.138 64.836,26.013 C64.782,25.958 64.714,25.922 64.643,25.907 ZM29.214,20.002 C29.181,19.995 29.148,19.993 29.114,19.997 C28.965,20.015 28.830,20.024 28.711,20.024 L28.381,20.026 C27.967,20.074 27.632,20.142 27.345,20.230 C27.054,20.322 26.798,20.425 26.585,20.539 C26.352,20.664 26.170,20.789 26.025,20.924 C25.880,21.057 25.772,21.174 25.699,21.271 C25.620,21.376 25.602,21.515 25.649,21.638 C25.694,21.757 25.797,21.845 25.921,21.872 C25.925,21.872 25.927,21.873 25.930,21.873 C26.200,21.924 26.493,21.919 26.825,21.858 C27.126,21.801 27.442,21.704 27.768,21.568 C28.085,21.435 28.379,21.287 28.652,21.121 C28.903,20.969 29.126,20.846 29.325,20.745 C29.449,20.682 29.529,20.555 29.532,20.415 C29.536,20.304 29.492,20.183 29.411,20.109 C29.356,20.058 29.287,20.017 29.214,20.002 ZM65.501,19.955 C65.468,19.948 65.435,19.947 65.401,19.951 C65.251,19.968 65.116,19.978 64.995,19.978 L64.670,19.979 C64.254,20.027 63.920,20.095 63.633,20.184 C63.338,20.277 63.086,20.379 62.873,20.493 C62.646,20.613 62.464,20.739 62.314,20.875 C62.166,21.014 62.059,21.128 61.986,21.225 C61.907,21.330 61.889,21.469 61.936,21.591 C61.982,21.711 62.085,21.799 62.209,21.825 C62.212,21.826 62.214,21.826 62.217,21.827 C62.489,21.878 62.790,21.872 63.113,21.812 C63.414,21.755 63.730,21.658 64.053,21.523 C64.372,21.390 64.666,21.240 64.939,21.075 C65.189,20.924 65.413,20.799 65.612,20.698 C65.736,20.635 65.816,20.508 65.819,20.368 C65.823,20.257 65.779,20.136 65.699,20.062 C65.643,20.011 65.574,19.971 65.501,19.955 ZM79.884,18.090 C78.986,18.091 78.064,18.309 77.142,18.736 C76.228,19.161 75.319,19.845 74.442,20.770 C74.415,20.799 74.392,20.831 74.375,20.866 C73.992,21.658 73.711,22.418 73.539,23.126 C73.507,23.255 73.545,23.390 73.637,23.483 C73.690,23.537 73.756,23.572 73.827,23.587 C73.879,23.598 73.936,23.598 73.991,23.585 C74.636,23.433 75.306,23.174 75.983,22.817 C76.645,22.467 77.301,22.052 77.935,21.584 C77.949,21.572 78.007,21.518 78.020,21.505 C78.381,21.203 78.696,20.908 78.980,20.600 C79.613,19.941 80.040,19.259 80.244,18.580 C80.279,18.464 80.257,18.340 80.186,18.244 C80.131,18.168 80.051,18.118 79.962,18.099 C79.937,18.093 79.911,18.090 79.884,18.090 ZM87.540,15.596 C87.445,15.576 87.345,15.591 87.257,15.648 C86.481,16.150 85.782,16.793 85.183,17.560 C84.568,18.342 84.167,19.232 83.989,20.204 C83.867,20.907 83.985,21.530 84.336,22.058 C84.684,22.579 85.196,22.939 85.858,23.128 C85.949,23.156 86.042,23.178 86.135,23.198 C86.749,23.329 87.356,23.293 87.939,23.089 C88.576,22.867 89.180,22.530 89.735,22.091 C90.282,21.660 90.791,21.158 91.250,20.599 C91.700,20.051 92.082,19.556 92.397,19.112 C92.468,19.012 92.488,18.883 92.447,18.766 C92.408,18.651 92.315,18.561 92.197,18.527 C91.239,18.245 90.399,17.901 89.698,17.505 C89.013,17.115 88.361,16.519 87.759,15.735 C87.703,15.661 87.624,15.614 87.540,15.596 ZM90.949,13.414 C90.664,13.353 90.356,13.299 90.025,13.251 C89.920,13.236 89.815,13.265 89.733,13.333 C89.228,13.745 88.932,14.203 88.853,14.691 C88.771,15.218 88.984,15.729 89.489,16.211 C89.694,16.419 89.949,16.604 90.238,16.755 C90.512,16.899 90.807,17.022 91.115,17.121 C91.411,17.216 91.707,17.302 92.002,17.376 C92.147,17.413 92.287,17.446 92.423,17.474 C92.566,17.505 92.703,17.531 92.835,17.553 C93.034,17.586 93.223,17.457 93.266,17.258 C93.424,16.540 93.467,15.960 93.399,15.484 C93.327,14.977 93.125,14.559 92.797,14.240 C92.485,13.937 92.080,13.712 91.589,13.572 C91.389,13.515 91.177,13.462 90.949,13.414 ZM0.257,25.354 C0.171,25.333 0.063,25.296 0.015,25.228 C-0.026,25.167 -0.017,25.064 -0.002,24.988 C0.027,24.840 0.134,24.662 0.308,24.470 C0.538,24.219 0.802,23.984 1.090,23.770 C1.425,23.522 1.728,23.240 1.990,22.929 C2.564,22.332 3.104,21.666 3.580,20.966 C4.049,20.272 4.499,19.550 4.915,18.817 C4.992,18.681 4.979,18.510 4.880,18.388 C4.179,17.522 3.701,16.593 3.461,15.625 C3.219,14.647 3.151,13.633 3.261,12.610 C3.372,11.584 3.641,10.550 4.060,9.538 C4.485,8.514 5.012,7.529 5.624,6.611 C6.236,5.692 6.935,4.829 7.702,4.046 C8.474,3.259 9.260,2.575 10.039,2.013 C10.684,1.558 11.436,1.169 12.269,0.859 C13.112,0.544 13.992,0.315 14.887,0.174 C15.788,0.031 16.700,-0.027 17.600,0.002 C18.427,0.029 19.209,0.121 19.924,0.273 L20.122,0.316 C21.620,0.668 22.762,1.296 23.518,2.184 C24.282,3.081 24.781,4.143 25.001,5.338 C25.227,6.556 25.213,7.882 24.962,9.281 C24.707,10.702 24.286,12.106 23.709,13.455 C23.132,14.806 22.429,16.090 21.619,17.269 C20.815,18.443 19.972,19.416 19.112,20.160 C18.405,20.772 17.658,21.364 16.893,21.920 C16.139,22.466 15.346,22.948 14.532,23.355 C13.730,23.756 12.879,24.061 12.002,24.262 C11.143,24.461 10.227,24.512 9.280,24.415 C8.606,24.353 7.997,24.277 7.448,24.187 C6.888,24.092 6.314,24.038 5.743,24.027 C5.170,24.017 4.592,24.057 4.025,24.144 C3.449,24.229 2.806,24.415 2.114,24.698 C1.881,24.784 1.648,24.891 1.425,25.015 C1.234,25.120 1.035,25.211 0.828,25.286 C0.607,25.361 0.412,25.387 0.271,25.357 L0.257,25.354 ZM6.086,19.408 C5.937,19.376 5.778,19.439 5.691,19.572 C5.341,20.111 5.012,20.609 4.704,21.064 C4.397,21.515 4.049,21.998 3.660,22.512 C3.562,22.642 3.557,22.821 3.647,22.956 C3.703,23.040 3.788,23.095 3.881,23.114 C3.939,23.127 4.000,23.126 4.060,23.109 C4.615,22.954 5.196,22.886 5.786,22.904 C6.407,22.923 7.027,22.963 7.647,23.023 C8.277,23.086 8.907,23.143 9.537,23.195 C10.199,23.247 10.859,23.218 11.502,23.109 C12.419,22.956 13.380,22.641 14.356,22.169 C15.328,21.700 16.284,21.091 17.197,20.360 C18.114,19.627 18.979,18.762 19.766,17.790 C20.555,16.816 21.242,15.743 21.811,14.603 C22.479,13.218 23.026,11.815 23.436,10.425 C23.851,9.022 24.041,7.701 24.001,6.502 C23.960,5.270 23.619,4.175 22.984,3.247 C22.339,2.303 21.301,1.635 19.900,1.261 C19.747,1.220 19.589,1.180 19.427,1.146 C18.856,1.025 18.238,0.954 17.589,0.938 C16.761,0.921 15.922,0.976 15.095,1.103 C14.260,1.232 13.445,1.443 12.671,1.732 C11.892,2.024 11.193,2.380 10.593,2.789 C9.850,3.304 9.106,3.951 8.380,4.714 C7.658,5.472 6.992,6.308 6.402,7.198 C5.811,8.089 5.308,9.036 4.907,10.010 C4.500,10.998 4.250,11.968 4.163,12.894 C4.096,13.704 4.149,14.468 4.322,15.170 C4.492,15.864 4.762,16.564 5.123,17.249 C5.176,17.350 5.270,17.419 5.378,17.442 C5.404,17.448 5.431,17.451 5.458,17.450 C5.599,17.449 5.727,17.370 5.792,17.244 C6.496,15.870 7.186,14.497 7.860,13.123 C8.521,11.772 9.261,10.431 10.061,9.132 C10.302,8.748 10.612,8.305 10.988,7.803 C11.361,7.307 11.768,6.825 12.198,6.373 C12.623,5.925 13.076,5.519 13.545,5.167 C13.987,4.835 14.427,4.609 14.853,4.497 C15.030,4.454 15.187,4.445 15.310,4.471 C15.396,4.495 15.463,4.587 15.518,4.730 C15.589,4.933 15.578,5.041 15.561,5.069 C15.518,5.140 15.421,5.256 15.203,5.395 C15.055,5.490 14.893,5.572 14.717,5.647 C14.502,5.738 14.303,5.843 14.122,5.956 C13.110,6.607 12.250,7.452 11.562,8.467 C10.899,9.447 10.304,10.470 9.798,11.506 C9.258,12.633 8.729,13.746 8.211,14.848 C7.700,15.936 7.140,17.029 6.547,18.098 C6.493,18.194 6.483,18.307 6.519,18.411 C6.555,18.514 6.633,18.596 6.734,18.637 C7.151,18.805 7.526,18.926 7.849,18.994 C8.189,19.065 8.490,19.099 8.761,19.099 C9.050,19.097 9.353,19.069 9.660,19.014 C9.941,18.963 10.281,18.917 10.682,18.876 C10.853,18.849 10.980,18.849 11.082,18.870 C11.211,18.915 11.279,19.003 11.333,19.194 C11.376,19.347 11.379,19.470 11.339,19.519 C11.252,19.628 11.121,19.723 10.950,19.803 C10.620,19.950 10.244,20.044 9.837,20.081 C9.406,20.123 8.972,20.123 8.545,20.084 C8.273,20.060 8.007,20.020 7.744,19.964 C7.590,19.931 7.437,19.893 7.286,19.850 C6.872,19.731 6.496,19.592 6.170,19.436 C6.143,19.423 6.114,19.414 6.086,19.408 ZM43.129,10.683 C42.960,10.647 42.824,10.571 42.714,10.453 C42.607,10.337 42.551,10.204 42.538,10.031 C42.534,9.978 42.522,9.826 42.758,9.605 L44.548,8.021 C44.755,7.848 44.904,7.847 44.998,7.862 C45.000,7.862 45.003,7.863 45.005,7.863 C45.192,7.903 45.305,7.966 45.392,8.065 C45.490,8.177 45.545,8.320 45.559,8.495 C45.565,8.580 45.552,8.710 45.354,8.875 L43.547,10.506 C43.315,10.721 43.178,10.693 43.132,10.684 L43.129,10.683 Z" class="cls-1"/>
</svg>
