<svg id="Слой_1" data-name="Слой 1" xmlns="http://www.w3.org/2000/svg" xmlns:xlink="http://www.w3.org/1999/xlink" viewBox="0 0 80 70"><defs><clipPath id="clip-path" transform="translate(0 0)"><rect width="80.09" height="70" style="fill:none"/></clipPath></defs><title>stage-5</title><g style="clip-path:url(#clip-path)"><path d="M58,70H53V67.54c0-.2-0.22-1.29-0.4-2.09a2.39,2.39,0,0,1,0-.3,14.4,14.4,0,0,0-2-6.53A8.94,8.94,0,0,1,49,52.73c0.6-6.11.9-12.07,0.9-17.73s-0.3-11.62-.9-17.72a8.94,8.94,0,0,1,1.52-5.89,14.42,14.42,0,0,0,2-6.53,2.39,2.39,0,0,1,0-.3c0.19-.9.38-1.91,0.4-2.17V0h5V2.46a15.23,15.23,0,0,1-.47,3,19.21,19.21,0,0,1-2.81,8.72,4,4,0,0,0-.7,2.62c0.62,6.27.93,12.39,0.93,18.21S54.63,46.95,54,53.21a4,4,0,0,0,.7,2.62,19.21,19.21,0,0,1,2.81,8.72,15.24,15.24,0,0,1,.47,3V70Z" transform="translate(0 0)" style="fill:#e51e0b"/><path d="M69,70H64V67.54c0-.2-0.22-1.29-0.4-2.09a2.39,2.39,0,0,1,0-.3,14.4,14.4,0,0,0-2-6.53A8.94,8.94,0,0,1,60,52.73c0.6-6.11.9-12.07,0.9-17.73s-0.3-11.62-.9-17.72a8.94,8.94,0,0,1,1.52-5.89,14.42,14.42,0,0,0,2-6.53,2.39,2.39,0,0,1,0-.3c0.19-.9.38-1.91,0.4-2.17V0h5V2.46a15.23,15.23,0,0,1-.47,3,19.21,19.21,0,0,1-2.81,8.72,4,4,0,0,0-.7,2.62c0.62,6.27.93,12.39,0.93,18.21S65.64,46.95,65,53.21a4,4,0,0,0,.7,2.62,19.21,19.21,0,0,1,2.81,8.72,15.24,15.24,0,0,1,.47,3V70Z" transform="translate(0 0)" style="fill:#b1181e"/><path d="M80,70H75V67.54c0-.2-0.22-1.29-0.4-2.09a2.39,2.39,0,0,1,0-.3,14.4,14.4,0,0,0-2-6.53A8.94,8.94,0,0,1,71,52.73c0.6-6.11.9-12.07,0.9-17.73s-0.3-11.62-.9-17.72a8.94,8.94,0,0,1,1.52-5.89,14.42,14.42,0,0,0,2-6.53,2.39,2.39,0,0,1,0-.3c0.19-.9.38-1.91,0.4-2.17V0h5V2.46a15.23,15.23,0,0,1-.47,3,19.21,19.21,0,0,1-2.81,8.72,4,4,0,0,0-.7,2.62c0.62,6.27.93,12.39,0.93,18.21S76.64,46.95,76,53.21a4,4,0,0,0,.7,2.62,19.21,19.21,0,0,1,2.81,8.72,15.24,15.24,0,0,1,.47,3V70Z" transform="translate(0 0)" style="fill:#e51e0b"/><path d="M47,2.57V0.11C36.67-.44,34.42,1.18,23.5,1.18S10.33-.44,0,0.11V2.57A1.1,1.1,0,0,0,.8,3.63a1.12,1.12,0,0,0-.4.85V5.17a18.12,18.12,0,0,0,2.15,7.67,7.07,7.07,0,0,1,1,4.24C3.24,20.5,2.72,27.24,2.72,35s0.52,14.5.82,17.91a7.07,7.07,0,0,1-1,4.24A18.12,18.12,0,0,0,.4,64.83v0.69a1.12,1.12,0,0,0,.4.85A1.1,1.1,0,0,0,0,67.43v2.46c10.33,0.55,12.58-1.07,23.5-1.07S36.67,70.44,47,69.88V67.43a1.1,1.1,0,0,0-.8-1.06,1.12,1.12,0,0,0,.4-0.85V64.83a18.12,18.12,0,0,0-2.15-7.67,7.07,7.07,0,0,1-1-4.24c0.3-3.41.82-10.15,0.82-17.91s-0.52-14.5-.82-17.91a7.07,7.07,0,0,1,1-4.24A18.12,18.12,0,0,0,46.6,5.17V4.48a1.12,1.12,0,0,0-.4-0.85A1.1,1.1,0,0,0,47,2.57" transform="translate(0 0)" style="fill:#e51e0b"/><path d="M41.46,3.69c-3,.31-5.93.85-8.92,1.24a69.66,69.66,0,0,1-9,.58,69.31,69.31,0,0,1-9-.58c-3-.38-5.92-0.93-8.92-1.24a67,67,0,0,1,9,.23c3,0.2,6,.3,8.94.29s6-.09,8.94-0.29a67.31,67.31,0,0,1,9-.23" transform="translate(0 0)" style="fill:#b1181e"/><path d="M41.46,66.31a67.31,67.31,0,0,1-9-.23c-3-.2-6-0.3-8.94-0.29s-6,.09-8.94.29a66.83,66.83,0,0,1-9,.23c3-.31,5.93-0.86,8.92-1.24a71,71,0,0,1,18.08,0c3,0.38,5.92.93,8.92,1.24" transform="translate(0 0)" style="fill:#b1181e"/><path d="M5.66,24.5l0.64-7A11,11,0,0,0,3.77,9.45L3.26,8.84a11,11,0,0,1-2.37-5l0-.26a1.12,1.12,0,0,0-.4.85V5.17a18.13,18.13,0,0,0,2.14,7.68,7.08,7.08,0,0,1,1,4.24C3.27,20.5,2.76,27.24,2.76,35s0.52,14.5.81,17.91a7.08,7.08,0,0,1-1,4.24A18.13,18.13,0,0,0,.44,64.83v0.69a1.11,1.11,0,0,0,.4.85,11,11,0,0,1,3.53-4.82l3.85-3a11,11,0,0,0,2.36-14.8A29.69,29.69,0,0,1,5.66,24.5" transform="translate(0 0)" style="fill:#b1181e"/><path d="M46.56,64.83h0a18.13,18.13,0,0,0-2.14-7.68,7.09,7.09,0,0,1-1-4.24c0.3-3.41.82-10.15,0.82-17.91s-0.52-14.5-.82-17.91a7.09,7.09,0,0,1,1-4.24,18.12,18.12,0,0,0,2.14-7.67V4.48a1.12,1.12,0,0,0-.4-0.85L45.63,6.44a6.27,6.27,0,0,1-2.22,3.71,6.28,6.28,0,0,0-2.32,5.33l0.65,9a16.21,16.21,0,0,1-1.56,8.18l-3.6,7.5A13.15,13.15,0,0,0,39.5,55.47L41.15,57A16.22,16.22,0,0,1,46,65.74l0.12,0.63a1.12,1.12,0,0,0,.4-0.85V64.83Z" transform="translate(0 0)" style="fill:#b1181e"/><path d="M0.29,3.68V3.61h0V3.68" transform="translate(0 0)" style="fill:#fdd300"/><path d="M37.25,26.52a12.3,12.3,0,0,0-2.12-4.84v0a5.49,5.49,0,0,0-1.2-.87A7.28,7.28,0,0,0,31.15,20a12.11,12.11,0,0,0-17.89,1.85,4.92,4.92,0,0,0-2.74,1.61,13.4,13.4,0,0,0-1.31,7A19.08,19.08,0,0,0,10.63,37v0c0.11,0.26.24,0.52,0.36,0.76v0c0,0.06.93,1.44,3.71,2a16,16,0,0,0,3.07.31l0.51,0.24a12.16,12.16,0,0,0,15.26-5,8.19,8.19,0,0,0,2.94-.9,2.15,2.15,0,0,0,1.27-1.46,23.86,23.86,0,0,0-.52-6.43" transform="translate(0 0)" style="fill:#fff"/><path d="M37.25,26.52a12.3,12.3,0,0,0-2.12-4.84v0a5.49,5.49,0,0,0-1.2-.87A7.28,7.28,0,0,0,31.15,20a12.11,12.11,0,0,0-17.89,1.85,4.92,4.92,0,0,0-2.74,1.61,13.4,13.4,0,0,0-1.31,7A19.08,19.08,0,0,0,10.63,37v0c0.11,0.26.24,0.52,0.36,0.76v0c0,0.06.93,1.44,3.71,2a16,16,0,0,0,3.07.31l0.51,0.24a12.16,12.16,0,0,0,15.26-5,8.19,8.19,0,0,0,2.94-.9,2.15,2.15,0,0,0,1.27-1.46A23.86,23.86,0,0,0,37.25,26.52Z" transform="translate(0 0)" style="fill:none;stroke:#fff;stroke-linejoin:round;stroke-width:0.7599999904632568px"/><path d="M35,21.82a6.6,6.6,0,0,0-4.44-1.69,6.11,6.11,0,0,0-5.46,2.8l-1.85-.44a23.65,23.65,0,0,0-7.56-.89c-2.05.12-4.46,1.06-4.93,1.94a13,13,0,0,0-1.28,6.87,18.84,18.84,0,0,0,1.39,6.49c0.11,0.26.24,0.52,0.37,0.77,0,0,.85,1.35,3.58,1.91a17.91,17.91,0,0,0,7-.09l-6.43-4.64a16.09,16.09,0,0,1,3.25-.57,31.85,31.85,0,0,1,7.13.41,35.58,35.58,0,0,0,6.78.49c3.68-.22,5-1.63,5.06-2.25,0.22-4.5-.74-8.78-2.6-11.12" transform="translate(0 0)" style="fill:#fff"/><path d="M18,40.11a16,16,0,0,1-3.24-.31c-2.78-.58-3.68-2-3.71-2v0c-0.13-.24-0.25-0.5-0.36-0.76v0a19.05,19.05,0,0,1-1.41-6.57,13.4,13.4,0,0,1,1.31-7c0.56-1,3.16-1.94,5.11-2.06a24.11,24.11,0,0,1,7.63.9L25,22.69a6.33,6.33,0,0,1,5.56-2.77,7.23,7.23,0,0,1,3.39.88,5.49,5.49,0,0,1,1.21.87v0a12.3,12.3,0,0,1,2.12,4.84,23.86,23.86,0,0,1,.52,6.43,2.15,2.15,0,0,1-1.27,1.46,9.14,9.14,0,0,1-4,1,35.65,35.65,0,0,1-6.82-.5l-0.14,0a31.43,31.43,0,0,0-6.95-.39,15.91,15.91,0,0,0-2.76.44l6.44,4.64-0.46.11a16.4,16.4,0,0,1-2.19.33c-0.47,0-1,.07-1.67.07m-6.58-2.55a5.45,5.45,0,0,0,3.43,1.81,17.77,17.77,0,0,0,6.43,0l-6.39-4.61,0.43-.12a16.38,16.38,0,0,1,3.29-.58,31.75,31.75,0,0,1,7,.39l0.14,0a35.86,35.86,0,0,0,6.73.49A8.71,8.71,0,0,0,36.29,34a1.82,1.82,0,0,0,1.05-1.1c0.22-4.51-.76-8.71-2.54-11a5.27,5.27,0,0,0-1.11-.79,6.79,6.79,0,0,0-3.17-.82h-0.1A5.89,5.89,0,0,0,25.24,23l-0.08.13-0.15,0-1.85-.45a23.68,23.68,0,0,0-7.49-.89,10.19,10.19,0,0,0-3,.67,3.66,3.66,0,0,0-1.77,1.16A13,13,0,0,0,9.65,30.4,18.67,18.67,0,0,0,11,36.8v0c0.11,0.26.23,0.51,0.35,0.74" transform="translate(0 0)" style="fill:#fff"/><path d="M35,21.82a6.6,6.6,0,0,0-4.44-1.69,6.07,6.07,0,0,0-5.88,3.58l11.18,0.77Z" transform="translate(0 0)" style="fill:#ed1d24"/><path d="M11.19,37.67S12,39,14.77,39.58a17.91,17.91,0,0,0,7-.09L15,34.6l-3.77,0-0.42,1.7,0,0.64Z" transform="translate(0 0)" style="fill:#ed1d24"/><path d="M35.1,29.1a12,12,0,1,1-12-12,12,12,0,0,1,12,12" transform="translate(0 0)" style="fill:#fde619"/><path d="M23.06,41.31a12.17,12.17,0,1,1,4.75-1,12.13,12.13,0,0,1-4.75,1m0-24.09A11.88,11.88,0,1,0,34.93,29.1,11.89,11.89,0,0,0,23.06,17.22" transform="translate(0 0)" style="fill:#fff"/><path d="M30.89,23.3A23.08,23.08,0,0,1,23,22.16s6.37,11.16,7.85,11.41l6.25-.62c0.32-4.49-.62-8.74-2.43-11.12-0.17.49-.65,1.32-3.74,1.49" transform="translate(0 0)" style="fill:#fde619"/><path d="M11.51,23.67a13,13,0,0,0-1.44,6.84c0.1,2.81.44,5.69,1.65,7.24,0.33-1.81,4.34-3,7.41-3.15a31.89,31.89,0,0,1,7.12.57Z" transform="translate(0 0)" style="fill:#fde619"/><path d="M31.36,23.56a24.46,24.46,0,0,1-8.15-1.07,23.66,23.66,0,0,0-7.56-.89c-2.05.12-4.46,1.06-4.94,1.94a13,13,0,0,0-1.28,6.87,17.79,17.79,0,0,0,1.76,7.26c0.29-1.82,4.33-3.18,7.4-3.38a31.83,31.83,0,0,1,7.13.41,35.76,35.76,0,0,0,6.78.49c3.68-.22,5-1.63,5.06-2.25,0.22-4.5-.74-8.78-2.6-11.12,0,0.55-.52,1.5-3.6,1.74" transform="translate(0 0)" style="fill:#ed1d24"/><path d="M31.35,23.21H32.7a5.18,5.18,0,0,1-.4.79,1.86,1.86,0,0,1-1.51.63,1.05,1.05,0,0,0,.34-0.56c0.06-.21.22-0.85,0.22-0.85" transform="translate(0 0)" style="fill:#e20613"/><path d="M30.69,24.67l0.08-.07A1,1,0,0,0,31.1,24c0.06-.21.21-0.84,0.22-0.85v0h1.43l0,0a4.94,4.94,0,0,1-.4.8,1.83,1.83,0,0,1-1.49.64H30.69Zm0.69-1.42c0,0.13-.16.64-0.21,0.82a1.07,1.07,0,0,1-.28.51,1.73,1.73,0,0,0,1.39-.6,4.89,4.89,0,0,0,.37-0.73H31.38Z" transform="translate(0 0)" style="fill:#e20613"/><path d="M15.66,32.79c-0.28,0-1,0-1.39,0l2.28-9.94H13.84a4.23,4.23,0,0,1-.18,1.85c-0.23,1.1-2.16,9.55-2.16,9.55a19,19,0,0,1,3-.2c1.78,0,4.79.51,5.95,0.51s1.9-.07,2.28-1A8,8,0,0,0,23,32.7a6.86,6.86,0,0,1-2.51.29c-1.58,0-3.61-.19-4.87-0.19M28.44,25s-0.67,3-.79,3.48c-0.28,1.17-.84,2.25-1.56,2.25-0.49,0-.42-0.69-0.3-1.32,0.08-.43,1-4.4,1-4.4h-2s-0.87,3.65-1,4.22l0,0.15a2.53,2.53,0,0,1-1.34,1.38c-0.33,0-.36-0.48-0.24-1S23.22,25,23.23,25H21.35l-0.09.45A1.37,1.37,0,0,0,20,24.82c-2.42,0-3.92,2.83-3.92,4.87C16.1,31.37,17,32,18,32a3.13,3.13,0,0,0,2.12-1.3A1.34,1.34,0,0,0,21.52,32a3,3,0,0,0,2.19-1.26A1.39,1.39,0,0,0,25.17,32a2.71,2.71,0,0,0,1.8-.79c0,0.09-.12.49-0.23,1-1.41.73-3.58,2-3.58,3.73a1.75,1.75,0,0,0,2,1.75c0.9,0,2.55-.31,3.23-3.19C28.49,33.82,30.5,25,30.5,25H28.44Zm-7.66,1.77c-0.33,1.87-1,3.87-2,3.87-0.35,0-.54-0.26-0.54-1.06s0.8-3.82,2-3.82a0.75,0.75,0,0,1,.62,1m5.41,7.77c-0.23,1-.52,2.1-1.13,2.1a0.62,0.62,0,0,1-.59-0.71c0-1.23,1.12-2.14,2-2.74-0.15.64-.27,1.21-0.31,1.34m7.19-8.86c0.46,0,.84.42,1.36,0.42a1.21,1.21,0,0,0,1.06-.91A4.65,4.65,0,0,0,34,24.83c-2.18,0-3.17,1.22-3.17,2.19s0.53,1.33,1.22,1.91,1.3,0.88,1.3,1.56a0.71,0.71,0,0,1-.83.6c-0.59,0-1.07-.57-1.73-0.57a1.2,1.2,0,0,0-1.07.81A3.31,3.31,0,0,0,31.9,32c2.23,0,3.1-1.33,3.1-2.27s-0.73-1.46-1.47-2.08a2.5,2.5,0,0,1-1.06-1.22,0.8,0.8,0,0,1,.9-0.72" transform="translate(0 0)" style="fill:#ed1d24"/><path d="M36,31.12a0.4,0.4,0,1,1-.39-0.35,0.37,0.37,0,0,1,.39.35m-0.72,0a0.31,0.31,0,0,0,.33.29,0.3,0.3,0,1,0,0-.59,0.31,0.31,0,0,0-.33.29m0.18-.19h0.15a0.12,0.12,0,0,1,.15.1,0.09,0.09,0,0,1-.08.09c0.06,0,.06,0,0.07.09a0.36,0.36,0,0,0,0,.1H35.73l0-.12a0,0,0,0,0,0,0H35.59v0.16H35.5V30.92Zm0.08,0.17h0.07A0.06,0.06,0,0,0,35.72,31,0.05,0.05,0,0,0,35.65,31H35.58v0.11Z" transform="translate(0 0)" style="fill:#fff"/><path d="M31.15,23.07H32.5a5.14,5.14,0,0,1-.4.79,1.86,1.86,0,0,1-1.51.63,1.06,1.06,0,0,0,.34-0.56c0.06-.21.21-0.85,0.21-0.85" transform="translate(0 0)" style="fill:#fff"/><path d="M30.19,24.65l0.3-.28a0.93,0.93,0,0,0,.3-0.5C30.85,23.67,31,23,31,23l0-.11h1.68l-0.08.2a5.22,5.22,0,0,1-.41.82,2,2,0,0,1-1.57.68Zm1.07-1.44c0,0.19-.14.58-0.19,0.74a1.38,1.38,0,0,1-.15.35A1.45,1.45,0,0,0,32,23.77a3.81,3.81,0,0,0,.3-0.56h-1Z" transform="translate(0 0)" style="fill:#da0812"/><path d="M15.35,32.55c-0.27,0-1,0-1.39,0l2.28-9.94H13.52a4.23,4.23,0,0,1-.18,1.85C13.12,25.59,11.19,34,11.19,34a19,19,0,0,1,3-.2c1.78,0,4.79.51,5.95,0.51s1.9-.07,2.29-1a7.82,7.82,0,0,0,.34-0.93,6.86,6.86,0,0,1-2.51.29c-1.58,0-3.61-.19-4.87-0.19m12.78-7.79s-0.67,3-.8,3.48c-0.28,1.17-.84,2.25-1.56,2.25-0.49,0-.42-0.69-0.3-1.32,0.08-.43,1-4.4,1-4.4h-2s-0.87,3.65-1,4.22l0,0.15a2.53,2.53,0,0,1-1.34,1.38c-0.33,0-.36-0.48-0.24-1s1.06-4.68,1.07-4.71H21l-0.09.45a1.37,1.37,0,0,0-1.23-.63c-2.41,0-3.93,2.83-3.93,4.87,0,1.69.92,2.3,1.88,2.3a3.13,3.13,0,0,0,2.12-1.3,1.35,1.35,0,0,0,1.43,1.3,3,3,0,0,0,2.19-1.27,1.39,1.39,0,0,0,1.46,1.27,2.71,2.71,0,0,0,1.8-.79c0,0.08-.12.49-0.23,1-1.41.73-3.58,2-3.58,3.73a1.75,1.75,0,0,0,2,1.75c0.9,0,2.55-.31,3.22-3.19,0.15-.66,2.16-9.47,2.16-9.47H28.13Zm-7.66,1.77c-0.33,1.87-1,3.87-2,3.87-0.35,0-.54-0.26-0.54-1.06s0.8-3.82,2-3.82a0.75,0.75,0,0,1,.62,1m5.41,7.77c-0.23,1-.52,2.1-1.13,2.1a0.62,0.62,0,0,1-.59-0.71c0-1.23,1.12-2.14,2-2.74L25.87,34.3m7.24-8.86c0.46,0,.84.42,1.36,0.42A1.21,1.21,0,0,0,35.54,25a4.65,4.65,0,0,0-1.84-.36c-2.18,0-3.17,1.22-3.17,2.19s0.53,1.33,1.22,1.91S33,29.58,33,30.26a0.71,0.71,0,0,1-.82.6c-0.59,0-1.07-.57-1.73-0.57a1.2,1.2,0,0,0-1.07.81,3.31,3.31,0,0,0,2.22.64c2.23,0,3.1-1.33,3.1-2.27S34,28,33.27,27.38a2.5,2.5,0,0,1-1.06-1.22,0.8,0.8,0,0,1,.9-0.72" transform="translate(0 0)" style="fill:#fff"/><path d="M24.79,37.49a1.82,1.82,0,0,1-2-1.81c0-1.69,1.91-2.91,3.59-3.77l0.18-.78a2.61,2.61,0,0,1-1.69.68,1.43,1.43,0,0,1-1.49-1.19A2.88,2.88,0,0,1,21.2,31.8a1.39,1.39,0,0,1-1.46-1.23,3,3,0,0,1-2.08,1.23,1.8,1.8,0,0,1-1.34-.53,2.54,2.54,0,0,1-.6-1.82c0-2.06,1.52-4.93,4-4.93a1.55,1.55,0,0,1,1.2.53L21,24.7h2l0,0.08S22,29,21.9,29.48a1.25,1.25,0,0,0,0,.89,0.19,0.19,0,0,0,.16.07,2.48,2.48,0,0,0,1.28-1.34l0-.14c0.12-.57,1-4.18,1-4.22v0h2.17l0,0.08s-0.93,4-1,4.4a1.74,1.74,0,0,0,0,1.15,0.27,0.27,0,0,0,.22.09c0.71,0,1.24-1.14,1.5-2.2,0.12-.49.79-3.45,0.8-3.48v0h2.18l0,0.07c0,0.09-2,8.82-2.17,9.47A4.45,4.45,0,0,1,26.53,37a2.87,2.87,0,0,1-1.73.52m2-6.72L26.71,31c0,0.09-.14.58-0.23,1v0h0c-1.65.85-3.55,2-3.55,3.68a1.7,1.7,0,0,0,1.9,1.69c1.61,0,2.68-1.06,3.17-3.15,0.14-.62,2-8.54,2.15-9.4H28.18c-0.09.39-.67,3-0.78,3.43a5.41,5.41,0,0,1-.62,1.58,1.25,1.25,0,0,1-1,.71,0.39,0.39,0,0,1-.32-0.14,1.76,1.76,0,0,1,0-1.25c0.08-.39.87-3.78,1-4.33H24.5c-0.1.43-.87,3.64-1,4.17l0,0.15h0c-0.13.24-.81,1.41-1.4,1.41a0.31,0.31,0,0,1-.25-0.12,1.36,1.36,0,0,1-.05-1c0.08-.4.92-4.06,1.05-4.64H21.08L21,25.4l-0.08-.17a1.3,1.3,0,0,0-1.18-.59,3.49,3.49,0,0,0-2.82,1.64,5.79,5.79,0,0,0-1,3.16c0,1.4.68,2.23,1.81,2.23a2.9,2.9,0,0,0,2-1.19l0.08-.09,0.09-.1,0,0.13a1.28,1.28,0,0,0,1.36,1.25,2.83,2.83,0,0,0,2.15-1.24l0.08-.1,0,0.13a1.32,1.32,0,0,0,1.4,1.22,2.6,2.6,0,0,0,1.72-.74Zm-2,5.7a0.68,0.68,0,0,1-.65-0.77c0-1.28,1.17-2.2,2-2.79l0.13-.08-0.09.41-0.25,1.08c-0.23,1-.52,2.15-1.19,2.15m1.34-3.37c-0.84.57-1.87,1.44-1.87,2.6a0.57,0.57,0,0,0,.52.64c0.57,0,.86-1.19,1.07-2.06l0.25-1.08Zm-6,1.31c-0.52,0-1.39-.1-2.4-0.22a35.34,35.34,0,0,0-3.55-.3,19,19,0,0,0-2.94.2l-0.1,0,0-.1c0-.08,1.93-8.46,2.16-9.55a4.12,4.12,0,0,0,.18-1.83V22.57h2.87L14,32.51c0.37,0,1,0,1.3,0h0c0.59,0,1.36,0,2.17.09s1.86,0.1,2.7.1a6.88,6.88,0,0,0,2.49-.28l0.12,0,0,0.13a8.13,8.13,0,0,1-.34.93c-0.4.93-1.26,1-2.34,1m-5.95-.64a35.25,35.25,0,0,1,3.57.3c1,0.11,1.87.22,2.38,0.22,1.07,0,1.86-.07,2.23-0.93a7.91,7.91,0,0,0,.3-0.8,7.67,7.67,0,0,1-2.41.25c-0.84,0-1.79-.05-2.7-0.1s-1.57-.09-2.16-0.09h0c-0.28,0-1,0-1.37,0H13.88l2.28-9.95H13.6a4.63,4.63,0,0,1-.19,1.8c-0.21,1-1.93,8.53-2.14,9.46a20.79,20.79,0,0,1,2.88-.19m17.49-2a3.31,3.31,0,0,1-2.26-.65l0,0v0a1.26,1.26,0,0,1,1.13-.85,2.07,2.07,0,0,1,.94.3,1.8,1.8,0,0,0,.79.26A0.65,0.65,0,0,0,33,30.26a1.62,1.62,0,0,0-.87-1.19l-0.41-.33-0.23-.19a2,2,0,0,1-1-1.77,2,2,0,0,1,.79-1.51,3.74,3.74,0,0,1,2.44-.75,4.69,4.69,0,0,1,1.87.37l0,0,0,0a1.26,1.26,0,0,1-1.12,1,1.73,1.73,0,0,1-.76-0.23,1.43,1.43,0,0,0-.61-0.19,0.74,0.74,0,0,0-.84.66,2.21,2.21,0,0,0,1,1.12l0.08,0.06,0.15,0.13a2.76,2.76,0,0,1,1.33,2A2.14,2.14,0,0,1,34.07,31a3.49,3.49,0,0,1-2.43.8m-2.15-.72a3.25,3.25,0,0,0,2.15.6c2.23,0,3-1.32,3-2.21a2.67,2.67,0,0,0-1.29-1.91l-0.15-.13-0.07-.05a2.12,2.12,0,0,1-1-1.22,0.86,0.86,0,0,1,1-.78,1.55,1.55,0,0,1,.66.21,1.63,1.63,0,0,0,.7.21,1.12,1.12,0,0,0,1-.82,4.81,4.81,0,0,0-1.76-.33c-2.27,0-3.11,1.31-3.11,2.13a1.93,1.93,0,0,0,1,1.67l0.23,0.19L32.19,29a1.73,1.73,0,0,1,.92,1.29,0.77,0.77,0,0,1-.88.66,1.92,1.92,0,0,1-.85-0.28,2,2,0,0,0-.89-0.29,1.13,1.13,0,0,0-1,.73m-11.07-.62c-0.41,0-.6-0.35-0.6-1.13a7.37,7.37,0,0,1,.55-2.26c0.3-.74.8-1.62,1.47-1.62a0.64,0.64,0,0,1,.51.22,1.08,1.08,0,0,1,.17.86c-0.21,1.18-.82,3.92-2.1,3.92m1.43-4.89c-1.09,0-1.9,2.88-1.9,3.76s0.24,1,.47,1a1.63,1.63,0,0,0,1.24-1.2,11.34,11.34,0,0,0,.75-2.62,1,1,0,0,0-.14-0.76,0.52,0.52,0,0,0-.41-0.18" transform="translate(0 0)" style="fill:#da0812"/><path d="M15.35,32.55c-0.27,0-1,0-1.39,0l2.28-9.94H13.52a4.23,4.23,0,0,1-.18,1.85C13.12,25.59,11.19,34,11.19,34a19,19,0,0,1,3-.2c1.78,0,4.79.51,5.95,0.51s1.9-.07,2.29-1a7.82,7.82,0,0,0,.34-0.93,6.86,6.86,0,0,1-2.51.29c-1.58,0-3.61-.19-4.87-0.19m12.78-7.79s-0.67,3-.8,3.48c-0.28,1.17-.84,2.25-1.56,2.25-0.49,0-.42-0.69-0.3-1.32,0.08-.43,1-4.4,1-4.4h-2s-0.87,3.65-1,4.22l0,0.15a2.53,2.53,0,0,1-1.34,1.38c-0.33,0-.36-0.48-0.24-1s1.06-4.68,1.07-4.71H21l-0.09.45a1.37,1.37,0,0,0-1.23-.63c-2.41,0-3.93,2.83-3.93,4.87,0,1.69.92,2.3,1.88,2.3a3.13,3.13,0,0,0,2.12-1.3,1.35,1.35,0,0,0,1.43,1.3,3,3,0,0,0,2.19-1.27,1.39,1.39,0,0,0,1.46,1.27,2.71,2.71,0,0,0,1.8-.79c0,0.08-.12.49-0.23,1-1.41.73-3.58,2-3.58,3.73a1.75,1.75,0,0,0,2,1.75c0.9,0,2.55-.31,3.22-3.19,0.15-.66,2.16-9.47,2.16-9.47H28.13Zm-7.66,1.77c-0.33,1.87-1,3.87-2,3.87-0.35,0-.54-0.26-0.54-1.06s0.8-3.82,2-3.82a0.75,0.75,0,0,1,.62,1m5.41,7.77c-0.23,1-.52,2.1-1.13,2.1a0.62,0.62,0,0,1-.59-0.71c0-1.23,1.12-2.14,2-2.74L25.87,34.3m7.24-8.86c0.46,0,.84.42,1.36,0.42A1.21,1.21,0,0,0,35.54,25a4.65,4.65,0,0,0-1.84-.36c-2.18,0-3.17,1.22-3.17,2.19s0.53,1.33,1.22,1.91S33,29.58,33,30.26a0.71,0.71,0,0,1-.82.6c-0.59,0-1.07-.57-1.73-0.57a1.2,1.2,0,0,0-1.07.81,3.31,3.31,0,0,0,2.22.64c2.23,0,3.1-1.33,3.1-2.27S34,28,33.27,27.38a2.5,2.5,0,0,1-1.06-1.22,0.8,0.8,0,0,1,.9-0.72" transform="translate(0 0)" style="fill:#fff"/><path d="M24.79,37.57a2.34,2.34,0,0,1-1.46-.45,1.77,1.77,0,0,1-.65-1.44c0-1.73,1.91-3,3.6-3.83l0.12-.51a2.57,2.57,0,0,1-1.55.55,1.49,1.49,0,0,1-1.53-1.1,2.88,2.88,0,0,1-2.12,1.1,1.44,1.44,0,0,1-1.51-1.13,2.94,2.94,0,0,1-2,1.13,1.89,1.89,0,0,1-1.4-.56,2.62,2.62,0,0,1-.62-1.88c0-2.09,1.55-5,4.07-5a1.71,1.71,0,0,1,1.16.43l0-.24H23.1l0,0.18S22.08,29,22,29.5a1.18,1.18,0,0,0,0,.82,0.1,0.1,0,0,0,.09,0,2.37,2.37,0,0,0,1.2-1.28l0-.13c0.12-.57,1-4.18,1-4.22l0-.11h2.34l0,0.18s-0.93,4-1,4.4a1.9,1.9,0,0,0,0,1.08,0.19,0.19,0,0,0,.16.06c0.54,0,1.1-.84,1.41-2.14,0.12-.49.79-3.45,0.79-3.48l0-.11h2.35l0,0.18c0,0.09-2,8.82-2.16,9.47A4.54,4.54,0,0,1,26.57,37a3,3,0,0,1-1.78.54m2.12-7L26.79,31c0,0.09-.14.58-0.23,1l0,0.07-0.06,0c-1.63.84-3.5,2-3.5,3.6a1.61,1.61,0,0,0,1.81,1.6c1.57,0,2.61-1,3.08-3.08,0.14-.6,1.84-8,2.12-9.29H28.24c-0.12.55-.66,2.93-0.77,3.37s-0.66,2.36-1.7,2.36a0.48,0.48,0,0,1-.38-0.17,1.79,1.79,0,0,1-.06-1.32c0.07-.38.79-3.44,1-4.23H24.56c-0.15.62-.86,3.6-1,4.1l0,0.15v0c-0.19.34-.85,1.46-1.47,1.46a0.39,0.39,0,0,1-.32-0.15,1.34,1.34,0,0,1-.07-1.06c0.08-.39.84-3.72,1-4.54H21.15L21,25.67l-0.18-.41a1.24,1.24,0,0,0-1.1-.54A3.4,3.4,0,0,0,17,26.33a5.71,5.71,0,0,0-1,3.11c0,1.94,1.21,2.15,1.73,2.15a2.83,2.83,0,0,0,1.93-1.16l0.08-.09,0.21-.23,0,0.31a1.21,1.21,0,0,0,1.28,1.17,2.76,2.76,0,0,0,2.08-1.21l0.2-.24,0.06,0.31a1.25,1.25,0,0,0,1.32,1.15,2.53,2.53,0,0,0,1.66-.72Zm-2.17,6A0.76,0.76,0,0,1,24,35.7c0-1.32,1.19-2.26,2.09-2.86l0.3-.2-0.14.62L26,34.33c-0.24,1-.53,2.22-1.27,2.22M26,33.29A3.27,3.27,0,0,0,24.3,35.7a0.49,0.49,0,0,0,.44.56c0.51,0,.8-1.2,1-2l0.22-1m-5.86,1.2c-0.53,0-1.4-.1-2.41-0.22a35.21,35.21,0,0,0-3.54-.3,19,19,0,0,0-2.93.2L11,34.23,11,34c0-.08,1.93-8.46,2.16-9.55a4.09,4.09,0,0,0,.18-1.79l0-.17h3.08l-2.28,9.93c0.38,0,1,0,1.19,0h0c0.6,0,1.36,0,2.17.09s1.86,0.1,2.69.1a6.83,6.83,0,0,0,2.45-.28l0.29-.12-0.09.29a8.22,8.22,0,0,1-.35.94c-0.42,1-1.31,1.05-2.42,1.05m-5.95-.81a35.12,35.12,0,0,1,3.58.3c1,0.11,1.86.22,2.37,0.22,1,0,1.8-.06,2.15-0.88,0.11-.26.19-0.45,0.25-0.64a8.74,8.74,0,0,1-2.28.2c-0.84,0-1.79-.05-2.71-0.1s-1.57-.09-2.16-0.09h0c-0.28,0-1,0-1.36,0l-0.2,0,2.28-10H13.69a5.21,5.21,0,0,1-.2,1.74c-0.21,1-1.81,8-2.11,9.34a22.23,22.23,0,0,1,2.77-.17m17.49-1.81a3.38,3.38,0,0,1-2.31-.68l-0.08-.07,0-.09a1.34,1.34,0,0,1,1.2-.9,2.13,2.13,0,0,1,1,.31,1.73,1.73,0,0,0,.75.26,0.57,0.57,0,0,0,.68-0.46,1.54,1.54,0,0,0-.84-1.12l-0.41-.33-0.23-.19a2.11,2.11,0,0,1-1-1.83,2.08,2.08,0,0,1,.82-1.57,3.82,3.82,0,0,1,2.5-.77,4.76,4.76,0,0,1,1.91.38l0.11,0.06,0,0.12a1.36,1.36,0,0,1-1.2,1,1.79,1.79,0,0,1-.79-0.24,1.39,1.39,0,0,0-.57-0.19,0.66,0.66,0,0,0-.75.57,1.88,1.88,0,0,0,.92,1l0.08,0.06,0.15,0.13a2.82,2.82,0,0,1,1.37,2.07,2.22,2.22,0,0,1-.76,1.59,3.57,3.57,0,0,1-2.48.82m-2-.83a3.25,3.25,0,0,0,2,.54c2.17,0,3-1.27,3-2.12a2.57,2.57,0,0,0-1.26-1.84l-0.15-.13-0.07-.05a2.16,2.16,0,0,1-1-1.28,1,1,0,0,1,1-.86,1.61,1.61,0,0,1,.7.21,1.54,1.54,0,0,0,.67.21A1,1,0,0,0,35.36,25a4.86,4.86,0,0,0-1.66-.29c-2.21,0-3,1.26-3,2a1.83,1.83,0,0,0,.93,1.61l0.23,0.2,0.41,0.32a1.78,1.78,0,0,1,.95,1.35,0.85,0.85,0,0,1-1,.74,2,2,0,0,1-.89-0.29,1.88,1.88,0,0,0-.85-0.28,1,1,0,0,0-.89.62m-11.18-.51c-0.6,0-.68-0.65-0.68-1.21A7.46,7.46,0,0,1,18.3,27c0.31-.76.83-1.67,1.55-1.67a0.72,0.72,0,0,1,.57.25,1.16,1.16,0,0,1,.19.93,11.48,11.48,0,0,1-.76,2.67,1.8,1.8,0,0,1-1.42,1.32m1.43-4.89c-1,0-1.82,2.78-1.82,3.68s0.26,0.92.39,0.92a1.66,1.66,0,0,0,1.16-1.15,11.21,11.21,0,0,0,.74-2.6,0.89,0.89,0,0,0-.12-0.7,0.43,0.43,0,0,0-.35-0.15" transform="translate(0 0)" style="fill:#da0812"/><path d="M15.35,32.55c-0.27,0-1,0-1.39,0l2.28-9.94H13.52a4.23,4.23,0,0,1-.18,1.85C13.12,25.59,11.19,34,11.19,34a19,19,0,0,1,3-.2c1.78,0,4.79.51,5.95,0.51s1.9-.07,2.29-1a7.82,7.82,0,0,0,.34-0.93,6.86,6.86,0,0,1-2.51.29c-1.58,0-3.61-.19-4.87-0.19m12.78-7.79s-0.67,3-.8,3.48c-0.28,1.17-.84,2.25-1.56,2.25-0.49,0-.42-0.69-0.3-1.32,0.08-.43,1-4.4,1-4.4h-2s-0.87,3.65-1,4.22l0,0.15a2.53,2.53,0,0,1-1.34,1.38c-0.33,0-.36-0.48-0.24-1s1.06-4.68,1.07-4.71H21l-0.09.45a1.37,1.37,0,0,0-1.23-.63c-2.41,0-3.93,2.83-3.93,4.87,0,1.69.92,2.3,1.88,2.3a3.13,3.13,0,0,0,2.12-1.3,1.35,1.35,0,0,0,1.43,1.3,3,3,0,0,0,2.19-1.27,1.39,1.39,0,0,0,1.46,1.27,2.71,2.71,0,0,0,1.8-.79c0,0.08-.12.49-0.23,1-1.41.73-3.58,2-3.58,3.73a1.75,1.75,0,0,0,2,1.75c0.9,0,2.55-.31,3.22-3.19,0.15-.66,2.16-9.47,2.16-9.47H28.13Zm-7.66,1.77c-0.33,1.87-1,3.87-2,3.87-0.35,0-.54-0.26-0.54-1.06s0.8-3.82,2-3.82a0.75,0.75,0,0,1,.62,1m5.41,7.77c-0.23,1-.52,2.1-1.13,2.1a0.62,0.62,0,0,1-.59-0.71c0-1.23,1.12-2.14,2-2.74L25.87,34.3m7.24-8.86c0.46,0,.84.42,1.36,0.42A1.21,1.21,0,0,0,35.54,25a4.65,4.65,0,0,0-1.84-.36c-2.18,0-3.17,1.22-3.17,2.19s0.53,1.33,1.22,1.91S33,29.58,33,30.26a0.71,0.71,0,0,1-.82.6c-0.59,0-1.07-.57-1.73-0.57a1.2,1.2,0,0,0-1.07.81,3.31,3.31,0,0,0,2.22.64c2.23,0,3.1-1.33,3.1-2.27S34,28,33.27,27.38a2.5,2.5,0,0,1-1.06-1.22,0.8,0.8,0,0,1,.9-0.72" transform="translate(0 0)" style="fill:#fff"/><path d="M31.15,23.07H32.5a5.14,5.14,0,0,1-.4.79,1.86,1.86,0,0,1-1.51.63,1.06,1.06,0,0,0,.34-0.56c0.06-.21.21-0.85,0.21-0.85" transform="translate(0 0)" style="fill:#fff"/></g></svg>