<svg id="Слой_1" data-name="Слой 1" xmlns="http://www.w3.org/2000/svg" viewBox="0 0 174 66"><title>stage-2</title><path d="M58.91,43.88A1.45,1.45,0,0,0,58,43.2l-5.36-1.43a1.47,1.47,0,0,0-1.79,1L45.48,62.74a1.44,1.44,0,0,0,.15,1.1,1.45,1.45,0,0,0,.89.68l5.36,1.42a1.47,1.47,0,0,0,1.79-1L59.05,45a1.43,1.43,0,0,0-.15-1.1" style="fill:#b1181e"/><path d="M13.13,42.8a1.44,1.44,0,0,0-.68-0.88,1.46,1.46,0,0,0-1.11-.15L6,43.2a1.45,1.45,0,0,0-.89.68A1.43,1.43,0,0,0,4.94,45l5.39,19.94a1.47,1.47,0,0,0,1.79,1l5.36-1.42a1.46,1.46,0,0,0,.89-0.68,1.44,1.44,0,0,0,.15-1.1Z" style="fill:#b1181e"/><path d="M2.17,48.23A2.91,2.91,0,0,0,.1,51.79l2.6,9.63a2.94,2.94,0,0,0,3.59,2.05l0.58-.15L2.75,48.08Z" style="fill:#b1181e"/><path d="M61.83,48.23l-0.58-.15L57.13,63.33l0.58,0.15a2.94,2.94,0,0,0,3.59-2.05l2.6-9.63a2.91,2.91,0,0,0-2.07-3.56" style="fill:#b1181e"/><path d="M54.73,33.92a22.44,22.44,0,0,1-.62,5.23l4.24,1.13a26.72,26.72,0,0,0,.78-6.36,27.13,27.13,0,0,0-54.25,0,26.72,26.72,0,0,0,.78,6.36l4.24-1.13a22.71,22.71,0,1,1,44.85-5.23" style="fill:#e51e0b"/><path d="M124,54H87.14a10.38,10.38,0,0,0-6.69,2.92L74.8,63.08C73.33,64.69,73.94,66,76.15,66h95.7c2.21,0,2.82-1.31,1.34-2.92l-5.64-6.16A10.38,10.38,0,0,0,160.86,54H124" style="fill:#b1181e"/><path d="M124,50H86.27A3.28,3.28,0,0,1,83,46.73V3.27A3.28,3.28,0,0,1,86.27,0h75.45A3.28,3.28,0,0,1,165,3.27V46.73A3.28,3.28,0,0,1,161.73,50H124" style="fill:#e51e0b"/><path d="M124,4a2,2,0,1,1-2,2,2,2,0,0,1,2-2" style="fill:#fff"/></svg>