<svg id="Слой_1" data-name="Слой 1" xmlns="http://www.w3.org/2000/svg" viewBox="0 0 70 70"><title>stage-3</title><rect width="70" height="36" style="fill:#e51e0b"/><path d="M49,18A14,14,0,1,1,35,4,14,14,0,0,1,49,18" style="fill:#fff"/><path d="M29.82,9.66a11.27,11.27,0,0,1,2.25-.53A16,16,0,0,1,34.39,9a12.76,12.76,0,0,1,1.37.12,7.2,7.2,0,0,1,1.34.32l0.59,0.2L38,9.77l0.31,0.17,0.5,0.32,0.23,0.14a1.31,1.31,0,0,1,.2.16l0.14,0.15L39.69,11,40,11.36a2.09,2.09,0,0,1,.17.23,3,3,0,0,1,.16.39l0.13,0.4,0.09,0.24a1.49,1.49,0,0,1,.07.24,3.59,3.59,0,0,1-.06,1.41A4.62,4.62,0,0,1,40,15.55h2V17.6H38.21q-0.57.51-1.16,1l-1.14.89H42v2.06H33.62a3.07,3.07,0,0,0-.32.55,0.74,0.74,0,0,0,0,.67,1.59,1.59,0,0,0,.46.55,3.27,3.27,0,0,0,1.37.6,8.11,8.11,0,0,0,1.48.11,12.11,12.11,0,0,0,1.51-.12c0.5-.07,1-0.17,1.49-0.28s1-.25,1.43-0.4l0.92,2.9a19.81,19.81,0,0,1-2.28.56,22.47,22.47,0,0,1-2.34.3,16.37,16.37,0,0,1-1.81,0,7.22,7.22,0,0,1-1.78-.31,7.91,7.91,0,0,1-1.15-.47,4.88,4.88,0,0,1-1-.67,4.56,4.56,0,0,1-1-1.24,3.46,3.46,0,0,1-.31-0.7,5.38,5.38,0,0,1-.16-0.74,3.73,3.73,0,0,1,.07-1.33H28V19.46h3.24a10,10,0,0,1,.94-1Q32.7,18,33.25,17.6H28V15.55h7.88c0.18-.16.36-0.33,0.54-0.51a5.65,5.65,0,0,0,.48-0.55,2.67,2.67,0,0,0,.34-0.57,1.47,1.47,0,0,0,.13-0.58c0-.1-0.08-0.21-0.12-0.33a1.92,1.92,0,0,0-.46-0.39,2.88,2.88,0,0,0-.54-0.26,4.31,4.31,0,0,0-.6-0.16L35,12.08a8.24,8.24,0,0,0-2.19,0,11,11,0,0,0-2.12.49Z" style="fill:#b1181e"/><rect y="43" width="70" height="5" style="fill:#b1181e"/><rect y="54" width="70" height="5" style="fill:#b1181e"/><rect y="65" width="70" height="5" style="fill:#b1181e"/></svg>