<svg id="Слой_1" data-name="Слой 1" xmlns="http://www.w3.org/2000/svg" viewBox="0 0 70 70"><title>stage-1</title><path d="M35,0A35,35,0,1,0,70,35,35,35,0,0,0,35,0" style="fill:#fff"/><path d="M16,36.33c0,3,.05,5.91,0,8.87,0,1-.25,2.16.94,2.4a28.3,28.3,0,0,0,3.91.26c2.94,0.16,5.91.3,8.85,0.21a37.51,37.51,0,0,1,4.19,0c1.46,0.12,2.88.49,4.33,0.69a25.59,25.59,0,0,0,7.41,0c2.08-.33,4.53-1.14,5.33-3.31a2.87,2.87,0,0,0,.2-1.55,3,3,0,0,1-.46-1.18c0.12-.39.62-0.22,0.92-0.26a1.73,1.73,0,0,0,1.07-.6,3.74,3.74,0,0,0,.79-2.43,1.87,1.87,0,0,0-.38-1.32,4.69,4.69,0,0,1-1-.74c-0.31-.63,1.12-1.09,1.43-1.56a4,4,0,0,0,.34-2.55,2.3,2.3,0,0,0-1.47-2c-1.08-.47.36-0.7,0.77-1.15,1.21-1.34.32-4-1.15-4.73s-3.24-.49-4.78-0.32c-1.38.16-3.81,0.84-4.06-1.15a9.36,9.36,0,0,1,.57-3.33,9.79,9.79,0,0,0,.31-4.13A5.59,5.59,0,0,0,43,13.79a1.81,1.81,0,0,0-2.3-.55,2.77,2.77,0,0,0-.69,2A10.68,10.68,0,0,1,39,18.48a25.24,25.24,0,0,1-4.55,6,31,31,0,0,0-2.46,3,17.14,17.14,0,0,1-2.11,2.92C29,31.23,27.22,31,26.05,31c-1.39,0-2.78,0-4.16,0L18.12,31a1.62,1.62,0,0,0-1.89,1.16,16.76,16.76,0,0,0-.2,4.21" style="fill:#e51e0b;fill-rule:evenodd"/></svg>