<svg id="Слой_1" data-name="Слой 1" xmlns="http://www.w3.org/2000/svg" viewBox="0 0 51.26 51.26"><title>Фигура 8</title><path d="M41.46,7.08a1.4,1.4,0,0,1-2,.31,23.4,23.4,0,0,0-27.75,0,1.4,1.4,0,0,1-2-.31,1.42,1.42,0,0,1,.31-2,26.19,26.19,0,0,1,31.06,0A1.42,1.42,0,0,1,41.46,7.08ZM17.67,13.83A0.78,0.78,0,0,1,17,13.45a0.79,0.79,0,0,1,.27-1.08,16.27,16.27,0,0,1,16.71,0,0.79,0.79,0,0,1,.27,1.08,0.78,0.78,0,0,1-1.07.27,14.73,14.73,0,0,0-15.11,0A0.77,0.77,0,0,1,17.67,13.83Zm8-6.6A19,19,0,0,0,14.9,10.54a1.09,1.09,0,0,1-1.52-.29,1.11,1.11,0,0,1,.29-1.53,21.23,21.23,0,0,1,23.91,0,1.11,1.11,0,0,1,.29,1.53,1.09,1.09,0,0,1-1.52.29A19,19,0,0,0,25.63,7.23Z" style="fill:#0091ea"/></svg>