<svg id="Слой_1" data-name="Слой 1" xmlns="http://www.w3.org/2000/svg" xmlns:xlink="http://www.w3.org/1999/xlink" viewBox="0 0 95 174"><defs><clipPath id="clip-path" transform="translate(0 0)"><rect width="95" height="174" style="fill:none"/></clipPath><clipPath id="clip-path-3" transform="translate(0 0)"><rect width="95" height="164.87" style="fill:none"/></clipPath></defs><title>icon-1</title><g style="clip-path:url(#clip-path)"><g style="opacity:0.16999800503253937"><g style="clip-path:url(#clip-path)"><path d="M85.75,174H9.25A9.25,9.25,0,0,1,0,164.75V9.25A9.25,9.25,0,0,1,9.25,0h76.5A9.25,9.25,0,0,1,95,9.25v155.5A9.25,9.25,0,0,1,85.75,174" transform="translate(0 0)" style="fill:#fff"/></g></g><path d="M85.75,5A4.25,4.25,0,0,1,90,9.25v155.5A4.25,4.25,0,0,1,85.75,169H9.25A4.26,4.26,0,0,1,5,164.75V9.25A4.25,4.25,0,0,1,9.25,5h76.5m0-5H9.25A9.25,9.25,0,0,0,0,9.25v155.5A9.25,9.25,0,0,0,9.25,174h76.5A9.25,9.25,0,0,0,95,164.75V9.25A9.25,9.25,0,0,0,85.75,0" transform="translate(0 0)" style="fill:#fff"/><g style="opacity:0.19000199437141418"><g style="clip-path:url(#clip-path-3)"><path d="M0,9.25A9.25,9.25,0,0,1,9.25,0h76.5A9.25,9.25,0,0,1,95,9.25v155.5C95,169.86,0,9.25,0,9.25" transform="translate(0 0)" style="fill:#fff"/></g></g></g><path d="M14.31,89.86L19.43,89a1.87,1.87,0,0,0,1.92,1.85,2.1,2.1,0,0,0,1.93-1.17,6.55,6.55,0,0,0,.67-3.22q0-.23,0-0.6A4.41,4.41,0,0,1,20,87.83,6,6,0,0,1,15.55,86a6.2,6.2,0,0,1-1.77-4.56,6.44,6.44,0,0,1,2.09-5,7.94,7.94,0,0,1,5.6-1.93,7.24,7.24,0,0,1,6.11,2.67,11.22,11.22,0,0,1,2.07,7.05,13.29,13.29,0,0,1-2.15,7.85,7.32,7.32,0,0,1-6.39,3,7.18,7.18,0,0,1-4.59-1.43A6,6,0,0,1,14.31,89.86Zm7.09-6.28A2.24,2.24,0,0,0,23,83a2.28,2.28,0,0,0,.67-1.77A2.61,2.61,0,0,0,23,79.36a2,2,0,0,0-1.55-.67,2,2,0,0,0-1.5.63,2.59,2.59,0,0,0-.62,1.89,2.48,2.48,0,0,0,.58,1.74A1.91,1.91,0,0,0,21.4,83.58Z" transform="translate(0 0)" style="fill:#fff"/><path d="M47.31,74.91v3.75a22.38,22.38,0,0,0-3.75,6.83A23.62,23.62,0,0,0,42,93.64Q42,94,42,94.9H35.44a20.36,20.36,0,0,1,1.72-7.71,23.89,23.89,0,0,1,4.62-7.28H32.51l0.42-5H47.31Z" transform="translate(0 0)" style="fill:#fff"/><path d="M64.74,79.84H56.36l-0.23,2.83a6.18,6.18,0,0,1,3.6-1.13,6.53,6.53,0,0,1,4.56,1.79,6.17,6.17,0,0,1,1.95,4.78A6.48,6.48,0,0,1,64,93.23a8.51,8.51,0,0,1-5.8,2,8.87,8.87,0,0,1-5.33-1.62,6.79,6.79,0,0,1-2.76-4.52l5.16-.63A2.59,2.59,0,0,0,58,90.63a2.34,2.34,0,0,0,1.81-.7,2.43,2.43,0,0,0,.65-1.71,2.23,2.23,0,0,0-.75-1.79,2.79,2.79,0,0,0-4.12.62L51,86.39l0.88-11.48H65.27Z" transform="translate(0 0)" style="fill:#fff"/><path d="M84.84,90.51H82V94.9H76.52V90.51H68.34V86.16L75.87,74.6H82V86.16h2.81v4.35Zm-8.32-4.35v-6l-3.79,6h3.79Z" transform="translate(0 0)" style="fill:#fff"/><rect width="95" height="174" style="fill:none"/></svg>