<svg id="Слой_1" data-name="Слой 1" xmlns="http://www.w3.org/2000/svg" xmlns:xlink="http://www.w3.org/1999/xlink" viewBox="0 0 156.72 115.32"><defs><clipPath id="clip-path" transform="translate(0 0)"><rect x="32.96" width="123.75" height="98.25" style="fill:none"/></clipPath></defs><title>icon-4</title><path d="M81,91.69C47.66,89.57,21.55,71,21.55,48.41c0-6.63,2.3-13.39,6.33-19.73C10.11,35.52-.76,48.36,0,63.36c0,15.46,21.1,29.48,42.06,34.3,0,0,4.87,7.44-5.13,17.67,7.35-2.54,20.12-12.15,24.52-15.2,1.45-1,5.36-.66,5.84-0.68A73.21,73.21,0,0,0,90.6,94.21l-2.38-1.68s-6.59-.81-7.18-0.83" transform="translate(0 0)" style="fill:#fff"/><path d="M94.51,5c21,0,38.84,6.18,49.07,17,5.69,6,8.49,13.07,8.1,20.46v0.26c0,13.81-21.34,27.25-41.1,31.79l-2,.45-1.1,1.68a15.86,15.86,0,0,0-2,9.43c-3.44-2.29-6.67-4.6-8.89-6.18-1.1-.79-2.05-1.47-2.78-2l-0.71-.49-0.83-.23A31.8,31.8,0,0,0,85,76.27H84.93c-26.35-1.71-47-16-47-32.67C38,35,43.54,25.37,52.87,17.92A60.09,60.09,0,0,1,90.26,5.08h0.19C91.81,5,93.17,5,94.51,5m0-5c-1.4,0-2.82,0-4.25.08C58.63,0.08,33,22.73,33,43.61c0,19.67,22.72,35.81,51.75,37.66A28.18,28.18,0,0,1,91,82c4.7,3.27,18.37,13.55,26.22,16.26-10.7-10.94-5.49-18.9-5.49-18.9,22.42-5.14,45-20.13,45-36.66C157.93,18.85,131.79,0,94.51,0" transform="translate(0 0)" style="fill:#fff"/><g style="opacity:0.16999800503253937"><g style="clip-path:url(#clip-path)"><path d="M156.67,42.69C158,18,129.79-1.41,90.26.08,58.63,0.08,33,22.73,33,43.61c0,19.67,22.72,35.81,51.75,37.66A28.11,28.11,0,0,1,91,82c4.7,3.27,18.37,13.55,26.22,16.26-10.7-10.94-5.49-18.9-5.49-18.9,22.42-5.14,45-20.13,45-36.66" transform="translate(0 0)" style="fill:#fff"/></g></g></svg>