<svg id="Слой_1" data-name="Слой 1" xmlns="http://www.w3.org/2000/svg" viewBox="0 0 110.51 177.98"><title>icon-3</title><path d="M64,149.48V178l8.72-8.72L81.43,178v-28.5A22.69,22.69,0,0,1,64,149.48Z" style="fill:#fff"/><circle cx="72.7" cy="130.87" r="14.54" style="fill:#fff"/><g style="opacity:0.19"><path d="M81.43,40.71h29.08L75.61,0V34.9A5.83,5.83,0,0,0,81.43,40.71Z" style="fill:#fff"/></g><path d="M64.8,5V34.9A16.65,16.65,0,0,0,81.43,51.53h24.08v93.88A6.64,6.64,0,0,1,98.88,152H92.24v-5.27a24.17,24.17,0,0,0,5.82-15.91,25.36,25.36,0,0,0-50.71,0,25.32,25.32,0,0,0,5.82,15.89V152H11.63A6.64,6.64,0,0,1,5,145.41V11.63A6.64,6.64,0,0,1,11.63,5H64.8m5-5H11.63A11.67,11.67,0,0,0,0,11.63V145.41A11.67,11.67,0,0,0,11.63,157H58.16V144.82a20.31,20.31,0,0,1-5.82-14,20.36,20.36,0,0,1,40.71,0,19.26,19.26,0,0,1-5.82,14V157H98.88a11.67,11.67,0,0,0,11.63-11.63V46.53H81.43A11.67,11.67,0,0,1,69.8,34.9V0h0Z" style="fill:#fff"/><g style="opacity:0.17"><path d="M69.8,34.9V0H11.63A11.67,11.67,0,0,0,0,11.63V145.41A11.67,11.67,0,0,0,11.63,157H58.16V144.82a20.31,20.31,0,0,1-5.82-14,20.36,20.36,0,1,1,40.71,0,19.26,19.26,0,0,1-5.82,14V157H98.88a11.67,11.67,0,0,0,11.63-11.63V46.53H81.43A11.67,11.67,0,0,1,69.8,34.9Z" style="fill:#fff"/></g><rect x="17.45" y="23.27" width="40.71" height="5.82" style="fill:#fff"/><rect x="17.45" y="40.71" width="40.71" height="5.82" style="fill:#fff"/><rect x="17.45" y="93.06" width="75.61" height="5.82" style="fill:#fff"/><rect x="17.45" y="75.61" width="75.61" height="5.82" style="fill:#fff"/><rect x="17.45" y="58.16" width="75.61" height="5.82" style="fill:#fff"/></svg>