<svg id="Слой_1" data-name="Слой 1" xmlns="http://www.w3.org/2000/svg" viewBox="0 0 123.38 120.2"><title>icon-5</title><path d="M52.94,33.87L98.36,60.1,52.94,86.33v-15H5V48.92H52.94v-15m-2.34-6.71a2.66,2.66,0,0,0-2.66,2.66v14.1H2.66A2.66,2.66,0,0,0,0,46.57v27a2.66,2.66,0,0,0,2.66,2.66H47.94v14.1a2.66,2.66,0,0,0,4,2.31l52.45-30.28a2.66,2.66,0,0,0,0-4.6L51.92,27.51a2.66,2.66,0,0,0-1.33-.36h0Z" style="fill:#fff"/><g style="opacity:0.17"><path d="M51.92,92.69l52.45-30.28a2.66,2.66,0,0,0,0-4.6L51.92,27.51a2.66,2.66,0,0,0-4,2.3v14.1H2.66A2.66,2.66,0,0,0,0,46.57v27a2.66,2.66,0,0,0,2.66,2.66H47.94v14.1A2.66,2.66,0,0,0,51.92,92.69Z" style="fill:#fff"/></g><path d="M107.24,0H53.9V6.3h53.34a9.85,9.85,0,0,1,9.84,9.84v87.92a9.85,9.85,0,0,1-9.84,9.84H53.9v6.3h53.34a16.16,16.16,0,0,0,16.14-16.14V16.14A16.16,16.16,0,0,0,107.24,0Z" style="fill:#fff"/><path d="M123.38,104.06a16.16,16.16,0,0,1-16.14,16.14H53.9v-6.3h53.34a9.85,9.85,0,0,0,9.84-9.84V16.14a9.85,9.85,0,0,0-9.84-9.84H53.9V0h53.34a16.16,16.16,0,0,1,16.14,16.14v87.92Z" style="fill:#fff"/></svg>