<svg id="Слой_1" data-name="Слой 1" xmlns="http://www.w3.org/2000/svg" xmlns:xlink="http://www.w3.org/1999/xlink" viewBox="0 0 914.3 926.3"><defs><clipPath id="clip-path"><rect width="914.3" height="926.3" style="fill:none"/></clipPath></defs><title>icon-date</title><g style="clip-path:url(#clip-path)"><path d="M571.9,375.1H514.1a25,25,0,0,0-25,25v57.8a25,25,0,0,0,25,25h57.8a25,25,0,0,0,25-25V400.1a25,25,0,0,0-25-25" style="fill:#464646"/><path d="M743.7,375.1H685.9a25,25,0,0,0-25,25v57.8a25,25,0,0,0,25,25h57.8a25,25,0,0,0,25-25V400.1a24.94,24.94,0,0,0-25-25" style="fill:#464646"/><path d="M230,705.8H172.1a25,25,0,0,0-25,25v57.8a25,25,0,0,0,25,25h57.8a25,25,0,0,0,25-25V730.8a24.86,24.86,0,0,0-24.9-25" style="fill:#464646"/><path d="M401.8,705.8H344a25,25,0,0,0-25,25v57.8a25,25,0,0,0,25,25h57.8a25,25,0,0,0,25-25V730.8a25,25,0,0,0-25-25" style="fill:#464646"/><path d="M170.5,648h57.8a25,25,0,0,0,25-25V565.2a25,25,0,0,0-25-25H170.5a25,25,0,0,0-25,25V623a25,25,0,0,0,25,25" style="fill:#464646"/><path d="M342.3,648h57.8a25,25,0,0,0,25-25V565.2a25,25,0,0,0-25-25H342.3a25,25,0,0,0-25,25V623a25,25,0,0,0,25,25" style="fill:#464646"/><path d="M571.9,540.1H514.1a25,25,0,0,0-25,25v57.8a25,25,0,0,0,25,25h57.8a25,25,0,0,0,25-25V565.1a25,25,0,0,0-25-25" style="fill:#464646"/><path d="M743.7,540.1H685.9a25,25,0,0,0-25,25v57.8a25,25,0,0,0,25,25h57.8a25,25,0,0,0,25-25V565.1a25,25,0,0,0-25-25" style="fill:#464646"/><path d="M25,926.3H889.3a25,25,0,0,0,25-25V100.2a25,25,0,0,0-25-25H800.5v87.1a55.1,55.1,0,0,1-55,55H684.3a55.1,55.1,0,0,1-55-55V75.2H542.7v87.1a55.1,55.1,0,0,1-55,55H426.5a55.1,55.1,0,0,1-55-55V75.2H284.9v87.1a55.1,55.1,0,0,1-55,55H168.7a55.1,55.1,0,0,1-55-55V75.2H25a25,25,0,0,0-25,25V901.3a25,25,0,0,0,25,25M64.3,328.2H849.9V862H64.3V328.2Z" style="fill:#464646"/><path d="M168.8,0a25,25,0,0,0-25,25V162.2a25,25,0,0,0,25,25H230a25,25,0,0,0,25-25V25A25,25,0,0,0,230,0H168.8Z" style="fill:#464646"/><path d="M426.5,0a25,25,0,0,0-25,25V162.2a25,25,0,0,0,25,25h61.2a25,25,0,0,0,25-25V25a25,25,0,0,0-25-25H426.5Z" style="fill:#464646"/><path d="M745.4,0H684.2a25,25,0,0,0-25,25V162.2a25,25,0,0,0,25,25h61.2a25,25,0,0,0,25-25V25a25,25,0,0,0-25-25" style="fill:#464646"/></g></svg>