<svg id="Слой_1" data-name="Слой 1" xmlns="http://www.w3.org/2000/svg" viewBox="0 0 145.69 92.47"><title>icon-2</title><path d="M72.68,67.9a4.62,4.62,0,0,1-1.35.5,6.79,6.79,0,0,1-1.52.12v2.63h3.51v9H77.1V65.5h-3A3,3,0,0,1,73.69,67,3.24,3.24,0,0,1,72.68,67.9Z" style="fill:#fff"/><g style="opacity:0.19"><path d="M9.49,35.58a9.16,9.16,0,0,0-1-8.39A12.32,12.32,0,0,0,1.22,22s-2,4.79.73,9A10.62,10.62,0,0,0,9.49,35.58Z" style="fill:#fff"/></g><g style="opacity:0.19"><path d="M17.44,36.27A10.63,10.63,0,0,0,23.68,30c1.68-4.78-1.44-8.94-1.44-8.94a12.37,12.37,0,0,0-5.84,6.79A9.15,9.15,0,0,0,17.44,36.27Z" style="fill:#fff"/></g><g style="opacity:0.19"><path d="M19.19,41.65a9.15,9.15,0,0,0,2.12,8.19,10.65,10.65,0,0,0,5.37-7c1-5-2.6-8.68-2.6-8.68A12.34,12.34,0,0,0,19.19,41.65Z" style="fill:#fff"/></g><g style="opacity:0.19"><path d="M29.28,58.74A10.62,10.62,0,0,0,34,51.27c0.58-5-3.4-8.39-3.4-8.39a12.38,12.38,0,0,0-4.18,7.93A9.11,9.11,0,0,0,29.28,58.74Z" style="fill:#fff"/></g><g style="opacity:0.19"><path d="M39.81,67.14a10.65,10.65,0,0,0,2.34-8.51c-0.91-5-5.68-7.07-5.68-7.07a12.35,12.35,0,0,0-1.71,8.79A9.17,9.17,0,0,0,39.81,67.14Z" style="fill:#fff"/></g><g style="opacity:0.19"><path d="M13.26,25a9.13,9.13,0,0,0,3.84-7.53,12.35,12.35,0,0,0-3.16-8.38S9.58,12,9.53,17A10.61,10.61,0,0,0,13.26,25Z" style="fill:#fff"/></g><g style="opacity:0.19"><path d="M11.94,46a9.18,9.18,0,0,0-3.42-7.73A12.35,12.35,0,0,0,0,35.45s-0.54,5.18,3.35,8.42A10.65,10.65,0,0,0,11.94,46Z" style="fill:#fff"/></g><g style="opacity:0.19"><path d="M17.87,55.93a9.15,9.15,0,0,0-5.05-6.78,12.28,12.28,0,0,0-8.91-.87S4.53,53.45,9,55.74A10.66,10.66,0,0,0,17.87,55.93Z" style="fill:#fff"/></g><g style="opacity:0.19"><path d="M18.27,58.63a12.29,12.29,0,0,0-8.76,1.86s2.16,4.73,7.15,5.56a10.65,10.65,0,0,0,8.48-2.48A9.19,9.19,0,0,0,18.27,58.63Z" style="fill:#fff"/></g><g style="opacity:0.19"><path d="M28.27,66.71A12.34,12.34,0,0,0,19.8,69.6s2.71,4.45,7.77,4.67a10.63,10.63,0,0,0,8.11-3.48A9.14,9.14,0,0,0,28.27,66.71Z" style="fill:#fff"/></g><g style="opacity:0.19"><path d="M14.45,27.82L12,27.27C12,27.53,6.4,53.82,44,73.2L45.13,71C9.35,52.55,14.23,28.82,14.45,27.82Z" style="fill:#fff"/></g><path d="M94.53,83.39h-2V61.44h2V58.22H92.15V56S76.4,53.06,76.4,46.53c0-2.13,1.95-4.49,4.51-7.55l0.64,1.78,4.21-1.52-0.26-.72c6.89,0.4,12.59-1.43,17-5.46,11-10.05,9.82-30.11,9.76-31L112.14,0H99.28L100,2.78a3.81,3.81,0,0,1-.42,3.1c-1.38,2.18-5,3.34-6.24,3.6h0q0-1.26,0-2.57h3.07V3.38l-9.8,4.2c0,7.23-24,7.22-24,0L52.77,3.36V6.9h3.07c0,0.87,0,1.73,0,2.57h0C54.56,9.2,51,8,49.59,5.86a3.84,3.84,0,0,1-.42-3.11L49.83,0H37L36.84,2.09c-0.06.85-1.28,20.9,9.76,31,4.43,4,10.13,5.86,17,5.46l-0.26.72,4.21,1.52L68.21,39c2.56,3.07,4.51,5.41,4.51,7.55C72.72,53,57,56,57,56V58.2H54.59v3.22h2v22h-2V87h-1.4v5.44H74.56v0H95.93V87h-1.4V83.39ZM92.86,15.12H96V13.38c2.1-.69,5.47-2.18,7.32-5.08a8.09,8.09,0,0,0,1.25-3.8h3.32c0,5.12-.81,18.4-8.36,25.27C95.83,33.1,90.92,34.5,84.89,34A41.06,41.06,0,0,0,92.86,15.12ZM49.61,29.75C42.06,22.87,41.26,9.6,41.25,4.47h3.32a8.06,8.06,0,0,0,1.25,3.8c1.85,2.9,5.22,4.39,7.32,5.08V15.1h3.11a41,41,0,0,0,8,18.86C58.19,34.48,53.29,33.08,49.61,29.75Zm39.6,53.64H74.56v0H59.9V62.26H74.55v0H89.21V83.39Z" style="fill:#fff"/><g style="opacity:0.19"><path d="M136.2,35.6A10.62,10.62,0,0,0,143.74,31c2.77-4.24.72-9,.72-9a12.32,12.32,0,0,0-7.28,5.21A9.12,9.12,0,0,0,136.2,35.6Z" style="fill:#fff"/></g><g style="opacity:0.19"><path d="M128.25,36.3a9.14,9.14,0,0,0,1-8.39,12.37,12.37,0,0,0-5.84-6.8s-3.13,4.16-1.43,8.94A10.6,10.6,0,0,0,128.25,36.3Z" style="fill:#fff"/></g><g style="opacity:0.19"><path d="M124.37,49.87a9.15,9.15,0,0,0,2.12-8.18,12.32,12.32,0,0,0-4.89-7.5S118,37.91,119,42.87A10.62,10.62,0,0,0,124.37,49.87Z" style="fill:#fff"/></g><g style="opacity:0.19"><path d="M115.12,42.9s-4,3.36-3.4,8.39a10.64,10.64,0,0,0,4.68,7.48,9.14,9.14,0,0,0,2.89-7.95A12.39,12.39,0,0,0,115.12,42.9Z" style="fill:#fff"/></g><g style="opacity:0.19"><path d="M103.54,58.65a10.63,10.63,0,0,0,2.34,8.51,9.15,9.15,0,0,0,5.05-6.78,12.35,12.35,0,0,0-1.71-8.79S104.44,53.67,103.54,58.65Z" style="fill:#fff"/></g><g style="opacity:0.19"><path d="M132.42,25a10.61,10.61,0,0,0,3.73-8c-0.05-5.07-4.41-7.92-4.41-7.92a12.32,12.32,0,0,0-3.16,8.38A9.15,9.15,0,0,0,132.42,25Z" style="fill:#fff"/></g><g style="opacity:0.19"><path d="M145.66,35.48a12.38,12.38,0,0,0-8.5,2.83A9.16,9.16,0,0,0,133.75,46a10.63,10.63,0,0,0,8.56-2.15C146.2,40.65,145.66,35.48,145.66,35.48Z" style="fill:#fff"/></g><g style="opacity:0.19"><path d="M132.87,49.18A9.15,9.15,0,0,0,127.81,56a10.64,10.64,0,0,0,8.83-.2c4.52-2.29,5.14-7.46,5.14-7.46A12.32,12.32,0,0,0,132.87,49.18Z" style="fill:#fff"/></g><g style="opacity:0.19"><path d="M127.42,58.65a9.19,9.19,0,0,0-6.87,4.94A10.65,10.65,0,0,0,129,66.07c5-.82,7.16-5.56,7.16-5.56A12.34,12.34,0,0,0,127.42,58.65Z" style="fill:#fff"/></g><g style="opacity:0.19"><path d="M110,70.81a10.63,10.63,0,0,0,8.11,3.48c5.06-.22,7.77-4.66,7.77-4.66a12.35,12.35,0,0,0-8.47-2.9A9.18,9.18,0,0,0,110,70.81Z" style="fill:#fff"/></g><g style="opacity:0.19"><path d="M133.65,27.3l-2.42.55c0.22,1,5.11,24.73-30.68,43.18l1.14,2.2C139.28,53.85,133.71,27.56,133.65,27.3Z" style="fill:#fff"/></g></svg>