<svg xmlns="http://www.w3.org/2000/svg" xmlns:xlink="http://www.w3.org/1999/xlink" viewBox="0 0 512 391.18"><defs><clipPath id="clip-path" transform="translate(0 0)"><rect width="512" height="391.18" style="fill:none"/></clipPath></defs><title>icon-telegram</title><g style="clip-path:url(#clip-path)"><path d="M507.77,6.79A18.54,18.54,0,0,0,487,1.14L17.39,170.86a26.33,26.33,0,0,0-5.91,46.5l67.13,45.83a21.13,21.13,0,0,0,21.83,1.24l145.63-76.79-113.5,84.75a21.29,21.29,0,0,0-8.51,17v78.5a22,22,0,0,0,34.2,18.35l51-33.83,50.16,34.2a26.44,26.44,0,0,0,37.35-7.89L509.26,28.31a18.6,18.6,0,0,0-1.49-21.52" transform="translate(0 0)" style="fill:#fff"/></g></svg>