<svg id="Слой_1" data-name="Слой 1" xmlns="http://www.w3.org/2000/svg" xmlns:xlink="http://www.w3.org/1999/xlink" viewBox="0 0 247.75 272.67"><defs><clipPath id="clip-path" transform="translate(0 0)"><rect width="247.75" height="272.67" style="fill:none"/></clipPath></defs><title>icon-viber</title><g style="clip-path:url(#clip-path)"><path d="M192.08,6.46a363.53,363.53,0,0,0-136.43,0C35.86,10.87,10.95,34.74,6.08,53.94a261,261,0,0,0,0,112c4.87,19.2,29.78,43.07,49.58,47.48h0a1.88,1.88,0,0,1,1.53,1.84v54.42a3,3,0,0,0,5.21,2.09L88.26,245.2l24.3-24.95a1.85,1.85,0,0,1,1.38-.56,363.89,363.89,0,0,0,78.15-6.31c19.8-4.41,44.72-28.28,49.58-47.48a260.65,260.65,0,0,0,0-112c-4.86-19.2-29.77-43.07-49.58-47.48m0.69,162.21c-4,8.41-9.72,15.4-18,19.87-2.35,1.26-5.15,1.67-7.79,2.48-3-.92-5.94-1.54-8.64-2.66-27.92-11.58-53.61-26.52-74-49.43-11.57-13-20.63-27.73-28.29-43.29-3.63-7.38-6.69-15-9.81-22.67C43.4,66,47.6,58.84,52,53.61A45.47,45.47,0,0,1,67.24,42.16c4.5-2.16,8.94-.92,12.23,2.9A157.75,157.75,0,0,1,98.39,71.55c3.25,5.88,2.36,13.07-3.53,17.07-1.43,1-2.74,2.12-4.07,3.21a13.34,13.34,0,0,0-3.07,3.24,8.87,8.87,0,0,0-.59,7.79c7.27,20,19.51,35.49,39.61,43.86,3.22,1.34,6.45,2.9,10.15,2.46,6.21-.72,8.21-7.53,12.56-11.09s9.68-3.52,14.26-.62,9,6,13.43,9.15a153.79,153.79,0,0,1,12.64,9.62c3.84,3.38,5.16,7.82,3,12.41m-36-65.07c-1.73,0-1.05,0-.39,0-2.79-.1-4.31-1.74-4.61-4.42a46,46,0,0,0-.86-5.83,16.42,16.42,0,0,0-6.05-9.5,15.78,15.78,0,0,0-4.93-2.38c-2.24-.65-4.57-0.47-6.8-1a4.17,4.17,0,0,1-3.39-4.84,4.39,4.39,0,0,1,4.63-3.53c14.16,1,24.27,8.34,25.72,25a11.58,11.58,0,0,1,0,3.54,3.63,3.63,0,0,1-3.05,3c0.11,0,.09,0-0.21,0m-8.8-38.12a49.81,49.81,0,0,0-13.8-4.24c-2.08-.34-4.18-0.55-6.27-0.84a4,4,0,0,1-3.77-4.46,3.93,3.93,0,0,1,4.37-3.88,57.4,57.4,0,0,1,23.92,6.23c15.15,8,23.8,20.69,26.33,37.6,0.12,0.77.3,1.52,0.36,2.29,0.14,1.9.23,3.8,0.38,6.3a16.83,16.83,0,0,1-.36,2.54c-1,3.67-6.53,4.13-7.81.43a11,11,0,0,1-.44-3.53,44.23,44.23,0,0,0-5.59-22.19,41.31,41.31,0,0,0-17.32-16.25m46.81,52.26c-2.93,0-4.24-2.41-4.43-5-0.38-5.2-.64-10.42-1.35-15.57-3.78-27.2-25.47-49.71-52.54-54.53-4.07-.73-8.24-0.92-12.37-1.35-2.61-.27-6-0.43-6.6-3.68-0.49-2.72,1.81-4.88,4.4-5,0.7,0,1.41,0,2.12,0,35.06,1,2.14.08,0.09,0,36.47,1.06,66.42,25.28,72.84,61.35,1.1,6.15,1.49,12.44,2,18.68,0.2,2.63-1.28,5.12-4.12,5.15" transform="translate(0 0)" style="fill:#fff"/></g></svg>