<svg id="Слой_1" data-name="Слой 1" xmlns="http://www.w3.org/2000/svg" xmlns:xlink="http://www.w3.org/1999/xlink" viewBox="0 0 250 380"><defs><clipPath id="clip-path"><rect width="250" height="380" style="fill:none"/></clipPath></defs><title>pass</title><g style="clip-path:url(#clip-path)"><path d="M225,170H60V95a65,65,0,0,1,130,0v30a15,15,0,0,0,30,0V95A95,95,0,0,0,30,95v75H25A25,25,0,0,0,0,195V355a25,25,0,0,0,25,25H225a25,25,0,0,0,25-25V195a25,25,0,0,0-25-25M95,255a30,30,0,1,1,45,26v44H110V281a30,30,0,0,1-15-26" style="fill:#fff"/></g></svg>