<?xml version="1.0" encoding="utf-8"?>
<!-- Generator: Adobe Illustrator 21.0.2, SVG Export Plug-In . SVG Version: 6.00 Build 0)  -->
<svg version="1.1" id="Слой_1" xmlns="http://www.w3.org/2000/svg" xmlns:xlink="http://www.w3.org/1999/xlink" x="0px" y="0px"
	 viewBox="0 0 489.9 582.8" style="enable-background:new 0 0 489.9 582.8;" xml:space="preserve">
<style type="text/css">
	.st0{fill:url(#SVGID_1_);}
	.st1{fill:url(#SVGID_2_);}
	.st2{fill:url(#SVGID_3_);}
	.st3{fill:url(#SVGID_4_);}
	.st4{fill:url(#SVGID_5_);}
	.st5{fill:url(#SVGID_6_);}
	.st6{fill:url(#SVGID_7_);}
	.st7{fill:url(#SVGID_8_);}
	.st8{fill:url(#SVGID_9_);}
	.st9{fill:url(#SVGID_10_);}
	.st10{fill:url(#SVGID_11_);}
	.st11{fill:url(#SVGID_12_);}
	.st12{fill:url(#SVGID_13_);}
	.st13{fill:url(#SVGID_14_);}
	.st14{fill:url(#SVGID_15_);}
	.st15{fill:url(#SVGID_16_);}
	.st16{fill:url(#SVGID_17_);}
	.st17{fill:url(#SVGID_18_);}
	.st18{enable-background:new    ;}
	.st19{fill:#FFFFFF;}
	.st20{fill:url(#SVGID_19_);}
	.st21{fill:url(#SVGID_20_);}
	.st22{fill:url(#SVGID_21_);}
</style>
<title>diagram</title>
<linearGradient id="SVGID_1_" gradientUnits="userSpaceOnUse" x1="-46.4294" y1="286.5509" x2="37.5706" y2="290.8908" gradientTransform="matrix(1 0 0 -1 0 679.8429)">
	<stop  offset="0" style="stop-color:#78CAF9"/>
	<stop  offset="1" style="stop-color:#6091F8"/>
</linearGradient>
<path class="st0" d="M5,340c-3.3-9.2-5-18.8-5-28.5v130c0,9.7,1.7,19.4,5,28.5l8.5-1V339L5,340z"/>
<linearGradient id="SVGID_2_" gradientUnits="userSpaceOnUse" x1="293.5062" y1="293.3812" x2="269.2062" y2="610.8411" gradientTransform="matrix(1 0 0 -1 0 679.8429)">
	<stop  offset="0" style="stop-color:#F8D87F"/>
	<stop  offset="0.2" style="stop-color:#F8D87F;stop-opacity:0.78"/>
	<stop  offset="0.59" style="stop-color:#F8D87F;stop-opacity:0.37"/>
	<stop  offset="0.87" style="stop-color:#F8D87F;stop-opacity:0.1"/>
	<stop  offset="1" style="stop-color:#F8D87F;stop-opacity:0"/>
</linearGradient>
<path class="st1" d="M452.9,66.6v120c-10.6-9.6-22.2-18.1-34.7-25.1c-89.3-51.5-230.3-55-326.5-10.3v-120
	c96.2-44.7,237.2-41.2,326.5,10.3C430.6,48.5,442.3,56.9,452.9,66.6z"/>
<linearGradient id="SVGID_3_" gradientUnits="userSpaceOnUse" x1="91.67" y1="489.1444" x2="452.86" y2="489.1444" gradientTransform="matrix(1 0 0 -1 0 679.8429)">
	<stop  offset="0" style="stop-color:#F8D87F"/>
	<stop  offset="1" style="stop-color:#FF9B63"/>
</linearGradient>
<path class="st2" d="M418.2,161.4c-89.3-51.5-230.3-55-326.5-10.3L245,261.4l207.9-74.9C442.3,176.9,430.6,168.5,418.2,161.4z"/>
<linearGradient id="SVGID_4_" gradientUnits="userSpaceOnUse" x1="-37.7899" y1="323.5043" x2="128.2101" y2="324.1743" gradientTransform="matrix(1 0 0 -1 0 679.8429)">
	<stop  offset="0" style="stop-color:#78CAF9"/>
	<stop  offset="1" style="stop-color:#6091F8"/>
</linearGradient>
<polygon class="st3" points="5,339.9 5,399.9 213.7,374.9 245,311.4 "/>
<linearGradient id="SVGID_5_" gradientUnits="userSpaceOnUse" x1="5.04" y1="251.6815" x2="245.72" y2="251.6815" gradientTransform="matrix(1 0 0 -1 0 679.8429)">
	<stop  offset="0" style="stop-color:#8B8EF9"/>
	<stop  offset="1" style="stop-color:#6042F8"/>
</linearGradient>
<path class="st4" d="M5,389.9c9.3,26.2,31.5,51.2,66.7,71.5c27.6,15.9,60.2,27.3,94.8,34l79.1-134.5L5,389.9z"/>
<linearGradient id="SVGID_6_" gradientUnits="userSpaceOnUse" x1="273.4947" y1="154.8826" x2="321.4947" y2="399.5527" gradientTransform="matrix(1 0 0 -1 0 679.8429)">
	<stop  offset="0" style="stop-color:#78CAF9"/>
	<stop  offset="1" style="stop-color:#6091F8"/>
</linearGradient>
<path class="st5" d="M411.4,407.5L245,311.4l-56.2,96.1l-22.1,37.9c85.4,16.6,183.5,5.3,251.6-34L411.4,407.5z"/>
<linearGradient id="SVGID_7_" gradientUnits="userSpaceOnUse" x1="86.451" y1="155.3226" x2="604.451" y2="210.6526" gradientTransform="matrix(1 0 0 -1 0 679.8429)">
	<stop  offset="0" style="stop-color:#78CAF9"/>
	<stop  offset="1" style="stop-color:#6091F8"/>
</linearGradient>
<path class="st6" d="M418.2,411.4v130c-68,39.3-166.2,50.6-251.6,34v-130C252,462.1,350.1,450.7,418.2,411.4z"/>
<linearGradient id="SVGID_8_" gradientUnits="userSpaceOnUse" x1="5.04" y1="197.1614" x2="166.64" y2="197.1614" gradientTransform="matrix(1 0 0 -1 0 679.8429)">
	<stop  offset="0" style="stop-color:#8B8EF9"/>
	<stop  offset="1" style="stop-color:#6042F8"/>
</linearGradient>
<path class="st7" d="M166.6,495.4v80c-34.7-6.7-67.2-18.1-94.8-34C36.6,521.1,14.3,496.1,5,469.9v-80c9.3,26.2,31.5,51.2,66.7,71.5
	C99.4,477.4,132,488.7,166.6,495.4z"/>
<linearGradient id="SVGID_9_" gradientUnits="userSpaceOnUse" x1="91.67" y1="448.5764" x2="244.98" y2="448.5764" gradientTransform="matrix(1 0 0 -1 0 679.8429)">
	<stop  offset="0" style="stop-color:#F8D87F"/>
	<stop  offset="1" style="stop-color:#FF9B63"/>
</linearGradient>
<polygon class="st8" points="91.7,151.1 91.7,201.1 245,311.4 245,261.4 "/>
<linearGradient id="SVGID_10_" gradientUnits="userSpaceOnUse" x1="244.98" y1="355.8464" x2="489.9199" y2="355.8464" gradientTransform="matrix(1 0 0 -1 0 679.8429)">
	<stop  offset="0" style="stop-color:#78CAF9"/>
	<stop  offset="1" style="stop-color:#6091F8"/>
</linearGradient>
<path class="st9" d="M487.6,292.2c-4.6-19.4-16.2-38.4-34.8-55.6L245,311.4l138.7,80.1l34.5,19.9c18.3-10.6,33.1-22.4,44.4-35
	c18.2-20.3,27.3-42.7,27.3-65C489.9,304.9,489.1,298.5,487.6,292.2z"/>
<linearGradient id="SVGID_11_" gradientUnits="userSpaceOnUse" x1="518.6008" y1="312.6906" x2="449.2708" y2="244.0306" gradientTransform="matrix(1 0 0 -1 0 679.8429)">
	<stop  offset="0" style="stop-color:#78CAF9"/>
	<stop  offset="1" style="stop-color:#6091F8"/>
</linearGradient>
<path class="st10" d="M462.6,376.4c-11.3,12.6-26.1,24.4-44.4,35v130c47.8-27.6,71.7-63.8,71.7-100v-130
	C489.9,333.8,480.8,356.1,462.6,376.4z"/>
<linearGradient id="SVGID_12_" gradientUnits="userSpaceOnUse" x1="100.22" y1="553.7515" x2="100.22" y2="553.7515" gradientTransform="matrix(1 0 0 -1 0 679.8429)">
	<stop  offset="0" style="stop-color:#3B527F"/>
	<stop  offset="1" style="stop-color:#3A98B5"/>
</linearGradient>
<path class="st11" d="M100.2,126.1"/>
<linearGradient id="SVGID_13_" gradientUnits="userSpaceOnUse" x1="96.64" y1="478.7314" x2="96.64" y2="478.7314" gradientTransform="matrix(1 0 0 -1 0 679.8429)">
	<stop  offset="0" style="stop-color:#3B527F"/>
	<stop  offset="1" style="stop-color:#3A98B5"/>
</linearGradient>
<path class="st12" d="M96.6,201.1"/>
<linearGradient id="SVGID_14_" gradientUnits="userSpaceOnUse" x1="290.4802" y1="409.6646" x2="73.1402" y2="409.3346" gradientTransform="matrix(1 0 0 -1 0 679.8429)">
	<stop  offset="0" style="stop-color:#78CAF9"/>
	<stop  offset="1" style="stop-color:#6091F8"/>
</linearGradient>
<path class="st13" d="M91.6,201.1c-6.9,3.2-13.5,6.6-19.9,10.3C24,239,0,275.2,0,311.4c0,9.7,1.7,19.4,5,28.5l0,0l8.6-1L245,311.4
	L91.6,201.1z"/>
<linearGradient id="SVGID_15_" gradientUnits="userSpaceOnUse" x1="154.2076" y1="376.9807" x2="20.2076" y2="532.3107" gradientTransform="matrix(1 0 0 -1 0 679.8429)">
	<stop  offset="0" style="stop-color:#78CAF9"/>
	<stop  offset="0.2" style="stop-color:#78CAF9;stop-opacity:0.78"/>
	<stop  offset="0.6" style="stop-color:#78CAF9;stop-opacity:0.36"/>
	<stop  offset="0.87" style="stop-color:#78CAF9;stop-opacity:0.1"/>
	<stop  offset="1" style="stop-color:#78CAF9;stop-opacity:0"/>
</linearGradient>
<path class="st14" d="M91.6,201.1c-6.9,3.2-13.5,6.6-19.9,10.3C23.9,239,0,275.2,0,311.4c0-30.9,0-129.6,0-129.6S10.1,90.7,91.6,43
	V201.1z"/>
<linearGradient id="SVGID_16_" gradientUnits="userSpaceOnUse" x1="126.3403" y1="263.7561" x2="265.0103" y2="555.7561" gradientTransform="matrix(1 0 0 -1 0 679.8429)">
	<stop  offset="0" style="stop-color:#F8D87F"/>
	<stop  offset="0.17" style="stop-color:#F8D87F;stop-opacity:0.81"/>
	<stop  offset="0.2" style="stop-color:#F8D87F;stop-opacity:0.78"/>
	<stop  offset="0.59" style="stop-color:#F8D87F;stop-opacity:0.37"/>
	<stop  offset="0.87" style="stop-color:#F8D87F;stop-opacity:0.1"/>
	<stop  offset="1" style="stop-color:#F8D87F;stop-opacity:0"/>
</linearGradient>
<path class="st15" d="M452.9,66.6v120c-10.6-9.6-22.2-18.1-34.7-25.1c-89.3-51.5-230.3-55-326.5-10.3v-120
	c96.2-44.7,237.2-41.2,326.5,10.3C430.6,48.5,442.3,56.9,452.9,66.6z"/>
<radialGradient id="SVGID_17_" cx="250.79" cy="363.5414" r="316.01" gradientTransform="matrix(1 0 0 -1 0 679.8429)" gradientUnits="userSpaceOnUse">
	<stop  offset="0" style="stop-color:#F8D87F"/>
	<stop  offset="0.17" style="stop-color:#F8D87F;stop-opacity:0.81"/>
	<stop  offset="0.2" style="stop-color:#F8D87F;stop-opacity:0.78"/>
	<stop  offset="0.59" style="stop-color:#F8D87F;stop-opacity:0.37"/>
	<stop  offset="0.87" style="stop-color:#F8D87F;stop-opacity:0.1"/>
	<stop  offset="1" style="stop-color:#F8D87F;stop-opacity:0"/>
</radialGradient>
<path class="st16" d="M452.9,66.6v120c-10.6-9.6-22.2-18.1-34.7-25.1c-89.3-51.5-230.3-55-326.5-10.3v-120
	c96.2-44.7,237.2-41.2,326.5,10.3C430.6,48.5,442.3,56.9,452.9,66.6z"/>
<linearGradient id="SVGID_18_" gradientUnits="userSpaceOnUse" x1="244.97" y1="430.8514" x2="452.86" y2="430.8514" gradientTransform="matrix(1 0 0 -1 0 679.8429)">
	<stop  offset="0" style="stop-color:#F8D87F"/>
	<stop  offset="1" style="stop-color:#FF9B63"/>
</linearGradient>
<polygon class="st17" points="245,261.4 245,311.4 452.9,236.6 452.9,186.6 "/>
<g class="st18">
	<path class="st19" d="M229.1,169.3l-6.7,3.8l-25.1-14.4c2.8-1.3,6-2.2,9.6-2.7c3.6-0.5,9.3-0.7,17-0.5c6.2,0.1,10.3,0.1,12.1-0.1
		c2.5-0.3,4.4-0.8,5.9-1.7c1.6-0.9,2.4-1.9,2.4-2.9c0-1-0.8-1.9-2.3-2.8c-1.5-0.9-3.1-1.3-4.9-1.3c-1.8,0-3.8,0.6-6,1.7l-6.4-4.5
		c4.4-2,8.5-2.9,12.5-2.6s7.6,1.4,11,3.4c3.7,2.1,5.6,4.4,5.7,6.7c0.1,2.4-1.3,4.4-4.3,6.1c-1.7,1-3.6,1.7-5.7,2.2
		c-2.1,0.5-4.7,0.9-7.6,1.1c-2,0.1-5.1,0.2-9.5,0c-4.3-0.1-7.1-0.1-8.4-0.1s-2.4,0.1-3.5,0.3L229.1,169.3z"/>
	<path class="st19" d="M237,170.4l7.9,3.7c-1.4,1-2.1,2.1-2,3.2c0.1,1.1,0.7,2.1,2.1,2.8c1.5,0.9,3.4,1.2,5.6,1.1
		c2.3-0.1,4.6-0.9,7-2.3c2.3-1.3,3.5-2.6,3.6-3.9c0.1-1.3-0.6-2.3-2.3-3.3c-2.1-1.2-4.8-1.7-8.3-1.6l-5-3.8l23.1-9.1l18.9,10.9
		l-6.7,3.9l-13.5-7.8l-7.5,3c2.4,0.5,4.4,1.2,6.1,2.1c3.2,1.8,4.7,4,4.6,6.6c-0.1,2.6-2,5-5.7,7.1c-3.1,1.8-6.7,2.8-10.9,3.2
		c-5.7,0.5-10.7-0.5-15.1-3c-3.5-2-5.3-4.1-5.7-6.4C233.2,174.6,234.3,172.4,237,170.4z"/>
	<path class="st19" d="M268.6,201.2l-5.3-3l59.3-11.2l5.1,3L268.6,201.2z M284.6,176.4c3.3-1.9,6.6-2.9,9.6-3s5.9,0.6,8.4,2
		c2.6,1.5,3.8,3.1,3.7,4.9c-0.1,1.8-1.9,3.6-5.3,5.6c-3.3,1.9-6.6,2.9-9.6,3c-3.1,0.1-5.9-0.6-8.4-2c-2.6-1.5-3.8-3.1-3.7-4.9
		C279.4,180.2,281.2,178.3,284.6,176.4z M290,202.2c3.3-1.9,6.6-2.9,9.6-3s5.9,0.6,8.5,2.1c2.6,1.5,3.8,3.1,3.6,4.9
		c-0.1,1.8-1.9,3.6-5.2,5.5c-3.4,1.9-6.6,2.9-9.7,3c-3.1,0.1-5.9-0.6-8.4-2c-2.6-1.5-3.8-3.1-3.7-4.9
		C284.9,206,286.6,204.2,290,202.2z M290.2,179.6c-2.4,1.4-3.8,2.5-4.1,3.3c-0.2,0.6,0.1,1.1,0.8,1.5c0.8,0.4,1.7,0.6,2.7,0.5
		c1.4-0.2,3.3-0.9,5.7-2.3s3.8-2.5,4.1-3.3c0.2-0.6-0.1-1.1-0.8-1.6c-0.7-0.4-1.6-0.6-2.7-0.5C294.5,177.4,292.6,178.2,290.2,179.6z
		 M295.6,205.4c-2.4,1.4-3.8,2.5-4,3.3c-0.2,0.6,0.1,1.1,0.8,1.6c0.8,0.4,1.7,0.6,2.7,0.5c1.4-0.2,3.3-0.9,5.7-2.3s3.8-2.5,4.1-3.3
		c0.2-0.6-0.1-1.1-0.9-1.6c-0.8-0.4-1.7-0.6-2.7-0.5C300,203.3,298,204,295.6,205.4z"/>
</g>
<g class="st18">
	<path class="st19" d="M84.6,418.3l-4.2-2.4l14.2-6.4c-2.8-0.3-5.6-0.9-8.3-1.8l3.4-1.5c1.4,0.5,3.2,0.9,5.4,1.2
		c2.2,0.3,4.1,0.4,5.8,0.1l3.4,1.9L84.6,418.3z"/>
	<path class="st19" d="M95.9,419.6l4.6,2.2c-0.7,0.5-1,1-1,1.5c0.1,0.6,0.5,1.1,1.3,1.5c0.9,0.5,1.9,0.8,3.2,0.8
		c1.2,0.1,2.5-0.2,3.8-0.8c1.2-0.5,1.8-1.1,1.8-1.7c0-0.6-0.5-1.2-1.4-1.8c-1.2-0.7-2.8-1.1-4.7-1.2l-2.9-2.1l12.4-3.4l11,6.3
		l-3.5,1.6l-7.9-4.5l-4,1.1c1.4,0.3,2.5,0.8,3.5,1.4c1.9,1.1,2.8,2.2,2.9,3.5c0.1,1.3-0.9,2.4-2.8,3.2c-1.6,0.7-3.6,1.1-5.9,1.1
		c-3.2,0-6-0.8-8.5-2.2c-2-1.2-3.2-2.3-3.5-3.5C94,421.5,94.6,420.5,95.9,419.6z"/>
	<path class="st19" d="M115,436.5l-3.1-1.8l32.3-2.7l3,1.7L115,436.5z M122.6,425c1.8-0.8,3.5-1.1,5.2-1c1.7,0.1,3.3,0.6,4.8,1.4
		c1.5,0.9,2.3,1.7,2.3,2.6c0,0.9-0.9,1.7-2.6,2.5c-1.8,0.8-3.5,1.1-5.2,1c-1.7-0.1-3.3-0.6-4.8-1.4c-1.5-0.9-2.3-1.7-2.3-2.6
		C119.9,426.6,120.8,425.8,122.6,425z M125.9,426.8c-1.3,0.6-2,1.1-2.1,1.4c-0.1,0.3,0.1,0.6,0.5,0.8c0.4,0.3,1,0.4,1.5,0.4
		c0.8,0,1.8-0.3,3-0.9c1.3-0.6,2-1,2.1-1.4c0.1-0.3-0.1-0.6-0.5-0.8c-0.4-0.3-0.9-0.4-1.5-0.4C128.2,425.9,127.2,426.2,125.9,426.8z
		 M126.9,438.1c1.8-0.8,3.5-1.1,5.2-1s3.3,0.6,4.8,1.4c1.5,0.9,2.2,1.7,2.3,2.6c0,0.9-0.9,1.7-2.6,2.5c-1.8,0.8-3.5,1.1-5.2,1
		c-1.7-0.1-3.3-0.6-4.8-1.4c-1.5-0.9-2.3-1.7-2.3-2.6C124.3,439.7,125.1,438.9,126.9,438.1z M130.2,439.9c-1.3,0.6-2,1.1-2.1,1.4
		c-0.1,0.3,0.1,0.6,0.5,0.8c0.4,0.3,0.9,0.4,1.5,0.4c0.8,0,1.8-0.3,3.1-0.9s2-1.1,2.1-1.4c0.1-0.3-0.1-0.6-0.6-0.8s-0.9-0.4-1.5-0.4
		C132.5,439.1,131.5,439.4,130.2,439.9z"/>
</g>
<g class="st18">
	<path class="st19" d="M74.2,266l-4.6,2.1L50.1,257c2-0.7,4.3-1.1,6.9-1.2c2.6-0.1,6.8,0.2,12.5,0.8c4.6,0.5,7.6,0.7,8.9,0.7
		c1.8,0,3.2-0.3,4.2-0.7c1.1-0.5,1.6-1.1,1.6-1.7c-0.1-0.7-0.7-1.3-1.9-2c-1.2-0.7-2.4-1.1-3.7-1.2c-1.3-0.1-2.7,0.1-4.3,0.7l-5-3.4
		c3.1-1,6.1-1.3,9-0.9c2.9,0.5,5.7,1.4,8.3,2.9c2.9,1.6,4.4,3.2,4.6,4.8c0.2,1.6-0.7,2.8-2.7,3.7c-1.2,0.5-2.5,0.9-4.1,1.1
		c-1.5,0.2-3.4,0.3-5.6,0.2c-1.4,0-3.8-0.2-7-0.6c-3.2-0.4-5.3-0.6-6.2-0.6c-0.9-0.1-1.8-0.1-2.5,0L74.2,266z"/>
	<path class="st19" d="M108.8,263.9c2.8,1.6,4.1,3.3,3.9,5c-0.3,2-2.8,4.2-7.8,6.4c-4.9,2.2-9.4,3.3-13.5,3.2
		c-3.3-0.1-6.4-1-9.2-2.6c-2.8-1.6-4.1-3.4-3.9-5.2c0.2-1.9,2.8-3.9,7.8-6.2c4.9-2.2,9.4-3.3,13.4-3.1
		C103,261.4,106,262.3,108.8,263.9z M104.7,265.7c-0.7-0.4-1.5-0.6-2.4-0.8c-0.9-0.1-2-0.1-3.3,0.2c-1.7,0.4-4,1.2-7.1,2.6
		c-3.1,1.4-5,2.4-5.8,3.1c-0.8,0.7-1.1,1.3-1,1.8c0.1,0.5,0.5,0.9,1.2,1.3c0.7,0.4,1.5,0.6,2.4,0.8c0.9,0.1,2,0.1,3.3-0.2
		c1.7-0.4,4-1.2,7.1-2.6c3.1-1.4,5-2.4,5.8-3.1s1.1-1.3,1-1.8C105.8,266.6,105.4,266.1,104.7,265.7z"/>
	<path class="st19" d="M105.4,289.7l-4.1-2.4l42.9-3.5l4,2.3L105.4,289.7z M115.4,274.4c2.3-1.1,4.6-1.5,6.9-1.4
		c2.3,0.1,4.4,0.8,6.3,1.9c2,1.2,3,2.3,3,3.5c0,1.2-1.1,2.3-3.5,3.3c-2.3,1.1-4.6,1.5-6.9,1.4c-2.3-0.1-4.4-0.8-6.3-1.9
		c-2-1.2-3-2.3-3-3.5C111.9,276.5,113.1,275.4,115.4,274.4z M119.8,276.8c-1.7,0.8-2.6,1.4-2.8,1.9c-0.1,0.4,0.1,0.7,0.7,1.1
		c0.6,0.3,1.3,0.5,2,0.5c1,0,2.3-0.4,4-1.2c1.7-0.8,2.6-1.4,2.8-1.9c0.1-0.4-0.1-0.7-0.7-1.1c-0.6-0.3-1.2-0.5-2-0.5
		C122.8,275.7,121.5,276.1,119.8,276.8z M121.2,291.8c2.3-1.1,4.6-1.5,6.9-1.4c2.3,0.1,4.4,0.8,6.4,1.9c2,1.1,3,2.3,3,3.5
		c0,1.2-1.1,2.3-3.5,3.3c-2.3,1.1-4.7,1.5-6.9,1.4c-2.3-0.1-4.4-0.8-6.3-1.9c-2-1.2-3-2.3-3-3.5
		C117.6,293.9,118.8,292.8,121.2,291.8z M125.5,294.3c-1.7,0.8-2.6,1.4-2.7,1.9c-0.1,0.4,0.1,0.7,0.7,1.1c0.6,0.3,1.3,0.5,2,0.5
		c1,0,2.4-0.4,4.1-1.2c1.7-0.8,2.6-1.4,2.8-1.9c0.1-0.4-0.1-0.7-0.7-1.1c-0.6-0.3-1.3-0.5-2-0.5
		C128.5,293.1,127.2,293.5,125.5,294.3z"/>
</g>
<g class="st18">
	<path class="st19" d="M381,314l-4.4,2.5l-16.7-9.6c1.9-0.9,4-1.5,6.4-1.8c2.4-0.3,6.2-0.5,11.3-0.3c4.2,0.1,6.8,0.1,8-0.1
		c1.6-0.2,2.9-0.6,3.9-1.1c1.1-0.6,1.6-1.2,1.6-1.9c0-0.7-0.5-1.3-1.5-1.9c-1-0.6-2.1-0.9-3.3-0.8c-1.2,0-2.5,0.4-4,1.1l-4.3-3
		c2.9-1.3,5.7-1.9,8.3-1.7c2.6,0.2,5.1,0.9,7.3,2.2c2.5,1.4,3.7,2.9,3.8,4.5c0.1,1.6-0.9,2.9-2.8,4.1c-1.1,0.6-2.4,1.1-3.8,1.5
		c-1.4,0.4-3.1,0.6-5.1,0.7c-1.3,0.1-3.4,0.1-6.3,0c-2.9-0.1-4.8-0.1-5.6-0.1c-0.9,0-1.6,0.1-2.3,0.2L381,314z"/>
	<path class="st19" d="M412.9,308.6c2.4,1.4,3.4,3,3.1,4.7c-0.4,2.1-3,4.5-7.7,7.2c-4.7,2.7-8.9,4.2-12.6,4.4
		c-3,0.2-5.8-0.4-8.2-1.8c-2.4-1.4-3.4-3.1-3.1-5s3-4.3,7.7-7c4.7-2.7,8.9-4.2,12.6-4.4C407.7,306.7,410.5,307.3,412.9,308.6z
		 M408.9,310.9c-0.6-0.3-1.3-0.5-2.1-0.6c-0.8,0-1.8,0.1-3,0.5c-1.6,0.5-3.8,1.6-6.7,3.3s-4.8,2.9-5.6,3.7c-0.8,0.8-1.2,1.4-1.1,1.9
		c0.1,0.5,0.4,0.9,1,1.2s1.3,0.5,2.1,0.6s1.8-0.1,3-0.5c1.6-0.5,3.8-1.6,6.7-3.3s4.8-2.9,5.6-3.7c0.8-0.8,1.2-1.4,1.1-1.9
		C409.8,311.6,409.5,311.2,408.9,310.9z"/>
	<path class="st19" d="M407.3,335.3l-3.5-2l39.6-7.5l3.4,2L407.3,335.3z M417.9,318.7c2.2-1.3,4.4-2,6.4-2c2.1-0.1,3.9,0.4,5.6,1.4
		c1.7,1,2.6,2.1,2.5,3.3c-0.1,1.2-1.3,2.4-3.5,3.7c-2.2,1.3-4.4,2-6.4,2c-2.1,0.1-3.9-0.4-5.6-1.4c-1.7-1-2.6-2.1-2.5-3.3
		C414.5,321.3,415.7,320,417.9,318.7z M421.6,336c2.2-1.3,4.4-2,6.4-2c2.1-0.1,3.9,0.4,5.6,1.4c1.7,1,2.5,2.1,2.4,3.2
		c-0.1,1.2-1.3,2.4-3.5,3.7c-2.2,1.3-4.4,2-6.4,2c-2.1,0.1-3.9-0.4-5.6-1.4c-1.7-1-2.6-2.1-2.5-3.3
		C418.2,338.5,419.3,337.3,421.6,336z M421.7,320.9c-1.6,0.9-2.5,1.7-2.7,2.2c-0.1,0.4,0.1,0.7,0.6,1c0.5,0.3,1.1,0.4,1.8,0.3
		c0.9-0.1,2.2-0.6,3.8-1.6c1.6-0.9,2.5-1.7,2.7-2.2c0.1-0.4-0.1-0.8-0.6-1c-0.5-0.3-1.1-0.4-1.8-0.3
		C424.6,319.4,423.3,319.9,421.7,320.9z M425.3,338.1c-1.6,0.9-2.5,1.7-2.7,2.2c-0.1,0.4,0,0.7,0.5,1c0.5,0.3,1.1,0.4,1.8,0.3
		c0.9-0.1,2.2-0.6,3.8-1.6c1.6-0.9,2.5-1.7,2.7-2.2c0.1-0.4-0.1-0.7-0.6-1s-1.1-0.4-1.8-0.3C428.2,336.6,426.9,337.2,425.3,338.1z"
		/>
</g>
<g class="st18">
	<path class="st19" d="M263,383.3l-4.4,2.5l-16.7-9.6c1.9-0.9,4-1.5,6.4-1.8c2.4-0.3,6.2-0.5,11.3-0.3c4.2,0.1,6.8,0.1,8-0.1
		c1.6-0.2,2.9-0.6,3.9-1.1c1.1-0.6,1.6-1.2,1.6-1.9c0-0.7-0.5-1.3-1.5-1.9c-1-0.6-2.1-0.9-3.3-0.8c-1.2,0-2.5,0.4-4,1.1l-4.3-3
		c2.9-1.3,5.7-1.9,8.3-1.7c2.6,0.2,5.1,0.9,7.3,2.2c2.5,1.4,3.7,2.9,3.8,4.5c0.1,1.6-0.9,2.9-2.8,4.1c-1.1,0.6-2.4,1.1-3.8,1.5
		c-1.4,0.4-3.1,0.6-5.1,0.7c-1.3,0.1-3.4,0.1-6.3,0c-2.9-0.1-4.8-0.1-5.6-0.1c-0.9,0-1.6,0.1-2.3,0.2L263,383.3z"/>
	<path class="st19" d="M294.9,377.9c2.4,1.4,3.4,3,3.1,4.7c-0.4,2.1-3,4.5-7.7,7.2c-4.7,2.7-8.9,4.2-12.6,4.4
		c-3,0.2-5.8-0.4-8.2-1.8c-2.4-1.4-3.4-3.1-3.1-5c0.4-1.9,3-4.3,7.7-7c4.7-2.7,8.9-4.2,12.6-4.4C289.7,376,292.5,376.6,294.9,377.9z
		 M290.9,380.2c-0.6-0.3-1.3-0.5-2.1-0.6s-1.8,0.1-3,0.5c-1.6,0.5-3.8,1.6-6.7,3.3s-4.8,2.9-5.6,3.7c-0.8,0.8-1.2,1.4-1.1,1.9
		c0.1,0.5,0.4,0.9,1,1.2c0.6,0.3,1.3,0.5,2.1,0.6c0.8,0,1.8-0.1,3-0.5c1.6-0.5,3.8-1.6,6.7-3.3c2.9-1.7,4.8-2.9,5.6-3.7
		s1.2-1.4,1.1-1.9S291.5,380.5,290.9,380.2z"/>
	<path class="st19" d="M289.3,404.6l-3.5-2l39.6-7.5l3.4,2L289.3,404.6z M299.9,388c2.2-1.3,4.4-2,6.4-2c2.1-0.1,3.9,0.4,5.6,1.4
		c1.7,1,2.6,2.1,2.5,3.3s-1.3,2.4-3.5,3.7c-2.2,1.3-4.4,2-6.4,2c-2.1,0.1-3.9-0.4-5.6-1.4c-1.7-1-2.6-2.1-2.5-3.3
		C296.5,390.6,297.7,389.3,299.9,388z M303.6,405.3c2.2-1.3,4.4-2,6.4-2s3.9,0.4,5.6,1.4c1.7,1,2.5,2.1,2.4,3.2
		c-0.1,1.2-1.3,2.4-3.5,3.7c-2.2,1.3-4.4,2-6.4,2c-2.1,0.1-3.9-0.4-5.6-1.4c-1.7-1-2.6-2.1-2.5-3.3
		C300.2,407.8,301.3,406.6,303.6,405.3z M303.7,390.2c-1.6,0.9-2.5,1.7-2.7,2.2c-0.1,0.4,0.1,0.7,0.6,1c0.5,0.3,1.1,0.4,1.8,0.3
		c0.9-0.1,2.2-0.6,3.8-1.6c1.6-0.9,2.5-1.7,2.7-2.2c0.1-0.4-0.1-0.8-0.6-1c-0.5-0.3-1.1-0.4-1.8-0.3
		C306.6,388.7,305.3,389.2,303.7,390.2z M307.3,407.4c-1.6,0.9-2.5,1.7-2.7,2.2c-0.1,0.4,0,0.7,0.5,1c0.5,0.3,1.1,0.4,1.8,0.3
		c0.9-0.1,2.2-0.6,3.8-1.6s2.5-1.7,2.7-2.2c0.1-0.4-0.1-0.7-0.6-1s-1.1-0.4-1.8-0.3C310.2,405.9,308.9,406.5,307.3,407.4z"/>
</g>
<linearGradient id="SVGID_19_" gradientUnits="userSpaceOnUse" x1="295.294" y1="215.6713" x2="291.794" y2="336.6713" gradientTransform="matrix(1 0 0 -1 0 679.8429)">
	<stop  offset="0" style="stop-color:#78CAF9"/>
	<stop  offset="0.2" style="stop-color:#78CAF9;stop-opacity:0.78"/>
	<stop  offset="0.6" style="stop-color:#78CAF9;stop-opacity:0.36"/>
	<stop  offset="0.87" style="stop-color:#78CAF9;stop-opacity:0.1"/>
	<stop  offset="1" style="stop-color:#78CAF9;stop-opacity:0"/>
</linearGradient>
<path class="st20" d="M418.2,281.4v130c-68,39.3-166.2,50.6-251.6,34v-130C252,332.1,350.1,320.7,418.2,281.4z"/>
<linearGradient id="SVGID_20_" gradientUnits="userSpaceOnUse" x1="510.8312" y1="251.112" x2="442.1613" y2="411.112" gradientTransform="matrix(1 0 0 -1 0 679.8429)">
	<stop  offset="0" style="stop-color:#78CAF9"/>
	<stop  offset="0.2" style="stop-color:#78CAF9;stop-opacity:0.78"/>
	<stop  offset="0.6" style="stop-color:#78CAF9;stop-opacity:0.36"/>
	<stop  offset="0.87" style="stop-color:#78CAF9;stop-opacity:0.1"/>
	<stop  offset="1" style="stop-color:#78CAF9;stop-opacity:0"/>
</linearGradient>
<path class="st21" d="M462.6,246.4c-11.3,12.6-26.1,24.4-44.4,35v130c47.8-27.6,71.7-63.8,71.7-100v-130
	C489.9,203.8,480.8,226.1,462.6,246.4z"/>
<linearGradient id="SVGID_21_" gradientUnits="userSpaceOnUse" x1="11.4132" y1="147.015" x2="100.9132" y2="327.515" gradientTransform="matrix(1 0 0 -1 0 679.8429)">
	<stop  offset="0" style="stop-color:#8BC2F9"/>
	<stop  offset="0.2" style="stop-color:#8BB7F9;stop-opacity:0.78"/>
	<stop  offset="0.6" style="stop-color:#8BA3F9;stop-opacity:0.36"/>
	<stop  offset="0.87" style="stop-color:#8B96F9;stop-opacity:0.1"/>
	<stop  offset="1" style="stop-color:#8B91F9;stop-opacity:0"/>
</linearGradient>
<path class="st22" d="M166.6,375.5v120c-34.7-6.7-67.2-18.1-94.8-34C36.6,441.1,14.4,416.2,5.1,390V269.9
	c9.3,26.2,31.5,51.2,66.7,71.5C99.4,357.4,132,368.7,166.6,375.5z"/>
</svg>
