<?xml version="1.0" encoding="utf-8"?>
<!-- Generator: Adobe Illustrator 21.0.2, SVG Export Plug-In . SVG Version: 6.00 Build 0)  -->
<svg version="1.1" id="Слой_1" xmlns="http://www.w3.org/2000/svg" xmlns:xlink="http://www.w3.org/1999/xlink" x="0px" y="0px"
	 viewBox="0 0 1366 768" style="enable-background:new 0 0 1366 768;" xml:space="preserve">
<style type="text/css">
	.st0{opacity:0.1;fill:url(#SVGID_1_);enable-background:new    ;}
</style>
<radialGradient id="SVGID_1_" cx="691.81" cy="414.43" r="708.87" gradientTransform="matrix(1 0 0 -1 0 770)" gradientUnits="userSpaceOnUse">
	<stop  offset="0" style="stop-color:#000000"/>
	<stop  offset="0.74" style="stop-color:#FFFFFF;stop-opacity:0"/>
</radialGradient>
<path class="st0" d="M1492.2,380.7l-1-0.6l-7,4.1l-20-11.5l7-4l-1-0.6l-7,4.1l-20-11.6l7-4.1l-1-0.6l-7,4l-20-11.5l7-4.1l-1-0.6
	l-7,4.1l-20.1-11.6l7-4.1l-1-0.6l-7,4.1l-20-11.5l7-4.1l-1-0.6l-7,4.1L1359,312l7-4.1l-1-0.6l-7,4.1l-20-11.5l7-4.1l-1-0.6l-7,4.1
	l-20.1-11.6l7-4.1l-1-0.6l-7,4.1l-20-11.5l7-4.1l-1-0.6l-7.1,4.1l-20-11.6l7-4.1l-1-0.6l-7.1,4.1l-20-11.5l7.1-4.1l-1-0.6l-7.1,4.1
	l-20-11.6l7-4.1l-1-0.6l-7.1,4.1l-20-11.5l7.1-4.1l-1-0.6l-7.1,4.1l-20-11.6l7-4.1l-1-0.6l-7,4.1l-20-11.5l7-4.1l-1-0.6l-7,4.1
	l-20.1-11.6l7.1-4.1l-1-0.6l-7.1,4.1l-20-11.5l7.1-4.1l-1-0.6l-7.1,4.1l-20-11.6l7.1-4.1l-1-0.6l-7.1,4.1l-20-11.5l7.1-4.1l-1-0.6
	l-7.1,4.1l-20-11.6l7.1-4.1l-1-0.6l-7.1,4.1l-20-11.5l7.1-4.1l-1-0.6l-7.1,4.1l-20-11.6l7.1-4.1l-1-0.6l-7.1,4.1l-20-11.5l7.1-4.1
	l-1-0.6l-7.1,4.1l-20.1-11.6l7.1-4.1l-1-0.6l-7.1,4.1l-20-11.5l7.1-4.1l-1-0.6l-7.1,4.1l-20-11.6l7.1-4.1l-1-0.6l-7.1,4.1l-20-11.5
	l7.1-4.1l-1-0.6l-7.1,4.1l-20.2-11.6l7.1-4.1l-1-0.6l-7.1,4.1l-20-11.6l7.1-4.1l-1-0.6l-7.1,4.1l-20-11.6l7.1-4.1l-1-0.6l-7.2,4.1
	l-20-11.5l7.1-4.1l-1-0.6l-7.1,4.1L812.1-3.7l7.1-4.1l-1-0.6l-7.1,4.1l-20-11.6l7.1-4.1l-1-0.6l-7.1,4.1l-20-11.6l7.1-4.1l-1-0.6
	l-7.1,4.1l-20-11.6l7.1-4.1l-1-0.6l-7.1,4.1L728-52.3l7.1-4.1l-1-0.6l-7.1,4.1l-20-11.5l7.1-4.1l-1-0.6L706-65l-20-11.6l7.1-4.1
	l-1-0.6l-7.1,4.1l-9.8-5.6l-1,0.6l9.8,5.6L664-65l-9.8-5.6l-1,0.6l9.8,5.6l-20,11.6l-9.8-5.6l-1,0.6l9.8,5.6l-20,11.6l-9.8-5.6
	l-1,0.6l9.8,5.6l-20.1,11.6l-9.8-5.6l-1,0.6l9.8,5.6l-20,11.6l-9.8-5.6l-1,0.6l9.8,5.6l-20,11.6L549-10l-1,0.6l9.8,5.6l-20,11.6
	L528,2.2l-1,0.6l9.8,5.6L516.6,20l-9.8-5.6l-1,0.6l9.8,5.6l-20,11.6l-9.8-5.6l-1,0.6l9.8,5.6l-20,11.6l-9.8-5.6l-1,0.6l9.8,5.6
	l-20,11.5l-9.8-5.6l-1,0.6l9.8,5.6l-20.1,11.6l-9.8-5.6l-1,0.6l9.7,5.6l-20,11.5l-9.8-5.6l-1,0.6l9.7,5.6l-20,11.6l-9.7-5.6l-1,0.6
	l9.7,5.6l-20,11.5l-9.7-5.6l-1,0.6l9.7,5.6l-20.1,11.6l-9.7-5.6l-1,0.6l9.7,5.6l-20,11.5l-9.7-5.6l-1,0.6l9.7,5.6l-20,11.6l-9.7-5.6
	l-1,0.6l9.7,5.6l-20,11.5l-9.7-5.6l-1,0.6l9.7,5.6l-20.1,11.6l-9.7-5.6l-1,0.6l9.7,5.6l-20,11.5l-9.7-5.6l-1,0.6l9.7,5.6l-20,11.6
	l-9.7-5.6l-1,0.6l9.7,5.6l-20,11.5l-9.7-5.6l-1,0.6l9.7,5.6l-20,11.6l-9.7-5.6l-1,0.6l9.7,5.6l-20,11.5l-9.7-5.6l-1,0.6l9.7,5.6
	l-20,11.6l-9.7-5.6l-1,0.6l9.7,5.6l-20,11.5l-9.9-5.7l-1,0.6l9.7,5.6L96,262.8l-9.7-5.6l-1,0.6l9.7,5.6l-20,11.5l-9.7-5.6l-1,0.6
	l9.7,5.6l-20,11.6l-9.7-5.6l-1,0.6l9.7,5.6l-20,11.5l-9.7-5.6l-1,0.6l9.7,5.6l-20.1,11.6l-9.7-5.6l-1,0.6l9.7,5.6l-20,11.5l-9.7-5.6
	l-1,0.6l9.7,5.6l-20,11.6l-9.7-5.6l-1,0.6l9.7,5.6l-20,11.5l-9.7-5.6l-1,0.6l9.7,5.6L-72.3,360l-9.7-5.6l-1,0.6l9.7,5.6l-20,11.5
	l-9.7-5.6l-1,0.6l9.7,5.6l-20,11.6l-9.7-5.7l-1,0.6l9.7,5.6l-7.7,4.5l1,0.6l7.7-4.5l20,11.6l-7.7,4.5l1,0.6l7.7-4.5l20,11.5
	l-7.7,4.5l1.1,0.6l2.3-1.3l-0.1,0l5.5-3.2l17.1,9.9h-0.1l3,1.7l-7.7,4.4l1,0.6l7.7-4.4l20,11.5l-1.1,0.7h0.1l-6.6,3.8l1,0.6l7.7-4.4
	l20,11.5l-7.7,4.5l1,0.6l7.7-4.4l20.1,11.6l-7.7,4.4l1,0.6l7.7-4.4l20,11.5l-7.7,4.4l1,0.6l7.7-4.4l20,11.6l-7.7,4.4l1,0.6l7.7-4.4
	l20,11.5l-7.7,4.4l1,0.6l7.7-4.4L95,506.3l-7.7,4.4l1,0.6l7.7-4.4l20,11.5l-7.7,4.4l1,0.6l7.7-4.4l20,11.6l-7.7,4.4l1,0.6l7.7-4.5
	l20,11.5l-7.7,4.5l1,0.6l7.7-4.4l20,11.6l-7.7,4.4l1,0.6l7.7-4.5l20,11.5l-7.7,4.5l1,0.6l7.7-4.4l20,11.6l-7.7,4.5l1,0.6l7.7-4.5
	l20,11.5l-7.7,4.5l1,0.6l7.7-4.5l20.1,11.6l-7.7,4.5l1,0.6l7.7-4.4l20,11.5l-7.5,4.5l1,0.6l7.7-4.5l20,11.6l-7.7,4.5l1,0.6l7.7-4.5
	l20,11.5l-7.7,4.5l1,0.6l7.7-4.5l20.1,11.6l-7.7,4.5l1,0.6l7.7-4.5l20,11.5l-7.7,4.5l1,0.6l7.7-4.5l20,11.6l-7.7,4.5l1,0.6l7.7-4.5
	l20,11.5l-7.7,4.5l1,0.6l7.7-4.5l20.1,11.6l-7.6,4.4l1,0.6l7.7-4.5l20,11.5l-7.7,4.5l1,0.6l7.7-4.5l20,11.6l-7.7,4.5l1,0.6l7.7-4.5
	l20,11.5l-7.7,4.5l1,0.6l7.7-4.5l20.2,11.6l-7.7,4.4l1,0.6l7.7-4.5l20,11.5l-7.7,4.5l1,0.6l7.7-4.5l20,11.6l-7.7,4.5l1,0.6l7.7-4.5
	l20,11.5L571,790l1,0.6l7.7-4.5l20.1,11.6l-7.7,4.5l1,0.6l7.7-4.5l20,11.6l-7.7,4.5l1,0.6l7.7-4.5l20,11.6l-7.7,4.5l1,0.6l7.7-4.5
	l20,11.6l-7.7,4.5l1,0.6l7.7-4.5l20.2,11.6l-7.7,4.5l1,0.6l7.7-4.5l5.1,2.9l1-0.6l-5.1-2.9l20-11.6l5.1,2.9l1-0.6l-5.1-2.9l20-11.6
	l5.1,2.9l1-0.6L728,822l20.2-11.6l5.1,2.9l1-0.6l-5.1-2.9l20-11.5l5.1,2.9l1-0.6l-5.1-2.9l20-11.6l5.1,2.9l1-0.6l-5.1-2.9l20-11.5
	l5.1,2.9l1-0.6l-5.1-2.9l20.1-11.6l5.1,2.9l1-0.6l-5.1-2.9l20-11.5l5.1,2.9l1-0.6l-5.1-2.9l20-11.6l5.1,2.9l1-0.6l-5.1-2.9l20-11.5
	l5.1,2.9l1-0.6l-5.1-2.9l20.1-11.6l5.1,2.9l1-0.6l-5.1-2.9l20-11.5l5.1,2.9l1-0.6l-5.1-2.9l20-11.6l5.1,2.9l1-0.6l-5.1-2.9l20-11.5
	l5,2.9l1-0.6l-5-2.9l20.1-11.6l5,2.9l1-0.6l-5-2.9l20-11.5l5,2.9l1-0.6l-5-2.9l20-11.6l5.1,2.9l1-0.6l-5.1-2.9l20-11.5l5.1,2.9
	l1-0.6l-5.1-2.9l20-11.6l5,2.9l1-0.6l-5.1-2.9l20-11.5l5.1,2.9l1-0.6l-5.1-2.9l20-11.6l5,2.9l1-0.6l-5-2.9l20-11.5l5,2.9l1-0.6
	l-5-2.9l20.1-11.6l5,2.9l1-0.6l-5-2.9l20-11.5l5,2.9l1-0.6l-5-2.9l20-11.6l5,2.9l1-0.6l-5-2.9l20-11.5l5,2.9l1-0.6l-5-2.9l20.4-11.6
	l5,2.9l1-0.6l-5-2.9l20-11.5l5,2.9l1-0.6l-5-2.9l20-11.6l5,2.9l1-0.6l-5-2.9l20-11.5l5,2.9l1-0.6l-5-2.9l20.1-11.6l5,2.9l1-0.6
	l-5-2.9l20-11.5l5,2.9l1-0.6l-5-2.9l20-11.6l5,2.9l1-0.6l-5-2.9l20-11.5l5,2.9l1-0.6l-2.1-1.2h0.1l-2.9-1.7l20.1-11.6l5,2.9l1-0.6
	l-5-2.9l0.3-0.2l-0.1,0l19.7-11.4l5.1,3l1-0.6l-5.1-3l20-11.6l5.1,3l1-0.6l-5.1-3l20-11.5l5.1,3l1-0.6l-5.1-3L1492.2,380.7z
	 M1462.2,372.6l-20,11.5l-20-11.6l20-11.5L1462.2,372.6z M1342.5,441.8l-5.5,3.2l-16.1-9.3h0.1l-3.9-2.2l20-11.5l20,11.5
	L1342.5,441.8L1342.5,441.8z M12.9,433.4l19.9-11.5l20,11.5l-2.1,1.2l0.1,0.1l-18,10.4l-4.6-2.7h0.1L12.9,433.4z M1301.4,441.3
	l-6.4,3.7l-16.1-9.3h0.1l-3.9-2.3l20-11.6l20,11.5L1301.4,441.3L1301.4,441.3z M55,433.4l20.1-11.6l20,11.5l-3,1.7L74.9,445
	l-4.6-2.7h0.1L55,433.4z M1259.3,441.3l-6.5,3.7l-20-11.5l20.1-11.6l20,11.5L1259.3,441.3L1259.3,441.3z M1218.1,440.8l-7.2,4.2
	l-20.1-11.6l20-11.5l20,11.5L1218.1,440.8L1218.1,440.8z M1134.9,440.3l-8.2,4.7l-20-11.6l20-11.5l20,11.5L1134.9,440.3
	L1134.9,440.3z M1051.6,439.8l-9,5.2l-20.1-11.6l20-11.5l20,11.5L1051.6,439.8L1051.6,439.8z M684,384.8l-20.1,11.6l-20.1-11.6
	l20.2-11.6L684,384.8z M665,372.7l20-11.5l20,11.6l-20,11.5L665,372.7z M685,385.4l20,11.6l-20.1,11.6l-20-11.5L685,385.4z
	 M686,384.8l20-11.5l20,11.5l-20,11.5L686,384.8z M707,372.7l20-11.6l20,11.5l-20,11.6L707,372.7z M706,372.1l-20-11.6l20-11.6
	l20.1,11.6L706,372.1z M685,360l-20-11.5l20-11.6l20,11.5L685,360z M684,360.6l-20,11.5l-20-11.5l20-11.6L684,360.6z M663,372.7
	l-20.1,11.6l-20-11.5l20.1-11.6L663,372.7z M641.9,384.9l-20,11.5l-20-11.5l20-11.5L641.9,384.9z M642.9,385.5l20,11.5l-20,11.5
	L622.9,397L642.9,385.5z M664,397.6l20,11.5l-12.6,7.3h-0.1l-7.3,4.2l-10.1-5.8h-0.1l-9.9-5.7L664,397.6z M685,409.8l20,11.5
	l-20,11.5l-20-11.5L685,409.8z M695.9,414.8L695.9,414.8l-9.9-5.7l20.1-11.6l20,11.6l-12.7,7.3l-0.1,0l-7.3,4.2L695.9,414.8z
	 M707,397l20-11.5l20,11.6l-20,11.5L707,397z M728,384.9l20-11.6l20,11.6l-20,11.6L728,384.9z M749,372.7l20-11.5l20,11.6l-20,11.5
	L749,372.7z M748,372.2l-20-11.5l20-11.5l20,11.5L748,372.2z M727,360l-20-11.6l20-11.5l20.1,11.6L727,360z M706,347.8l-20-11.5
	l20-11.5l20,11.5L706,347.8z M685,335.7l-20-11.6l20-11.5l20,11.6L685,335.7z M684,336.3l-20,11.6l-20-11.6l20-11.6L684,336.3z
	 M663,348.4L643,360l-20-11.6l20-11.5L663,348.4z M642,360.6l-20.1,11.6l-20-11.6l20-11.6L642,360.6z M620.9,372.7l-20,11.5
	l-20-11.6l20-11.5L620.9,372.7z M599.9,384.9l-20,11.6l-20-11.6l20-11.6L599.9,384.9z M600.9,385.4l20,11.5l-20,11.6l-20-11.5
	L600.9,385.4z M621.9,397.6l20.1,11.6l-11.7,6.8h-0.1l-8.3,4.8l-9.1-5.3h-0.1l-10.8-6.3L621.9,397.6z M643,409.7l20,11.5l-20,11.5
	l-20-11.5L643,409.7z M664,421.9l19.9,11.5l-20,11.5L644,433.4L664,421.9z M676.7,438.7L676.7,438.7l8.3-4.7l9.2,5.3h0.1l10.8,6.2
	l-20,11.6l-20.1-11.6L676.7,438.7z M686.1,433.4l20-11.5l20,11.5L706,444.9L686.1,433.4z M707.1,421.3l20-11.6l20,11.5l-20,11.6
	L707.1,421.3z M738.1,414.9L738.1,414.9l-10-5.8l20-11.5l20,11.5l-13.5,7.8l0,0l-6.5,3.8L738.1,414.9z M749.1,397l20-11.6l20,11.5
	l-20,11.6L749.1,397z M770.1,384.8l20-11.5l20,11.5l-20,11.5L770.1,384.8z M791.1,372.7l20.1-11.6l20,11.5l-20.1,11.6L791.1,372.7z
	 M790.1,372.1l-20-11.6l20.1-11.6l20,11.6L790.1,372.1z M769.1,360l-20-11.5l20.1-11.6l20,11.5L769.1,360z M748.1,347.9L728,336.3
	l20.1-11.6l20.1,11.6L748.1,347.9z M727,335.7l-20-11.5l20.1-11.6l20,11.5L727,335.7z M706,323.6L686,312l20-11.6l20,11.6L706,323.6
	z M685,311.4l-20-11.5l20-11.6l20,11.5L685,311.4z M684,312l-20,11.5L644,312l20-11.5L684,312z M663,324.2l-20,11.6l-20-11.5
	l20-11.6L663,324.2z M642,336.3l-20,11.5l-20-11.5l20-11.5L642,336.3z M621,348.4L600.8,360l-20-11.5l20.1-11.6L621,348.4z
	 M599.9,360.6l-20,11.5l-20-11.5l20-11.5L599.9,360.6z M578.9,372.7l-20,11.6l-20-11.5l20-11.6L578.9,372.7z M557.9,384.9l-20,11.5
	l-20-11.5l20-11.5L557.9,384.9z M558.9,385.4l20,11.6l-20,11.5l-20-11.6L558.9,385.4z M579.9,397.6l20,11.5l-11.7,6.8l0,0l-8.3,4.8
	l-9.1-5.3h-0.1l-10.8-6.3L579.9,397.6z M600.9,409.7l20,11.5l-20,11.5l-20-11.5L600.9,409.7z M622,421.9l19.9,11.5l-20,11.5
	L602,433.4L622,421.9z M635.6,438.2L635.6,438.2l7.3-4.2l10.1,5.8h0.1l9.9,5.7l-20,11.5l-20-11.5L635.6,438.2z M664,446.1l20,11.6
	l-20,11.5l-20.1-11.6L664,446.1z M685,458.2l20,11.5l-20,11.5l-20-11.5L685,458.2z M686,457.6l20-11.6l20,11.5l-20,11.6L686,457.6z
	 M707,445.5l11.7-6.8l0,0l8.3-4.7l9.1,5.3h0.1l10.8,6.2L727,457L707,445.5z M728,433.4l20-11.6l20,11.5l-20,11.6L728,433.4z
	 M749,421.2l20-11.5l20,11.5l-20,11.5L749,421.2z M780,414.9L780,414.9l-10-5.8l20-11.6l20.1,11.6l-13.4,7.9l-0.1-0.1l-6.5,3.8
	L780,414.9z M791,397l20-11.5l20.2,11.6l-20,11.5L791,397z M812,384.8l20.1-11.6l20.1,11.6l-20.1,11.6L812,384.8z M833.1,372.7
	l20-11.5l20.1,11.6l-20,11.5L833.1,372.7z M832.1,372.1l-20-11.5l20-11.5l20,11.5L832.1,372.1z M811.1,360l-20-11.6l20-11.5l20,11.6
	L811.1,360z M790.1,347.8l-20-11.5l20-11.5l20,11.5L790.1,347.8z M769.1,335.7L749,324.1l20-11.5l20.1,11.6L769.1,335.7z M748,323.5
	L728,312l20-11.5l20,11.5L748,323.5z M727,311.4l-20-11.6l20-11.5l20,11.6L727,311.4z M706,299.3l-20-11.5l20-11.5l20,11.5
	L706,299.3z M685,287.2l-20.1-11.6l20-11.5l20.1,11.6L685,287.2z M684,287.7l-20,11.6l-20.1-11.6l20.1-11.6L684,287.7z M663,299.9
	l-20,11.5l-20.1-11.6l20-11.5L663,299.9z M642,312l-20,11.6L601.8,312l20-11.6L642,312z M621,324.2l-20,11.5l-20.1-11.6l20-11.5
	L621,324.2z M600,336.3l-20.1,11.6l-20.1-11.6l20.1-11.6L600,336.3z M578.9,348.5l-20,11.5l-20.1-11.6l20-11.5L578.9,348.5z
	 M557.9,360.6l-20,11.6l-20.1-11.6l20-11.6L557.9,360.6z M536.9,372.7l-20,11.5l-20.1-11.6l20-11.5L536.9,372.7z M515.9,384.8
	l-20,11.6l-20.1-11.6l20-11.6L515.9,384.8z M516.9,385.4l20,11.5l-20,11.6l-20-11.5L516.9,385.4z M537.9,397.5l20,11.6l-10.9,6.3
	l-0.1-0.1l-9.1,5.3l-8.3-4.8l-11.7-6.7L537.9,397.5z M558.9,409.7l20,11.5l-20,11.6l-20-11.5L558.9,409.7z M579.9,421.8l20,11.5
	l-20,11.6l-20-11.5L579.9,421.8z M593.6,438.2L593.6,438.2l7.4-4.2l10,5.9h0.1l9.9,5.7l-20.1,11.6l-20-11.6L593.6,438.2z M622,446
	l20,11.5l-20.1,11.6l-20-11.5L622,446z M643,458.2l20,11.6l-20.1,11.6l-20.1-11.6L643,458.2z M664,470.3l20,11.5l-20.1,11.6
	l-20-11.5L664,470.3z M685,482.5l20,11.5l-20.1,11.6l-20-11.6L685,482.5z M686,481.9l20-11.5l20,11.6l-20,11.5L686,481.9z
	 M707,469.8l20-11.6l20,11.6l-20,11.6L707,469.8z M728,457.6l20-11.5l20,11.6l-20,11.5L728,457.6z M749,445.5l10.9-6.3l0.1,0.1
	l9.1-5.3l8.3,4.8l11.7,6.7l-20,11.6L749,445.5z M770.2,433.4l20-11.5l19.9,11.5l-20,11.5L770.2,433.4z M791.2,421.3l20-11.6
	l19.9,11.5l-20,11.6L791.2,421.3z M821.2,414.4l-9-5.2l20-11.5l20,11.5l-14.4,8.3h-0.1l-5.6,3.2L821.2,414.4z M833.2,397l20.1-11.6
	l20,11.5l-20.1,11.6L833.2,397z M854.3,384.9l20-11.5l20,11.5l-20,11.5L854.3,384.9z M875.3,372.7l20-11.6l20,11.5l-20,11.6
	L875.3,372.7z M874.3,372.2l-20.1-11.6l20-11.6l20.1,11.6L874.3,372.2z M853.2,360l-20-11.5l20-11.6l20,11.5L853.2,360z
	 M832.2,347.9l-20-11.6l20-11.6l20,11.6L832.2,347.9z M811.2,335.7l-20-11.5l20-11.6l20,11.5L811.2,335.7z M790.2,323.6L770.1,312
	l20-11.6l20.1,11.6L790.2,323.6z M769.1,311.4l-20-11.5l20-11.6l20,11.5L769.1,311.4z M748.1,299.3l-20-11.6l20-11.6l20,11.6
	L748.1,299.3z M727.1,287.2l-20-11.5l20-11.6l20,11.5L727.1,287.2z M706,275l-20.1-11.6l20-11.6l20.1,11.6L706,275z M684.9,262.8
	l-20-11.5l20-11.6l20,11.5L684.9,262.8z M683.9,263.4l-20,11.5l-20-11.5l20-11.5L683.9,263.4z M662.9,275.5l-20.1,11.6l-20-11.5
	l20.1-11.6L662.9,275.5z M641.8,287.7l-20,11.5l-20-11.5l20-11.5L641.8,287.7z M620.8,299.8l-20,11.6l-20-11.5l20-11.6L620.8,299.8z
	 M599.8,312l-20,11.5l-20-11.5l20-11.5L599.8,312z M578.8,324.1l-20.1,11.6l-20-11.5l20.1-11.6L578.8,324.1z M557.7,336.3l-20,11.5
	l-20-11.5l20-11.5L557.7,336.3z M536.7,348.4l-20,11.6l-20-11.5l20-11.6L536.7,348.4z M515.7,360.5l-20,11.5l-20-11.5l20-11.5
	L515.7,360.5z M494.7,372.7l-20,11.6l-20-11.5l20-11.6L494.7,372.7z M473.7,384.8l-20,11.5l-20-11.5l20-11.5L473.7,384.8z
	 M474.7,385.4l20,11.6l-20,11.5L454.6,397L474.7,385.4z M495.8,397.6l20,11.5l-10.8,6.3h-0.1l-9.1,5.3l-8.3-4.8l-11.7-6.7
	L495.8,397.6z M516.8,409.7l19.9,11.5l-20,11.5l-19.9-11.5L516.8,409.7z M537.8,421.8l20,11.5l-20,11.5l-20-11.5L537.8,421.8z
	 M552.3,437.7L552.3,437.7l6.5-3.8l10,5.8l10,5.8l-20,11.5l-20-11.5L552.3,437.7z M579.8,446.1l20,11.6l-20,11.5l-20-11.6
	L579.8,446.1z M600.8,458.2l20,11.5l-20,11.5l-20-11.5L600.8,458.2z M621.8,470.3l20.1,11.6l-20,11.5l-20.1-11.6L621.8,470.3z
	 M642.9,482.5l20,11.5l-20,11.5l-20-11.5L642.9,482.5z M663.9,494.6l20,11.6l-20,11.5l-20-11.6L663.9,494.6z M684.9,506.8l20,11.5
	l-20,11.5l-20-11.5L684.9,506.8z M685.9,506.2l20.1-11.6l20,11.5l-20.1,11.6L685.9,506.2z M707,494l20-11.5l20,11.5l-20,11.5
	L707,494z M728,481.9l20-11.6l20,11.5l-20,11.6L728,481.9z M749,469.7l20-11.5l20,11.5l-20,11.5L749,469.7z M770,457.6l20-11.6
	l20,11.5l-20,11.6L770,457.6z M791,445.5l11-6.2h0.1l9.2-5.3l8.2,4.8l0,0l11.7,6.7l-20,11.6L791,445.5z M812.1,433.4l20-11.6
	l19.9,11.5l-20,11.6L812.1,433.4z M833.1,421.2l20-11.5l19.9,11.5l-20,11.5L833.1,421.2z M863.1,414.3l-9-5.2l20.1-11.6l20,11.6
	l-14.5,8.3l-0.1-0.1l-5.6,3.2L863.1,414.3z M875.1,397l20-11.5l20,11.6l-20,11.5L875.1,397z M896.1,384.8l20-11.6l20,11.6l-20,11.6
	L896.1,384.8z M917.1,372.7l20-11.5l20,11.6l-20,11.5L917.1,372.7z M916.1,372.1l-20-11.5l20-11.5l20,11.5L916.1,372.1z M895.1,360
	L875,348.4l20-11.5l20.1,11.6L895.1,360z M874,347.8l-20-11.5l20-11.5l20,11.5L874,347.8z M853,335.7l-20-11.6l20-11.5l20,11.6
	L853,335.7z M832,323.5L812,312l20-11.5l20,11.5L832,323.5z M811,311.4l-20.1-11.6l20-11.5l20.3,11.6L811,311.4z M789.9,299.2
	l-20-11.5l20-11.5l20,11.5L789.9,299.2z M768.9,287.1l-20-11.6l20-11.5l20,11.6L768.9,287.1z M747.9,275l-20-11.5l20-11.5l20,11.5
	L747.9,275z M726.9,262.9L707,251.3l20-11.5l20.1,11.6L726.9,262.9z M706,250.7l-20-11.5l20-11.5l20,11.5L706,250.7z M685,238.6
	L665,227l20-11.5l20,11.5L685,238.6z M684,239.2l-20,11.6l-20-11.6l20-11.6L684,239.2z M663,251.3l-20,11.5l-20-11.6l20-11.5
	L663,251.3z M642,263.4L621.9,275l-20-11.6l20.1-11.6L642,263.4z M620.9,275.6l-20,11.5l-20-11.6l20-11.5L620.9,275.6z M599.9,287.7
	l-20,11.6l-20-11.6l20-11.6L599.9,287.7z M578.9,299.9l-20,11.5l-20-11.6l20-11.5L578.9,299.9z M557.9,312l-20.1,11.6l-20-11.6
	l20.1-11.6L557.9,312z M536.8,324.2l-20,11.5l-20-11.6l20-11.5L536.8,324.2z M515.8,336.3l-20,11.6l-20-11.6l20-11.6L515.8,336.3z
	 M494.8,348.4l-20,11.5l-20-11.6l20-11.5L494.8,348.4z M473.8,360.6l-20,11.6l-20-11.6l20-11.6L473.8,360.6z M452.8,372.7l-20,11.5
	l-20-11.6l20-11.5L452.8,372.7z M431.8,384.8l-20,11.6l-20-11.6l20-11.6L431.8,384.8z M432.8,385.4l20,11.5l-20,11.6L412.6,397
	L432.8,385.4z M453.8,397.5l20.1,11.6l-10,5.8l-0.1-0.1l-10.1,5.8l-7.3-4.2l-12.7-7.3L453.8,397.5z M474.9,409.7l19.9,11.5l-20,11.6
	l-19.9-11.5L474.9,409.7z M495.9,421.8l19.9,11.5l-20,11.6l-20.1-11.5L495.9,421.8z M510.3,437.7l0.1,0.1l6.5-3.8l10,5.8l10,5.8
	l-20,11.6l-20.1-11.6L510.3,437.7z M538,446.1l20,11.5l-20,11.6l-20-11.5L538,446.1z M559,458.2l20,11.6l-20,11.6l-20-11.6
	L559,458.2z M580,470.4l20,11.5l-20,11.6l-20-11.5L580,470.4z M601,482.5l20.1,11.6l-20,11.6L581,494L601,482.5z M622,494.6l20,11.5
	l-20,11.6l-20-11.5L622,494.6z M643,506.8l20,11.6l-20,11.6l-20-11.6L643,506.8z M664,518.9l20,11.5L664,542l-20-11.5L664,518.9z
	 M685,531l20.1,11.6l-20,11.6L665,542.6L685,531z M686,530.5l20-11.5l20.1,11.6l-20,11.5L686,530.5z M707,518.3l20-11.6l20.1,11.6
	L727,529.9L707,518.3z M728,506.2l20-11.5l20.1,11.6l-20,11.5L728,506.2z M749,494l20-11.6l20.1,11.6l-20,11.6L749,494z M770,481.9
	l20-11.5l20.1,11.6l-20,11.5L770,481.9z M791,469.7l20-11.6l20.1,11.6l-20,11.6L791,469.7z M812,457.6l20-11.5l20.1,11.6l-20,11.5
	L812,457.6z M833,445.5l10-5.8l0.1,0.1l10.1-5.8l7.3,4.2l0,0l12.7,7.3l-20,11.6L833,445.5z M854.2,433.4l20-11.5l20,11.5l-20,11.5
	L854.2,433.4z M875.2,421.3l20.1-11.6l20,11.5l-20.1,11.6L875.2,421.3z M904.5,413.8L904.5,413.8l-8.2-4.7l20-11.5l20,11.5
	l-15.3,8.8l0,0l-4.7,2.7L904.5,413.8z M917.3,397l20-11.6l20,11.5l-20,11.6L917.3,397z M938.3,384.8l20-11.5l20,11.5l-20,11.5
	L938.3,384.8z M959.3,372.7l20.1-11.6l20,11.5l-20.1,11.6L959.3,372.7z M958.3,372.1l-20-11.6l20.1-11.6l20,11.6L958.3,372.1z
	 M937.3,360l-20-11.5l20.1-11.6l20,11.5L937.3,360z M916.3,347.9l-20.1-11.6l20.1-11.6l20.1,11.6L916.3,347.9z M895.2,335.7
	l-20-11.5l20.1-11.6l20,11.5L895.2,335.7z M874.2,323.6l-20-11.6l20.1-11.6l20,11.6L874.2,323.6z M853.2,311.4l-20-11.5l20.1-11.6
	l20,11.5L853.2,311.4z M832.2,299.3l-20.1-11.6l20.1-11.6l20.1,11.6L832.2,299.3z M811.2,287.1l-20-11.5l20.1-11.6l20,11.5
	L811.2,287.1z M790.2,275l-20-11.6l20.1-11.6l20,11.6L790.2,275z M769.2,262.9l-20-11.5l20.1-11.6l20,11.5L769.2,262.9z
	 M748.2,250.7L728,239.2l20.1-11.6l20.1,11.6L748.2,250.7z M727,238.6L707,227l20.1-11.6l20,11.5L727,238.6z M706,226.5l-20-11.6
	l20.1-11.6l20,11.6L706,226.5z M685,214.3l-20-11.5l20.1-11.6l20,11.5L685,214.3z M684,214.9l-20,11.5l-20-11.5l20-11.5L684,214.9z
	 M663,227l-20,11.6L622.9,227l20-11.6L663,227z M642,239.2l-20,11.5l-20-11.5l20-11.5L642,239.2z M621,251.3l-20.1,11.6l-20-11.5
	l20.1-11.6L621,251.3z M599.9,263.5l-20,11.5l-20-11.5l20-11.5L599.9,263.5z M578.9,275.6l-20,11.6l-20-11.5l20-11.6L578.9,275.6z
	 M557.9,287.7l-20,11.6l-20-11.5l20-11.5L557.9,287.7z M536.9,299.8l-20.1,11.6l-20-11.5l20.1-11.6L536.9,299.8z M515.7,312
	l-20,11.5l-20-11.5l20-11.5L515.7,312z M494.7,324.1l-20,11.6l-20-11.5l20-11.6L494.7,324.1z M473.7,336.3l-20,11.5l-20-11.5
	l20-11.5L473.7,336.3z M452.7,348.4L432.6,360l-20-11.5l20-11.6L452.7,348.4z M431.7,360.5l-20,11.5l-20-11.5l20-11.5L431.7,360.5z
	 M410.7,372.7l-20,11.6l-20-11.5l20-11.6L410.7,372.7z M389.7,384.8l-20,11.5l-20-11.5l20-11.5L389.7,384.8z M390.7,385.4l20,11.6
	l-20,11.5l-20-11.6L390.7,385.4z M411.7,397.5l20,11.5l-9.9,5.7l0,0l-10.1,5.8l-7.3-4.2l-12.7-7.3L411.7,397.5z M432.7,409.7
	l20,11.5l-20,11.5l-20-11.5L432.7,409.7z M453.8,421.8l19.9,11.5l-20,11.5l-20-11.5L453.8,421.8z M469,437.2L469,437.2l5.7-3.2
	l10.9,6.3l9,5.2l-20,11.5l-20-11.5L469,437.2z M495.6,446l20.1,11.6l-20,11.5l-20.1-11.6L495.6,446z M516.7,458.2l20,11.5l-20,11.5
	l-20-11.5L516.7,458.2z M537.7,470.4l20,11.6l-20,11.5l-20-11.6L537.7,470.4z M558.7,482.5l20,11.5l-20,11.5l-20-11.5L558.7,482.5z
	 M579.7,494.6l20.1,11.6l-20,11.5l-20.1-11.6L579.7,494.6z M600.8,506.8l20,11.5l-20,11.5l-20-11.5L600.8,506.8z M621.8,518.9
	l20,11.6l-20,11.5l-20-11.6L621.8,518.9z M642.8,531.1l20,11.5l-20,11.5l-20-11.5L642.8,531.1z M663.8,543.2l20.1,11.6l-20,11.5
	l-20.1-11.6L663.8,543.2z M685,555.4l20,11.5l-20,11.5l-20-11.5L685,555.4z M686,554.8l20-11.6l20,11.5l-20,11.6L686,554.8z
	 M707,542.6l20-11.5l20,11.5l-20,11.5L707,542.6z M728,530.5l20.1-11.6l20,11.5L748,542.1L728,530.5z M749.1,518.3l20-11.5l20,11.5
	l-20,11.5L749.1,518.3z M770.1,506.2l20-11.6l20,11.5l-20,11.6L770.1,506.2z M791.1,494.1l20-11.5l20,11.5l-20,11.5L791.1,494.1z
	 M812.1,481.9l20-11.6l20,11.5l-20,11.6L812.1,481.9z M833.1,469.8l20-11.5l20,11.5l-20,11.5L833.1,469.8z M854.1,457.7l20-11.6
	l20,11.5l-20,11.6L854.1,457.7z M875.1,445.5l9.9-5.7l0,0l10.1-5.8l7.3,4.2l0,0l12.7,7.3l-20,11.5L875.1,445.5z M896.1,433.4
	l20.1-11.6l20,11.5L916.3,445L896.1,433.4z M917.2,421.2l20-11.5l20,11.5l-20,11.5L917.2,421.2z M946.4,413.8L946.4,413.8l-8.2-4.7
	l20-11.6l20,11.6l-15.3,8.8h-0.1l-4.7,2.7L946.4,413.8z M959.4,397l20-11.5l20,11.6l-20,11.5L959.4,397z M980.4,384.9l20.1-11.6
	l20,11.6l-20.1,11.6L980.4,384.9z M1001.5,372.7l20-11.5l20,11.6l-20,11.5L1001.5,372.7z M1000.5,372.1l-20-11.5l20-11.5l20,11.5
	L1000.5,372.1z M979.5,360l-20-11.6l20-11.5l20,11.6L979.5,360z M958.5,347.8l-20-11.5l20-11.5l20,11.5L958.5,347.8z M937.5,335.7
	l-20.1-11.6l20-11.5l20.1,11.6L937.5,335.7z M916.4,323.5l-20-11.5l20-11.5l20,11.5L916.4,323.5z M895.4,311.4l-20-11.6l20-11.5
	l20,11.6L895.4,311.4z M874.4,299.3l-20-11.5l20-11.5l20,11.5L874.4,299.3z M853.4,287.1l-20.1-11.6l20-11.5l20.1,11.6L853.4,287.1z
	 M832.2,275l-20-11.5l20-11.5l20,11.5L832.2,275z M811.2,262.9l-20-11.6l20-11.5l20,11.6L811.2,262.9z M790.2,250.7l-20-11.5
	l20-11.5l20,11.5L790.2,250.7z M769.2,238.6L749.1,227l20-11.5l20.1,11.6L769.2,238.6z M748.1,226.4l-20-11.5l20-11.5l20,11.5
	L748.1,226.4z M727.1,214.3l-20-11.6l20-11.5l20,11.6L727.1,214.3z M706.1,202.2l-20-11.5L706,179l20,11.5L706.1,202.2z M685,190
	l-20.2-11.6l20-11.5l20.2,11.6L685,190z M684,190.6l-20.1,11.6l-20.2-11.6l20.1-11.5L684,190.6z M662.9,202.8l-20,11.5l-20.2-11.6
	l20-11.5L662.9,202.8z M641.9,214.9l-20,11.6l-20.2-11.6l20-11.6L641.9,214.9z M620.9,227l-20,11.5L580.7,227l20-11.5L620.9,227z
	 M599.9,239.1l-20.1,11.6l-20.2-11.6l20.1-11.6L599.9,239.1z M578.8,251.3l-20,11.5l-20.2-11.6l20-11.5L578.8,251.3z M557.8,263.4
	l-20,11.6l-20.2-11.6l20-11.6L557.8,263.4z M536.8,275.6l-20,11.5l-20.2-11.6l20-11.5L536.8,275.6z M515.8,287.7l-20.1,11.6
	l-20.2-11.6l20.1-11.6L515.8,287.7z M494.7,299.9l-20,11.5l-20.2-11.6l20-11.5L494.7,299.9z M473.7,312l-20,11.6L433.5,312l20-11.6
	L473.7,312z M452.7,324.1l-20,11.5L412.6,324l20-11.5L452.7,324.1z M431.7,336.3l-20,11.6l-20.2-11.6l20-11.6L431.7,336.3z
	 M410.7,348.4l-20,11.5l-20.1-11.6l20-11.5L410.7,348.4z M389.7,360.5l-20,11.6l-20.3-11.6l20-11.6L389.7,360.5z M368.7,372.7
	l-20,11.5l-20.3-11.6l20-11.5L368.7,372.7z M347.7,384.8l-20.1,11.6l-20.3-11.6l20.1-11.6L347.7,384.8z M348.7,385.4l20,11.5
	l-20.1,11.6l-20-11.5L348.7,385.4z M369.7,397.5l20,11.6l-10.1,5.8h-0.1l-10,5.8l-6.5-3.8l0,0l-13.5-7.8L369.7,397.5z M390.7,409.6
	l20,11.5l-20.2,11.6l-20-11.5L390.7,409.6z M411.7,421.8l20,11.5l-20.1,11.6l-20-11.5L411.7,421.8z M427,437.1l0.1,0.1l5.6-3.2
	l10.9,6.3l9,5.2l-20.1,11.6l-20-11.6L427,437.1z M453.7,446l20,11.5l-20.1,11.6l-20-11.5L453.7,446z M474.7,458.2l20.1,11.6
	l-20.1,11.6l-20.1-11.6L474.7,458.2z M495.8,470.4l20,11.5l-20.1,11.6l-20-11.5L495.8,470.4z M516.8,482.5l20,11.6l-20.1,11.6
	l-20-11.6L516.8,482.5z M537.8,494.6l20,11.5l-20.1,11.6l-20-11.5L537.8,494.6z M558.8,506.8l20.1,11.6l-20.1,11.6l-20.1-11.6
	L558.8,506.8z M579.8,518.9l20,11.5L579.8,542l-20-11.5L579.8,518.9z M600.8,531l20,11.6l-20,11.6l-20-11.6L600.8,531z M621.8,543.2
	l20,11.5l-20.1,11.6l-20-11.5L621.8,543.2z M642.8,555.3l20.2,11.6l-20.1,11.6l-20.1-11.6L642.8,555.3z M664,567.5l20,11.5
	l-20.1,11.6l-20-11.5L664,567.5z M685,579.6l20,11.6l-20.1,11.6l-20-11.6L685,579.6z M686,579l20-11.5l20,11.6l-20,11.5L686,579z
	 M707,566.9l20-11.6l20,11.6l-20,11.6L707,566.9z M728,554.8l20-11.5l20,11.6l-20,11.5L728,554.8z M749,542.6l20.1-11.6l20,11.6
	L769,554.2L749,542.6z M770.1,530.5l20-11.5l20,11.6l-20,11.5L770.1,530.5z M791.1,518.3l20-11.6l20,11.6l-20,11.6L791.1,518.3z
	 M812.1,506.2l20-11.5l20,11.6l-20,11.5L812.1,506.2z M833.1,494.1l20-11.6l20,11.6l-20,11.6L833.1,494.1z M854.1,481.9l20-11.5
	l20,11.6l-20,11.5L854.1,481.9z M875.1,469.8l20-11.6l20,11.6l-20,11.6L875.1,469.8z M896.1,457.6l20-11.5l20,11.6l-20,11.5
	L896.1,457.6z M917.1,445.5l10.1-5.8h0.1l10-5.8l6.5,3.8l0,0l13.4,7.8l-20.1,11.6L917.1,445.5z M938.3,433.4l20-11.5l20,11.5
	l-20,11.5L938.3,433.4z M959.3,421.3l20-11.5l20,11.5l-20,11.5L959.3,421.3z M987.6,413.3L987.6,413.3l-7.3-4.2l20-11.5l20,11.5
	l-16.2,9.3l0,0l-3.8,2.2L987.6,413.3z M1001.3,397l20.1-11.6l20,11.5l-20.1,11.6L1001.3,397z M1022.4,384.8l20-11.5l20,11.5
	l-20,11.5L1022.4,384.8z M1043.4,372.7l20-11.6l20,11.5l-20,11.6L1043.4,372.7z M1042.4,372.1l-20-11.6l20-11.6l20,11.6
	L1042.4,372.1z M1021.4,360l-20-11.5l20-11.6l20,11.5L1021.4,360z M1000.4,347.9l-20-11.6l20-11.6l20,11.6L1000.4,347.9z
	 M979.4,335.7l-20-11.5l20-11.6l20,11.5L979.4,335.7z M958.4,323.6L938.3,312l20-11.6l20.1,11.6L958.4,323.6z M937.3,311.4l-20-11.5
	l20-11.6l20,11.5L937.3,311.4z M916.3,299.3l-20-11.6l20-11.6l20,11.6L916.3,299.3z M895.3,287.1l-20-11.5l20-11.6l20,11.5
	L895.3,287.1z M874.3,275l-20.1-11.6l20-11.6l20.1,11.6L874.3,275z M853.2,262.8l-20-11.5l20-11.6l20,11.5L853.2,262.8z
	 M832.2,250.7l-20-11.6l20-11.6l20,11.6L832.2,250.7z M811.2,238.6l-20-11.5l20-11.6l20,11.5L811.2,238.6z M790.2,226.4l-20.1-11.6
	l20-11.6l20.1,11.6L790.2,226.4z M769.1,214.3l-20-11.5l20-11.6l20,11.5L769.1,214.3z M748.1,202.1l-20-11.6l20-11.6l20,11.6
	L748.1,202.1z M727,190l-20-11.5l20-11.6l20,11.5L727,190z M706,177.9l-20.2-11.6l20-11.6l20.2,11.6L706,177.9z M684.8,165.7
	l-20-11.5l20-11.6l20,11.5L684.8,165.7z M683.8,166.2l-20,11.5l-20-11.5l20-11.5L683.8,166.2z M662.8,178.4L642.8,190l-20-11.5
	l20.1-11.6L662.8,178.4z M641.7,190.6l-20,11.5l-20-11.5l20-11.5L641.7,190.6z M620.7,202.7l-20,11.6l-20-11.5l20-11.6L620.7,202.7z
	 M599.7,214.8l-20,11.5l-20-11.5l20-11.5L599.7,214.8z M578.7,226.9l-20.1,11.6l-20-11.5l20.1-11.6L578.7,226.9z M557.7,239.1
	l-20,11.5l-20-11.5l20-11.5L557.7,239.1z M536.7,251.2l-20,11.6l-20-11.5l20-11.6L536.7,251.2z M515.7,263.4l-20,11.5l-20-11.5
	l20-11.5L515.7,263.4z M494.7,275.5l-20.1,11.6l-20-11.5l20.1-11.6L494.7,275.5z M473.6,287.7l-20,11.6l-20-11.5l20-11.5
	L473.6,287.7z M452.6,299.8l-20,11.6l-20-11.5l20-11.6L452.6,299.8z M431.6,311.9l-20,11.5l-20-11.5l20-11.5L431.6,311.9z
	 M410.6,324.1l-20,11.6l-20-11.5l20-11.6L410.6,324.1z M389.6,336.2l-20,11.5l-20-11.5l20-11.5L389.6,336.2z M368.6,348.3l-20,11.6
	l-20-11.5l20-11.6L368.6,348.3z M347.6,360.5L327.4,372l-20-11.5l20-11.5L347.6,360.5z M326.6,372.6l-20.1,11.6l-20-11.5l20.1-11.6
	L326.6,372.6z M305.5,384.8l-20,11.5l-20-11.5l20-11.5L305.5,384.8z M306.5,385.4l20,11.6l-20,11.5l-20.2-11.6L306.5,385.4z
	 M327.6,397.6l20,11.5l-10,5.8l0,0l-10,5.8l-6.5-3.8l0,0l-13.5-7.8L327.6,397.6z M348.6,409.7l20,11.5l-20,11.5l-20-11.5
	L348.6,409.7z M369.6,421.8l20,11.5l-20,11.5l-20-11.5L369.6,421.8z M385.9,436.7L385.9,436.7l4.6-2.7l11.8,6.8l0,0l8.2,4.7
	l-20,11.5l-20-11.5L385.9,436.7z M411.6,446.1l20,11.6l-20,11.5l-20-11.6L411.6,446.1z M432.6,458.2l20,11.5l-20,11.5l-20-11.5
	L432.6,458.2z M453.6,470.3l20.1,11.6l-20,11.5l-20.1-11.6L453.6,470.3z M474.7,482.5l20,11.5l-20,11.5l-20-11.5L474.7,482.5z
	 M495.7,494.6l20,11.6l-20,11.5l-20-11.6L495.7,494.6z M516.7,506.8l20,11.5l-20,11.5l-20-11.5L516.7,506.8z M537.7,518.9l20.1,11.6
	l-20,11.5l-20.1-11.6L537.7,518.9z M558.8,531.1l20,11.5l-20,11.5l-20-11.5L558.8,531.1z M579.8,543.2l20,11.6l-20,11.5l-20-11.6
	L579.8,543.2z M600.8,555.3l20,11.5l-20,11.5l-20-11.5L600.8,555.3z M621.8,567.5l20.1,11.6l-20,11.5L601.8,579L621.8,567.5z
	 M642.9,579.6l20,11.5l-20,11.5l-20-11.5L642.9,579.6z M663.9,591.8l20,11.6l-20,11.5l-20-11.6L663.9,591.8z M684.9,603.9l20,11.5
	l-20,11.5l-20-11.5L684.9,603.9z M685.9,603.3l20.1-11.6l20,11.5l-20,11.6L685.9,603.3z M707,591.2l20-11.5l20,11.5l-20,11.5
	L707,591.2z M728,579l20-11.6l20,11.5l-20,11.6L728,579z M749,566.9l20-11.5l20,11.5l-20,11.5L749,566.9z M770,554.8l20.1-11.6
	l20,11.5L790,566.3L770,554.8z M791.1,542.6l20-11.5l20,11.5l-20,11.5L791.1,542.6z M812.1,530.5l20-11.6l20,11.5l-20,11.6
	L812.1,530.5z M833.1,518.3l20-11.5l20,11.5l-20,11.5L833.1,518.3z M854.1,506.2l20-11.6l20,11.5l-20,11.6L854.1,506.2z
	 M875.1,494.1l20-11.5l20,11.5l-20,11.5L875.1,494.1z M896.1,481.9l20-11.6l20,11.5l-20,11.6L896.1,481.9z M917.1,469.8l20-11.5
	l20,11.5l-20,11.5L917.1,469.8z M938.1,457.7l20.1-11.6l20,11.5l-20.1,11.6L938.1,457.7z M959.2,445.5l10-5.8l0,0l10-5.8l6.5,3.8
	l0,0l13.5,7.8l-20,11.5L959.2,445.5z M980.2,433.4l20-11.5l20,11.5l-20,11.5L980.2,433.4z M1001.2,421.2l20-11.5l20,11.5l-20,11.5
	L1001.2,421.2z M1029.5,413.3L1029.5,413.3l-7.3-4.2l20.1-11.6l20,11.6l-16.3,9.4h-0.1l-3.8,2.2L1029.5,413.3z M1043.5,397l20-11.5
	l20,11.6l-20,11.5L1043.5,397z M1064.5,384.9l20-11.6l20,11.6l-20,11.6L1064.5,384.9z M1085.5,372.7l20-11.5l20,11.6l-20,11.5
	L1085.5,372.7z M1084.5,372.2l-20-11.5l20-11.5l20,11.5L1084.5,372.2z M1063.5,360l-20-11.6l20-11.5l20,11.6L1063.5,360z
	 M1042.5,347.9l-20-11.5l20-11.5l20,11.5L1042.5,347.9z M1021.5,335.8l-20-11.6l20-11.5l20,11.6L1021.5,335.8z M1000.5,323.6
	l-20-11.5l20-11.5l20,11.5L1000.5,323.6z M979.5,311.5l-20.1-11.6l20-11.5l20.1,11.6L979.5,311.5z M958.4,299.3l-20-11.5l20-11.5
	l20,11.5L958.4,299.3z M937.4,287.2l-20-11.6l20-11.5l20,11.6L937.4,287.2z M916.4,275l-20-11.5l20-11.5l20,11.5L916.4,275z
	 M895.4,262.9l-20.1-11.6l20-11.5l20.1,11.6L895.4,262.9z M874.4,250.8l-20-11.5l20-11.5l20,11.5L874.4,250.8z M853.4,238.6
	l-20-11.6l20-11.5l20,11.6L853.4,238.6z M832.4,226.5l-20-11.5l20-11.5l20,11.5L832.4,226.5z M811.4,214.4l-20.1-11.6l20-11.5
	l20.1,11.6L811.4,214.4z M790.3,202.2l-20-11.5l20-11.5l20,11.5L790.3,202.2z M769.3,190.1l-20-11.6l20-11.5l20,11.6L769.3,190.1z
	 M748.3,177.9l-20-11.5l20-11.5l20,11.5L748.3,177.9z M727.3,165.8l-20.2-11.6l20-11.5l20.2,11.6L727.3,165.8z M706.1,153.6
	l-20-11.5l20-11.5l20,11.5L706.1,153.6z M685.1,141.5l-20-11.6l20-11.5l20,11.6L685.1,141.5z M684.1,142l-20,11.6l-20-11.6l20-11.6
	L684.1,142z M663.1,154.2l-20,11.5l-20-11.6l20-11.5L663.1,154.2z M642.1,166.3L622,177.9l-20-11.6l20.1-11.6L642.1,166.3z
	 M621,178.5L601,190l-20-11.6l20-11.5L621,178.5z M600,190.6l-20,11.6l-20-11.6l20-11.6L600,190.6z M579,202.7l-20,11.5l-20-11.6
	l20-11.5L579,202.7z M558,214.9l-20.1,11.6l-20-11.6l20.1-11.6L558,214.9z M536.7,227l-20,11.5l-20-11.6l20-11.5L536.7,227z
	 M515.7,239.1l-20,11.6l-20-11.6l20-11.6L515.7,239.1z M494.7,251.3l-20,11.5l-20-11.6l20-11.5L494.7,251.3z M473.7,263.4L453.5,275
	l-20-11.6l20.1-11.6L473.7,263.4z M452.6,275.6l-20,11.5l-20-11.6l20-11.5L452.6,275.6z M431.6,287.7l-20,11.6l-20-11.6l20-11.6
	L431.6,287.7z M410.6,299.8l-20,11.5l-20-11.6l20-11.5L410.6,299.8z M389.6,312l-20,11.6L349.4,312l20-11.6L389.6,312z M368.6,324.1
	l-20,11.5l-20-11.6l20-11.5L368.6,324.1z M347.6,336.2l-20,11.6l-20-11.6l20-11.6L347.6,336.2z M326.6,348.4l-20,11.5l-20-11.6
	l20-11.5L326.6,348.4z M305.6,360.5l-20.1,11.6l-20-11.6l20.1-11.6L305.6,360.5z M284.5,372.7l-20,11.5l-20-11.6l20-11.5
	L284.5,372.7z M263.5,384.8l-20,11.6l-20-11.6l20-11.6L263.5,384.8z M264.5,385.4l20,11.5l-20,11.6l-20-11.5L264.5,385.4z
	 M285.5,397.5l20.1,11.6l-9.1,5.3h-0.1l-10.9,6.3l-5.6-3.2l0,0l-14.5-8.4L285.5,397.5z M306.6,409.7l20,11.5l-20,11.5l-20-11.5
	L306.6,409.7z M327.6,421.8l20,11.5l-20,11.5l-20-11.5L327.6,421.8z M343.9,436.7L343.9,436.7l4.8-2.7l11.8,6.8l0,0l8.2,4.7
	l-20,11.6l-20-11.6L343.9,436.7z M369.6,446.1l20,11.5l-20,11.6l-20-11.5L369.6,446.1z M390.7,458.2l20,11.6l-20,11.6l-20-11.6
	L390.7,458.2z M411.7,470.4l20,11.5l-20,11.6l-20-11.5L411.7,470.4z M432.7,482.5l20.1,11.6l-20,11.6L412.5,494L432.7,482.5z
	 M453.8,494.7l20,11.5l-20,11.6l-20-11.5L453.8,494.7z M474.8,506.8l20,11.6l-20,11.6l-20-11.6L474.8,506.8z M495.8,518.9l20,11.5
	l-20,11.6l-20-11.5L495.8,518.9z M516.8,531.1l20.1,11.6l-20,11.6l-20.2-11.6L516.8,531.1z M537.8,543.2l20,11.5l-20,11.6l-20-11.5
	L537.8,543.2z M558.8,555.3l20,11.6l-20,11.6l-20-11.6L558.8,555.3z M579.8,567.5l20,11.5l-20,11.6l-20-11.5L579.8,567.5z
	 M600.8,579.6l20.1,11.6l-20,11.6l-20.1-11.6L600.8,579.6z M621.9,591.8l20,11.5l-20,11.6l-20-11.5L621.9,591.8z M642.9,603.9
	l20,11.6l-20,11.5l-20-11.6L642.9,603.9z M663.9,616.1l20,11.5l-20,11.6l-20-11.5L663.9,616.1z M684.9,628.2l20.2,11.6l-20,11.6
	l-20.2-11.6L684.9,628.2z M685.9,627.6L706,616l20.2,11.6l-20,11.5L685.9,627.6z M706.9,615.5l20.1-11.6l20.2,11.6l-20.1,11.6
	L706.9,615.5z M728,603.3l20-11.5l20.2,11.6l-20,11.5L728,603.3z M749,591.2l20-11.6l20.2,11.6l-20,11.6L749,591.2z M770,579
	l20-11.5l20.2,11.6l-20,11.5L770,579z M791,566.9l20.1-11.6l20.2,11.6l-20.1,11.6L791,566.9z M812.1,554.7l20-11.5l20.2,11.6
	l-20,11.5L812.1,554.7z M833.1,542.6l20-11.6l20.2,11.6l-20,11.6L833.1,542.6z M854.1,530.5l20-11.5l20.2,11.6l-20,11.5L854.1,530.5
	z M875.1,518.3l20-11.6l20.2,11.6l-20,11.6L875.1,518.3z M896.1,506.2l20-11.5l20.2,11.6l-20,11.5L896.1,506.2z M917.1,494.1
	l20-11.6l20.2,11.6l-20,11.6L917.1,494.1z M938.1,481.9l20-11.5l20.3,11.6l-20,11.5L938.1,481.9z M959.1,469.8l20.1-11.6l20.2,11.6
	l-20.1,11.6L959.1,469.8z M980.2,457.6l20-11.5l20.2,11.6l-20,11.5L980.2,457.6z M1001.2,445.5l9.1-5.3h0.1l10.9-6.3l5.6,3.2l0,0
	l14.5,8.4l-20,11.6L1001.2,445.5z M1043.3,421.3l20.1-11.6l20,11.5l-20.1,11.6L1043.3,421.3z M1070.8,412.8l-6.5-3.7l20-11.5
	l20,11.5l-20,11.5L1070.8,412.8z M1085.6,397l20-11.6l20,11.5l-20,11.6L1085.6,397z M1106.6,384.9l20-11.5l20,11.5l-20,11.5
	L1106.6,384.9z M1127.6,372.7l20.2-11.6l20,11.5l-20.2,11.6L1127.6,372.7z M1126.6,372.2l-20-11.6l20.2-11.6l20,11.6L1126.6,372.2z
	 M1105.6,360l-20-11.5l20.2-11.6l20,11.5L1105.6,360z M1084.6,347.9l-20-11.6l20.2-11.6l20,11.6L1084.6,347.9z M1063.6,335.7
	l-20-11.5l20.2-11.6l20,11.5L1063.6,335.7z M1042.6,323.6l-20-11.6l20.2-11.6l20,11.6L1042.6,323.6z M1021.6,311.5l-20-11.5
	l20.2-11.6l20,11.5L1021.6,311.5z M1000.6,299.3l-20.1-11.6l20.2-11.6l20.1,11.6L1000.6,299.3z M979.5,287.2l-20-11.5l20.1-11.6
	l20,11.5L979.5,287.2z M958.5,275l-20-11.6l20.2-11.6l20,11.6L958.5,275z M937.5,262.9l-20-11.5l20.2-11.6l20,11.5L937.5,262.9z
	 M916.5,250.8l-20.1-11.6l20.1-11.6l20.1,11.6L916.5,250.8z M895.4,238.6l-20-11.5l20.2-11.6l20,11.5L895.4,238.6z M874.4,226.5
	l-20-11.6l20.2-11.6l20,11.6L874.4,226.5z M853.4,214.3l-20-11.5l20.2-11.6l20,11.5L853.4,214.3z M832.4,202.2l-20.1-11.6l20-11.6
	l20.1,11.6L832.4,202.2z M811.1,190l-20-11.5l20.2-11.6l20,11.5L811.1,190z M790.1,177.9l-20-11.6l20.2-11.6l20,11.6L790.1,177.9z
	 M769.1,165.7l-20-11.5l20.2-11.6l20,11.5L769.1,165.7z M748.1,153.6L727.9,142l20.2-11.6l20.2,11.6L748.1,153.6z M727,141.4
	l-20-11.5l20.2-11.6l20,11.5L727,141.4z M706,129.3l-20-11.6l20-11.6l20,11.6L706,129.3z M685,117.1l-20-11.5L685,94l20,11.5
	L685,117.1z M684,117.7l-20,11.5l-20-11.5l20-11.5L684,117.7z M663,129.8l-20,11.6l-20-11.5l20-11.6L663,129.8z M642,142l-20,11.5
	L602,142l20-11.5L642,142z M621,154.1l-20.1,11.6l-20-11.5l20.1-11.6L621,154.1z M599.9,166.3l-20,11.5l-20-11.5l20-11.5
	L599.9,166.3z M578.9,178.4L558.7,190l-20-11.5l20-11.6L578.9,178.4z M557.9,190.5l-20,11.5l-20-11.5l20-11.5L557.9,190.5z
	 M536.9,202.7l-20.1,11.6l-20-11.5l20.1-11.6L536.9,202.7z M515.8,214.8l-20,11.5l-20-11.5l20-11.5L515.8,214.8z M494.8,227
	l-20,11.6l-20-11.5l20-11.6L494.8,227z M473.8,239.1l-20,11.5l-20-11.5l20-11.5L473.8,239.1z M452.8,251.2l-20.1,11.6l-20-11.5
	l20.1-11.6L452.8,251.2z M431.7,263.4l-20,11.5l-20-11.5l20-11.5L431.7,263.4z M410.7,275.5l-20,11.6l-20-11.5l20-11.6L410.7,275.5z
	 M389.7,287.7l-20,11.6l-20-11.5l20-11.5L389.7,287.7z M368.7,299.8l-20,11.6l-20-11.5l20-11.6L368.7,299.8z M347.4,312l-20,11.5
	l-20-11.5l20-11.5L347.4,312z M326.4,324.1l-20,11.6l-20-11.5l20-11.6L326.4,324.1z M305.4,336.3l-20,11.5l-20-11.5l20-11.5
	L305.4,336.3z M284.4,348.4L264.3,360l-20-11.5l20.1-11.6L284.4,348.4z M263.3,360.6l-20,11.5l-20-11.5l20-11.5L263.3,360.6z
	 M242.3,372.7l-20,11.6l-20-11.5l20-11.6L242.3,372.7z M221.3,384.8l-20,11.5l-20-11.5l20-11.5L221.3,384.8z M222.3,385.4l20,11.6
	l-20,11.5l-20-11.6L222.3,385.4z M243.3,397.6l20,11.5l-20,11.5l-5.5-3.2l0,0l-14.5-8.4L243.3,397.6z M255.3,414.9l9-5.2l20.1,11.6
	l-20,11.5l-20-11.5l11-6.3L255.3,414.9z M285.5,421.9l20,11.5l-20,11.5l-20-11.5L285.5,421.9z M302.7,436.2L302.7,436.2l3.8-2.2
	l12.7,7.3l0,0l7.3,4.2l-20,11.5l-20-11.5L302.7,436.2z M327.5,446.1l20,11.6l-20,11.5l-20-11.6L327.5,446.1z M348.5,458.3l20,11.5
	l-20,11.5l-20-11.5L348.5,458.3z M369.5,470.4l20,11.6l-20,11.5l-20-11.6L369.5,470.4z M390.5,482.5l20,11.5l-20,11.5l-20-11.6
	L390.5,482.5z M411.5,494.7l20.1,11.6l-20,11.5l-20.1-11.6L411.5,494.7z M432.6,506.8l20,11.5l-20,11.5l-20-11.5L432.6,506.8z
	 M453.6,519l20,11.6l-20,11.5l-20-11.6L453.6,519z M474.6,531.1l20,11.5l-20,11.5l-20-11.5L474.6,531.1z M495.6,543.2l20.1,11.6
	l-20,11.5l-20.1-11.6L495.6,543.2z M516.7,555.4l20,11.5l-20,11.5l-20-11.5L516.7,555.4z M537.7,567.5l20,11.6l-20,11.5l-20-11.6
	L537.7,567.5z M558.7,579.7l20,11.5l-20,11.5l-20-11.5L558.7,579.7z M579.7,591.8l20.1,11.6l-20,11.5l-20.1-11.6L579.7,591.8z
	 M600.8,604l20,11.5l-20,11.5l-20-11.5L600.8,604z M621.8,616.1l20,11.6l-20,11.5l-20-11.6L621.8,616.1z M642.8,628.2l20,11.5
	l-20,11.5l-20-11.5L642.8,628.2z M663.8,640.4l20.2,11.6l-20,11.5l-20-11.7L663.8,640.4z M684.9,652.6l20,11.5l-20,11.5l-20-11.5
	L684.9,652.6z M685.9,652l20-11.6l20,11.5l-20,11.6L685.9,652z M706.9,639.9l20-11.5l20,11.5l-20,11.5L706.9,639.9z M727.9,627.7
	l20.1-11.6l20,11.5l-20.1,11.6L727.9,627.7z M749,615.6l20-11.5l20,11.5l-20,11.5L749,615.6z M770,603.4l20-11.6l20,11.5L790,615
	L770,603.4z M791,591.3l20-11.5l20,11.5l-20,11.5L791,591.3z M812,579.2l20.1-11.6l20,11.5L832,590.7L812,579.2z M833.1,567l20-11.5
	l20,11.5l-20,11.5L833.1,567z M854.1,554.9l20-11.6l20,11.5l-20,11.6L854.1,554.9z M875.1,542.7l20-11.5l20,11.5l-20,11.5
	L875.1,542.7z M896.1,530.6l20-11.6l20,11.5l-20,11.6L896.1,530.6z M917.1,518.5l20-11.5l20,11.5l-20,11.5L917.1,518.5z
	 M938.1,506.3l20-11.6l20,11.5l-20,11.6L938.1,506.3z M959.1,494.2l20-11.5l20,11.5l-20,11.5L959.1,494.2z M980.1,482.1l20.1-11.6
	l20,11.5l-20.1,11.6L980.1,482.1z M1001.2,469.9l20-11.5l20,11.5l-20,11.5L1001.2,469.9z M1022.2,457.8l20-11.6l20,11.5l-20,11.6
	L1022.2,457.8z M1043.2,445.6l20-11.5l5.5,3.2l0,0l14.5,8.4l-20,11.5L1043.2,445.6z M1064.2,433.5l20.1-11.6l20,11.5l-11.8,6.8
	l-8.2,4.8L1064.2,433.5z M1085.3,421.3l3.9-2.3l-0.1,0l16.1-9.3l20.1,11.6l-20,11.5L1085.3,421.3z M1112.6,412.9l-6.5-3.7l20-11.6
	l20.1,11.6l-20,11.6L1112.6,412.9z M1127.6,397l20-11.5l20.1,11.5l-20,11.5L1127.6,397z M1148.6,384.9l20.2-11.6l20.1,11.6
	l-20.2,11.6L1148.6,384.9z M1169.8,372.7l20-11.5l20.1,11.6l-20,11.5L1169.8,372.7z M1168.8,372.1l-20-11.5l20-11.5l20,11.5
	L1168.8,372.1z M1147.8,360l-20-11.6l20-11.5l20,11.6L1147.8,360z M1126.8,347.8l-20-11.5l20-11.5l20,11.5L1126.8,347.8z
	 M1105.8,335.7l-20-11.6l20-11.5l20,11.6L1105.8,335.7z M1084.8,323.5l-20-11.5l20-11.5l20,11.5L1084.8,323.5z M1063.8,311.4
	l-20-11.6l20-11.5l20,11.6L1063.8,311.4z M1042.8,299.3l-20-11.5l20-11.5l20,11.5L1042.8,299.3z M1021.8,287.2l-20.1-11.6l20-11.5
	l20.1,11.6L1021.8,287.2z M1000.7,275l-20-11.5l20-11.5l20,11.5L1000.7,275z M979.7,262.8l-20-11.6l20-11.5l20,11.6L979.7,262.8z
	 M958.7,250.7l-20-11.5l20-11.5l20,11.5L958.7,250.7z M937.7,238.6L917.4,227l20-11.5l20.1,11.5L937.7,238.6z M916.6,226.4l-20-11.5
	l20-11.5l20,11.5L916.6,226.4z M895.6,214.3l-20-11.6l20-11.5l20,11.6L895.6,214.3z M874.6,202.1l-20-11.5l20-11.5l20,11.5
	L874.6,202.1z M853.6,190l-20.1-11.6l20-11.5l20.1,11.6L853.6,190z M832.5,177.8l-20-11.5l20-11.5l20,11.5L832.5,177.8z
	 M811.5,165.7l-20-11.6l20-11.5l20,11.6L811.5,165.7z M790.5,153.6l-20-11.5l20-11.5l20,11.5L790.5,153.6z M769.5,141.5l-20.2-11.6
	l20-11.5l20.2,11.6L769.5,141.5z M748.3,129.2l-20-11.5l20-11.5l20,11.5L748.3,129.2z M727.3,117.1L707,105.5L727,94l20,11.6
	L727.3,117.1z M706.3,105l-20-11.5l20-11.5l20,11.5L706.3,105z M685,92.8l-20.1-11.6l20-11.5L705,81.3L685,92.8z M684,93.4
	L663.9,105l-20.1-11.6l20.2-11.6L684,93.4z M662.8,105.6l-20,11.5l-20.1-11.6l20-11.5L662.8,105.6z M641.8,117.7l-20,11.6
	l-20.1-11.6l20-11.6L641.8,117.7z M620.8,129.9l-20,11.5l-20.1-11.6l20-11.5L620.8,129.9z M599.8,142l-20.1,11.6L559.6,142
	l20.1-11.6L599.8,142z M578.7,154.2l-20,11.5l-20.1-11.6l20-11.5L578.7,154.2z M557.7,166.3l-20,11.6l-20.1-11.6l20-11.6
	L557.7,166.3z M536.7,178.4l-20,11.5l-20.1-11.6l20-11.5L536.7,178.4z M515.7,190.6l-20.1,11.6l-20.1-11.6l20-11.5L515.7,190.6z
	 M494.7,202.7l-20,11.5l-20.1-11.6l20-11.5L494.7,202.7z M473.7,214.9l-20,11.6l-20.1-11.6l20-11.6L473.7,214.9z M452.7,227
	l-20,11.5l-20.1-11.6l20-11.5L452.7,227z M431.7,239.1l-20.1,11.6l-20.1-11.6l20.1-11.6L431.7,239.1z M410.6,251.3l-20,11.5
	l-20.1-11.6l20-11.5L410.6,251.3z M389.6,263.4l-20,11.6l-20.1-11.6l20-11.6L389.6,263.4z M368.6,275.6l-20,11.5l-20.1-11.6l20-11.5
	L368.6,275.6z M347.6,287.7l-20,11.6l-20.1-11.6l20-11.6L347.6,287.7z M326.6,299.8l-20,11.5l-20.3-11.6l20-11.5L326.6,299.8z
	 M305.6,312l-20,11.6l-20.1-11.6l20-11.6L305.6,312z M284.6,324.1l-20,11.5L244.3,324l20-11.5L284.6,324.1z M263.6,336.2l-20.1,11.6
	l-20.1-11.6l20.1-11.6L263.6,336.2z M242.5,348.4l-20,11.5l-20.1-11.6l20-11.5L242.5,348.4z M221.5,360.5l-20,11.6l-20.1-11.6
	l20-11.6L221.5,360.5z M200.5,372.7l-20,11.5l-20.1-11.6l20-11.5L200.5,372.7z M179.5,384.8l-20.1,11.6L139,384.8l20.1-11.6
	L179.5,384.8z M180.5,385.4l20,11.5l-20.1,11.6l-20-11.5L180.5,385.4z M201.5,397.5l20,11.6l-20.1,11.6l-4.7-2.7l-15.3-8.8
	L201.5,397.5z M214,414.4l8.2-4.8l20,11.5l-20.1,11.6l-20-11.5L214,414.4z M243.3,421.8l20,11.5l-20,11.6l-20-11.5L243.3,421.8z
	 M260.5,436.1L260.5,436.1l3.8-2.2l12.7,7.3l0,0l7.3,4.2l-20.1,11.6l-20-11.6L260.5,436.1z M285.4,446.1l20,11.5l-20.1,11.6
	l-20-11.5L285.4,446.1z M306.4,458.2l20,11.6l-20.1,11.6l-20-11.6L306.4,458.2z M327.4,470.3l20,11.5l-20.1,11.6l-20-11.5
	L327.4,470.3z M348.4,482.5l20,11.6l-20.1,11.6l-20-11.6L348.4,482.5z M369.4,494.6l20,11.5l-20.1,11.6l-20-11.5L369.4,494.6z
	 M390.4,506.7l20.1,11.6l-20.1,11.6l-20.1-11.6L390.4,506.7z M411.5,518.9l20,11.5l-20.1,11.6l-20-11.5L411.5,518.9z M432.5,531
	l20,11.6l-20.1,11.6l-20-11.6L432.5,531z M453.5,543.2l20,11.5l-20.1,11.6l-20-11.5L453.5,543.2z M474.5,555.3l20.1,11.6l-20.1,11.6
	l-20.1-11.6L474.5,555.3z M495.6,567.5l20,11.5l-20.1,11.6l-20-11.5L495.6,567.5z M516.6,579.6l20,11.6l-20.1,11.6l-20-11.6
	L516.6,579.6z M537.6,591.7l20,11.5l-20.1,11.6l-20-11.5L537.6,591.7z M558.6,603.9l20.1,11.6l-20.1,11.6l-20.1-11.6L558.6,603.9z
	 M579.9,616l20,11.5l-20.1,11.6l-20-11.5L579.9,616z M600.9,628.1l20,11.6l-20.1,11.6l-20-11.6L600.9,628.1z M621.9,640.3l20,11.5
	l-20.1,11.6l-20-11.5L621.9,640.3z M642.9,652.4L663,664l-20,11.6L622.8,664L642.9,652.4z M664,664.6l20,11.5l-20,11.7l-20-11.5
	L664,664.6z M685,676.7l20,11.6l-20,11.6l-20-11.6L685,676.7z M686,676.1l20-11.5l20,11.6l-20,11.5L686,676.1z M707,664l20-11.6
	l20,11.6l-20,11.6L707,664z M728,651.9l20-11.5l20,11.6l-20,11.5L728,651.9z M749,639.8l20.1-11.6l20,11.6L769,651.3L749,639.8z
	 M770.1,627.6l20-11.5l20,11.6l-20,11.5L770.1,627.6z M791.1,615.5l20-11.6l20,11.6l-20,11.6L791.1,615.5z M812.1,603.3l20-11.5
	l20,11.6l-20,11.5L812.1,603.3z M833.1,591.2l20.1-11.6l20,11.6l-20.1,11.6L833.1,591.2z M854.2,579l20-11.5l20,11.6l-20,11.5
	L854.2,579z M875.2,566.9l20-11.6l20,11.6l-20,11.6L875.2,566.9z M896.2,554.8l20-11.5l20,11.6l-20,11.5L896.2,554.8z M917.2,542.6
	l20-11.6l20,11.6l-20,11.6L917.2,542.6z M938.2,530.5l20-11.5l20,11.6l-20,11.5L938.2,530.5z M959.2,518.4l20-11.6l20,11.6l-20,11.6
	L959.2,518.4z M980.2,506.2l20-11.5l20,11.6l-20,11.5L980.2,506.2z M1001.2,494.1l20.1-11.6l20,11.6l-20.1,11.6L1001.2,494.1z
	 M1022.3,481.9l20-11.5l20,11.6l-20,11.5L1022.3,481.9z M1043.3,469.8l20-11.6l20,11.6l-20,11.6L1043.3,469.8z M1064.3,457.6
	l20-11.5l20,11.6l-20,11.5L1064.3,457.6z M1085.3,445.5l20.4-11.5l4.7,2.7l15.3,8.8l-20.1,11.6L1085.3,445.5z M1127.4,421.2l3.9-2.3
	l16.1-9.3l20,11.5l-20,11.6L1127.4,421.2z M1153.9,412.2l-5.5-3.2l20-11.5l20,11.5l-20,11.5L1153.9,412.2z M1169.7,397l20.2-11.6
	l20,11.5l-20.2,11.6L1169.7,397z M1190.9,384.8l20-11.5l20,11.5l-20,11.5L1190.9,384.8z M1211.9,372.7l20-11.6l20,11.5l-20,11.6
	L1211.9,372.7z M1210.9,372.1l-20.1-11.6l20-11.6l20.1,11.6L1210.9,372.1z M1189.8,359.9l-20-11.5l20-11.6l20,11.5L1189.8,359.9z
	 M1168.8,347.8l-20-11.6l20-11.6l20,11.6L1168.8,347.8z M1147.8,335.6l-20-11.5l20-11.6l20,11.5L1147.8,335.6z M1126.8,323.5
	l-20-11.6l20-11.6l20,11.6L1126.8,323.5z M1105.8,311.4l-20-11.5l20-11.6l20,11.5L1105.8,311.4z M1084.8,299.2l-20-11.6l20-11.6
	l20,11.6L1084.8,299.2z M1063.8,287.1l-20-11.5l20-11.6l20,11.5L1063.8,287.1z M1042.8,275l-20.1-11.6l20-11.6l20.1,11.6L1042.8,275
	z M1021.7,262.8l-20-11.5l20-11.6l20,11.5L1021.7,262.8z M1000.7,250.7l-20-11.6l20-11.6l20,11.6L1000.7,250.7z M979.7,238.5
	l-20-11.5l20-11.6l20,11.5L979.7,238.5z M958.7,226.4l-20.1-11.6l20-11.6l20.1,11.6L958.7,226.4z M937.6,214.2l-20-11.5l20-11.6
	l20,11.5L937.6,214.2z M916.6,202.1l-20-11.6l20-11.6l20,11.6L916.6,202.1z M895.6,190l-20-11.5l20-11.6l20,11.5L895.6,190z
	 M874.6,177.8l-20.1-11.6l20-11.6l20.1,11.6L874.6,177.8z M853.5,165.7l-20-11.5l20-11.6l20,11.5L853.5,165.7z M832.5,153.5
	l-20-11.6l20-11.6l20,11.6L832.5,153.5z M811.5,141.4l-20-11.5l20-11.6l20,11.5L811.5,141.4z M790.5,129.3l-20.2-11.6l20-11.6
	l20.2,11.6L790.5,129.3z M769.3,117.1l-20-11.5l20-11.6l20,11.5L769.3,117.1z M748.3,104.9l-20-11.6l20-11.6l20,11.6L748.3,104.9z
	 M727,92.8l-20-11.5l20-11.6l20,11.5L727,92.8z M706,80.7l-20.1-11.6l20-11.6L726,69.1L706,80.7z M684.9,68.5l-20-11.5l20-11.6
	l20,11.5L684.9,68.5z M683.9,69.1l-20,11.5l-20-11.5l20-11.5L683.9,69.1z M662.9,81.2l-20.2,11.6l-20-11.5l20.2-11.6L662.9,81.2z
	 M641.7,93.4l-20,11.5l-20-11.5l20-11.5L641.7,93.4z M620.7,105.5l-20,11.6l-20-11.5l20-11.6L620.7,105.5z M599.7,117.7l-20,11.5
	l-20-11.5l20-11.5L599.7,117.7z M578.7,129.8l-20.1,11.6l-20-11.5l20.1-11.6L578.7,129.8z M557.6,142l-20,11.5l-20-11.5l20-11.5
	L557.6,142z M536.6,154.1l-20,11.6l-20-11.5l20-11.6L536.6,154.1z M515.6,166.3l-20,11.5l-20-11.5l20-11.5L515.6,166.3z
	 M494.6,178.4L474.5,190l-20-11.5l20.1-11.6L494.6,178.4z M473.6,190.6l-20,11.5l-20-11.5l20-11.5L473.6,190.6z M452.6,202.7
	l-20,11.6l-20-11.5l20-11.6L452.6,202.7z M431.6,214.8l-20,11.5l-20-11.5l20-11.5L431.6,214.8z M410.6,227l-20.1,11.6l-20-11.5
	l20.1-11.6L410.6,227z M389.5,239.1l-20,11.5l-20-11.5l20-11.5L389.5,239.1z M368.5,251.3l-20,11.6l-20-11.5l20-11.6L368.5,251.3z
	 M347.5,263.4l-20,11.5l-20-11.5l20-11.5L347.5,263.4z M326.5,275.5l-20,11.6l-20-11.5l20-11.6L326.5,275.5z M305.5,287.7l-20,11.6
	l-20-11.5l20-11.5L305.5,287.7z M284.5,299.8l-20,11.6l-20-11.5l20-11.6L284.5,299.8z M263.5,311.9l-20,11.5l-20-11.5l20-11.5
	L263.5,311.9z M242.5,324.1l-20.1,11.6l-20-11.5l20.1-11.6L242.5,324.1z M221.4,336.2l-20,11.5l-20-11.5l20-11.5L221.4,336.2z
	 M200.4,348.4l-20,11.6l-20-11.5l20-11.6L200.4,348.4z M179.4,360.5l-20,11.5l-20-11.5l20-11.5L179.4,360.5z M158.4,372.6L138,384.2
	l-20-11.5l20.1-11.6L158.4,372.6z M137,384.8l-20,11.5l-20-11.5l20-11.5L137,384.8z M138,385.4l20.1,11.6l-20,11.5L118,396.9
	L138,385.4z M159.1,397.5l20,11.5l-20,11.5l-4.7-2.7l-15.3-8.8L159.1,397.5z M172,414.4l8.1-4.7l20,11.6l-20,11.5l-20-11.5
	L172,414.4L172,414.4z M201.2,421.8l20,11.5l-3.9,2.3h0.1l-16.1,9.4l-20.1-11.6L201.2,421.8z M222.3,434l13.5,7.8l6.5,3.7l-20,11.5
	l-20-11.5L222.3,434z M243.3,446.1l20,11.6l-20,11.5l-20-11.6L243.3,446.1z M264.3,458.3l20,11.5l-20,11.5l-20-11.5L264.3,458.3z
	 M285.3,470.4l20,11.6l-20,11.5l-20-11.6L285.3,470.4z M306.3,482.5l20,11.5l-20,11.5l-20-11.5L306.3,482.5z M327.3,494.7l20,11.6
	l-20,11.5l-20-11.6L327.3,494.7z M348.3,506.8l20,11.5l-20,11.5l-20-11.5L348.3,506.8z M369.3,518.9l20.1,11.6l-20,11.5l-20.1-11.6
	L369.3,518.9z M390.4,531.1l20,11.5l-20,11.5l-20-11.5L390.4,531.1z M411.4,543.2l20,11.6l-20,11.5l-20-11.6L411.4,543.2z
	 M432.4,555.4l20,11.5l-20,11.5l-20-11.5L432.4,555.4z M453.4,567.5l20.1,11.6l-20,11.5L433.5,579L453.4,567.5z M474.4,579.7
	l20,11.5l-20,11.5l-20-11.5L474.4,579.7z M495.4,591.8l20,11.6l-20,11.5l-20-11.6L495.4,591.8z M516.4,603.9l20,11.5l-20,11.5
	l-20-11.5L516.4,603.9z M537.4,616.1l20.1,11.6l-20,11.5l-20.1-11.6L537.4,616.1z M558.5,628.2l20,11.5l-20,11.5l-20-11.5
	L558.5,628.2z M579.5,640.4l20,11.6l-20,11.5l-20-11.6L579.5,640.4z M600.5,652.5l20,11.5l-20,11.5L580.8,664L600.5,652.5z
	 M621.5,664.6l20.5,11.6l-20,11.5l-20.2-11.6L621.5,664.6z M643,676.8l20,11.5l-20,11.5l-20-11.5L643,676.8z M664,689l20,11.6
	l-20,11.5l-20-11.6L664,689z M685,701.1l20,11.5l-20,11.5l-20-11.5L685,701.1z M686,700.6l20.1-11.6l20,11.5L706,712.1L686,700.6z
	 M707.1,688.4l20-11.5l20,11.5l-20,11.5L707.1,688.4z M728.1,676.3l20-11.6l20,11.5l-20,11.6L728.1,676.3z M749.1,664.1l20-11.5
	l20,11.5l-20,11.5L749.1,664.1z M770.1,652l20.1-11.6l20,11.5l-20.1,11.6L770.1,652z M791.2,639.8l20-11.5l20,11.5l-20,11.5
	L791.2,639.8z M812.2,627.7l20-11.6l20,11.5l-20,11.6L812.2,627.7z M833.2,615.6l20-11.5l20,11.5l-20,11.5L833.2,615.6z
	 M854.2,603.4l20.1-11.6l20,11.5L874.2,615L854.2,603.4z M875.3,591.3l20-11.5l20,11.5l-20,11.5L875.3,591.3z M896.3,579.1l20-11.6
	l20,11.5l-20,11.6L896.3,579.1z M917.3,567l20-11.5l20,11.5l-20,11.5L917.3,567z M938.3,554.9l20-11.6l20,11.5l-20,11.6L938.3,554.9
	z M959.3,542.7l20-11.5l20,11.5l-20,11.5L959.3,542.7z M980.3,530.6l20-11.6l20,11.5l-20,11.6L980.3,530.6z M1001.3,518.4l20-11.5
	l20,11.5l-20,11.5L1001.3,518.4z M1022.3,506.3l20.1-11.6l20,11.5l-20.1,11.6L1022.3,506.3z M1043.4,494.1l20-11.5l20,11.5l-20,11.5
	L1043.4,494.1z M1064.4,482l20-11.6l20,11.5l-20,11.6L1064.4,482z M1085.4,469.9l20-11.5l20,11.5l-20,11.5L1085.4,469.9z
	 M1106.4,457.8l20.1-11.6l20,11.5l-20.1,11.6L1106.4,457.8z M1127.4,445.6l20-11.5l4.7,2.7l0,0l15.3,8.8l-20,11.5L1127.4,445.6z
	 M1148.4,433.5l20-11.6l20,11.5l-12.4,7.3l-7.3,4.2L1148.4,433.5z M1169.4,421.3l3-1.7l0,0l17-9.8l20,11.6l-20,11.5L1169.4,421.3z
	 M1195.9,412.3L1195.9,412.3l-5.5-3.2l20.2-11.6l20,11.6l-20.2,11.6L1195.9,412.3z M1211.6,396.9l20-11.5l20,11.6l-20,11.5
	L1211.6,396.9z M1232.6,384.8l20-11.6l20,11.6l-20,11.6L1232.6,384.8z M1253.6,372.7l20-11.5l20,11.6l-20,11.5L1253.6,372.7z
	 M1252.6,372.1l-20-11.5l20-11.5l20,11.5L1252.6,372.1z M1231.6,360l-20.1-11.6l20-11.5l20.1,11.6L1231.6,360z M1210.5,347.8
	l-20-11.5l20-11.5l20,11.5L1210.5,347.8z M1189.5,335.7l-20-11.6l20-11.5l20,11.6L1189.5,335.7z M1168.5,323.5l-20-11.5l20-11.5
	l20,11.5L1168.5,323.5z M1147.5,311.4l-20-11.6l20-11.5l20,11.6L1147.5,311.4z M1126.5,299.2l-20-11.5l20-11.5l20,11.5L1126.5,299.2
	z M1105.5,287.1l-20-11.6l20-11.5l20,11.6L1105.5,287.1z M1084.5,275l-20-11.5l20-11.5l20,11.5L1084.5,275z M1063.5,262.9
	l-20.1-11.6l20-11.5l20.1,11.6L1063.5,262.9z M1042.4,250.7l-20-11.5l20-11.5l20,11.5L1042.4,250.7z M1021.4,238.6l-20-11.6l20-11.5
	l20,11.6L1021.4,238.6z M1000.4,226.4l-20-11.5l20-11.5l20,11.5L1000.4,226.4z M979.4,214.3l-20.1-11.6l20-11.5l20.1,11.6
	L979.4,214.3z M958.3,202.1l-20-11.5l20-11.5l20,11.5L958.3,202.1z M937.3,190l-20-11.6l20-11.5l20,11.6L937.3,190z M916.3,177.9
	l-20-11.5l20-11.5l20,11.5L916.3,177.9z M895.3,165.7l-20.1-11.6l20-11.5l20.1,11.6L895.3,165.7z M874.2,153.5l-20-11.5l20-11.5
	l20,11.5L874.2,153.5z M853.2,141.4l-20-11.6l20-11.5l20,11.6L853.2,141.4z M832.2,129.3l-20-11.5l20-11.5l20,11.5L832.2,129.3z
	 M811.2,117.2l-20.1-11.7l20-11.5l20.2,11.6L811.2,117.2z M790,104.9l-20-11.5l20-11.5l20,11.5L790,104.9z M769,92.8l-20-11.6
	l20-11.5l20,11.6L769,92.8z M748,80.7l-20-11.5l20-11.5l20,11.5L748,80.7z M727,68.5l-20-11.6l20-11.5L747.1,57L727,68.5z M706,56.4
	l-20-11.5l20-11.6l20,11.6L706,56.4z M685,44.2l-20-11.6l20-11.5l20,11.6L685,44.2z M684,44.8l-20,11.6l-20-11.6l20-11.6L684,44.8z
	 M663,57l-20,11.5l-20-11.6l20-11.5L663,57z M642,69.1l-20.2,11.6l-20-11.6L622,57.5L642,69.1z M620.8,81.3l-20,11.5l-20-11.6
	l20-11.5L620.8,81.3z M599.8,93.4l-20,11.6l-20-11.6l20-11.6L599.8,93.4z M578.8,105.6l-20,11.5l-20-11.6l20-11.5L578.8,105.6z
	 M557.8,117.7l-20.1,11.6l-20-11.6l20.1-11.6L557.8,117.7z M536.8,129.9l-20,11.5l-20-11.6l20-11.5L536.8,129.9z M515.8,142
	l-20,11.6l-20-11.6l20-11.6L515.8,142z M494.8,154.1l-20,11.5l-20-11.6l20-11.5L494.8,154.1z M473.8,166.2l-20.1,11.6l-20-11.6
	l20.1-11.6L473.8,166.2z M452.7,178.4l-20,11.5l-20-11.6l20-11.5L452.7,178.4z M431.7,190.5l-20,11.6l-20-11.6l20-11.6L431.7,190.5z
	 M410.7,202.7l-20,11.5l-20-11.6l20-11.5L410.7,202.7z M389.7,214.8l-20.1,11.6l-20-11.6l20.1-11.6L389.7,214.8z M368.4,227
	l-20,11.5l-20-11.6l20-11.5L368.4,227z M347.4,239.1l-20,11.6l-20-11.6l20-11.6L347.4,239.1z M326.4,251.3l-20,11.5l-20-11.6
	l20-11.5L326.4,251.3z M305.4,263.4L285.3,275l-20-11.6l20-11.6L305.4,263.4z M284.4,275.5l-20,11.5l-20-11.6l20-11.5L284.4,275.5z
	 M263.4,287.7l-20,11.6l-20-11.6l20-11.6L263.4,287.7z M242.4,299.8l-20,11.5l-20-11.6l20-11.5L242.4,299.8z M221.4,311.9
	l-20.1,11.6l-20-11.6l20.1-11.6L221.4,311.9z M200.3,324.1l-20,11.5l-20-11.6l20-11.5L200.3,324.1z M179.3,336.2l-20,11.6l-20-11.6
	l20-11.6L179.3,336.2z M158.3,348.4l-20,11.5l-20-11.6l20-11.5L158.3,348.4z M137.3,360.5L117,372.1l-20-11.6l20.1-11.6L137.3,360.5
	z M116,372.7l-20,11.5l-20-11.6l20-11.5L116,372.7z M95,384.8l-20,11.6l-20-11.6l20-11.6L95,384.8z M96,385.4l20,11.5l-20,11.6
	l-20-11.5L96,385.4z M117,397.5l20.1,11.6l-20,11.6l-3.8-2.2l0,0L97,409L117,397.5z M130.8,413.9l7.3-4.2l20,11.5l-20,11.6l-20-11.5
	L130.8,413.9z M159.1,421.8l20,11.5l-3.9,2.3l-16.1,9.3l-20-11.5L159.1,421.8z M180.1,433.9l13.6,7.9l6.5,3.7l-20,11.6l-20.1-11.6
	L180.1,433.9z M201.2,446.1l20,11.5l-20,11.6l-20-11.5L201.2,446.1z M222.2,458.2l20,11.6l-20,11.6l-20-11.6L222.2,458.2z
	 M243.2,470.4l20,11.5l-20,11.6l-20-11.5L243.2,470.4z M264.2,482.5l20,11.6l-20,11.6l-20-11.6L264.2,482.5z M285.2,494.6l20,11.5
	l-20,11.6l-20-11.5L285.2,494.6z M306.2,506.8l20,11.6l-20,11.6l-20-11.6L306.2,506.8z M327.2,518.9l20,11.5l-20,11.6l-20-11.5
	L327.2,518.9z M348.2,531l20.1,11.6l-20,11.6l-20-11.6L348.2,531z M369.3,543.2l20,11.5l-20,11.6l-20-11.5L369.3,543.2z
	 M390.3,555.3l20,11.6l-20,11.6l-20-11.6L390.3,555.3z M411.3,567.5l20,11.5l-20,11.6l-20-11.5L411.3,567.5z M432.3,579.6l20.1,11.6
	l-20,11.6l-20.1-11.6L432.3,579.6z M453.4,591.8l20,11.5l-20,11.6l-20-11.5L453.4,591.8z M474.4,603.9l20,11.6l-20,11.6l-20-11.6
	L474.4,603.9z M495.4,616l20,11.5l-20,11.6l-20-11.5L495.4,616z M516.4,628.2l20.1,11.6l-20,11.6l-20.1-11.6L516.4,628.2z
	 M537.5,640.3l20,11.5l-20,11.6l-20-11.5L537.5,640.3z M558.5,652.5l20,11.6l-20,11.6l-20-11.6L558.5,652.5z M579.5,664.6l20,11.5
	l-20,11.6l-20-11.5L579.5,664.6z M600.5,676.7l20.5,11.6l-20,11.6l-20.2-11.6L600.5,676.7z M622,689l20,11.5l-20,11.6l-20-11.5
	L622,689z M643,701.1l20,11.6l-20,11.6l-20-11.6L643,701.1z M664,713.3l20,11.5l-20,11.6l-20-11.5L664,713.3z M685,725.4l20.1,11.6
	l-20,11.6L665,736.9L685,725.4z M686,724.8l20-11.5l20.1,11.6l-20,11.5L686,724.8z M707,712.7l20.1-11.7l20.1,11.6l-20.1,11.6
	L707,712.7z M728.1,700.5l20-11.5l20.1,11.6l-20,11.5L728.1,700.5z M749.1,688.4l20-11.6l20.1,11.6l-20,11.6L749.1,688.4z
	 M770.1,676.2l20-11.5l20.1,11.6l-20,11.5L770.1,676.2z M791.1,664.1l20.1-11.6l20.1,11.6l-20.1,11.6L791.1,664.1z M812.2,652
	l20-11.5l20.1,11.6l-20,11.5L812.2,652z M833.2,639.8l20-11.6l20.1,11.6l-20,11.6L833.2,639.8z M854.2,627.7l20-11.5l20.1,11.6
	l-20,11.5L854.2,627.7z M875.2,615.6l20.1-11.6l20.1,11.6l-20.1,11.6L875.2,615.6z M896.3,603.4l20-11.5l20.1,11.6l-20,11.5
	L896.3,603.4z M917.3,591.3l20-11.6l20.1,11.6l-20,11.6L917.3,591.3z M938.3,579.1l20-11.5l20.1,11.6l-20,11.5L938.3,579.1z
	 M959.3,567l20-11.6l20.1,11.6l-20,11.6L959.3,567z M980.3,554.8l20-11.5l20.1,11.6l-20,11.5L980.3,554.8z M1001.3,542.7l20-11.6
	l20.1,11.6l-20,11.6L1001.3,542.7z M1022.3,530.6l20-11.5l20.1,11.6l-20,11.5L1022.3,530.6z M1043.3,518.4l20.1-11.6l20.1,11.6
	l-19.9,11.6L1043.3,518.4z M1064.4,506.3l20-11.5l20.1,11.6l-20,11.5L1064.4,506.3z M1085.4,494.1l20-11.6l20.1,11.6l-20,11.6
	L1085.4,494.1z M1106.4,482l20-11.5l20.1,11.6l-20,11.5L1106.4,482z M1127.4,469.9l20.1-11.6l20.1,11.6l-20.1,11.6L1127.4,469.9z
	 M1148.4,457.7l20-11.5l20.1,11.6l-20,11.5L1148.4,457.7z M1169.4,445.6l20-11.6l3.8,2.2l16.3,9.4l-20,11.6L1169.4,445.6z
	 M1211.4,421.3l3-1.7l17.1-9.9l4.6,2.7h-0.1l15.4,8.9l-20.1,11.6L1211.4,421.3z M1232.6,409.1l20-11.5l20,11.5l-20,11.5
	L1232.6,409.1z M1253.6,397l20-11.6l20,11.5l-20,11.6L1253.6,397z M1274.6,384.8l20-11.5l20,11.5l-20,11.5L1274.6,384.8z
	 M1295.6,372.7l20.1-11.6l20,11.5l-19.7,11.6L1295.6,372.7z M1294.6,372.1l-20-11.6l20.1-11.6l20,11.6L1294.6,372.1z M1273.6,360
	l-20-11.5l20.1-11.6l20,11.5L1273.6,360z M1252.6,347.9l-20.1-11.6l20.1-11.6l20.1,11.6L1252.6,347.9z M1231.5,335.7l-20-11.5
	l20.1-11.6l20,11.5L1231.5,335.7z M1210.5,323.6l-20-11.6l20.1-11.6l20,11.6L1210.5,323.6z M1189.5,311.4l-20-11.5l20.1-11.6
	l20,11.5L1189.5,311.4z M1168.5,299.3l-20-11.6l20.1-11.6l20,11.6L1168.5,299.3z M1147.5,287.2l-20-11.5l20.1-11.6l20,11.5
	L1147.5,287.2z M1126.5,275l-20-11.6l20.1-11.6l20,11.6L1126.5,275z M1105.5,262.9l-20-11.5l20.1-11.6l20,11.5L1105.5,262.9z
	 M1084.5,250.8l-20.1-11.6l20.1-11.6l20.1,11.6L1084.5,250.8z M1063.4,238.6l-20-11.5l20.1-11.6l20,11.5L1063.4,238.6z
	 M1042.4,226.5l-20-11.6l20.1-11.6l20,11.6L1042.4,226.5z M1021.4,214.3l-20-11.5l20.1-11.6l20,11.5L1021.4,214.3z M1000.4,202.2
	l-20.1-11.6l20.2-11.6l20.1,11.6L1000.4,202.2z M979.5,190l-20-11.5l20.1-11.6l20,11.5L979.5,190z M958.5,177.9l-20-11.6l20.1-11.6
	l20,11.6L958.5,177.9z M937.5,165.7l-20-11.5l20.1-11.6l20,11.5L937.5,165.7z M916.5,153.6L896.3,142l20.1-11.6l20.1,11.6
	L916.5,153.6z M895.4,141.4l-20-11.5l20.1-11.6l20,11.5L895.4,141.4z M874.4,129.3l-20-11.6l20.1-11.6l20,11.6L874.4,129.3z
	 M853.4,117.2l-20-11.5L853.5,94l20,11.5L853.4,117.2z M832.4,105l-20.2-11.6l20.1-11.6l20.2,11.6L832.4,105z M811.1,92.8l-20-11.5
	l20.1-11.6l20,11.5L811.1,92.8z M790.1,80.7l-20-11.6l20.1-11.6l20,11.6L790.1,80.7z M769.1,68.5l-20-11.5l20.1-11.6l20,11.5
	L769.1,68.5z M748.1,56.4L728,44.8l20.1-11.6l20.1,11.6L748.1,56.4z M727,44.2l-20-11.6l20.1-11.6l20,11.6L727,44.2z M706,32.1
	l-20-11.6l20.1-11.6l20,11.6L706,32.1z M685,20L665,8.4l20-11.6l20,11.6L685,20z M684,20.5l-20,11.6l-20-11.6L664,9L684,20.5z
	 M663,32.7l-20,11.6l-20-11.6l20-11.6L663,32.7z M642,44.8l-20,11.5l-20-11.5l20-11.6L642,44.8z M621,56.9l-20.2,11.6l-20-11.5
	L601,45.4L621,56.9z M599.8,69.1l-20,11.5l-20-11.5l20-11.5L599.8,69.1z M578.8,81.3l-20,11.6l-20-11.5l20-11.6L578.8,81.3z
	 M557.8,93.4L537.7,105l-20-11.5l20-11.5L557.8,93.4z M536.8,105.5l-20.1,11.6l-20-11.5L516.7,94L536.8,105.5z M515.7,117.7
	l-20,11.5l-20-11.5l20-11.5L515.7,117.7z M494.7,129.8l-20,11.6l-20-11.5l20-11.6L494.7,129.8z M473.7,142l-20,11.5l-20-11.5
	l20-11.5L473.7,142z M452.7,154.1l-20.3,11.6l-20-11.5l20.1-11.6L452.7,154.1z M431.7,166.3l-20,11.5l-20-11.5l20-11.5L431.7,166.3z
	 M410.7,178.4l-20,11.6l-20-11.5l20-11.6L410.7,178.4z M389.7,190.5l-20,11.5l-20-11.5l20-11.5L389.7,190.5z M368.7,202.7
	l-20.1,11.6l-20-11.5l20.1-11.6L368.7,202.7z M347.6,214.9l-20,11.5l-20-11.5l20-11.5L347.6,214.9z M326.6,227l-20,11.6L286.3,227
	l20-11.6L326.6,227z M305.6,239.1l-20,11.5l-20-11.5l20-11.5L305.6,239.1z M284.6,251.2l-20,11.6l-20-11.5l20-11.6L284.6,251.2z
	 M263.6,263.4l-20,11.5l-20-11.5l20-11.5L263.6,263.4z M242.6,275.5l-20,11.6l-20-11.5l20-11.6L242.6,275.5z M221.6,287.7l-20,11.6
	l-20-11.5l20-11.5L221.6,287.7z M200.6,299.8l-20.1,11.6l-20-11.5l20.1-11.6L200.6,299.8z M179.1,312l-20,11.5l-20-11.5l20-11.5
	L179.1,312z M158.1,324.1l-20,11.6l-20-11.5l20-11.6L158.1,324.1z M137.1,336.3l-20,11.5l-20-11.5l20-11.5L137.1,336.3z
	 M116.1,348.4L96,359.9l-20-11.5l20.1-11.6L116.1,348.4z M95,360.5l-20,11.5l-20-11.5L75,349L95,360.5z M74,372.6l-20,11.6l-20-11.5
	l20-11.6L74,372.6z M53,384.8l-20,11.5l-20-11.5l20-11.5L53,384.8z M54,385.4l20,11.6l-20,11.5l-20-11.6L54,385.4z M75,397.5
	l20,11.5l-20,11.5l-3.7-2.1l0,0L55,409L75,397.5z M88.8,413.8l7.2-4.2l20.1,11.6l-20,11.5l-20-11.5l12.8-7.4L88.8,413.8z
	 M117.1,421.8l20,11.5l-3,1.7l0,0l-17,9.8l-20-11.6L117.1,421.8z M138.1,434l14.5,8.4l5.5,3.2l-20,11.5l-20-11.5L138.1,434z
	 M159.1,446.1l20.1,11.6l-20,11.5l-20.1-11.6L159.1,446.1z M180.2,458.3l20,11.5l-20,11.5l-20-11.5L180.2,458.3z M201.2,470.4
	l20,11.6l-20,11.5l-20-11.6L201.2,470.4z M222.2,482.5l20,11.5l-20,11.5l-20-11.5L222.2,482.5z M243.2,494.6l20,11.6l-20,11.5
	l-20-11.6L243.2,494.6z M264.2,506.8l20,11.5l-20,11.5l-20-11.5L264.2,506.8z M285.2,518.9l20,11.6l-20,11.5l-20-11.6L285.2,518.9z
	 M306.2,531.1l20,11.5l-20,11.5l-20-11.5L306.2,531.1z M327.2,543.2l20.1,11.6l-20,11.5l-20.1-11.6L327.2,543.2z M348.3,555.4
	l20,11.5l-20,11.5l-20-11.5L348.3,555.4z M369.3,567.5l20,11.6l-20,11.5l-20-11.6L369.3,567.5z M390.3,579.6l20,11.5l-20,11.5
	l-20-11.5L390.3,579.6z M411.3,591.8l20.1,11.6l-20,11.5l-19.9-11.6L411.3,591.8z M432.4,603.9l20,11.5l-20,11.5l-20-11.5
	L432.4,603.9z M453.4,616l20,11.6l-20,11.5l-20-11.6L453.4,616z M474.4,628.2l20,11.5l-20,11.5l-20-11.5L474.4,628.2z M495.4,640.3
	l20.1,11.6l-20,11.5l-20.1-11.6L495.4,640.3z M516.5,652.5l20,11.5l-20,11.5l-20-11.5L516.5,652.5z M537.5,664.6l20,11.6l-20,11.5
	l-20-11.6L537.5,664.6z M558.5,676.8l20,11.5l-20,11.5l-20-11.5L558.5,676.8z M579.5,688.9l20.2,11.6l-20,11.5l-20.2-11.6
	L579.5,688.9z M600.6,701.1l20,11.5l-20,11.5l-20-11.5L600.6,701.1z M621.6,713.2l20,11.6l-20,11.5l-20-11.6L621.6,713.2z
	 M642.6,725.4l20,11.5l-20,11.5l-20-11.5L642.6,725.4z M663.6,737.5l20.1,11.6l-20,11.5L644,749L663.6,737.5z M684.7,749.7l20,11.5
	l-20,11.5l-20-11.5L684.7,749.7z M685.7,749.1l20-11.6l20,11.5l-20,11.6L685.7,749.1z M706.7,736.9l20-11.5l20,11.5l-20,11.5
	L706.7,736.9z M727.7,724.8l20.1-11.6l20,11.5l-20.1,11.6L727.7,724.8z M748.8,712.6l20-11.5l20,11.5l-20,11.5L748.8,712.6z
	 M769.8,700.5l20-11.6l20,11.5l-20,11.6L769.8,700.5z M790.8,688.4l20-11.5l20,11.5l-20,11.5L790.8,688.4z M811.8,676.3l20.1-11.6
	l20,11.5l-19.6,11.6L811.8,676.3z M832.9,664.1l20-11.5l20,11.5l-20,11.5L832.9,664.1z M853.9,652l20-11.6l20,11.5l-20,11.6
	L853.9,652z M874.9,639.8l20-11.5l20,11.5l-20,11.5L874.9,639.8z M895.9,627.7l20.1-11.6l20,11.5l-20.1,11.6L895.9,627.7z
	 M917,615.5l20-11.5l20,11.5l-20,11.5L917,615.5z M938,603.4l20-11.6l20,11.5l-20,11.6L938,603.4z M959,591.2l20-11.5l20,11.5
	l-20,11.5L959,591.2z M980,579.1l20-11.6l20,11.5l-20,11.6L980,579.1z M1001,567l20-11.5l20,11.5l-20,11.5L1001,567z M1022,554.9
	l20-11.6l20,11.5l-20,11.6L1022,554.9z M1043,542.7l20-11.5l20,11.5l-20,11.5L1043,542.7z M1064,530.6l20.1-11.6l20,11.5l-20.1,11.6
	L1064,530.6z M1085.1,518.4l20-11.5l20,11.5l-20,11.5L1085.1,518.4z M1106.1,506.3l20-11.6l20,11.5l-20,11.6L1106.1,506.3z
	 M1127.1,494.1l20-11.5l20,11.5l-20,11.5L1127.1,494.1z M1148.1,482l20.1-11.6l20,11.5l-20.1,11.6L1148.1,482z M1169.1,469.9
	l20-11.5l20,11.5l-20,11.5L1169.1,469.9z M1190.1,457.7l20-11.6l20,11.5l-20,11.6L1190.1,457.7z M1211.1,445.6l20-11.5l3.7,2.1
	l16.3,9.4l-20,11.5L1211.1,445.6z M1254,421.2l2.1-1.2l-0.1,0l17.9-10.4l4.6,2.7h-0.1l15.5,8.9l-19.9,11.5L1254,421.2z
	 M1274.9,409.1l20-11.6l20.1,11.6l-20,11.6L1274.9,409.1z M1295.9,396.9l20-11.5L1336,397l-20,11.5L1295.9,396.9z M1316.9,384.8
	l20.1-11.6l20.1,11.6l-20.1,11.6L1316.9,384.8z M1338,372.6l20-11.5l20.1,11.6l-20,11.5L1338,372.6z M1337,372l-20-11.5l20-11.5
	l20,11.5L1337,372z M1316,359.9l-20-11.6l20-11.5l20,11.6L1316,359.9z M1295,347.8l-20-11.5l20-11.5l20,11.5L1295,347.8z
	 M1274,335.6l-20.1-11.6l20-11.5l20.1,11.6L1274,335.6z M1252.9,323.5l-20-11.5l20-11.5l20,11.5L1252.9,323.5z M1231.9,311.3
	l-20-11.6l20-11.5l20,11.6L1231.9,311.3z M1210.9,299.2l-20-11.5l20-11.5l20,11.5L1210.9,299.2z M1189.9,287.1l-20-11.6l20-11.5
	l20,11.6L1189.9,287.1z M1168.9,274.9l-20-11.5l20-11.5l20,11.5L1168.9,274.9z M1147.9,262.8l-20-11.6l20-11.5l20,11.6L1147.9,262.8
	z M1126.9,250.7l-20-11.5l20-11.5l20,11.5L1126.9,250.7z M1105.9,238.5l-20.1-11.6l20-11.5l20.1,11.6L1105.9,238.5z M1084.8,226.4
	l-20-11.5l20-11.5l20,11.5L1084.8,226.4z M1063.8,214.2l-20-11.6l20-11.5l20,11.6L1063.8,214.2z M1042.8,202.1l-20-11.5l20-11.5
	l20,11.5L1042.8,202.1z M1021.8,190l-20.1-11.6l20-11.5l20.1,11.6L1021.8,190z M1000.7,177.8l-20-11.5l20-11.5l20,11.5L1000.7,177.8
	z M979.7,165.7l-20-11.6l20-11.5l20,11.6L979.7,165.7z M958.7,153.5l-20-11.5l20-11.5l20,11.5L958.7,153.5z M937.7,141.4l-20.1-11.6
	l20-11.5l20.1,11.6L937.7,141.4z M916.6,129.2l-20-11.5l20-11.5l20,11.5L916.6,129.2z M895.6,117.1l-20-11.6l20-11.5l20,11.6
	L895.6,117.1z M874.6,105l-20-11.5l20-11.5l20,11.5L874.6,105z M853.6,92.8l-20.4-11.6l20-11.5l20.2,11.6L853.6,92.8z M832.5,80.6
	l-20-11.5l20-11.5l20,11.5L832.5,80.6z M811.5,68.5l-20-11.6l20-11.5l20,11.6L811.5,68.5z M790.5,56.3l-20-11.5l20-11.6l20,11.6
	L790.5,56.3z M769.5,44.2l-20.1-11.6l20-11.6l20.1,11.6L769.5,44.2z M748.4,32l-20-11.6l20-11.5l20,11.5L748.4,32z M727.4,19.9
	l-20-11.6l20-11.6l20,11.6L727.4,19.9z M706.4,7.8l-20-11.5l20-11.6l20,11.6L706.4,7.8z M685.4-4.3L665-15.9l20-11.6l20,11.6
	L685.4-4.3z M684.4-3.8L664.3,7.8L644.2-3.8L664-15.4L684.4-3.8z M663.3,8.4l-20,11.5L623.2,8.4l20-11.6L663.3,8.4z M642.3,20.5
	l-20,11.6l-20.1-11.6l20-11.6L642.3,20.5z M621.3,32.7l-20,11.6l-20.1-11.6l20-11.5L621.3,32.7z M600.3,44.8l-20.2,11.6l-20.1-11.6
	l20.2-11.6L600.3,44.8z M578.7,57l-20,11.5L538.7,57l20-11.5L578.7,57z M557.7,69.1l-20,11.6l-20.1-11.6l20-11.6L557.7,69.1z
	 M536.7,81.3l-20,11.5l-20.1-11.6l20-11.5L536.7,81.3z M515.7,93.4L495.6,105l-20.1-11.6l20.1-11.6L515.7,93.4z M494.6,105.6
	l-20,11.5l-20.1-11.6l20-11.5L494.6,105.6z M473.6,117.7l-20,11.6l-20.1-11.6l20-11.6L473.6,117.7z M452.6,129.9l-20,11.5
	l-20.1-11.6l20-11.5L452.6,129.9z M431.6,142l-20.1,11.6L391.4,142l20.1-11.6L431.6,142z M410.5,154.2l-20,11.5l-20.1-11.6l20-11.5
	L410.5,154.2z M389.5,166.3l-20,11.6l-20.1-11.6l20-11.6L389.5,166.3z M368.5,178.4l-20,11.5l-20.1-11.6l20-11.5L368.5,178.4z
	 M347.5,190.5l-20.1,11.6l-20.1-11.6l20-11.6L347.5,190.5z M326.4,202.7l-20,11.5l-20.1-11.6l20-11.5L326.4,202.7z M305.4,214.9
	l-20,11.6l-20.1-11.6l20-11.6L305.4,214.9z M284.3,227l-20,11.5L244.2,227l20-11.5L284.3,227z M263.3,239.1l-20,11.6l-20.1-11.6
	l20-11.6L263.3,239.1z M242.3,251.3l-20,11.5l-20.1-11.6l20-11.5L242.3,251.3z M221.3,263.4l-20,11.6l-20.1-11.6l20-11.6
	L221.3,263.4z M200.3,275.5l-20,11.5l-20.1-11.6l20-11.5L200.3,275.5z M179.3,287.7l-20.1,11.6L139,287.7l20.1-11.6L179.3,287.7z
	 M158.2,299.8l-20,11.5L118,299.8l20-11.5L158.2,299.8z M137.2,312l-20,11.6L97,311.9l20-11.6L137.2,312z M116.2,324.1l-20,11.5
	L76,324.1l20-11.5L116.2,324.1z M95.2,336.2L75,347.8l-20.1-11.6L75,324.6L95.2,336.2z M74,348.4l-20,11.5l-20.1-11.6l20-11.5
	L74,348.4z M53,360.5l-20,11.6l-20.1-11.6l20-11.6L53,360.5z M32,372.7l-20,11.5l-20.1-11.6l20-11.5L32,372.7z M11,384.8l-20.1,11.6
	l-20.1-11.6l20.1-11.6L11,384.8z M12,385.4l20,11.5l-20.1,11.6l-20-11.5L12,385.4z M33,397.5l20,11.6l-20.1,11.6l-20-11.6L33,397.5z
	 M47.6,413.4l6.5-3.7l20,11.5l-20.1,11.6l-20-11.5L47.6,413.4L47.6,413.4z M96.1,433.9l14.6,8.4l5.5,3.2L96,457.1l-20-11.6
	L96.1,433.9z M117.1,446.1l20,11.5L117,469.3l-20-11.5L117.1,446.1z M138.1,458.2l20.1,11.6l-20.2,11.6L118,469.8L138.1,458.2z
	 M159.2,470.4l20,11.5l-20.2,11.6l-20-11.5L159.2,470.4z M180.2,482.5l20,11.6l-20.1,11.6l-20-11.6L180.2,482.5z M201.2,494.6
	l20,11.5l-20.2,11.6l-20-11.5L201.2,494.6z M222.2,506.8l20,11.6L222.2,530l-20-11.6L222.2,506.8z M243.2,518.9l20,11.5l-20.1,11.6
	l-20-11.5L243.2,518.9z M264.2,531l20,11.6l-20,11.6l-20-11.6L264.2,531z M285.2,543.2l20,11.5l-20.1,11.6l-20-11.5L285.2,543.2z
	 M306.2,555.3l20.1,11.6l-20,11.6l-20.1-11.6L306.2,555.3z M327.3,567.5l20,11.5l-20.1,11.6l-20-11.5L327.3,567.5z M348.3,579.6
	l20,11.6l-20.2,11.6l-20-11.6L348.3,579.6z M369.3,591.8l20,11.5l-20.1,11.6l-20-11.5L369.3,591.8z M390.3,603.9l20.1,11.6l-20,11.6
	l-20.1-11.6L390.3,603.9z M411.6,616l20,11.5l-20.2,11.6l-20-11.5L411.6,616z M432.6,628.1l20,11.6l-20.2,11.6l-20-11.6L432.6,628.1
	z M453.6,640.3l20,11.5l-20.2,11.6l-20-11.5L453.6,640.3z M474.6,652.4l20.1,11.6l-20.2,11.6L454.5,664L474.6,652.4z M495.7,664.6
	l20,11.5l-20.1,11.7l-20-11.5L495.7,664.6z M516.7,676.7l20,11.6l-20.1,11.7l-20-11.6L516.7,676.7z M537.7,688.8l20,11.5L537.5,712
	l-20-11.5L537.7,688.8z M558.7,701l20.2,11.6l-20.2,11.6l-20.2-11.6L558.7,701z M579.8,713.2l20,11.5l-20.1,11.7l-20-11.5
	L579.8,713.2z M600.8,725.3l20,11.6l-20,11.7l-20-11.6L600.8,725.3z M621.8,737.5L642,749l-20.2,11.6l-20-11.5L621.8,737.5z
	 M642.8,749.6l20.1,11.6l-20,11.7l-20.1-11.6L642.8,749.6z M663.9,761.8l20,11.5l-20,11.7l-20-11.5L663.9,761.8z M684.9,773.9
	l20,11.6l-20.2,11.6l-20-11.6L684.9,773.9z M685.9,773.3l20-11.5l20,11.6l-20,11.5L685.9,773.3z M706.9,761.2l20-11.6l20,11.6
	l-20,11.6L706.9,761.2z M727.9,749l20-11.5l20,11.6l-20,11.5L727.9,749z M748.9,736.9l20.1-11.6l20,11.6l-20.1,11.6L748.9,736.9z
	 M770,724.7l20-11.5l20,11.6l-20,11.5L770,724.7z M791,712.6l20-11.6l20,11.6l-20,11.6L791,712.6z M812,700.5l20-11.5l20,11.6
	L832,712L812,700.5z M833,688.3l20.1-11.6l20,11.6L853,699.9L833,688.3z M854.1,676.2l20-11.5l20,11.6l-20,11.5L854.1,676.2z
	 M875.1,664l20-11.6l20,11.6l-20,11.6L875.1,664z M896.1,651.9l20-11.5l20,11.6l-20,11.5L896.1,651.9z M917.1,639.8l20.1-11.6
	l20,11.6l-20.1,11.6L917.1,639.8z M938.2,627.6l20-11.5l20,11.6l-20,11.5L938.2,627.6z M959.2,615.5l20-11.6l20,11.6l-20,11.6
	L959.2,615.5z M980.2,603.3l20-11.5l20,11.6l-20,11.5L980.2,603.3z M1001.2,591.2l20-11.6l20,11.6l-20,11.6L1001.2,591.2z
	 M1022.2,579.1l20-11.5l20,11.6l-20,11.5L1022.2,579.1z M1043.2,566.9l20-11.6l20,11.6l-20,11.6L1043.2,566.9z M1064.2,554.8
	l20-11.5l20,11.6l-20,11.5L1064.2,554.8z M1085.2,542.7l20.1-11.6l20,11.6l-20.1,11.6L1085.2,542.7z M1106.3,530.5l20-11.5l20,11.6
	l-20,11.5L1106.3,530.5z M1127.3,518.4l20-11.6l20,11.6l-20,11.6L1127.3,518.4z M1148.3,506.2l20-11.5l20,11.6l-20,11.5
	L1148.3,506.2z M1169.3,494.1l20.1-11.6l20,11.6l-20.1,11.6L1169.3,494.1z M1190.8,482l20-11.5l20,11.6l-20,11.5L1190.8,482z
	 M1211.8,469.9l20-11.6l20,11.6l-20,11.6L1211.8,469.9z M1232.8,457.7l20-11.5l20,11.6l-20,11.5L1232.8,457.7z M1253.8,445.6
	L1274,434l20,11.6l-20.1,11.6L1253.8,445.6z M1296,421.2l2.1-1.2l0,0l18-10.4l3.6,2.1h-0.1l16.4,9.5l-20,11.5L1296,421.2z
	 M1317,409.1l20-11.5l20,11.5l-20,11.5L1317,409.1z M1338,397l20.1-11.6l20,11.5l-20.1,11.6L1338,397z M1359.1,384.8l20-11.5
	l20,11.5l-20,11.5L1359.1,384.8z M1380.1,372.7l20-11.6l20,11.5l-20,11.6L1380.1,372.7z M1379.1,372.1l-20.1-11.6l20-11.6l20.1,11.6
	L1379.1,372.1z M1358,359.9l-20-11.5l20-11.6l20,11.5L1358,359.9z M1337,347.8l-20-11.6l20-11.6l20,11.6L1337,347.8z M1316,335.6
	l-20-11.5l20-11.6l20,11.5L1316,335.6z M1295,323.5l-20.1-11.6l20-11.6L1315,312L1295,323.5z M1273.9,311.3l-20-11.5l20-11.6
	l20,11.5L1273.9,311.3z M1252.9,299.2l-20-11.6l20-11.6l20,11.6L1252.9,299.2z M1231.9,287.1l-20-11.5l20-11.6l20,11.5L1231.9,287.1
	z M1210.9,274.9l-20-11.6l20-11.6l20,11.6L1210.9,274.9z M1189.9,262.8l-20-11.5l20-11.6l20,11.5L1189.9,262.8z M1168.9,250.7
	l-20-11.6l20-11.6l20,11.6L1168.9,250.7z M1147.9,238.5l-20-11.5l20-11.6l20,11.5L1147.9,238.5z M1126.9,226.4l-20.1-11.6l20-11.6
	l20.1,11.6L1126.9,226.4z M1105.8,214.2l-20-11.5l20-11.6l20,11.5L1105.8,214.2z M1084.8,202.1l-20-11.6l20-11.6l20,11.6
	L1084.8,202.1z M1063.8,190l-20-11.5l20-11.6l20,11.5L1063.8,190z M1042.8,177.8l-20.1-11.6l20-11.6l20.1,11.6L1042.8,177.8z
	 M1021.7,165.7l-20-11.5l20-11.6l20,11.5L1021.7,165.7z M1000.7,153.5l-20-11.6l20-11.6l20,11.6L1000.7,153.5z M979.7,141.4
	l-20-11.5l20-11.6l20,11.5L979.7,141.4z M958.7,129.3l-20.1-11.6l20-11.6l20.1,11.6L958.7,129.3z M937.6,117.1l-20-11.5l20-11.6
	l20,11.5L937.6,117.1z M916.6,105l-20-11.6l20-11.6l20,11.6L916.6,105z M895.6,92.8l-20-11.5l20-11.6l20,11.5L895.6,92.8z
	 M874.6,80.7l-20.2-11.6l20-11.6l20.2,11.6L874.6,80.7z M853.2,68.5l-20-11.5l20-11.6l20,11.5L853.2,68.5z M832.2,56.4l-20-11.6
	l20-11.6l20,11.6L832.2,56.4z M811.2,44.2l-20-11.6l20-11.6l20,11.5L811.2,44.2z M790.2,32.1l-20.1-11.6l20-11.6l20.1,11.6
	L790.2,32.1z M769.1,19.9l-20-11.6l20-11.6l20,11.6L769.1,19.9z M748.1,7.8l-20-11.6l20-11.6l20,11.6L748.1,7.8z M727.1-4.3
	l-20-11.6l20-11.6l20,11.5L727.1-4.3z M706.1-16.5L686-28l20-11.6L726.1-28L706.1-16.5z M685-28.6l-20-11.6l20-11.6l20,11.5
	L685-28.6z M684-28.1l-20,11.5L644-28l20-11.6L684-28.1z M663-15.9L642.9-4.3l-20-11.5L643-27.5L663-15.9z M641.9-3.8l-20,11.6
	l-20-11.6l20-11.6L641.9-3.8z M620.9,8.4l-20,11.6l-20-11.6l20-11.6L620.9,8.4z M599.9,20.5l-20,11.6l-20-11.6l20-11.6L599.9,20.5z
	 M578.9,32.6l-20.2,11.6l-20-11.6l20.2-11.6L578.9,32.6z M557.8,44.9l-20,11.5l-20-11.5l20-11.6L557.8,44.9z M536.8,57l-20,11.6
	l-20-11.5l20-11.6L536.8,57z M515.8,69.1l-20,11.5l-20-11.5l20-11.5L515.8,69.1z M494.8,81.3l-20.1,11.6l-20-11.5l20.1-11.6
	L494.8,81.3z M473.7,93.4l-20,11.5l-20-11.5l20-11.5L473.7,93.4z M452.7,105.5l-20,11.6l-20-11.5l20-11.6L452.7,105.5z M431.7,117.7
	l-20,11.5l-20-11.5l20-11.5L431.7,117.7z M410.7,129.8l-20.1,11.6l-20-11.5l20.1-11.6L410.7,129.8z M389.4,142l-20,11.5l-20-11.5
	l20-11.5L389.4,142z M368.4,154.1l-20,11.6l-20-11.5l20-11.6L368.4,154.1z M347.4,166.3l-20,11.5l-20-11.5l20-11.5L347.4,166.3z
	 M326.4,178.4L306.3,190l-20-11.5l20.1-11.6L326.4,178.4z M305.3,190.6l-20,11.5l-20-11.5l20-11.5L305.3,190.6z M284.3,202.7
	l-20,11.6l-20-11.5l20-11.6L284.3,202.7z M263.3,214.8l-20,11.5l-20-11.5l20-11.5L263.3,214.8z M242.3,227l-20,11.6l-20-11.5
	l20-11.6L242.3,227z M221.3,239.1l-20,11.5l-20-11.5l20-11.5L221.3,239.1z M200.3,251.2l-20,11.6l-20-11.5l20-11.6L200.3,251.2z
	 M179.3,263.4l-20,11.5l-20-11.5l20-11.5L179.3,263.4z M158.3,275.5L138,287.1l-20-11.5l20.1-11.6L158.3,275.5z M137,287.7l-20,11.5
	l-20-11.5l20-11.5L137,287.7z M116,299.8l-20,11.6l-20-11.5l20-11.6L116,299.8z M95,311.9l-20,11.5l-20-11.5l20-11.5L95,311.9z
	 M74,324.1l-20.1,11.6l-20-11.5L54,312.5L74,324.1z M52.9,336.2l-20,11.5l-20-11.5l20-11.5L52.9,336.2z M31.9,348.4l-20,11.6
	l-20-11.5l20-11.6L31.9,348.4z M10.9,360.5l-20,11.5l-20-11.5l20-11.5L10.9,360.5z M-10.1,372.6l-20.1,11.6l-20-11.5l20.1-11.6
	L-10.1,372.6z M-31.2,384.8l-20,11.5l-20-11.5l20-11.5L-31.2,384.8z M-30.2,385.4l20,11.6l-20,11.5l-20.1-11.6L-30.2,385.4z
	 M-9.1,397.5l20,11.5l-20,11.5l-20-11.5L-9.1,397.5z M5.5,413.3l6.4-3.7L28,419h-0.1l3.9,2.3l-19.9,11.5l-20-11.5L5.5,413.3
	L5.5,413.3z M53.9,434l20,11.5l-20,11.5l-20-11.5L53.9,434z M74.9,446.1l20,11.6l-20,11.5l-20-11.6L74.9,446.1z M95.9,458.3l20,11.5
	l-20,11.5l-20-11.5L95.9,458.3z M116.9,470.4L137,482l-20,11.5L97,482L116.9,470.4z M138,482.6l20,11.5l-20,11.5l-20-11.5L138,482.6
	z M159,494.7l20,11.6l-20,11.5l-20-11.6L159,494.7z M180,506.8l20,11.5l-20,11.5l-20-11.5L180,506.8z M201,519l20,11.6l-20,11.5
	l-20-11.6L201,519z M222,531.1l20,11.5l-20,11.5l-20-11.5L222,531.1z M243,543.2l20,11.6l-20,11.5l-20-11.6L243,543.2z M264,555.4
	l20,11.5l-20,11.5l-20-11.5L264,555.4z M285,567.5l20.1,11.6l-20,11.5L265,579L285,567.5z M306.3,579.7l20,11.5l-20,11.5l-20-11.5
	L306.3,579.7z M327.3,591.8l20,11.6l-20,11.5l-20-11.6L327.3,591.8z M348.3,604l20,11.5l-20,11.5l-20-11.5L348.3,604z M369.3,616.1
	l20.1,11.6l-20,11.5l-20.1-11.6L369.3,616.1z M390.4,628.3l20,11.5l-20,11.5l-20-11.5L390.4,628.3z M411.4,640.4l20,11.6l-20,11.5
	l-20-11.6L411.4,640.4z M432.4,652.5l20,11.5l-20,11.5l-20-11.5L432.4,652.5z M453.4,664.7l20.1,11.6l-20,11.5l-20.1-11.6
	L453.4,664.7z M474.5,676.8l20,11.5l-20,11.5l-20-11.5L474.5,676.8z M495.5,689l20,11.6l-20,11.5l-20-11.6L495.5,689z M516.5,701.1
	l20,11.5l-20,11.5l-20-11.5L516.5,701.1z M537.5,713.2l20.2,11.6l-20,11.5l-20-11.6L537.5,713.2z M558.6,725.4l20,11.5l-20,11.5
	l-20-11.5L558.6,725.4z M579.6,737.6l20,11.6l-20,11.5l-20-11.6L579.6,737.6z M600.6,749.7l20,11.5l-20,11.5l-20-11.5L600.6,749.7z
	 M621.6,761.8l20.1,11.6l-20,11.5l-20.1-11.6L621.6,761.8z M642.9,774l20,11.5l-20,11.5l-20-11.5L642.9,774z M663.9,786.1l20,11.6
	l-20,11.5l-20-11.6L663.9,786.1z M684.9,798.3l20,11.6l-20,11.5l-20-11.5L684.9,798.3z M685.9,797.7l20.2-11.6l20,11.5L706,809.2
	L685.9,797.7z M707.1,785.5l20-11.5l20,11.5l-20,11.5L707.1,785.5z M728.1,773.4l20-11.6l20,11.5l-20,11.6L728.1,773.4z
	 M749.1,761.2l20-11.5l20,11.5l-20,11.5L749.1,761.2z M770.1,749.1l20.1-11.6l20,11.5l-20.1,11.6L770.1,749.1z M791.2,736.9l20-11.5
	l20,11.5l-20,11.5L791.2,736.9z M812.2,724.8l20-11.6l20,11.5l-20,11.6L812.2,724.8z M833.2,712.6l20-11.5l20,11.5l-20,11.5
	L833.2,712.6z M854.2,700.5l20.1-11.6l20,11.5l-20.1,11.6L854.2,700.5z M875.2,688.3l20-11.5l20,11.5l-20,11.5L875.2,688.3z
	 M896.2,676.2l20-11.6l20,11.5l-20,11.6L896.2,676.2z M917.2,664.1l20-11.5l20,11.5l-20,11.5L917.2,664.1z M938.2,652l20.1-11.6
	l20,11.5l-20.1,11.6L938.2,652z M959.3,639.8l20-11.5l20,11.5l-20,11.5L959.3,639.8z M980.3,627.7l20-11.6l20,11.5l-20,11.6
	L980.3,627.7z M1001.3,615.5l20-11.5l20,11.5l-20,11.5L1001.3,615.5z M1022.3,603.4l20-11.6l20,11.5l-20,11.6L1022.3,603.4z
	 M1043.3,591.2l20-11.5l20,11.5l-20,11.5L1043.3,591.2z M1064.3,579.1l20-11.6l20,11.5l-20,11.6L1064.3,579.1z M1085.3,567l20-11.5
	l20,11.5l-20,11.5L1085.3,567z M1106.3,554.8l20.1-11.6l20,11.5l-20.1,11.6L1106.3,554.8z M1127.4,542.7l20-11.5l20,11.5l-20,11.5
	L1127.4,542.7z M1148.4,530.5l20-11.6l20,11.5l-20,11.6L1148.4,530.5z M1169.4,518.4l20-11.5l20,11.5l-20,11.5L1169.4,518.4z
	 M1190.4,506.3l20.1-11.6l20,11.5l-20.1,11.6L1190.4,506.3z M1211.5,494.1l20-11.5l20,11.5l-20,11.5L1211.5,494.1z M1232.5,482
	l20-11.6l20,11.5l-20,11.6L1232.5,482z M1253.5,469.8l20-11.5l20,11.5l-20,11.5L1253.5,469.8z M1274.5,457.7l20.1-11.6l20,11.5
	l-20.1,11.6L1274.5,457.7z M1296,445.5l20-11.5l20,11.5l-20,11.5L1296,445.5z M1338.1,421.2l1.1-0.7h-0.1l18.8-10.9l3.6,2.1h-0.1
	l16.4,9.5l-19.9,11.5L1338.1,421.2z M1359,409.1l20.1-11.6l20,11.6l-20.1,11.6L1359,409.1z M1380.1,396.9l20-11.5l20,11.6l-20,11.5
	L1380.1,396.9z M1401.1,384.8l20-11.6l20,11.6l-20,11.6L1401.1,384.8z M1441.1,360.5l-20,11.5l-20-11.5l20-11.5L1441.1,360.5z
	 M1420.1,348.4l-20,11.5l-20.1-11.6l20-11.5L1420.1,348.4z M1399,336.2l-20,11.5l-20-11.5l20-11.5L1399,336.2z M1378,324.1l-20,11.5
	l-20-11.6l20-11.5L1378,324.1z M1357,312l-20,11.5l-20-11.5l20-11.5L1357,312z M1336,299.9l-20,11.5l-20.1-11.6l20-11.5L1336,299.9z
	 M1315,287.6l-20,11.6l-20-11.5l20-11.5L1315,287.6z M1294,275.5l-20,11.5l-20-11.6l20-11.5L1294,275.5z M1273,263.4l-20,11.5
	l-20-11.5l20-11.5L1273,263.4z M1252,251.3l-20,11.5l-20-11.6l20-11.5L1252,251.3z M1231,239.1l-20,11.5l-20-11.5l20-11.5
	L1231,239.1z M1210,227l-20,11.5l-20-11.6l20-11.5L1210,227z M1189,214.9l-20,11.5l-20-11.5l20-11.5L1189,214.9z M1168,202.7
	l-20,11.5l-20.1-11.6l20-11.5L1168,202.7z M1146.9,190.5l-20,11.5l-20-11.5l20-11.5L1146.9,190.5z M1125.9,178.4l-20,11.5l-20-11.6
	l20-11.5L1125.9,178.4z M1104.9,166.3l-20,11.5l-20-11.5l20-11.5L1104.9,166.3z M1083.9,154.2l-20,11.5l-20.1-11.6l20-11.5
	L1083.9,154.2z M1062.6,142l-20,11.5l-20-11.5l20-11.5L1062.6,142z M1041.6,129.9l-20,11.5l-20-11.6l20-11.5L1041.6,129.9z
	 M1020.6,117.7l-20,11.5l-20-11.5l20-11.5L1020.6,117.7z M999.6,105.6l-20,11.5l-20.1-11.6l20-11.5L999.6,105.6z M978.5,93.4
	l-20,11.5l-20-11.5l20-11.5L978.5,93.4z M957.5,81.3l-20,11.5l-20-11.6l20-11.5L957.5,81.3z M936.5,69.2l-20,11.5l-20-11.5l20-11.5
	L936.5,69.2z M915.5,57l-20,11.5l-20.2-11.6l20-11.5L915.5,57z M894.4,44.8l-20,11.5l-20-11.5l20-11.6L894.4,44.8z M873.4,32.7
	l-20,11.5l-20-11.6l20-11.5L873.4,32.7z M852.4,20.6l-20,11.6l-20-11.6l20-11.6L852.4,20.6z M831.4,8.4l-20,11.5L791.3,8.4l20-11.6
	L831.4,8.4z M810.3-3.7l-20,11.5l-20-11.5l20-11.6L810.3-3.7z M789.3-15.9l-20,11.6l-20-11.6l20-11.5L789.3-15.9z M768.3-28
	l-20,11.6l-20-11.6l20-11.6L768.3-28z M747.3-40.1l-20,11.6L707-40.2l20-11.5L747.3-40.1z M726-52.3l-20,11.6l-20-11.6l20-11.6
	L726-52.3z M685-76l20,11.6l-20,11.5l-20-11.6L685-76z M664-63.9l20,11.6l-20,11.6l-20-11.6L664-63.9z M643-51.7l20,11.6l-20,11.6
	l-20-11.6L643-51.7z M622-39.6L642-28l-20.1,11.6l-20-11.6L622-39.6z M600.9-27.4l20,11.6l-20,11.5l-20-11.6L600.9-27.4z
	 M579.9-15.3l20,11.6l-20,11.6l-20-11.6L579.9-15.3z M558.9-3.2l20,11.6l-20,11.6l-20-11.6L558.9-3.2z M537.9,9l20,11.6l-20.2,11.6
	l-20-11.6L537.9,9z M516.8,21.2l20,11.6l-20,11.5l-20-11.6L516.8,21.2z M495.8,33.3l20,11.6l-20,11.6l-20-11.6L495.8,33.3z
	 M474.8,45.4l20,11.6l-20,11.5l-20-11.6L474.8,45.4z M453.8,57.6l20,11.6l-20.1,11.6l-20-11.6L453.8,57.6z M432.7,69.7l20,11.6
	l-20,11.5l-20-11.6L432.7,69.7z M411.7,81.9l20,11.6l-20,11.6l-20-11.6L411.7,81.9z M390.7,94l20,11.6l-20,11.5l-20-11.6L390.7,94z
	 M369.7,106.1l20,11.6l-20.3,11.6l-20-11.6L369.7,106.1z M348.6,118.3l20,11.6l-20,11.5l-20-11.6L348.6,118.3z M327.6,130.4l20,11.6
	l-20,11.6l-20-11.6L327.6,130.4z M306.6,142.6l20,11.6l-20,11.5l-20-11.6L306.6,142.6z M285.6,154.7l20,11.6l-20.1,11.6l-20-11.6
	L285.6,154.7z M264.5,166.9l20,11.6l-20,11.5l-20-11.6L264.5,166.9z M243.5,179l20,11.6l-20,11.6l-20-11.6L243.5,179z M222.5,191.1
	l20,11.6l-20,11.5l-20-11.6L222.5,191.1z M201.5,203.3l20,11.6l-20,11.6l-20-11.6L201.5,203.3z M180.5,215.4l20,11.6l-20,11.5
	l-20-11.6L180.5,215.4z M159.5,227.5l20,11.6l-20,11.6l-20-11.6L159.5,227.5z M138.5,239.7l20,11.6l-20,11.5l-20-11.6L138.5,239.7z
	 M117.5,251.8l20,11.6L117,275l-20-11.6L117.5,251.8z M96,264l20,11.6l-20,11.5l-20-11.6L96,264z M75,276.1l20,11.6l-20,11.6
	l-20-11.6L75,276.1z M54,288.2l20,11.6l-20,11.5l-20-11.6L54,288.2z M33,300.4l20,11.6l-20.1,11.6l-20-11.6L33,300.4z M11.9,312.5
	l20,11.6l-20,11.5l-20-11.6L11.9,312.5z M-9.1,324.7l20,11.6l-20,11.6l-20-11.6L-9.1,324.7z M-30.1,336.8l20,11.6l-20,11.5l-20-11.6
	L-30.1,336.8z M-51.1,348.9l20,11.6l-20.1,11.6l-20-11.6L-51.1,348.9z M-72.3,361.1l20,11.6l-20,11.5l-20-11.6L-72.3,361.1z
	 M-113.3,384.8l20-11.6l20,11.6l-20,11.6L-113.3,384.8z M-92.3,396.9l20-11.6l20,11.5l-20,11.6L-92.3,396.9z M-71.3,409.1l20-11.6
	l20.1,11.6l-20,11.6L-71.3,409.1z M-50.2,421.2l14.6-8.4l0,0l5.5-3.2L-14,419h-0.1l3.9,2.2l-20,11.5L-50.2,421.2z M-12.8,442.9
	L-12.8,442.9l-16.3-9.5l20-11.5l20,11.5l-2.1,1.2l0,0l-18,10.4L-12.8,442.9z M-8.2,445.5l20-11.6l20.1,11.6l-20,11.6L-8.2,445.5z
	 M12.9,457.7l20-11.6l20,11.5l-20,11.6L12.9,457.7z M33.9,469.8l20-11.6l20,11.6l-20,11.6L33.9,469.8z M54.9,482l20-11.6L95,482
	l-20,11.6L54.9,482z M75.9,494.1l20-11.6l20.1,11.6l-20,11.6L75.9,494.1z M97,506.3l20-11.6l20,11.5l-20,11.6L97,506.3z M118,518.4
	l20-11.6l20,11.6L138,530L118,518.4z M139,530.6l20-11.6l20,11.5l-20,11.6L139,530.6z M160,542.7l20-11.6l20,11.6l-20,11.6
	L160,542.7z M181,554.8l20-11.6l20,11.5l-20,11.6L181,554.8z M202,566.9l20-11.6l20,11.6l-20,11.6L202,566.9z M223,579.1l20-11.6
	l20,11.5l-20,11.6L223,579.1z M244,591.2l20-11.6l20.1,11.6l-20,11.6L244,591.2z M265.1,603.4l20-11.6l20,11.5l-20,11.6L265.1,603.4
	z M286.1,615.5l20-11.6l20,11.6l-20,11.6L286.1,615.5z M307.1,627.7l20-11.6l20,11.5l-20,11.6L307.1,627.7z M328.1,639.8l20-11.6
	l20.1,11.6l-20,11.6L328.1,639.8z M349.2,651.9l20-11.6l20,11.5l-20,11.6L349.2,651.9z M370.2,664.1l20-11.6l20,11.6l-20,11.6
	L370.2,664.1z M391.2,676.2l20-11.6l20,11.5l-20,11.6L391.2,676.2z M412.2,688.3l20-11.6l20.1,11.6l-20,11.6L412.2,688.3z
	 M433.3,700.5l20-11.6l20,11.5l-20,11.6L433.3,700.5z M454.3,712.6l20-11.6l20,11.6l-20,11.6L454.3,712.6z M475.3,724.8l20-11.6
	l20,11.5l-20,11.6L475.3,724.8z M496.3,736.9l20-11.6l20.5,11.7l-20,11.6L496.3,736.9z M517.4,749.1l20-11.6l20,11.5l-20,11.6
	L517.4,749.1z M538.4,761.3l20-11.6l20,11.6l-20,11.6L538.4,761.3z M559.4,773.4l20-11.6l20,11.5l-20,11.6L559.4,773.4z
	 M580.4,785.5l20-11.6l20.1,11.6l-20,11.6L580.4,785.5z M601.5,797.7l20-11.6l20,11.5l-20,11.6L601.5,797.7z M622.5,809.8l20-11.6
	l20,11.6l-20,11.6L622.5,809.8z M643.5,822l20-11.6l20,11.6l-20,11.6L643.5,822z M685,845.7l-20.1-11.6l20-11.6l20.1,11.6L685,845.7
	z M706,833.5l-20.1-11.6l20-11.6L726,822L706,833.5z M727,821.4l-20-11.6l20.2-11.6l20.1,11.6L727,821.4z M748.2,809.2l-20.1-11.6
	l20-11.5l20.1,11.6L748.2,809.2z M769.2,797.1l-20.1-11.6l20-11.6l20.1,11.6L769.2,797.1z M790.2,784.9l-20.1-11.6l20-11.5
	l20.1,11.6L790.2,784.9z M811.2,772.8l-20.1-11.6l20.1-11.6l20.1,11.6L811.2,772.8z M832.3,760.6l-20-11.6l20-11.5l20.1,11.6
	L832.3,760.6z M853.3,748.5l-20.1-11.6l20-11.6l20.1,11.6L853.3,748.5z M874.3,736.4l-20.1-11.6l20-11.5l20.1,11.6L874.3,736.4z
	 M895.3,724.2l-20.1-11.6l20.1-11.6l20.1,11.6L895.3,724.2z M916.3,712.1l-20.1-11.6l20-11.5l20.1,11.6L916.3,712.1z M937.3,699.9
	l-20.1-11.6l20-11.6l20.1,11.6L937.3,699.9z M958.3,687.8l-20.1-11.6l20-11.5l20.1,11.6L958.3,687.8z M979.3,675.7l-20.1-11.6
	l20.1-11.6l20.1,11.6L979.3,675.7z M1000.4,663.5l-19.9-11.6l20-11.5l20.1,11.6L1000.4,663.5z M1021.4,651.4l-20.1-11.6l20-11.6
	l20.1,11.6L1021.4,651.4z M1042.4,639.2l-20.1-11.6l20-11.5l20.1,11.6L1042.4,639.2z M1063.4,627.1l-20.1-11.6l20-11.6l20.1,11.6
	L1063.4,627.1z M1084.4,615l-20.1-11.6l20-11.5l20.1,11.6L1084.4,615z M1105.4,602.8l-20.1-11.6l20-11.6l20.1,11.6L1105.4,602.8z
	 M1126.4,590.7l-20.1-11.6l20-11.5l20.1,11.6L1126.4,590.7z M1147.4,578.6l-19.8-11.6l20.1-11.6l20.1,11.6L1147.4,578.6z
	 M1168.5,566.4l-20.1-11.6l20-11.5l20.1,11.6L1168.5,566.4z M1189.5,554.3l-20.1-11.6l20-11.6l20.1,11.6L1189.5,554.3z
	 M1210.5,542.1l-20.1-11.6l20-11.5l20.1,11.6L1210.5,542.1z M1231.5,530l-20.1-11.6l20.1-11.6l20.1,11.6L1231.5,530z M1252.6,517.8
	l-20.1-11.6l20-11.5l20.1,11.6L1252.6,517.8z M1273.6,505.7l-20.1-11.6l20-11.6l20.5,11.6L1273.6,505.7z M1294.6,493.6l-19.7-11.6
	l20-11.5L1315,482L1294.6,493.6z M1315.6,481.4l-20.1-11.6l20.1-11.6l20.1,11.6L1315.6,481.4z M1336.7,469.3l-19.7-11.6l20-11.5
	l20.1,11.6L1336.7,469.3z M1357.7,457.1l-19.7-11.6l20-11.5l20.1,11.6L1357.7,457.1z M1384.2,441.8l-5.1,3.2l-17.1-9.9h0.1l-3-1.7
	l19.9-11.6l20,11.5l-14.6,8.4L1384.2,441.8z M1399.7,432.8l-20-11.5l1.1-0.7l0,0l19-11l20,11.5L1399.7,432.8z M1420.8,420.6
	l-20-11.5l20-11.5l20,11.5L1420.8,420.6z M1441.8,408.5l-20-11.5l20-11.6l20,11.5L1441.8,408.5z M1462.8,396.3l-20-11.5l20-11.5
	l20,11.5L1462.8,396.3z"/>
</svg>
