<svg xmlns="http://www.w3.org/2000/svg" xmlns:xlink="http://www.w3.org/1999/xlink" viewBox="0 0 64 64"><defs><linearGradient id="Безымянный_градиент_51" x1="32" y1="38.2" x2="32" y2="7.94" gradientUnits="userSpaceOnUse"><stop offset="0" stop-color="#78caf9"/><stop offset="1" stop-color="#6091f8"/></linearGradient><linearGradient id="Безымянный_градиент_51-2" x1="32.35" y1="5.72" x2="5.35" y2="59.47" xlink:href="#Безымянный_градиент_51"/><linearGradient id="Безымянный_градиент_51-3" x1="68.92" y1="24.09" x2="41.92" y2="77.84" xlink:href="#Безымянный_градиент_51"/><linearGradient id="Безымянный_градиент_37" x1="14.75" y1="32.63" x2="48.68" y2="32.63" gradientUnits="userSpaceOnUse"><stop offset="0" stop-color="#f8d87f"/><stop offset="1" stop-color="#ff9b63"/></linearGradient></defs><title>icon9</title><g id="Слой_2" data-name="Слой 2"><g id="Слой_1-2" data-name="Слой 1"><path d="M59.92,8.16A4.08,4.08,0,1,1,64,4.08,4.09,4.09,0,0,1,59.92,8.16Zm0-6.53a2.45,2.45,0,1,0,2.45,2.45A2.45,2.45,0,0,0,59.92,1.63Z" style="fill:#fac476"/><path d="M62,49.66H58.26V33.33a26.26,26.26,0,0,0-52.52,0V48.6H2V33.33a30,30,0,1,1,60,0Z" style="fill:url(#Безымянный_градиент_51)"/><path d="M2.21,47H1.77A1.77,1.77,0,0,0,0,48.77v6.46A1.77,1.77,0,0,0,1.77,57h.44a8.92,8.92,0,0,0,8.7,7H14V40H10.92A8.92,8.92,0,0,0,2.21,47Z" style="fill:url(#Безымянный_градиент_51-2)"/><path d="M62.23,47h-.44a8.92,8.92,0,0,0-8.7-7H50V64h3.08a8.92,8.92,0,0,0,8.7-7h.44A1.77,1.77,0,0,0,64,55.23V48.77A1.77,1.77,0,0,0,62.23,47Z" style="fill:url(#Безымянный_градиент_51-3)"/><path d="M29.42,15.48a16.95,16.95,0,0,0-9.12,29.33,17.49,17.49,0,0,1-1.16,3.35,1.25,1.25,0,0,0,1.67,1.65c1.64-.77,3-1.5,3.92-2.07a17,17,0,1,0,4.7-32.25Z" style="fill:url(#Безымянный_градиент_37)"/><path d="M39.54,40.43l-.56-1a1.23,1.23,0,0,1,.1-1.36h0a1.23,1.23,0,0,1,1.31-.44l1.1.31A1.24,1.24,0,0,0,43,37.06l.84-3A1.24,1.24,0,0,0,43,32.51l-1.1-.31a1.23,1.23,0,0,1-.89-1v0a1.23,1.23,0,0,1,.62-1.22l1-.56a1.24,1.24,0,0,0,.47-1.69l-1.54-2.73a1.24,1.24,0,0,0-1.69-.47l-1,.56a1.23,1.23,0,0,1-1.36-.1h0A1.23,1.23,0,0,1,37,23.61l.31-1.1A1.24,1.24,0,0,0,36.48,21l-3-.84a1.24,1.24,0,0,0-1.52.86l-.31,1.1a1.23,1.23,0,0,1-1,.89h0a1.23,1.23,0,0,1-1.22-.62l-.56-1a1.24,1.24,0,0,0-1.69-.47l-2.73,1.54a1.24,1.24,0,0,0-.47,1.69l.56,1a1.23,1.23,0,0,1-.1,1.36h0A1.23,1.23,0,0,1,23,27l-1.1-.31a1.24,1.24,0,0,0-1.52.86l-.84,3a1.24,1.24,0,0,0,.86,1.52l1.1.31a1.23,1.23,0,0,1,.89,1v0a1.23,1.23,0,0,1-.62,1.22l-1,.56a1.24,1.24,0,0,0-.47,1.69l1.54,2.73a1.24,1.24,0,0,0,1.69.47l1-.56a1.23,1.23,0,0,1,1.36.1h0A1.23,1.23,0,0,1,26.39,41l-.31,1.1a1.24,1.24,0,0,0,.86,1.52l3,.84a1.24,1.24,0,0,0,1.52-.86l.31-1.1a1.23,1.23,0,0,1,1-.89h0a1.23,1.23,0,0,1,1.23.62l.56,1a1.24,1.24,0,0,0,1.69.47l2.73-1.54A1.24,1.24,0,0,0,39.54,40.43ZM28.36,34.19a3.74,3.74,0,1,1,5.1,1.42A3.74,3.74,0,0,1,28.36,34.19Z" style="fill:#fff"/><polygon points="8.04 17.14 6.24 15.33 8.04 13.52 6.84 12.32 5.03 14.13 3.22 12.32 2.02 13.52 3.82 15.33 2.02 17.14 3.22 18.35 5.03 16.54 6.84 18.35 8.04 17.14" style="fill:#fac476"/></g></g></svg>