<svg xmlns="http://www.w3.org/2000/svg" xmlns:xlink="http://www.w3.org/1999/xlink" viewBox="0 0 64 64"><defs><linearGradient id="Безымянный_градиент_51" x1="6.67" y1="42.33" x2="47.32" y2="1.68" gradientUnits="userSpaceOnUse"><stop offset="0" stop-color="#78caf9"/><stop offset="1" stop-color="#6091f8"/></linearGradient><linearGradient id="Безымянный_градиент_27" x1="54" y1="17.33" x2="0" y2="17.33" gradientUnits="userSpaceOnUse"><stop offset="0" stop-color="#2e3192"/><stop offset="0.35" stop-color="#2e3192" stop-opacity="0.62"/><stop offset="0.79" stop-color="#2e3192" stop-opacity="0.17"/><stop offset="1" stop-color="#2e3192" stop-opacity="0"/></linearGradient><linearGradient id="Безымянный_градиент_11" x1="64" y1="42" x2="10" y2="42" gradientUnits="userSpaceOnUse"><stop offset="0" stop-color="#f8d87f"/><stop offset="1" stop-color="#ff9b63"/></linearGradient><linearGradient id="Безымянный_градиент_35" x1="15.5" y1="38.56" x2="15.5" y2="64" gradientUnits="userSpaceOnUse"><stop offset="0" stop-color="#6091f8"/><stop offset="0.2" stop-color="#6091f8" stop-opacity="0.78"/><stop offset="0.59" stop-color="#6091f8" stop-opacity="0.37"/><stop offset="0.87" stop-color="#6091f8" stop-opacity="0.1"/><stop offset="1" stop-color="#6091f8" stop-opacity="0"/></linearGradient></defs><title>icon1</title><g id="Слой_2" data-name="Слой 2"><g id="Слой_1-2" data-name="Слой 1"><rect y="6" width="54" height="32" rx="4" ry="4" style="fill:url(#Безымянный_градиент_51)"/><rect y="13.33" width="54" height="8" style="fill:url(#Безымянный_градиент_27)"/><rect x="27" y="16.33" width="13.31" height="2" style="fill:#fff"/><rect x="43.93" y="16.33" width="5.32" height="2" style="fill:#fff"/><rect x="5.5" y="27.17" width="13.31" height="2" style="fill:#fff"/><rect x="22.43" y="27.17" width="5.32" height="2" style="fill:#fff"/><rect x="10" y="26" width="54" height="32" rx="4" ry="4" style="fill:url(#Безымянный_градиент_11)"/><circle cx="33.5" cy="42" r="7" style="fill:#fff"/><circle cx="40.5" cy="42" r="7" style="fill:#fff;opacity:0.5"/><path d="M61.5,5A2.5,2.5,0,1,1,64,2.5,2.5,2.5,0,0,1,61.5,5Zm0-4A1.5,1.5,0,1,0,63,2.5,1.5,1.5,0,0,0,61.5,1Z" style="fill:#fac476"/><path d="M53.25,59.77a2.5,2.5,0,1,1,2.5-2.5h-1a1.5,1.5,0,1,0-1.5,1.5Z" style="fill:#6091f8"/><polygon points="5.29 59.06 4.23 58 5.29 56.94 4.59 56.23 3.53 57.29 2.46 56.23 1.76 56.94 2.82 58 1.76 59.06 2.46 59.77 3.53 58.71 4.59 59.77 5.29 59.06" style="fill:#6091f8"/><polygon points="25.09 48.16 17.89 40.96 17.89 40.96 15.49 38.56 13.8 40.26 13.8 40.26 13.8 40.26 5.9 48.15 8.3 50.55 13.8 45.05 13.8 64 17.19 64 17.19 45.06 22.69 50.56 25.09 48.16" style="fill:url(#Безымянный_градиент_35)"/></g></g></svg>