<svg xmlns="http://www.w3.org/2000/svg" xmlns:xlink="http://www.w3.org/1999/xlink" viewBox="0 0 64.1 64"><defs><linearGradient id="Безымянный_градиент_51" x1="3.15" y1="30.08" x2="6.69" y2="30.08" gradientTransform="translate(15.92 2.94) rotate(29.67)" gradientUnits="userSpaceOnUse"><stop offset="0" stop-color="#78caf9"/><stop offset="1" stop-color="#6091f8"/></linearGradient><linearGradient id="Безымянный_градиент_51-2" x1="51.73" y1="34.27" x2="51.73" y2="59.29" gradientTransform="matrix(1, 0, 0, 1, 0, 0)" xlink:href="#Безымянный_градиент_51"/><linearGradient id="Безымянный_градиент_51-3" x1="61.59" y1="34.27" x2="61.59" y2="59.29" gradientTransform="matrix(1, 0, 0, 1, 0, 0)" xlink:href="#Безымянный_градиент_51"/><linearGradient id="Безымянный_градиент_51-4" x1="32" y1="34.27" x2="32" y2="59.29" gradientTransform="matrix(1, 0, 0, 1, 0, 0)" xlink:href="#Безымянный_градиент_51"/><linearGradient id="Безымянный_градиент_51-5" x1="41.86" y1="34.27" x2="41.86" y2="59.29" gradientTransform="matrix(1, 0, 0, 1, 0, 0)" xlink:href="#Безымянный_градиент_51"/><linearGradient id="Безымянный_градиент_51-6" x1="12.27" y1="34.27" x2="12.27" y2="59.29" gradientTransform="matrix(1, 0, 0, 1, 0, 0)" xlink:href="#Безымянный_градиент_51"/><linearGradient id="Безымянный_градиент_51-7" x1="22.13" y1="34.27" x2="22.13" y2="59.29" gradientTransform="matrix(1, 0, 0, 1, 0, 0)" xlink:href="#Безымянный_градиент_51"/><linearGradient id="Безымянный_градиент_51-8" x1="2.4" y1="34.27" x2="2.4" y2="59.29" gradientTransform="matrix(1, 0, 0, 1, 0, 0)" xlink:href="#Безымянный_градиент_51"/><linearGradient id="Безымянный_градиент_37" x1="35.15" y1="46.89" x2="28.5" y2="18.27" gradientUnits="userSpaceOnUse"><stop offset="0" stop-color="#f8d87f"/><stop offset="1" stop-color="#ff9b63"/></linearGradient><linearGradient id="Безымянный_градиент_37-2" x1="23.7" y1="2.5" x2="23.7" y2="26.61" xlink:href="#Безымянный_градиент_37"/></defs><title>icon6</title><g id="Слой_2" data-name="Слой 2"><g id="Слой_1-2" data-name="Слой 1"><polygon points="47.22 2.83 46.16 1.77 47.22 0.71 46.51 0 45.45 1.06 44.39 0 43.68 0.71 44.74 1.77 43.68 2.83 44.39 3.54 45.45 2.48 46.51 3.54 47.22 2.83" style="fill:#fac476"/><polygon points="6.31 33.31 5.92 31.86 7.36 31.46 7.1 30.5 5.65 30.9 5.26 29.45 4.29 29.71 4.69 31.16 3.24 31.56 3.51 32.52 4.95 32.13 5.35 33.57 6.31 33.31" style="fill:url(#Безымянный_градиент_51)"/><rect x="49.33" y="38.52" width="4.81" height="25.48" style="fill:url(#Безымянный_градиент_51-2)"/><rect x="59.19" y="23.56" width="4.81" height="40.44" style="fill:url(#Безымянный_градиент_51-3)"/><rect x="29.59" y="49.59" width="4.81" height="14.41" style="fill:url(#Безымянный_градиент_51-4)"/><rect x="39.46" y="44.73" width="4.81" height="19.27" style="fill:url(#Безымянный_градиент_51-5)"/><rect x="9.86" y="51.6" width="4.81" height="12.4" style="fill:url(#Безымянный_градиент_51-6)"/><rect x="19.73" y="53.77" width="4.81" height="10.23" style="fill:url(#Безымянный_градиент_51-7)"/><rect y="56.27" width="4.81" height="7.73" style="fill:url(#Безымянный_градиент_51-8)"/><polygon points="60.95 3.87 48.42 7.01 53.53 10.07 39.16 34.32 31.02 30.17 20.18 43.98 6.34 41.99 0.1 51.1 1.25 51.98 7.1 45.49 21.35 47.84 31.53 35.98 40.26 40.17 58.86 13.27 64.09 16.4 60.95 3.87" style="fill:url(#Безымянный_градиент_37)"/><circle cx="23.7" cy="14.55" r="12.06" style="fill:url(#Безымянный_градиент_37-2)"/><g id="Shape_1" data-name="Shape 1"><path d="M25.8,13.84A17.92,17.92,0,0,0,24,13a4.12,4.12,0,0,1-1-.59.92.92,0,0,1,.22-1.62,1.74,1.74,0,0,1,.62-.13,4.59,4.59,0,0,1,2.34.48c.37.18.49.13.62-.27s.24-.84.36-1.27A.45.45,0,0,0,26.82,9a5.8,5.8,0,0,0-1.47-.45c-.67-.11-.67-.11-.67-.8,0-1,0-1-1-1H23.3c-.44,0-.52.09-.53.55,0,.21,0,.41,0,.62,0,.61,0,.6-.58.82a3.25,3.25,0,0,0-2.32,3,3.12,3.12,0,0,0,1.7,3,18.56,18.56,0,0,0,2.13,1,3.15,3.15,0,0,1,.77.47,1.11,1.11,0,0,1-.25,1.92,2.48,2.48,0,0,1-1.37.18,6,6,0,0,1-2.08-.64c-.38-.21-.5-.15-.63.28s-.21.74-.31,1.12-.08.62.38.86a6.49,6.49,0,0,0,1.87.55c.51.08.52.11.53.65,0,.24,0,.49,0,.74s.15.49.46.5h1.05a.41.41,0,0,0,.43-.47c0-.34,0-.67,0-1a.53.53,0,0,1,.45-.61A3.52,3.52,0,0,0,26.87,19,3.48,3.48,0,0,0,25.8,13.84Z" style="fill:#fff;fill-rule:evenodd"/></g></g></g></svg>