<svg xmlns="http://www.w3.org/2000/svg" xmlns:xlink="http://www.w3.org/1999/xlink" viewBox="0 0 64 59.38"><defs><linearGradient id="Безымянный_градиент_51" x1="34.54" y1="52.29" x2="54" y2="52.29" gradientUnits="userSpaceOnUse"><stop offset="0" stop-color="#78caf9"/><stop offset="1" stop-color="#6091f8"/></linearGradient><linearGradient id="Безымянный_градиент_51-2" x1="10" y1="52.29" x2="29.46" y2="52.29" xlink:href="#Безымянный_градиент_51"/><linearGradient id="Безымянный_градиент_51-3" x1="53.31" y1="55.69" x2="60.69" y2="55.69" xlink:href="#Безымянный_градиент_51"/><linearGradient id="Безымянный_градиент_51-4" x1="3.31" y1="55.69" x2="10.69" y2="55.69" xlink:href="#Безымянный_градиент_51"/><linearGradient id="Безымянный_градиент_51-5" x1="10" y1="7.08" x2="29.46" y2="7.08" xlink:href="#Безымянный_градиент_51"/><linearGradient id="Безымянный_градиент_51-6" x1="34.54" y1="7.08" x2="54" y2="7.08" xlink:href="#Безымянный_градиент_51"/><linearGradient id="Безымянный_градиент_51-7" x1="3.31" y1="3.69" x2="10.69" y2="3.69" xlink:href="#Безымянный_градиент_51"/><linearGradient id="Безымянный_градиент_51-8" x1="53.31" y1="3.69" x2="60.69" y2="3.69" xlink:href="#Безымянный_градиент_51"/><linearGradient id="Безымянный_градиент_51-9" x1="9.69" y1="24.91" x2="29.15" y2="24.91" xlink:href="#Безымянный_градиент_51"/><linearGradient id="Безымянный_градиент_51-10" x1="33.85" y1="24.91" x2="53.31" y2="24.91" xlink:href="#Безымянный_градиент_51"/><linearGradient id="Безымянный_градиент_51-11" x1="3" y1="21.51" x2="10.38" y2="21.51" xlink:href="#Безымянный_градиент_51"/><linearGradient id="Безымянный_градиент_51-12" x1="52.62" y1="21.51" x2="60" y2="21.51" xlink:href="#Безымянный_градиент_51"/><linearGradient id="Безымянный_градиент_51-13" x1="37.85" y1="34.47" x2="57.31" y2="34.47" xlink:href="#Безымянный_градиент_51"/><linearGradient id="Безымянный_градиент_51-14" x1="6.69" y1="34.47" x2="26.15" y2="34.47" xlink:href="#Безымянный_градиент_51"/><linearGradient id="Безымянный_градиент_51-15" x1="56.62" y1="37.86" x2="64" y2="37.86" xlink:href="#Безымянный_градиент_51"/><linearGradient id="Безымянный_градиент_51-16" x1="0" y1="37.86" x2="7.38" y2="37.86" xlink:href="#Безымянный_градиент_51"/><linearGradient id="Безымянный_градиент_4" x1="49.94" y1="18.4" x2="29.27" y2="31.4" gradientUnits="userSpaceOnUse"><stop offset="0" stop-color="#f8d87f"/><stop offset="1" stop-color="#ff9b63"/></linearGradient></defs><title>icon8</title><g id="Слой_2" data-name="Слой 2"><g id="Слой_1-2" data-name="Слой 1"><polygon points="54 56.3 34.54 56.3 34.54 48.29 35.77 48.29 35.77 55.08 54 55.08 54 56.3" style="fill:url(#Безымянный_градиент_51)"/><polygon points="29.46 56.3 10 56.3 10 55.08 28.23 55.08 28.23 48.29 29.46 48.29 29.46 56.3" style="fill:url(#Безымянный_градиент_51-2)"/><path d="M57,59.38a3.69,3.69,0,1,1,3.69-3.69A3.69,3.69,0,0,1,57,59.38Zm0-6a2.31,2.31,0,1,0,2.31,2.31A2.31,2.31,0,0,0,57,53.38Z" style="fill:url(#Безымянный_градиент_51-3)"/><path d="M7,59.38a3.69,3.69,0,1,1,3.69-3.69A3.69,3.69,0,0,1,7,59.38Zm0-6a2.31,2.31,0,1,0,2.31,2.31A2.31,2.31,0,0,0,7,53.38Z" style="fill:url(#Безымянный_градиент_51-4)"/><polygon points="29.46 11.09 28.23 11.09 28.23 4.3 10 4.3 10 3.08 29.46 3.08 29.46 11.09" style="fill:url(#Безымянный_градиент_51-5)"/><polygon points="35.77 11.09 34.54 11.09 34.54 3.08 54 3.08 54 4.3 35.77 4.3 35.77 11.09" style="fill:url(#Безымянный_градиент_51-6)"/><path d="M7,7.38a3.69,3.69,0,1,1,3.69-3.69A3.69,3.69,0,0,1,7,7.38Zm0-6A2.31,2.31,0,1,0,9.31,3.69,2.31,2.31,0,0,0,7,1.38Z" style="fill:url(#Безымянный_градиент_51-7)"/><path d="M57,7.38a3.69,3.69,0,1,1,3.69-3.69A3.69,3.69,0,0,1,57,7.38Zm0-6a2.31,2.31,0,1,0,2.31,2.31A2.31,2.31,0,0,0,57,1.38Z" style="fill:url(#Безымянный_градиент_51-8)"/><polygon points="29.15 28.92 27.92 28.92 27.92 22.13 9.69 22.13 9.69 20.9 29.15 20.9 29.15 28.92" style="fill:url(#Безымянный_градиент_51-9)"/><polygon points="35.08 28.92 33.85 28.92 33.85 20.9 53.31 20.9 53.31 22.13 35.08 22.13 35.08 28.92" style="fill:url(#Безымянный_градиент_51-10)"/><path d="M6.69,25.2a3.69,3.69,0,1,1,3.69-3.69A3.69,3.69,0,0,1,6.69,25.2Zm0-6A2.31,2.31,0,1,0,9,21.51,2.31,2.31,0,0,0,6.69,19.2Z" style="fill:url(#Безымянный_градиент_51-11)"/><path d="M56.31,25.2A3.69,3.69,0,1,1,60,21.51,3.69,3.69,0,0,1,56.31,25.2Zm0-6a2.31,2.31,0,1,0,2.31,2.31A2.31,2.31,0,0,0,56.31,19.2Z" style="fill:url(#Безымянный_градиент_51-12)"/><polygon points="37.85 30.46 39.08 30.46 39.08 37.25 57.31 37.25 57.31 38.47 37.85 38.47 37.85 30.46" style="fill:url(#Безымянный_градиент_51-13)"/><polygon points="24.92 30.46 26.15 30.46 26.15 38.47 6.69 38.47 6.69 37.25 24.92 37.25 24.92 30.46" style="fill:url(#Безымянный_градиент_51-14)"/><path d="M60.31,34.17a3.69,3.69,0,1,1-3.69,3.69A3.69,3.69,0,0,1,60.31,34.17Zm0,6A2.31,2.31,0,1,0,58,37.86,2.31,2.31,0,0,0,60.31,40.17Z" style="fill:url(#Безымянный_градиент_51-15)"/><path d="M3.69,34.17A3.69,3.69,0,1,1,0,37.86,3.69,3.69,0,0,1,3.69,34.17Zm0,6a2.31,2.31,0,1,0-2.31-2.31A2.31,2.31,0,0,0,3.69,40.17Z" style="fill:url(#Безымянный_градиент_51-16)"/><circle cx="32" cy="29.69" r="19" style="fill:url(#Безымянный_градиент_4)"/><path d="M32,5.83l-1.14,0V7.09c.38,0,.76,0,1.14,0s.76,0,1.13,0V5.86C32.76,5.84,32.38,5.83,32,5.83Zm-21.21,13a4.47,4.47,0,0,1,.65,1.46A22.65,22.65,0,0,1,26.86,7.64V6.39A23.93,23.93,0,0,0,10.79,18.78ZM37.13,6.39V7.64A22.75,22.75,0,0,1,52,19.14a5.24,5.24,0,0,1,.8-1.07A23.93,23.93,0,0,0,37.13,6.39Zm18.49,20A4.27,4.27,0,0,1,54.34,26a22.67,22.67,0,0,1-.56,9.86h1.27a23.75,23.75,0,0,0,.81-6.18A22.74,22.74,0,0,0,55.62,26.37ZM11.79,39.87H10.42A23.91,23.91,0,0,0,26.85,53V51.73A22.63,22.63,0,0,1,11.79,39.87Zm40.42,0A22.64,22.64,0,0,1,37.12,51.74V53A23.89,23.89,0,0,0,53.57,39.87ZM32,52.33c-.39,0-.77,0-1.15,0v1.24c.38,0,.76,0,1.15,0s.75,0,1.12,0V52.3C32.75,52.32,32.38,52.33,32,52.33ZM9.36,29.69a22.9,22.9,0,0,1,.43-4.41,4.63,4.63,0,0,1-1.38.79,22.78,22.78,0,0,0-.28,3.62,23.75,23.75,0,0,0,.81,6.18h1.28A22.5,22.5,0,0,1,9.36,29.69Z" style="fill:#f8d87f"/><g id="Forma_1" data-name="Forma 1"><path d="M38.65,30.34a3.32,3.32,0,0,0-1.26-1.26,6.39,6.39,0,0,0-1.59-.59,4.71,4.71,0,0,0,1.56-.84,3.56,3.56,0,0,0,.9-1.18,3.27,3.27,0,0,0,.31-1.41A3.22,3.22,0,0,0,38,23.19a3.74,3.74,0,0,0-1.69-1.31,6.06,6.06,0,0,0-1.56-.37V19H32.67v2.46H31.34V19H29.27v2.46H24.88V23.5h.58a2,2,0,0,1,.79.11.62.62,0,0,1,.29.29,2.51,2.51,0,0,1,.08.85V33.1a2.56,2.56,0,0,1-.08.84.59.59,0,0,1-.29.29,2,2,0,0,1-.79.1h-.58v2.07h4.39v2.46h2.07V36.41h1.33v2.46h2.07V36.29a6.88,6.88,0,0,0,1.68-.4,4.4,4.4,0,0,0,2-1.53,3.73,3.73,0,0,0,.71-2.2A3.57,3.57,0,0,0,38.65,30.34Zm-8.37-6.5H31.9a7.36,7.36,0,0,1,2,.18,1.58,1.58,0,0,1,.84.6,1.73,1.73,0,0,1,.29,1,1.69,1.69,0,0,1-.31,1,1.81,1.81,0,0,1-.92.65,6,6,0,0,1-1.88.22H30.28Zm4.57,9.26a2,2,0,0,1-1.05.74,5.77,5.77,0,0,1-1.56.18H31.17a2.09,2.09,0,0,1-.66-.06.35.35,0,0,1-.17-.21,4,4,0,0,1-.05-.81V29.7h1.91a5.56,5.56,0,0,1,1.87.24,1.87,1.87,0,0,1,.92.7,2,2,0,0,1,.31,1.13A2.12,2.12,0,0,1,34.85,33.1Z" style="fill:#fff;fill-rule:evenodd"/></g></g></g></svg>