<svg xmlns="http://www.w3.org/2000/svg" xmlns:xlink="http://www.w3.org/1999/xlink" viewBox="0 0 64.06 64"><defs><linearGradient id="Безымянный_градиент_35" x1="-1.04" y1="44.77" x2="-1.04" y2="70.46" gradientTransform="translate(4.93 104.89) rotate(180)" gradientUnits="userSpaceOnUse"><stop offset="0" stop-color="#6091f8"/><stop offset="0.2" stop-color="#6091f8" stop-opacity="0.78"/><stop offset="0.59" stop-color="#6091f8" stop-opacity="0.37"/><stop offset="0.87" stop-color="#6091f8" stop-opacity="0.1"/><stop offset="1" stop-color="#6091f8" stop-opacity="0"/></linearGradient><linearGradient id="Безымянный_градиент_35-2" x1="-53.22" y1="44.77" x2="-53.22" y2="60.46" xlink:href="#Безымянный_градиент_35"/><linearGradient id="Безымянный_градиент_51" x1="68.91" y1="32.07" x2="-3.26" y2="-0.77" gradientUnits="userSpaceOnUse"><stop offset="0" stop-color="#78caf9"/><stop offset="1" stop-color="#6091f8"/></linearGradient><linearGradient id="Безымянный_градиент_11" x1="46.64" y1="15.34" x2="-4.86" y2="78.51" gradientUnits="userSpaceOnUse"><stop offset="0" stop-color="#f8d87f"/><stop offset="1" stop-color="#ff9b63"/></linearGradient><linearGradient id="Безымянный_градиент_48" x1="21.17" y1="61.09" x2="49.33" y2="-11.08" gradientUnits="userSpaceOnUse"><stop offset="0" stop-color="#ff9b63"/><stop offset="0.39" stop-color="#ff9b63" stop-opacity="0.57"/><stop offset="0.65" stop-color="#ff9b63" stop-opacity="0.31"/><stop offset="0.87" stop-color="#ff9b63" stop-opacity="0.1"/><stop offset="1" stop-color="#ff9b63" stop-opacity="0"/></linearGradient><linearGradient id="Безымянный_градиент_11-2" x1="10.42" y1="41.02" x2="62.85" y2="85.08" xlink:href="#Безымянный_градиент_11"/><linearGradient id="Безымянный_градиент_11-3" x1="10.48" y1="44.9" x2="62.91" y2="88.96" xlink:href="#Безымянный_градиент_11"/></defs><title>icon5</title><g id="Слой_2" data-name="Слой 2"><g id="Слой_1-2" data-name="Слой 1"><polygon points="0.06 54.2 4.5 58.64 4.5 58.64 5.97 60.12 7.02 59.08 7.02 59.08 7.02 59.08 11.89 54.21 10.41 52.73 7.02 56.12 7.02 34.44 4.93 34.44 4.93 56.12 1.54 52.73 0.06 54.2" style="fill:url(#Безымянный_градиент_35)"/><polygon points="52.23 54.2 56.67 58.64 56.66 58.64 58.14 60.12 59.19 59.08 59.19 59.08 59.19 59.08 64.06 54.21 62.58 52.73 59.19 56.12 59.19 44.44 57.1 44.44 57.1 56.12 53.71 52.73 52.23 54.2" style="fill:url(#Безымянный_градиент_35-2)"/><path d="M60,0H4A4,4,0,0,0,0,4V26.55a4,4,0,0,0,4,4H60a4,4,0,0,0,4-4V4A4,4,0,0,0,60,0ZM50,20.28H14a5,5,0,0,1,0-10H50a5,5,0,0,1,0,10Z" style="fill:url(#Безымянный_градиент_51)"/><rect x="15.03" y="10.28" width="34" height="45.97" style="fill:url(#Безымянный_градиент_11)"/><path d="M46,16.28v34a3,3,0,0,0-3,3H21a3,3,0,0,0-3-3v-34a3,3,0,0,0,3-3H43A3,3,0,0,0,46,16.28Z" style="fill:url(#Безымянный_градиент_48)"/><path d="M56.42,32.41a1.5,1.5,0,1,0,.83-2l-.37-.93a2.5,2.5,0,1,1-1.39,3.25Z" style="fill:#fac476"/><rect x="15" y="58.18" width="34" height="1.94" style="fill:url(#Безымянный_градиент_11-2)"/><rect x="15.06" y="62.06" width="34" height="1.94" style="fill:url(#Безымянный_градиент_11-3)"/><g id="Shape_1" data-name="Shape 1"><path d="M42.36,32.67a.54.54,0,0,0-.62-.58c-.44,0-.89,0-1.34,0a.7.7,0,0,1-.8-.59A4.67,4.67,0,0,0,38,29.06a4.62,4.62,0,0,0-6.9,1.41,23.72,23.72,0,0,0-1.14,2.45,5.46,5.46,0,0,1-.78,1.35A1.22,1.22,0,0,1,27,34a2.3,2.3,0,0,1-.18-.82,6.09,6.09,0,0,1,.63-3.1c.24-.49.17-.65-.36-.82s-1.12-.32-1.68-.48a.59.59,0,0,0-.78.37,7.7,7.7,0,0,0-.6,2C23.91,32,23.9,32,23,32c-1.29,0-1.29,0-1.29,1.26,0,.18,0,.36,0,.55,0,.59.12.69.73.7h.82c.81,0,.8,0,1.08.76a4.31,4.31,0,0,0,4,3.07,4.14,4.14,0,0,0,3.93-2.26,24.56,24.56,0,0,0,1.31-2.82,4.16,4.16,0,0,1,.62-1,1.47,1.47,0,0,1,2.55.34A3.28,3.28,0,0,1,37,34.36a7.89,7.89,0,0,1-.85,2.76c-.27.51-.2.66.37.83s1,.28,1.48.41c.67.18.82.11,1.14-.51a8.6,8.6,0,0,0,.73-2.48c.11-.67.14-.69.86-.7h1c.41,0,.65-.19.66-.6S42.37,33.13,42.36,32.67Z" style="fill:#fff;fill-rule:evenodd"/></g></g></g></svg>