<svg xmlns="http://www.w3.org/2000/svg" xmlns:xlink="http://www.w3.org/1999/xlink" viewBox="0 0 64 65.23"><defs><linearGradient id="Безымянный_градиент_51" x1="16.76" y1="56.81" x2="48" y2="56.81" gradientUnits="userSpaceOnUse"><stop offset="0" stop-color="#78caf9"/><stop offset="1" stop-color="#6091f8"/></linearGradient><linearGradient id="Безымянный_градиент_51-2" x1="13.52" y1="11.64" x2="44.76" y2="11.64" xlink:href="#Безымянный_градиент_51"/><linearGradient id="Безымянный_градиент_35" x1="19.69" y1="33.05" x2="10.85" y2="0.05" gradientUnits="userSpaceOnUse"><stop offset="0" stop-color="#6091f8"/><stop offset="0.2" stop-color="#6091f8" stop-opacity="0.78"/><stop offset="0.59" stop-color="#6091f8" stop-opacity="0.37"/><stop offset="0.87" stop-color="#6091f8" stop-opacity="0.1"/><stop offset="1" stop-color="#6091f8" stop-opacity="0"/></linearGradient><linearGradient id="Безымянный_градиент_51-3" x1="24" y1="24.82" x2="24" y2="56.82" xlink:href="#Безымянный_градиент_51"/><linearGradient id="Безымянный_градиент_37" x1="40" y1="8.82" x2="40" y2="40.82" gradientUnits="userSpaceOnUse"><stop offset="0" stop-color="#f8d87f"/><stop offset="1" stop-color="#ff9b63"/></linearGradient></defs><title>icon4</title><g id="Слой_2" data-name="Слой 2"><g id="Слой_1-2" data-name="Слой 1"><polygon points="3.54 8.03 2.48 6.97 3.54 5.91 2.83 5.2 1.77 6.26 0.71 5.2 0 5.91 1.06 6.97 0 8.03 0.71 8.73 1.77 7.67 2.83 8.73 3.54 8.03" style="fill:#6091f8"/><path d="M48,52.64l-2.83-2.83h0L43.76,48.4h0l-1.41,1.41h0l-2.83,2.83,1.41,1.41,1.77-1.77a12,12,0,0,1-23.95-1.05h-2a14,14,0,0,0,28,1l1.88,1.88Z" style="fill:url(#Безымянный_градиент_51)"/><path d="M17.76,20.06h0l1.41-1.41h0L22,15.81,20.59,14.4l-1.77,1.77a12,12,0,0,1,23.95,1.05h2a14,14,0,0,0-28-1L14.93,14.4l-1.41,1.41,2.83,2.83h0Z" style="fill:url(#Безымянный_градиент_51-2)"/><path d="M29.1,42.47,10.48,23.85A14,14,0,0,1,19.41,0l.14,2a12,12,0,0,0-7.66,20.44L30.51,41.06Z" style="fill:url(#Безымянный_градиент_35)"/><circle cx="24" cy="40.82" r="16" style="fill:url(#Безымянный_градиент_51-3)"/><g id="Shape_1" data-name="Shape 1"><path d="M26.43,40a20.71,20.71,0,0,0-2.13-1,4.75,4.75,0,0,1-1.17-.68,1.06,1.06,0,0,1,.25-1.87,2,2,0,0,1,.72-.15,5.3,5.3,0,0,1,2.7.55c.43.21.57.14.71-.31s.28-1,.42-1.46a.51.51,0,0,0-.32-.68,6.7,6.7,0,0,0-1.7-.52c-.77-.12-.77-.13-.77-.93,0-1.13,0-1.13-1.1-1.13h-.48c-.51,0-.6.11-.61.64,0,.24,0,.48,0,.72,0,.71,0,.7-.66.94a3.75,3.75,0,0,0-2.67,3.49,3.6,3.6,0,0,0,2,3.42A21.37,21.37,0,0,0,24,42.18a3.62,3.62,0,0,1,.89.54,1.28,1.28,0,0,1-.29,2.22,2.86,2.86,0,0,1-1.57.21,6.87,6.87,0,0,1-2.4-.74c-.44-.24-.57-.17-.72.32s-.24.86-.36,1.29-.1.72.44,1a7.48,7.48,0,0,0,2.16.64c.58.1.6.12.61.75,0,.28,0,.57,0,.85s.17.57.53.57h1.21a.47.47,0,0,0,.5-.54c0-.39,0-.78,0-1.16a.61.61,0,0,1,.52-.7A4.06,4.06,0,0,0,27.65,46,4,4,0,0,0,26.43,40Z" style="fill:#fff;fill-rule:evenodd"/></g><circle cx="40" cy="24.82" r="16" style="fill:url(#Безымянный_градиент_37)"/><g id="Shape_1-2" data-name="Shape 1"><path d="M42.43,24a20.71,20.71,0,0,0-2.13-1,4.75,4.75,0,0,1-1.17-.68,1.06,1.06,0,0,1,.25-1.87,2,2,0,0,1,.72-.15,5.3,5.3,0,0,1,2.7.55c.43.21.57.14.71-.31s.28-1,.42-1.46a.51.51,0,0,0-.32-.68,6.7,6.7,0,0,0-1.7-.52c-.77-.12-.77-.13-.77-.93,0-1.13,0-1.13-1.1-1.13h-.48c-.51,0-.6.11-.61.64,0,.24,0,.48,0,.72,0,.71,0,.7-.66.94a3.75,3.75,0,0,0-2.67,3.49,3.6,3.6,0,0,0,2,3.42A21.37,21.37,0,0,0,40,26.18a3.62,3.62,0,0,1,.89.54,1.28,1.28,0,0,1-.29,2.22,2.86,2.86,0,0,1-1.57.21,6.87,6.87,0,0,1-2.4-.74c-.44-.24-.57-.17-.72.32s-.24.86-.36,1.29-.1.72.44,1a7.48,7.48,0,0,0,2.16.64c.58.1.6.12.61.75,0,.28,0,.57,0,.85s.17.57.53.57h1.21a.47.47,0,0,0,.5-.54c0-.39,0-.78,0-1.16a.61.61,0,0,1,.52-.7A4.06,4.06,0,0,0,43.65,30,4,4,0,0,0,42.43,24Z" style="fill:#fff;fill-rule:evenodd"/></g><rect x="63" y="54.97" width="1" height="10" style="fill:#fac476"/><path d="M53.5,37.91a2.5,2.5,0,1,1,2.5-2.5A2.5,2.5,0,0,1,53.5,37.91Zm0-4a1.5,1.5,0,1,0,1.5,1.5A1.5,1.5,0,0,0,53.5,33.91Z" style="fill:#6091f8"/></g></g></svg>