<svg xmlns="http://www.w3.org/2000/svg" xmlns:xlink="http://www.w3.org/1999/xlink" viewBox="0 0 64 64.16"><defs><linearGradient id="Безымянный_градиент_51" x1="17.31" y1="56.2" x2="77.48" y2="15.53" gradientUnits="userSpaceOnUse"><stop offset="0" stop-color="#78caf9"/><stop offset="1" stop-color="#6091f8"/></linearGradient><linearGradient id="Безымянный_градиент_51-2" x1="50.12" y1="5.56" x2="17.32" y2="39.24" xlink:href="#Безымянный_градиент_51"/><linearGradient id="Безымянный_градиент_96" x1="-10.55" y1="58.13" x2="66.61" y2="36.63" gradientUnits="userSpaceOnUse"><stop offset="0" stop-color="#fff"/><stop offset="0.08" stop-color="#fff" stop-opacity="0.91"/><stop offset="0.72" stop-color="#fff" stop-opacity="0.26"/><stop offset="1" stop-color="#fff" stop-opacity="0"/></linearGradient><linearGradient id="Безымянный_градиент_51-3" x1="47" y1="3.76" x2="19.85" y2="31.64" xlink:href="#Безымянный_градиент_51"/><linearGradient id="Безымянный_градиент_37" x1="29.15" y1="17.42" x2="64" y2="17.42" gradientUnits="userSpaceOnUse"><stop offset="0" stop-color="#f8d87f"/><stop offset="1" stop-color="#ff9b63"/></linearGradient><linearGradient id="Безымянный_градиент_37-2" x1="28.01" y1="30.59" x2="38.8" y2="30.59" xlink:href="#Безымянный_градиент_37"/></defs><title>icon3</title><g id="Слой_2" data-name="Слой 2"><g id="Слой_1-2" data-name="Слой 1"><polygon points="9 8 7.94 6.94 9 5.88 8.29 5.17 7.23 6.23 6.17 5.17 5.46 5.88 6.53 6.94 5.46 8 6.17 8.71 7.23 7.65 8.29 8.71 9 8" style="fill:#fac476"/><path d="M44.08,8.66a2.5,2.5,0,1,1,2.5-2.5A2.5,2.5,0,0,1,44.08,8.66Zm0-4a1.5,1.5,0,1,0,1.5,1.5A1.5,1.5,0,0,0,44.08,4.66Z" style="fill:#6091f8"/><rect y="28.38" width="64" height="35.78" style="fill:url(#Безымянный_градиент_51)"/><rect x="4" y="23.16" width="56" height="2" style="fill:url(#Безымянный_градиент_51-2)"/><path d="M57.17,61.17H6.83A3.84,3.84,0,0,0,3,57.33V35.21a3.83,3.83,0,0,0,3.83-3.83H57.17A3.83,3.83,0,0,0,61,35.21V57.33A3.84,3.84,0,0,0,57.17,61.17Z" style="fill:url(#Безымянный_градиент_96)"/><g id="Shape_1" data-name="Shape 1"><path d="M35.57,45.06a30.47,30.47,0,0,0-3.14-1.47,7,7,0,0,1-1.72-1,1.57,1.57,0,0,1,.37-2.75,3,3,0,0,1,1.06-.22,7.8,7.8,0,0,1,4,.81c.63.31.83.21,1-.46s.41-1.43.62-2.15a.76.76,0,0,0-.47-1,9.86,9.86,0,0,0-2.5-.77c-1.14-.18-1.14-.19-1.14-1.36C33.64,33,33.64,33,32,33h-.7c-.75,0-.88.16-.9.94,0,.35,0,.7,0,1.06,0,1,0,1-1,1.39a5.52,5.52,0,0,0-3.93,5.15,5.3,5.3,0,0,0,2.89,5A31.5,31.5,0,0,0,32,48.27a5.34,5.34,0,0,1,1.32.8,1.89,1.89,0,0,1-.43,3.26,4.2,4.2,0,0,1-2.32.31,10.11,10.11,0,0,1-3.53-1.09c-.65-.35-.84-.26-1.07.47s-.36,1.26-.53,1.9c-.23.85-.14,1.06.65,1.46a11,11,0,0,0,3.18.94c.86.14.89.18.9,1.1,0,.42,0,.84,0,1.25s.25.83.77.84,1.19,0,1.79,0a.69.69,0,0,0,.74-.79c0-.57,0-1.14,0-1.71a.9.9,0,0,1,.76-1,6,6,0,0,0,3.13-2.07A5.92,5.92,0,0,0,35.57,45.06Z" style="fill:#fff;fill-rule:evenodd"/></g><rect x="9" y="18.16" width="46" height="2" style="fill:url(#Безымянный_градиент_51-3)"/><path d="M64,11.26,52.74,0a4.51,4.51,0,0,0-1.3,2.85L38.31,13.07a8.41,8.41,0,0,0-8.68,2l-.48.48,19.3,19.3.48-.48a8.41,8.41,0,0,0,2-8.68L61.15,12.55A4.51,4.51,0,0,0,64,11.26Z" style="fill:url(#Безымянный_градиент_37)"/><path d="M28.35,34A1.14,1.14,0,0,0,30,35.65l8.84-8.84L37.19,25.2Z" style="fill:url(#Безымянный_градиент_37-2)"/></g></g></svg>