<svg xmlns="http://www.w3.org/2000/svg" xmlns:xlink="http://www.w3.org/1999/xlink" viewBox="0 0 64 64.01"><defs><linearGradient id="Безымянный_градиент_96" x1="36.78" y1="25.56" x2="36.78" y2="58.58" gradientUnits="userSpaceOnUse"><stop offset="0" stop-color="#fff"/><stop offset="0.08" stop-color="#fff" stop-opacity="0.91"/><stop offset="0.72" stop-color="#fff" stop-opacity="0.26"/><stop offset="1" stop-color="#fff" stop-opacity="0"/></linearGradient><linearGradient id="Безымянный_градиент_96-2" x1="62.8" y1="52.76" x2="54.3" y2="60.6" xlink:href="#Безымянный_градиент_96"/><linearGradient id="Безымянный_градиент_96-3" x1="11.42" y1="44.54" x2="11.42" y2="72.96" gradientTransform="translate(1.14 -5.16)" xlink:href="#Безымянный_градиент_96"/><linearGradient id="Безымянный_градиент_37" x1="34.42" y1="-0.26" x2="34.42" y2="34.4" gradientUnits="userSpaceOnUse"><stop offset="0" stop-color="#f8d87f"/><stop offset="1" stop-color="#ff9b63"/></linearGradient><linearGradient id="Безымянный_градиент_96-4" x1="24.45" y1="5.68" x2="15.29" y2="17.51" xlink:href="#Безымянный_градиент_96"/><linearGradient id="Безымянный_градиент_96-5" x1="2.18" y1="30.48" x2="6.84" y2="29.69" xlink:href="#Безымянный_градиент_96"/><linearGradient id="Безымянный_градиент_96-6" x1="59.3" y1="2.94" x2="61.63" y2="2.54" xlink:href="#Безымянный_градиент_96"/></defs><title>icon14</title><g id="Слой_2" data-name="Слой 2"><g id="Слой_1-2" data-name="Слой 1"><path d="M63.78,29.8c-.9,2.8-3.27,7.89-3.27,7.89S52.62,45.46,49,48.86,42.67,52,42.67,52H25.19l-2.3,2.43L9.56,42.14l8-8.13c1.89-1.94,5.15-2,5.15-2h9.1a2.89,2.89,0,0,1,2.4,1,2.88,2.88,0,0,0,.84.57,8.3,8.3,0,0,0,3,.65h5.31a4.77,4.77,0,0,1,3,1.08,3.89,3.89,0,0,1,.37.33A4.75,4.75,0,0,1,48.11,39a4.81,4.81,0,0,1-4.81,4.81H31a5.38,5.38,0,0,0,2.8.78h9.49a5.5,5.5,0,0,0,4-9.3h4.59c.82,0,1.7-1.38,1.7-1.38s1.62-2.45,3.62-5.85a4.07,4.07,0,0,1,5.22-1.92S64.7,27,63.78,29.8Z" style="fill:url(#Безымянный_градиент_96)"/><circle cx="56.95" cy="58.15" r="3.76" style="fill:url(#Безымянный_градиент_96-2)"/><rect x="7.39" y="39.59" width="10.32" height="24.6" transform="translate(-34.17 26.06) rotate(-47.46)" style="fill:url(#Безымянный_градиент_96-3)"/><circle cx="34.42" cy="15" r="15" style="fill:url(#Безымянный_градиент_37)"/><g id="Shape_1" data-name="Shape 1"><path d="M36.85,14.18a20.67,20.67,0,0,0-2.13-1,4.75,4.75,0,0,1-1.17-.68,1.06,1.06,0,0,1,.25-1.87,2,2,0,0,1,.72-.15,5.3,5.3,0,0,1,2.7.55c.43.21.57.15.71-.31s.28-1,.42-1.46A.51.51,0,0,0,38,8.58a6.7,6.7,0,0,0-1.7-.52c-.77-.12-.77-.13-.77-.93,0-1.13,0-1.13-1.1-1.13H34c-.51,0-.6.11-.61.64,0,.24,0,.48,0,.72,0,.71,0,.7-.66.94A3.75,3.75,0,0,0,30,11.79a3.6,3.6,0,0,0,2,3.42,21.39,21.39,0,0,0,2.45,1.14,3.62,3.62,0,0,1,.89.54A1.28,1.28,0,0,1,35,19.11a2.86,2.86,0,0,1-1.57.21,6.87,6.87,0,0,1-2.4-.74c-.44-.24-.57-.17-.72.32s-.25.86-.36,1.29-.1.72.44,1a7.48,7.48,0,0,0,2.16.64c.58.1.6.12.61.75,0,.28,0,.57,0,.85s.17.57.53.57h1.21a.47.47,0,0,0,.5-.54c0-.39,0-.78,0-1.16a.61.61,0,0,1,.52-.7,4.06,4.06,0,0,0,2.12-1.41A4,4,0,0,0,36.85,14.18Z" style="fill:#fff;fill-rule:evenodd"/></g><circle cx="17.93" cy="14.1" r="4.04" style="fill:url(#Безымянный_градиент_96-4)"/><circle cx="5" cy="30" r="2" style="fill:url(#Безымянный_градиент_96-5)"/><circle cx="60.71" cy="2.7" r="1" style="fill:url(#Безымянный_градиент_96-6)"/></g></g></svg>