<svg xmlns="http://www.w3.org/2000/svg" xmlns:xlink="http://www.w3.org/1999/xlink" viewBox="0 0 64 64"><defs><linearGradient id="Безымянный_градиент_51" x1="55.14" y1="-8.55" x2="58.67" y2="-8.55" gradientTransform="translate(6.26 39.39) rotate(29.67)" gradientUnits="userSpaceOnUse"><stop offset="0" stop-color="#78caf9"/><stop offset="1" stop-color="#6091f8"/></linearGradient><linearGradient id="Безымянный_градиент_37" x1="46.06" y1="26.5" x2="46.06" y2="41.68" gradientUnits="userSpaceOnUse"><stop offset="0" stop-color="#f8d87f"/><stop offset="1" stop-color="#ff9b63"/></linearGradient><linearGradient id="Безымянный_градиент_37-2" x1="48.43" y1="0" x2="48.43" y2="15.18" xlink:href="#Безымянный_градиент_37"/><linearGradient id="Безымянный_градиент_37-3" x1="19.1" y1="40.4" x2="19.1" y2="32.8" xlink:href="#Безымянный_градиент_37"/><linearGradient id="Безымянный_градиент_37-4" x1="26.68" y1="8.75" x2="26.68" y2="23.93" xlink:href="#Безымянный_градиент_37"/><linearGradient id="Безымянный_градиент_51-2" x1="45.14" y1="44.73" x2="13.58" y2="44.73" gradientTransform="matrix(1, 0, 0, 1, 0, 0)" xlink:href="#Безымянный_градиент_51"/><linearGradient id="Безымянный_градиент_51-3" x1="16.95" y1="49.71" x2="0.12" y2="50.21" gradientTransform="matrix(1, 0, 0, 1, 0, 0)" xlink:href="#Безымянный_градиент_51"/><linearGradient id="Безымянный_градиент_3" x1="7" y1="38.48" x2="7" y2="49.32" gradientUnits="userSpaceOnUse"><stop offset="0" stop-color="#fff"/><stop offset="0.36" stop-color="#fff" stop-opacity="0.62"/><stop offset="0.72" stop-color="#fff" stop-opacity="0.26"/><stop offset="1" stop-color="#fff" stop-opacity="0"/></linearGradient><linearGradient id="Безымянный_градиент_37-5" x1="63" y1="31.83" x2="63" y2="10.52" xlink:href="#Безымянный_градиент_37"/><linearGradient id="Безымянный_градиент_37-6" x1="28.48" y1="6.9" x2="28.48" y2="-0.71" xlink:href="#Безымянный_градиент_37"/></defs><title>icon7</title><g id="Слой_2" data-name="Слой 2"><g id="Слой_1-2" data-name="Слой 1"><path d="M5,14.5a2,2,0,1,1,2-2A2,2,0,0,1,5,14.5Zm0-3.2a1.2,1.2,0,1,0,1.2,1.2A1.2,1.2,0,0,0,5,11.3Z" style="fill:#6091f8"/><polygon points="60.95 61.93 60.55 60.48 62 60.08 61.74 59.12 60.29 59.52 59.89 58.07 58.93 58.33 59.33 59.78 57.88 60.18 58.14 61.14 59.59 60.74 59.98 62.19 60.95 61.93" style="fill:url(#Безымянный_градиент_51)"/><circle cx="46.06" cy="34.09" r="7.59" style="fill:url(#Безымянный_градиент_37)"/><g id="Shape_1" data-name="Shape 1"><path d="M47.38,33.64a11.29,11.29,0,0,0-1.16-.54,2.59,2.59,0,0,1-.64-.37.58.58,0,0,1,.14-1,1.09,1.09,0,0,1,.39-.08,2.89,2.89,0,0,1,1.47.3c.23.12.31.08.39-.17s.15-.53.23-.8a.28.28,0,0,0-.18-.37,3.65,3.65,0,0,0-.93-.29c-.42-.07-.42-.07-.42-.51,0-.61,0-.61-.6-.61h-.26c-.28,0-.33.06-.33.35,0,.13,0,.26,0,.39,0,.39,0,.38-.36.51a2,2,0,0,0-1.46,1.91,2,2,0,0,0,1.07,1.87,11.66,11.66,0,0,0,1.34.62,2,2,0,0,1,.49.3.7.7,0,0,1-.16,1.21,1.56,1.56,0,0,1-.86.12,3.75,3.75,0,0,1-1.31-.4c-.24-.13-.31-.1-.4.17s-.13.47-.2.7-.05.39.24.54a4.09,4.09,0,0,0,1.18.35c.32.05.33.07.33.41,0,.15,0,.31,0,.46s.09.31.29.31h.66a.26.26,0,0,0,.27-.29c0-.21,0-.42,0-.64a.33.33,0,0,1,.28-.38,2.22,2.22,0,0,0,1.16-.77A2.19,2.19,0,0,0,47.38,33.64Z" style="fill:#fff;fill-rule:evenodd"/></g><circle cx="48.43" cy="7.59" r="7.59" style="fill:url(#Безымянный_градиент_37-2)"/><g id="Shape_1-2" data-name="Shape 1"><path d="M49.75,7.14a11.29,11.29,0,0,0-1.16-.54,2.59,2.59,0,0,1-.64-.37.58.58,0,0,1,.14-1,1.09,1.09,0,0,1,.39-.08,2.89,2.89,0,0,1,1.47.3c.23.12.31.08.39-.17s.15-.53.23-.8a.28.28,0,0,0-.18-.37,3.65,3.65,0,0,0-.93-.29C49,3.73,49,3.73,49,3.29c0-.61,0-.61-.6-.61h-.26c-.28,0-.33.06-.33.35,0,.13,0,.26,0,.39,0,.39,0,.38-.36.51A2,2,0,0,0,46,5.84,2,2,0,0,0,47.1,7.71a11.66,11.66,0,0,0,1.34.62,2,2,0,0,1,.49.3.7.7,0,0,1-.16,1.21,1.56,1.56,0,0,1-.86.12,3.75,3.75,0,0,1-1.31-.4c-.24-.13-.31-.1-.4.17s-.13.47-.2.7-.05.39.24.54a4.09,4.09,0,0,0,1.18.35c.32.05.33.07.33.41,0,.15,0,.31,0,.46s.09.31.29.31h.66A.26.26,0,0,0,49,12.2c0-.21,0-.42,0-.64a.33.33,0,0,1,.28-.38,2.22,2.22,0,0,0,1.16-.77A2.19,2.19,0,0,0,49.75,7.14Z" style="fill:#fff;fill-rule:evenodd"/></g><rect x="18.1" y="33.5" width="2" height="5" style="fill:url(#Безымянный_градиент_37-3)"/><circle cx="26.68" cy="16.34" r="7.59" style="fill:url(#Безымянный_градиент_37-4)"/><g id="Shape_1-3" data-name="Shape 1"><path d="M28,15.89a11.29,11.29,0,0,0-1.16-.54A2.59,2.59,0,0,1,26.2,15a.58.58,0,0,1,.14-1,1.09,1.09,0,0,1,.39-.08,2.89,2.89,0,0,1,1.47.3c.23.12.31.08.39-.17s.15-.53.23-.8a.28.28,0,0,0-.18-.37,3.65,3.65,0,0,0-.93-.29c-.42-.07-.42-.07-.42-.51,0-.61,0-.61-.6-.61h-.26c-.28,0-.33.06-.33.35,0,.13,0,.26,0,.39,0,.39,0,.38-.36.51a2,2,0,0,0-1.46,1.91,2,2,0,0,0,1.07,1.87,11.66,11.66,0,0,0,1.34.62,2,2,0,0,1,.49.3A.7.7,0,0,1,27,18.59a1.56,1.56,0,0,1-.86.12,3.75,3.75,0,0,1-1.31-.4c-.24-.13-.31-.1-.4.17s-.13.47-.2.7-.05.39.24.54a4.09,4.09,0,0,0,1.18.35c.32.05.33.07.33.41,0,.15,0,.31,0,.46s.09.31.29.31H27a.26.26,0,0,0,.27-.29c0-.21,0-.42,0-.64a.33.33,0,0,1,.28-.38,2.22,2.22,0,0,0,1.16-.77A2.19,2.19,0,0,0,28,15.89Z" style="fill:#fff;fill-rule:evenodd"/></g><path d="M11.56,43.62h3.75s3.33-6.73,5.42-7.57S38,29.41,38,29.41s3-.8,4,2.82S39.14,38,37.14,39.12s-4.42,1.77-3.58,4.09,7,3.16,7,3.16,8.5-1.21,9.5-1.67,3.33-5.41,6.5-6.84,5,0,5,0,2.5,2.19,0,5.36S53,54.37,53,54.37a32.21,32.21,0,0,1-15.25,5.3c-8.5.46-25.83.46-25.83.46Z" style="fill:url(#Безымянный_градиент_51-2)"/><rect y="36" width="14" height="28" style="fill:url(#Безымянный_градиент_51-3)"/><rect x="5" y="39.89" width="4" height="8" style="fill:url(#Безымянный_градиент_3)"/><rect x="62" y="12.5" width="2" height="14" style="fill:url(#Безымянный_градиент_37-5)"/><rect x="27.48" width="2" height="5" style="fill:url(#Безымянный_градиент_37-6)"/></g></g></svg>