<svg xmlns="http://www.w3.org/2000/svg" xmlns:xlink="http://www.w3.org/1999/xlink" viewBox="0 0 64 64"><defs><linearGradient id="Безымянный_градиент_51" x1="32" y1="63.2" x2="32" y2="6.67" gradientUnits="userSpaceOnUse"><stop offset="0" stop-color="#78caf9"/><stop offset="1" stop-color="#6091f8"/></linearGradient><linearGradient id="Безымянный_градиент_96" x1="33.2" y1="22.05" x2="-5.3" y2="56.55" gradientUnits="userSpaceOnUse"><stop offset="0" stop-color="#fff"/><stop offset="0.08" stop-color="#fff" stop-opacity="0.91"/><stop offset="0.72" stop-color="#fff" stop-opacity="0.26"/><stop offset="1" stop-color="#fff" stop-opacity="0"/></linearGradient><linearGradient id="Безымянный_градиент_96-2" x1="31.08" y1="42.93" x2="41.51" y2="42.93" xlink:href="#Безымянный_градиент_96"/><linearGradient id="Безымянный_градиент_51-2" x1="5.88" y1="10.38" x2="4.35" y2="11.97" xlink:href="#Безымянный_градиент_51"/><linearGradient id="Безымянный_градиент_4" x1="9" y1="10.77" x2="12" y2="10.77" gradientUnits="userSpaceOnUse"><stop offset="0" stop-color="#f8d87f"/><stop offset="1" stop-color="#ff9b63"/></linearGradient><linearGradient id="Безымянный_градиент_4-2" x1="14" y1="10.77" x2="17" y2="10.77" xlink:href="#Безымянный_градиент_4"/><linearGradient id="Безымянный_градиент_6" x1="15.79" y1="32.12" x2="2.17" y2="24.12" gradientUnits="userSpaceOnUse"><stop offset="0" stop-color="#f8d87f"/><stop offset="0.13" stop-color="#f9d07b"/><stop offset="1" stop-color="#ff9b63"/></linearGradient><linearGradient id="Безымянный_градиент_4-3" x1="30.74" y1="30.39" x2="20.24" y2="34.77" xlink:href="#Безымянный_градиент_4"/><linearGradient id="Безымянный_градиент_51-3" x1="18.6" y1="35.17" x2="14.23" y2="43.79" xlink:href="#Безымянный_градиент_51"/><linearGradient id="Безымянный_градиент_4-4" x1="33.51" y1="48.76" x2="64" y2="48.76" xlink:href="#Безымянный_градиент_4"/><linearGradient id="Безымянный_градиент_4-5" x1="55.76" y1="3.21" x2="51.64" y2="7.33" xlink:href="#Безымянный_градиент_4"/><linearGradient id="Безымянный_градиент_96-3" x1="41.95" y1="59.36" x2="65.03" y2="59.36" xlink:href="#Безымянный_градиент_96"/></defs><title>icon17</title><g id="Слой_2" data-name="Слой 2"><g id="Слой_1-2" data-name="Слой 1"><rect y="5.27" width="64" height="49.45" style="fill:url(#Безымянный_градиент_51)"/><rect x="4" y="21.67" width="28" height="28" style="fill:url(#Безымянный_градиент_96)"/><rect x="34.63" y="29.93" width="24.58" height="2" style="fill:#fff"/><rect x="34.63" y="21.59" width="14.12" height="4.34" style="fill:#fff"/><rect x="34.63" y="35.93" width="24.58" height="2" style="fill:#fff"/><rect x="34.63" y="41.93" width="14.99" height="2" style="fill:url(#Безымянный_градиент_96-2)"/><rect y="16.27" width="64" height="1" style="fill:#fff"/><circle cx="5.5" cy="10.77" r="1.5" style="fill:url(#Безымянный_градиент_51-2)"/><circle cx="10.5" cy="10.77" r="1.5" style="fill:url(#Безымянный_градиент_4)"/><circle cx="15.5" cy="10.77" r="1.5" style="fill:url(#Безымянный_градиент_4-2)"/><path d="M18.89,25.93,18,35.53l-9.62.26c0-.09,0-.17,0-.26A9.63,9.63,0,0,1,18,25.9C18.3,25.9,18.6,25.91,18.89,25.93Z" style="fill:url(#Безымянный_градиент_6)"/><path d="M27.63,35.53a9.57,9.57,0,0,1-2.69,6.68L18,35.53l.89-9.59A9.63,9.63,0,0,1,27.63,35.53Z" style="fill:url(#Безымянный_градиент_4-3)"/><path d="M24.94,42.2A9.62,9.62,0,0,1,8.39,35.79L18,35.53Z" style="fill:url(#Безымянный_градиент_51-3)"/><circle cx="48.76" cy="48.76" r="15.24" style="fill:url(#Безымянный_градиент_4-4)"/><path d="M40.1,45c-.52,0-.84.28-.84,1v1.11H37.71v-1c0-1.66.83-2.61,2.43-2.61s2.43.95,2.43,2.61c0,3.26-3.24,4.47-3.24,6.18a1.13,1.13,0,0,0,0,.22h3.08V54H37.71V52.73c0-3.05,3.23-3.56,3.23-6.55C40.94,45.24,40.62,45,40.1,45Z" style="fill:#fff"/><path d="M43.19,50.64l3-7h1.78v7h.77v1.48h-.77V54h-1.6V52.12H43.19Zm3.14,0v-3.9l-1.64,3.9Z" style="fill:#fff"/><path d="M53,43.63h1.41L50.34,54H48.93Z" style="fill:#fff"/><path d="M59.88,43.63v1.42L57.47,54H55.84l2.39-8.89H55V43.63Z" style="fill:#fff"/><polygon points="16.53 58.15 14.72 56.34 16.53 54.54 15.32 53.33 13.52 55.14 11.71 53.33 10.5 54.54 12.31 56.34 10.5 58.15 11.71 59.36 13.52 57.55 15.32 59.36 16.53 58.15" style="fill:#fac476"/><polygon points="58.97 4.81 56.35 3.49 57.67 0.88 55.93 0 54.61 2.61 52 1.3 51.12 3.04 53.73 4.36 52.41 6.97 54.16 7.85 55.48 5.24 58.09 6.55 58.97 4.81" style="fill:url(#Безымянный_градиент_4-5)"/><rect x="44.38" y="57.74" width="3.25" height="3.25" style="fill:url(#Безымянный_градиент_96-3)"/><rect x="49.78" y="57.74" width="3.25" height="3.25" style="fill:url(#Безымянный_градиент_96-3)"/><rect x="55.19" y="57.74" width="3.25" height="3.25" style="fill:url(#Безымянный_градиент_96-3)"/></g></g></svg>