<svg xmlns="http://www.w3.org/2000/svg" xmlns:xlink="http://www.w3.org/1999/xlink" viewBox="0 0 63.94 64"><defs><linearGradient id="Безымянный_градиент_51" x1="17.76" y1="48.44" x2="17.76" y2="28.2" gradientTransform="translate(-6.27 9.81) rotate(-15.59)" gradientUnits="userSpaceOnUse"><stop offset="0" stop-color="#78caf9"/><stop offset="1" stop-color="#6091f8"/></linearGradient><linearGradient id="Безымянный_градиент_51-2" x1="34.3" y1="38.21" x2="45.05" y2="17.21" xlink:href="#Безымянный_градиент_51"/><linearGradient id="Безымянный_градиент_51-3" x1="71.78" y1="4.25" x2="44.91" y2="32.12" xlink:href="#Безымянный_градиент_51"/><linearGradient id="Безымянный_градиент_37" x1="12.92" y1="64.79" x2="12.92" y2="54.27" gradientUnits="userSpaceOnUse"><stop offset="0" stop-color="#f8d87f"/><stop offset="1" stop-color="#ff9b63"/></linearGradient><linearGradient id="Безымянный_градиент_37-2" x1="10.91" y1="53" x2="27.59" y2="41.72" gradientTransform="matrix(0.87, 0.5, -1, 0.58, 50.19, 15.38)" xlink:href="#Безымянный_градиент_37"/><linearGradient id="Безымянный_градиент_37-3" x1="12.92" y1="57.14" x2="12.92" y2="46.62" xlink:href="#Безымянный_градиент_37"/><linearGradient id="Безымянный_градиент_37-4" x1="3.26" y1="46.37" x2="19.94" y2="35.1" gradientTransform="matrix(0.87, 0.5, -1, 0.58, 50.19, 15.38)" xlink:href="#Безымянный_градиент_37"/><linearGradient id="Безымянный_градиент_37-5" x1="12.92" y1="49.48" x2="12.92" y2="38.96" xlink:href="#Безымянный_градиент_37"/><linearGradient id="Безымянный_градиент_37-6" x1="-4.4" y1="39.74" x2="12.27" y2="28.46" gradientTransform="matrix(0.87, 0.5, -1, 0.58, 50.19, 15.38)" xlink:href="#Безымянный_градиент_37"/><linearGradient id="Безымянный_градиент_37-7" x1="12.92" y1="41.79" x2="12.92" y2="31.27" xlink:href="#Безымянный_градиент_37"/><linearGradient id="Безымянный_градиент_37-8" x1="-12.09" y1="33.08" x2="4.59" y2="21.81" gradientTransform="matrix(0.87, 0.5, -1, 0.58, 50.19, 15.38)" xlink:href="#Безымянный_градиент_37"/><linearGradient id="Безымянный_градиент_37-9" x1="39.75" y1="64.79" x2="39.75" y2="54.27" xlink:href="#Безымянный_градиент_37"/><linearGradient id="Безымянный_градиент_37-10" x1="26.4" y1="39.58" x2="43.08" y2="28.31" gradientTransform="matrix(0.87, 0.5, -1, 0.58, 50.19, 15.38)" xlink:href="#Безымянный_градиент_37"/><linearGradient id="Безымянный_градиент_37-11" x1="39.75" y1="57.1" x2="39.75" y2="46.58" xlink:href="#Безымянный_градиент_37"/><linearGradient id="Безымянный_градиент_37-12" x1="18.71" y1="32.92" x2="35.39" y2="21.65" gradientTransform="matrix(0.87, 0.5, -1, 0.58, 50.19, 15.38)" xlink:href="#Безымянный_градиент_37"/></defs><title>icon2</title><g id="Слой_2" data-name="Слой 2"><g id="Слой_1-2" data-name="Слой 1"><polygon points="33.43 33.58 31.47 37.06 22.68 32.11 10.41 53.87 9.73 53.49 8.51 49.11 21.16 26.66 33.43 33.58" style="fill:url(#Безымянный_градиент_51)"/><polygon points="48.91 25.96 36.92 19.21 34.95 22.69 34.96 22.7 27.97 35.09 31.46 37.06 38.45 24.66 46.94 29.45 48.91 25.96" style="fill:url(#Безымянный_градиент_51-2)"/><polygon points="61.25 0 61.25 0 57.4 1.07 57.4 1.08 51.62 2.69 52.7 6.54 55.75 5.69 43.46 27.49 46.94 29.46 59.23 7.66 60.09 10.71 63.94 9.63 62.33 3.85 62.33 3.85 61.25 0 61.25 0" style="fill:url(#Безымянный_градиент_51-3)"/><polygon points="12.04 9.56 10.98 8.5 12.04 7.44 11.34 6.73 10.28 7.79 9.21 6.73 8.51 7.44 9.57 8.5 8.51 9.56 9.21 10.27 10.28 9.21 11.34 10.27 12.04 9.56" style="fill:#fac476"/><polygon points="63.87 59 62.81 57.94 63.87 56.88 63.16 56.17 62.1 57.23 61.04 56.17 60.34 56.88 61.4 57.94 60.34 59 61.04 59.71 62.1 58.65 63.16 59.71 63.87 59" style="fill:#fac476"/><path d="M25.83,51.88v4.67c0,1.91-1.26,3.81-3.78,5.27-5.05,2.91-13.22,2.91-18.27,0C1.26,60.36,0,58.46,0,56.54V51.88Z" style="fill:url(#Безымянный_градиент_37)"/><path d="M22,57.15c-5,2.91-13.22,2.91-18.26,0s-5-7.63,0-10.55S17,43.69,22,46.6,27.09,54.24,22,57.15Z" style="fill:url(#Безымянный_градиент_37-2)"/><path d="M43.75,13.18a1.5,1.5,0,0,0-1.5-1.5v-1a2.5,2.5,0,0,1,2.5,2.5Z" style="fill:#6091f8"/><path d="M25.83,44.23V48.9c0,1.91-1.26,3.81-3.78,5.27-5.05,2.91-13.22,2.91-18.27,0C1.26,52.71,0,50.81,0,48.89V44.23Z" style="fill:url(#Безымянный_градиент_37-3)"/><path d="M22,49.5c-5,2.91-13.22,2.91-18.26,0s-5-7.63,0-10.55S17,36,22,39,27.09,46.59,22,49.5Z" style="fill:url(#Безымянный_градиент_37-4)"/><path d="M25.83,36.57v4.67c0,1.91-1.26,3.81-3.78,5.27-5.05,2.91-13.22,2.91-18.27,0C1.26,45,0,43.15,0,41.23V36.57Z" style="fill:url(#Безымянный_градиент_37-5)"/><path d="M22,41.84c-5,2.91-13.22,2.91-18.26,0s-5-7.63,0-10.55S17,28.38,22,31.29,27.09,38.92,22,41.84Z" style="fill:url(#Безымянный_градиент_37-6)"/><path d="M25.83,28.88v4.67c0,1.91-1.26,3.81-3.78,5.27-5.05,2.91-13.22,2.91-18.27,0C1.26,37.36,0,35.46,0,33.54V28.88Z" style="fill:url(#Безымянный_градиент_37-7)"/><path d="M22,34.15c-5,2.91-13.22,2.91-18.26,0s-5-7.63,0-10.55S17,20.69,22,23.6,27.09,31.24,22,34.15Z" style="fill:url(#Безымянный_градиент_37-8)"/><g id="Shape_1" data-name="Shape 1"><path d="M19.64,27.83a3.59,3.59,0,0,0-.78-.85c-.43-.34-.43-.34.1-.65.74-.43.74-.43,0-.85l-.31-.18a.66.66,0,0,0-.83,0l-.48.27c-.47.27-.47.26-1.06.11a5.6,5.6,0,0,0-4.08.32c-1.11.57-1.28,1.28-1,2.06a9.17,9.17,0,0,0,.87,1.37,1.33,1.33,0,0,1,.23.55c.08.56-.76.93-1.66.74a3,3,0,0,1-1.18-.52A3.7,3.7,0,0,1,8.41,29c-.14-.26-.26-.29-.69-.15l-1.09.36c-.49.16-.54.24-.36.55a4.11,4.11,0,0,0,1,1.07c.32.26.32.28-.09.52l-.56.33c-.23.14-.26.28,0,.42l.81.46a.67.67,0,0,0,.69,0c.26-.15.53-.29.77-.44a.87.87,0,0,1,.8-.07,6.22,6.22,0,0,0,2.34.27c2.3-.15,3.79-1.46,3.16-2.77a8.84,8.84,0,0,0-.75-1.2,1.8,1.8,0,0,1-.33-.71c-.08-.48.62-.79,1.41-.62a2.32,2.32,0,0,1,.58.22,3.36,3.36,0,0,1,1.42,1.24c.14.24.28.27.68.15l1.24-.4C19.68,28.12,19.74,28,19.64,27.83Z" style="fill:#fff;fill-rule:evenodd"/></g><path d="M52.66,51.88v4.67c0,1.91-1.26,3.81-3.78,5.27-5.05,2.91-13.22,2.91-18.27,0-2.52-1.46-3.78-3.36-3.78-5.28V51.88Z" style="fill:url(#Безымянный_градиент_37-9)"/><path d="M48.88,57.15c-5,2.91-13.22,2.91-18.26,0s-5-7.63,0-10.55,13.22-2.91,18.26,0S53.92,54.24,48.88,57.15Z" style="fill:url(#Безымянный_градиент_37-10)"/><path d="M52.66,44.19v4.67c0,1.91-1.26,3.81-3.78,5.27C43.83,57,35.66,57,30.61,54.13c-2.52-1.46-3.78-3.36-3.78-5.28V44.19Z" style="fill:url(#Безымянный_градиент_37-11)"/><path d="M48.88,49.46c-5,2.91-13.22,2.91-18.26,0s-5-7.63,0-10.55,13.22-2.91,18.26,0S53.92,46.55,48.88,49.46Z" style="fill:url(#Безымянный_градиент_37-12)"/><g id="Shape_1-2" data-name="Shape 1"><path d="M46.47,43.14a3.59,3.59,0,0,0-.78-.85c-.43-.34-.43-.34.1-.65.74-.43.74-.43,0-.85l-.31-.18a.66.66,0,0,0-.83,0l-.48.27c-.47.27-.47.26-1.06.11a5.6,5.6,0,0,0-4.08.32c-1.11.57-1.28,1.28-1,2.06a9.17,9.17,0,0,0,.87,1.37,1.33,1.33,0,0,1,.23.55c.08.56-.76.93-1.66.74a3,3,0,0,1-1.18-.52,3.7,3.7,0,0,1-1.1-1.2c-.14-.26-.26-.29-.69-.15l-1.09.36c-.49.16-.54.24-.36.55a4.11,4.11,0,0,0,1,1.07c.32.26.32.28-.09.52l-.56.33c-.23.14-.26.28,0,.42l.81.46a.67.67,0,0,0,.69,0c.26-.15.53-.29.77-.44a.87.87,0,0,1,.8-.07,6.22,6.22,0,0,0,2.34.27c2.3-.15,3.79-1.46,3.16-2.77a8.84,8.84,0,0,0-.75-1.2,1.8,1.8,0,0,1-.33-.71c-.08-.48.62-.79,1.41-.62a2.32,2.32,0,0,1,.58.22,3.36,3.36,0,0,1,1.42,1.24c.14.24.28.27.68.15l1.24-.4C46.51,43.43,46.58,43.31,46.47,43.14Z" style="fill:#fff;fill-rule:evenodd"/></g></g></g></svg>