<svg xmlns="http://www.w3.org/2000/svg" xmlns:xlink="http://www.w3.org/1999/xlink" viewBox="0 0 64 64"><defs><linearGradient id="Безымянный_градиент_51" x1="32" y1="63.2" x2="32" y2="6.67" gradientUnits="userSpaceOnUse"><stop offset="0" stop-color="#78caf9"/><stop offset="1" stop-color="#6091f8"/></linearGradient><linearGradient id="Безымянный_градиент_51-2" x1="5.88" y1="10.38" x2="4.35" y2="11.97" xlink:href="#Безымянный_градиент_51"/><linearGradient id="Безымянный_градиент_4" x1="9" y1="10.78" x2="12" y2="10.78" gradientUnits="userSpaceOnUse"><stop offset="0" stop-color="#f8d87f"/><stop offset="1" stop-color="#ff9b63"/></linearGradient><linearGradient id="Безымянный_градиент_4-2" x1="14" y1="10.78" x2="17" y2="10.78" xlink:href="#Безымянный_градиент_4"/><linearGradient id="Безымянный_градиент_96" x1="18.82" y1="14.3" x2="48.32" y2="38.42" gradientUnits="userSpaceOnUse"><stop offset="0" stop-color="#fff"/><stop offset="0.08" stop-color="#fff" stop-opacity="0.91"/><stop offset="0.72" stop-color="#fff" stop-opacity="0.26"/><stop offset="1" stop-color="#fff" stop-opacity="0"/></linearGradient><linearGradient id="Безымянный_градиент_96-2" x1="68.47" y1="19.61" x2="45.97" y2="35.49" xlink:href="#Безымянный_градиент_96"/><linearGradient id="Безымянный_градиент_96-3" x1="36.74" y1="48.01" x2="47.49" y2="29.76" xlink:href="#Безымянный_градиент_96"/><linearGradient id="Безымянный_градиент_4-3" x1="50" y1="31.24" x2="50" y2="45.1" xlink:href="#Безымянный_градиент_4"/><linearGradient id="Безымянный_градиент_4-4" x1="54.19" y1="46.44" x2="44.36" y2="66.54" xlink:href="#Безымянный_градиент_4"/><linearGradient id="Безымянный_градиент_4-5" x1="53.14" y1="3.04" x2="59.22" y2="3.04" xlink:href="#Безымянный_градиент_4"/><linearGradient id="Безымянный_градиент_51-3" x1="13" y1="29.52" x2="13" y2="25.83" xlink:href="#Безымянный_градиент_51"/><linearGradient id="Безымянный_градиент_51-4" x1="13" y1="34.52" x2="13" y2="30.83" xlink:href="#Безымянный_градиент_51"/><linearGradient id="Безымянный_градиент_51-5" x1="13" y1="39.52" x2="13" y2="35.83" xlink:href="#Безымянный_градиент_51"/><linearGradient id="Безымянный_градиент_51-6" x1="13" y1="44.52" x2="13" y2="40.83" xlink:href="#Безымянный_градиент_51"/></defs><title>icon16</title><g id="Слой_2" data-name="Слой 2"><g id="Слой_1-2" data-name="Слой 1"><rect y="5.28" width="64" height="49.45" style="fill:url(#Безымянный_градиент_51)"/><rect x="4" y="20.67" width="18" height="30" style="fill:#fff"/><rect y="16.28" width="64" height="1" style="fill:#fff"/><circle cx="5.5" cy="10.78" r="1.5" style="fill:url(#Безымянный_градиент_51-2)"/><circle cx="10.5" cy="10.78" r="1.5" style="fill:url(#Безымянный_градиент_4)"/><circle cx="15.5" cy="10.78" r="1.5" style="fill:url(#Безымянный_градиент_4-2)"/><path d="M44.28,21.48,43,35.67,28.74,36c0-.13,0-.25,0-.38A14.25,14.25,0,0,1,43,21.42C43.41,21.42,43.86,21.44,44.28,21.48Z" style="fill:url(#Безымянный_градиент_96)"/><path d="M57.22,35.67a14.17,14.17,0,0,1-4,9.89L43,35.67l1.32-14.19A14.25,14.25,0,0,1,57.22,35.67Z" style="fill:url(#Безымянный_градиент_96-2)"/><path d="M65.44,37.37" style="fill:#3936ce"/><path d="M53.23,45.56a14.24,14.24,0,0,1-24.49-9.5L43,35.67Z" style="fill:url(#Безымянный_градиент_96-3)"/><path d="M60,56.54H40v-12a10,10,0,0,1,20,0Zm-17-2H57v-10c0-4.42-2.6-7-7-7s-7,2.6-7,7Z" style="fill:url(#Безымянный_градиент_4-3)"/><rect x="36" y="46" width="28" height="18" rx="1.85" ry="1.85" style="fill:url(#Безымянный_градиент_4-4)"/><path d="M53,53.64a3,3,0,1,0-4,2.82v1.9a1,1,0,0,0,2,0v-1.9A3,3,0,0,0,53,53.64Z" style="fill:#fff"/><path d="M56.18,6.08a3,3,0,1,1,3-3H58a1.82,1.82,0,1,0-1.82,1.82Z" style="fill:url(#Безымянный_градиент_4-5)"/><rect x="7" y="26.31" width="12" height="2" style="fill:url(#Безымянный_градиент_51-3)"/><rect x="7" y="31.31" width="12" height="2" style="fill:url(#Безымянный_градиент_51-4)"/><rect x="7" y="36.31" width="12" height="2" style="fill:url(#Безымянный_градиент_51-5)"/><rect x="7" y="41.31" width="12" height="2" style="fill:url(#Безымянный_градиент_51-6)"/></g></g></svg>