<svg xmlns="http://www.w3.org/2000/svg" xmlns:xlink="http://www.w3.org/1999/xlink" viewBox="0 0 64 61.48"><defs><linearGradient id="Безымянный_градиент_96" x1="-6.76" y1="47.27" x2="64.24" y2="8.39" gradientUnits="userSpaceOnUse"><stop offset="0" stop-color="#fff"/><stop offset="0.08" stop-color="#fff" stop-opacity="0.91"/><stop offset="0.72" stop-color="#fff" stop-opacity="0.26"/><stop offset="1" stop-color="#fff" stop-opacity="0"/></linearGradient><linearGradient id="Безымянный_градиент_96-2" x1="-1.77" y1="40.03" x2="51.57" y2="17.94" xlink:href="#Безымянный_градиент_96"/><linearGradient id="Безымянный_градиент_96-3" x1="-0.42" y1="2.48" x2="4.24" y2="1.69" xlink:href="#Безымянный_градиент_96"/><linearGradient id="Безымянный_градиент_96-4" x1="60.48" y1="-3.38" x2="51.32" y2="8.45" xlink:href="#Безымянный_градиент_96"/><linearGradient id="Безымянный_градиент_96-5" x1="55.59" y1="55.66" x2="57.92" y2="55.26" xlink:href="#Безымянный_градиент_96"/><linearGradient id="Безымянный_градиент_96-6" x1="64.25" y1="9.74" x2="30.88" y2="26.61" xlink:href="#Безымянный_градиент_96"/><linearGradient id="Безымянный_градиент_51" x1="18.2" y1="40.92" x2="43.45" y2="13.59" gradientUnits="userSpaceOnUse"><stop offset="0" stop-color="#78caf9"/><stop offset="1" stop-color="#6091f8"/></linearGradient><linearGradient id="Безымянный_градиент_37" x1="15.31" y1="62.27" x2="15.31" y2="51.75" gradientUnits="userSpaceOnUse"><stop offset="0" stop-color="#f8d87f"/><stop offset="1" stop-color="#ff9b63"/></linearGradient><linearGradient id="Безымянный_градиент_37-2" x1="173.32" y1="95.78" x2="190" y2="84.51" gradientTransform="matrix(0.87, 0.5, -1, 0.58, -45.29, -93.05)" xlink:href="#Безымянный_градиент_37"/><linearGradient id="Безымянный_градиент_37-3" x1="15.31" y1="54.6" x2="15.31" y2="44.08" xlink:href="#Безымянный_градиент_37"/><linearGradient id="Безымянный_градиент_37-4" x1="165.66" y1="89.14" x2="182.33" y2="77.87" gradientTransform="matrix(0.87, 0.5, -1, 0.58, -45.29, -93.05)" xlink:href="#Безымянный_градиент_37"/><linearGradient id="Безымянный_градиент_37-5" x1="15.31" y1="46.93" x2="15.31" y2="36.41" xlink:href="#Безымянный_градиент_37"/><linearGradient id="Безымянный_градиент_37-6" x1="157.99" y1="82.5" x2="174.66" y2="71.23" gradientTransform="matrix(0.87, 0.5, -1, 0.58, -45.29, -93.05)" xlink:href="#Безымянный_градиент_37"/></defs><title>icon15</title><g id="Слой_2" data-name="Слой 2"><g id="Слой_1-2" data-name="Слой 1"><rect y="8.15" width="64" height="35.78" style="fill:url(#Безымянный_градиент_96)"/><path d="M57.17,40.94H6.83A3.84,3.84,0,0,0,3,37.11V15a3.83,3.83,0,0,0,3.83-3.83H57.17A3.83,3.83,0,0,0,61,15V37.11A3.84,3.84,0,0,0,57.17,40.94Z" style="fill:url(#Безымянный_градиент_96-2)"/><circle cx="2.4" cy="2" r="2" style="fill:url(#Безымянный_градиент_96-3)"/><circle cx="53.96" cy="5.04" r="4.04" style="fill:url(#Безымянный_градиент_96-4)"/><circle cx="57" cy="55.42" r="1" style="fill:url(#Безымянный_градиент_96-5)"/><path d="M57.17,40.94H6.83A3.84,3.84,0,0,0,3,37.11V15a3.83,3.83,0,0,0,3.83-3.83H57.17A3.83,3.83,0,0,0,61,15V37.11A3.84,3.84,0,0,0,57.17,40.94Z" style="fill:url(#Безымянный_градиент_96-6)"/><g id="Shape_1" data-name="Shape 1"><path d="M35.57,24.83a30.5,30.5,0,0,0-3.14-1.47,7,7,0,0,1-1.72-1,1.57,1.57,0,0,1,.37-2.75,3,3,0,0,1,1.06-.22,7.8,7.8,0,0,1,4,.81c.63.31.83.21,1-.46s.41-1.43.62-2.15a.76.76,0,0,0-.47-1,9.86,9.86,0,0,0-2.5-.77c-1.14-.18-1.14-.19-1.14-1.36,0-1.66,0-1.66-1.62-1.66h-.7c-.75,0-.88.16-.9.94,0,.35,0,.7,0,1.06,0,1,0,1-1,1.38a5.52,5.52,0,0,0-3.93,5.15,5.3,5.3,0,0,0,2.89,5A31.48,31.48,0,0,0,32,28a5.33,5.33,0,0,1,1.32.8,1.89,1.89,0,0,1-.43,3.26,4.21,4.21,0,0,1-2.32.31,10.11,10.11,0,0,1-3.53-1.09c-.65-.35-.84-.26-1.07.47s-.36,1.26-.53,1.9c-.23.85-.14,1.06.65,1.46a11,11,0,0,0,3.18.94c.86.14.89.18.9,1.1,0,.42,0,.84,0,1.25s.25.83.77.84,1.19,0,1.79,0a.69.69,0,0,0,.74-.79c0-.57,0-1.14,0-1.71a.9.9,0,0,1,.76-1,6,6,0,0,0,3.13-2.07A5.92,5.92,0,0,0,35.57,24.83Z" style="fill-rule:evenodd;fill:url(#Безымянный_градиент_51)"/></g><path d="M28.23,49.36V54c0,1.91-1.26,3.81-3.78,5.27-5.05,2.91-13.22,2.91-18.27,0C3.66,57.84,2.4,55.94,2.4,54V49.36Z" style="fill:url(#Безымянный_градиент_37)"/><path d="M24.45,54.63c-5,2.91-13.22,2.91-18.26,0s-5-7.63,0-10.55,13.22-2.91,18.26,0S29.49,51.72,24.45,54.63Z" style="fill:url(#Безымянный_градиент_37-2)"/><g id="Shape_1-2" data-name="Shape 1"><path d="M22,48.31a3.61,3.61,0,0,0-.78-.85c-.43-.34-.43-.34.1-.65.74-.43.74-.43,0-.85l-.31-.18a.66.66,0,0,0-.83,0l-.48.27c-.47.27-.46.26-1.06.11a5.6,5.6,0,0,0-4.08.32c-1.11.57-1.29,1.28-1,2.06a9.19,9.19,0,0,0,.87,1.37,1.33,1.33,0,0,1,.23.55c.08.56-.76.93-1.66.74a3,3,0,0,1-1.18-.52,3.7,3.7,0,0,1-1.1-1.2c-.14-.26-.26-.29-.69-.15L9,49.67c-.49.16-.54.24-.36.55a4.11,4.11,0,0,0,1,1.07c.32.26.32.28-.09.52L9,52.14c-.23.14-.26.28,0,.42l.81.46a.67.67,0,0,0,.69,0c.26-.15.53-.29.77-.44a.87.87,0,0,1,.8-.07,6.22,6.22,0,0,0,2.34.27c2.3-.15,3.79-1.46,3.16-2.77a8.89,8.89,0,0,0-.75-1.2,1.8,1.8,0,0,1-.33-.71c-.08-.48.62-.79,1.41-.62a2.32,2.32,0,0,1,.58.22,3.37,3.37,0,0,1,1.42,1.24c.14.24.28.27.68.15l1.24-.4C22.08,48.6,22.14,48.47,22,48.31Z" style="fill:#fff;fill-rule:evenodd"/></g><path d="M28.23,41.69v4.67c0,1.91-1.26,3.81-3.78,5.27-5.05,2.91-13.22,2.91-18.27,0C3.66,50.17,2.4,48.27,2.4,46.35V41.69Z" style="fill:url(#Безымянный_градиент_37-3)"/><path d="M24.45,47c-5,2.91-13.22,2.91-18.26,0s-5-7.63,0-10.55,13.22-2.91,18.26,0S29.49,44,24.45,47Z" style="fill:url(#Безымянный_градиент_37-4)"/><g id="Shape_1-3" data-name="Shape 1"><path d="M22,39.64a3.61,3.61,0,0,0-.78-.85c-.43-.34-.43-.34.1-.65.74-.43.74-.43,0-.85l-.31-.18a.66.66,0,0,0-.83,0l-.48.27c-.47.27-.47.26-1.06.11a5.6,5.6,0,0,0-4.08.32c-1.11.57-1.28,1.28-1,2.06a9.18,9.18,0,0,0,.87,1.37,1.34,1.34,0,0,1,.23.55c.08.56-.76.93-1.66.74A3,3,0,0,1,11.9,42a3.7,3.7,0,0,1-1.1-1.2c-.14-.26-.26-.29-.69-.15L9,41c-.49.16-.54.24-.36.55a4.11,4.11,0,0,0,1,1.07c.32.26.32.28-.09.52L9,43.47c-.23.14-.26.28,0,.42l.81.46a.67.67,0,0,0,.69,0c.26-.15.53-.29.77-.44a.87.87,0,0,1,.8-.07,6.22,6.22,0,0,0,2.34.27c2.3-.15,3.79-1.46,3.16-2.77a8.86,8.86,0,0,0-.75-1.2,1.8,1.8,0,0,1-.33-.71c-.08-.48.62-.79,1.41-.62a2.32,2.32,0,0,1,.58.22,3.36,3.36,0,0,1,1.42,1.24c.14.24.28.27.68.15L21.8,40C22.08,39.93,22.14,39.8,22,39.64Z" style="fill:#fff;fill-rule:evenodd"/></g><path d="M28.23,34v4.67c0,1.91-1.26,3.81-3.78,5.27-5.05,2.91-13.22,2.91-18.27,0C3.66,42.5,2.4,40.6,2.4,38.68V34Z" style="fill:url(#Безымянный_градиент_37-5)"/><path d="M24.45,39.29c-5,2.91-13.22,2.91-18.26,0s-5-7.63,0-10.55,13.22-2.91,18.26,0S29.49,36.38,24.45,39.29Z" style="fill:url(#Безымянный_градиент_37-6)"/><g id="Shape_1-4" data-name="Shape 1"><path d="M22,33a3.6,3.6,0,0,0-.78-.85c-.43-.34-.43-.34.1-.65.74-.43.74-.43,0-.85l-.31-.18a.66.66,0,0,0-.83,0l-.48.27c-.47.27-.47.26-1.06.11a5.6,5.6,0,0,0-4.08.32c-1.11.57-1.28,1.28-1,2.06a9.19,9.19,0,0,0,.87,1.37,1.34,1.34,0,0,1,.23.55c.08.56-.76.93-1.66.74a3,3,0,0,1-1.18-.52,3.7,3.7,0,0,1-1.1-1.2c-.14-.26-.26-.29-.69-.15L9,34.34c-.49.16-.54.24-.36.55a4.1,4.1,0,0,0,1,1.07c.32.26.32.28-.09.52L9,36.8c-.23.14-.26.28,0,.42l.81.46a.67.67,0,0,0,.69,0c.26-.15.53-.29.77-.44a.87.87,0,0,1,.8-.07,6.22,6.22,0,0,0,2.34.27c2.3-.15,3.79-1.46,3.16-2.77a8.84,8.84,0,0,0-.75-1.2,1.8,1.8,0,0,1-.33-.71c-.08-.48.62-.79,1.41-.62a2.31,2.31,0,0,1,.58.22,3.37,3.37,0,0,1,1.42,1.24c.14.24.28.27.68.15l1.24-.4C22.08,33.26,22.14,33.14,22,33Z" style="fill:#fff;fill-rule:evenodd"/></g></g></g></svg>