<svg xmlns="http://www.w3.org/2000/svg" xmlns:xlink="http://www.w3.org/1999/xlink" viewBox="0 0 64 64"><defs><linearGradient id="Безымянный_градиент_4" x1="54.97" y1="61.66" x2="12.04" y2="26.68" gradientUnits="userSpaceOnUse"><stop offset="0" stop-color="#f8d87f"/><stop offset="1" stop-color="#ff9b63"/></linearGradient><linearGradient id="Безымянный_градиент_51" x1="57.41" y1="29.7" x2="95.92" y2="3.43" gradientTransform="translate(-34.21 26.75) rotate(-45)" gradientUnits="userSpaceOnUse"><stop offset="0" stop-color="#78caf9"/><stop offset="1" stop-color="#6091f8"/></linearGradient><linearGradient id="Безымянный_градиент_51-2" x1="13.08" y1="50.17" x2="51.59" y2="23.91" gradientTransform="matrix(1, 0, 0, 1, 0, 0)" xlink:href="#Безымянный_градиент_51"/><linearGradient id="Безымянный_градиент_51-3" x1="51.15" y1="27.71" x2="58.47" y2="20.64" gradientTransform="translate(-2.6 45.16) rotate(-45)" xlink:href="#Безымянный_градиент_51"/><linearGradient id="Безымянный_градиент_96" x1="62.04" y1="34.39" x2="52.27" y2="24.88" gradientTransform="translate(-3.85 48.18) rotate(-45)" gradientUnits="userSpaceOnUse"><stop offset="0" stop-color="#fff"/><stop offset="0.08" stop-color="#fff" stop-opacity="0.91"/><stop offset="0.72" stop-color="#fff" stop-opacity="0.26"/><stop offset="1" stop-color="#fff" stop-opacity="0"/></linearGradient><linearGradient id="Безымянный_градиент_4-2" x1="98.08" y1="-65.19" x2="105.41" y2="-72.26" gradientTransform="translate(-12.53 144.04) rotate(-45)" xlink:href="#Безымянный_градиент_4"/><linearGradient id="Безымянный_градиент_96-2" x1="100.41" y1="111.25" x2="90.64" y2="101.73" gradientTransform="translate(-133.79 20.97) rotate(-45)" xlink:href="#Безымянный_градиент_96"/><linearGradient id="Безымянный_градиент_35" x1="31.97" y1="64.11" x2="31.97" y2="-12.59" gradientUnits="userSpaceOnUse"><stop offset="0" stop-color="#6091f8"/><stop offset="0.2" stop-color="#6091f8" stop-opacity="0.78"/><stop offset="0.59" stop-color="#6091f8" stop-opacity="0.37"/><stop offset="0.87" stop-color="#6091f8" stop-opacity="0.1"/><stop offset="1" stop-color="#6091f8" stop-opacity="0"/></linearGradient></defs><title>icon12</title><g id="Слой_2" data-name="Слой 2"><g id="Слой_1-2" data-name="Слой 1"><rect x="34.46" y="14.17" width="5.2" height="1.95" transform="translate(0.14 30.64) rotate(-45)" style="fill:#6091f8"/><rect x="26.07" y="12.5" width="1.95" height="5.5" transform="translate(-2.87 23.59) rotate(-45)" style="fill:#6091f8"/><rect x="31.02" y="11.22" width="1.95" height="5.74" style="fill:#6091f8"/><path d="M19.9,48.16l9.24,9.24A3.1,3.1,0,0,0,33.51,53L35,54.5a3.09,3.09,0,0,0,4.52-4.21l1.24,1.24a3.1,3.1,0,1,0,4.38-4.38,3.1,3.1,0,0,0,4.38-4.38L37,30.31a3.43,3.43,0,0,0-4.26-.79,9.51,9.51,0,0,1-5.81.59l-8.25-7.66L6.92,34.15Z" style="fill:url(#Безымянный_градиент_4)"/><path d="M16.84,39.07l-.59-.59a2.79,2.79,0,0,0-3.94,0L11.09,39.7h0a3.51,3.51,0,0,0,0,4.92L22.46,56a3.51,3.51,0,0,0,4.92,0h0l0,0h0l1.19-1.19h0a2.79,2.79,0,0,0,0-3.94L28,50.25a2.14,2.14,0,0,0-1.74-.61A.62.62,0,0,1,25.6,49,2.14,2.14,0,0,0,25,47.22l-1-1a2.14,2.14,0,0,0-1.74-.61.62.62,0,0,1-.68-.68,2.14,2.14,0,0,0-.61-1.74l-1-1a2.14,2.14,0,0,0-1.74-.61.62.62,0,0,1-.68-.68A2.14,2.14,0,0,0,16.84,39.07Z" style="fill:url(#Безымянный_градиент_51)"/><path d="M45.22,22.72s-1.43,2.44-3.28,2.1a32.72,32.72,0,0,1-6-2.53s-2.19-1.94-6.31,0-8.84,4-8.59,5.72,1.85,3.87,6.57,3,7.83-2.1,9.68-.25S49.68,43,49.68,43s5.72-5.43,8.17-9.22S46.57,22.13,46.57,22.13Z" style="fill:url(#Безымянный_градиент_51-2)"/><rect x="42.39" y="21.29" width="21.64" height="8.87" transform="translate(33.77 -30.1) rotate(45)" style="fill:url(#Безымянный_градиент_51-3)"/><rect x="51.59" y="27.68" width="9.29" height="2.11" transform="translate(36.79 -31.35) rotate(45)" style="fill:url(#Безымянный_градиент_96)"/><rect x="-0.03" y="21.29" width="21.64" height="8.87" transform="translate(-15.03 15.16) rotate(-45)" style="fill:url(#Безымянный_градиент_4-2)"/><rect x="3.12" y="27.68" width="9.29" height="2.11" transform="translate(33.58 43.57) rotate(135)" style="fill:url(#Безымянный_градиент_96-2)"/><path d="M32,2A30,30,0,0,1,60.32,22.11L63.23,25A32,32,0,0,0,.71,25.3l2.86-2.87A30,30,0,0,1,32,2Zm0,60A30,30,0,0,1,3.85,42.38L2.3,43.93a32,32,0,0,0,59.47-.15l-1.56-1.56A30.07,30.07,0,0,1,32,62Z" style="fill:url(#Безымянный_градиент_35)"/></g></g></svg>