<svg xmlns="http://www.w3.org/2000/svg" xmlns:xlink="http://www.w3.org/1999/xlink" viewBox="0 0 64 64"><defs><linearGradient id="Безымянный_градиент_96" x1="22.07" y1="45.9" x2="53.74" y2="53.56" gradientUnits="userSpaceOnUse"><stop offset="0" stop-color="#fff"/><stop offset="0.08" stop-color="#fff" stop-opacity="0.91"/><stop offset="0.72" stop-color="#fff" stop-opacity="0.26"/><stop offset="1" stop-color="#fff" stop-opacity="0"/></linearGradient><linearGradient id="Безымянный_градиент_96-2" x1="25.42" y1="30.42" x2="12.76" y2="8.26" xlink:href="#Безымянный_градиент_96"/><linearGradient id="Безымянный_градиент_37" x1="59.66" y1="37.7" x2="45.83" y2="48.53" gradientUnits="userSpaceOnUse"><stop offset="0" stop-color="#f8d87f"/><stop offset="1" stop-color="#ff9b63"/></linearGradient><linearGradient id="Безымянный_градиент_75" x1="1.77" y1="17.63" x2="6.76" y2="11.5" gradientUnits="userSpaceOnUse"><stop offset="0" stop-color="#fff"/><stop offset="0.03" stop-color="#fff" stop-opacity="0.91"/><stop offset="0.29" stop-color="#fff" stop-opacity="0.26"/><stop offset="0.4" stop-color="#fff" stop-opacity="0"/></linearGradient><linearGradient id="Безымянный_градиент_96-3" x1="56.71" y1="9.76" x2="54.13" y2="3.76" xlink:href="#Безымянный_градиент_96"/><linearGradient id="Безымянный_градиент_96-4" x1="3.38" y1="47.96" x2="9.29" y2="46.96" xlink:href="#Безымянный_градиент_96"/></defs><title>icon13</title><g id="Слой_2" data-name="Слой 2"><g id="Слой_1-2" data-name="Слой 1"><g id="Forma_1" data-name="Forma 1"><path d="M7.64,55.2c0-.53,0-.15,0,0Zm48.72.41c0-.14,0-1,0,0Zm0-1c-.24-15.06-2.21-19.35-17.27-22.06,0,0-2.12,2.7-7.06,2.7s-7.06-2.7-7.06-2.7C10,35.19,8,39.41,7.68,54.07c0,1.2,0,1.26,0,1.12,0,.26,0,.74,0,1.58,0,0,3.59,7.22,24.36,7.22s24.36-7.22,24.36-7.22c0-.54,0-.91,0-1.17A9.82,9.82,0,0,1,56.33,54.56Z" style="fill-rule:evenodd;fill:url(#Безымянный_градиент_96)"/></g><g id="Forma_1-2" data-name="Forma 1"><path d="M32,0C21,0,19.1,7,19.1,15.65S24.88,31.3,32,31.3s12.9-7,12.9-15.65S43,0,32,0ZM7.64,55.2c0-.53,0-.15,0,0Zm48.72.41c0-.14,0-1,0,0Z" style="fill-rule:evenodd;fill:url(#Безымянный_градиент_96-2)"/></g><circle cx="52.15" cy="43.59" r="11.85" style="fill:url(#Безымянный_градиент_37)"/><g id="Forma_1-3" data-name="Forma 1"><path d="M56.94,43.19a.93.93,0,0,0-.94-.65H49.36V40.87a2.8,2.8,0,0,1,5.56-.47.74.74,0,0,0,1.45-.24,4.27,4.27,0,0,0-8.49.71v1.74a.78.78,0,0,0-.53.78v2.39A4.8,4.8,0,0,0,52,50.58h.23A4.79,4.79,0,0,0,56.94,46Zm-3.87,4.57a.12.12,0,0,1-.12.14H51.38a.12.12,0,0,1-.12-.14l.25-1.33a1,1,0,1,1,1.3,0Z" style="fill:#fff;fill-rule:evenodd"/></g><circle cx="2.56" cy="16.66" r="2.56" style="fill:url(#Безымянный_градиент_75)"/><circle cx="55.29" cy="6.46" r="3.76" style="fill:url(#Безымянный_градиент_96-3)"/><circle cx="6.96" cy="47.35" r="2.54" style="fill:url(#Безымянный_градиент_96-4)"/></g></g></svg>