<svg xmlns="http://www.w3.org/2000/svg" xmlns:xlink="http://www.w3.org/1999/xlink" viewBox="0 0 64 64"><defs><linearGradient id="Безымянный_градиент_51" x1="57.37" y1="32" x2="16.69" y2="32" gradientUnits="userSpaceOnUse"><stop offset="0" stop-color="#78caf9"/><stop offset="1" stop-color="#6091f8"/></linearGradient><linearGradient id="Безымянный_градиент_4" y1="32" x2="25.91" y2="32" gradientUnits="userSpaceOnUse"><stop offset="0" stop-color="#f8d87f"/><stop offset="1" stop-color="#ff9b63"/></linearGradient><linearGradient id="Безымянный_градиент_51-2" x1="42.06" y1="17.55" x2="28.18" y2="32.55" xlink:href="#Безымянный_градиент_51"/><linearGradient id="Безымянный_градиент_51-3" x1="46.64" y1="21.79" x2="32.76" y2="36.79" xlink:href="#Безымянный_градиент_51"/><linearGradient id="Безымянный_градиент_51-4" x1="49.95" y1="24.85" x2="36.07" y2="39.85" xlink:href="#Безымянный_градиент_51"/><linearGradient id="Безымянный_градиент_51-5" x1="53.21" y1="27.87" x2="39.33" y2="42.87" xlink:href="#Безымянный_градиент_51"/><linearGradient id="Безымянный_градиент_4-2" x1="41.84" y1="43.37" x2="46.97" y2="37.99" xlink:href="#Безымянный_градиент_4"/><linearGradient id="Безымянный_градиент_4-3" x1="44.46" y1="45.86" x2="49.58" y2="40.49" xlink:href="#Безымянный_градиент_4"/><linearGradient id="Безымянный_градиент_4-4" x1="47.08" y1="48.36" x2="52.2" y2="42.98" xlink:href="#Безымянный_градиент_4"/></defs><title>icon11</title><g id="Слой_2" data-name="Слой 2"><g id="Слой_1-2" data-name="Слой 1"><path d="M32,0A31.9,31.9,0,0,0,21.66,1.71a31.21,31.21,0,0,1,5,2.8A27.39,27.39,0,0,1,32,4a28,28,0,0,1,0,56,27.11,27.11,0,0,1-5.29-.51,32.62,32.62,0,0,1-5,2.81A32,32,0,1,0,32,0Z" style="fill:url(#Безымянный_градиент_51)"/><path d="M11.32,41.52l6.47-1.83c6.94,4.57,8.12,10.84,8.12,10.84-3.18,6.7-10.16,9.21-10.16,9.21A32.12,32.12,0,0,1,0,32.09v-.17A32.12,32.12,0,0,1,15.75,4.27s7,2.5,10.16,9.21c0,0-1.18,6.27-8.12,10.84l-6.47-1.83a26.51,26.51,0,0,0-1.8,9.37A29.26,29.26,0,0,0,11.32,41.52Z" style="fill:url(#Безымянный_градиент_4)"/><path d="M27.91,27c-.69,0-1.12.37-1.12,1.36v1.47h-2V28.5c0-2.2,1.1-3.46,3.22-3.46s3.22,1.26,3.22,3.46c0,4.32-4.3,5.94-4.3,8.2a1.5,1.5,0,0,0,0,.29H31v2H24.74V37.27c0-4,4.28-4.72,4.28-8.69C29,27.34,28.6,27,27.91,27Z" style="fill:url(#Безымянный_градиент_51-2)"/><path d="M32,34.5l3.93-9.3H38.3v9.3h1v2h-1V39H36.18v-2.5H32Zm4.17,0V29.33L34,34.5Z" style="fill:url(#Безымянный_градиент_51-3)"/><path d="M45,25.2h1.87L41.49,39H39.62Z" style="fill:url(#Безымянный_градиент_51-4)"/><path d="M54.14,25.2v1.89L51,39H48.8L52,27.17h-4.3v-2Z" style="fill:url(#Безымянный_градиент_51-5)"/><rect x="40.41" y="41.79" width="3" height="3" style="fill:url(#Безымянный_градиент_4-2)"/><rect x="45.41" y="41.79" width="3" height="3" style="fill:url(#Безымянный_градиент_4-3)"/><rect x="50.41" y="41.79" width="3" height="3" style="fill:url(#Безымянный_градиент_4-4)"/></g></g></svg>