<svg xmlns="http://www.w3.org/2000/svg" xmlns:xlink="http://www.w3.org/1999/xlink" viewBox="0 0 64 64"><defs><linearGradient id="Безымянный_градиент_51" x1="11.94" y1="32" x2="51.94" y2="32" gradientUnits="userSpaceOnUse"><stop offset="0" stop-color="#78caf9"/><stop offset="1" stop-color="#6091f8"/></linearGradient><linearGradient id="Безымянный_градиент_96" x1="21.44" y1="16.5" x2="57.94" y2="70.33" gradientUnits="userSpaceOnUse"><stop offset="0" stop-color="#fff"/><stop offset="0.08" stop-color="#fff" stop-opacity="0.91"/><stop offset="0.72" stop-color="#fff" stop-opacity="0.26"/><stop offset="1" stop-color="#fff" stop-opacity="0"/></linearGradient><linearGradient id="Безымянный_градиент_51-2" x1="-1.08" y1="41.92" x2="30.29" y2="41.92" gradientTransform="matrix(-1, 0, 0, 1, 34, 0)" xlink:href="#Безымянный_градиент_51"/><linearGradient id="Безымянный_градиент_37" x1="28.8" y1="31.51" x2="60.18" y2="31.51" gradientUnits="userSpaceOnUse"><stop offset="0" stop-color="#f8d87f"/><stop offset="1" stop-color="#ff9b63"/></linearGradient></defs><title>icon10</title><g id="Слой_2" data-name="Слой 2"><g id="Слой_1-2" data-name="Слой 1"><rect x="11.94" width="40" height="64" rx="4.22" ry="4.22" style="fill:url(#Безымянный_градиент_51)"/><path d="M49.95,6.22V57.78A4.23,4.23,0,0,1,45.73,62H18.17a4.23,4.23,0,0,1-4.22-4.22V6.22A4.23,4.23,0,0,1,18.17,2h4.08a.7.7,0,0,1,.7.7V4.18A1.83,1.83,0,0,0,24.77,6H39.12a1.83,1.83,0,0,0,1.83-1.82V2.69a.7.7,0,0,1,.7-.7h4.08A4.23,4.23,0,0,1,49.95,6.22Z" style="fill:url(#Безымянный_градиент_96)"/><path d="M7.89,28.52h23a4.18,4.18,0,0,1,4.18,4.18V45.25a4.18,4.18,0,0,1-4.18,4.18v5.88l-7.56-5.88H7.89a4.18,4.18,0,0,1-4.18-4.18V32.7A4.18,4.18,0,0,1,7.89,28.52Z" style="fill:url(#Безымянный_градиент_51-2)"/><rect x="11.03" y="34.15" width="16.73" height="2.09" style="fill:#fff"/><rect x="11.03" y="38.33" width="16.73" height="2.09" style="fill:#fff"/><rect x="11.03" y="42.51" width="10.46" height="2.09" style="fill:#fff"/><path d="M56,18.11H33A4.18,4.18,0,0,0,28.8,22.3V34.85A4.18,4.18,0,0,0,33,39v5.88L40.55,39H56a4.18,4.18,0,0,0,4.18-4.18V22.3A4.18,4.18,0,0,0,56,18.11Z" style="fill:url(#Безымянный_градиент_37)"/><rect x="36.13" y="23.74" width="16.73" height="2.09" style="fill:#fff"/><rect x="36.13" y="27.92" width="16.73" height="2.09" style="fill:#fff"/><rect x="36.13" y="32.11" width="10.46" height="2.09" style="fill:#fff"/><rect x="56.1" y="3.95" width="1.44" height="3.83" style="fill:#fac476"/><rect x="59.95" y="10.41" width="4.05" height="1.44" style="fill:#fac476"/><rect x="57.57" y="6.45" width="6.43" height="1.44" transform="translate(12.74 45.08) rotate(-45)" style="fill:#fac476"/><rect x="6.46" y="15.58" width="1.44" height="3.83" style="fill:#6091f8"/><rect y="22.04" width="4.05" height="1.44" style="fill:#6091f8"/><rect x="2.5" y="15.58" width="1.44" height="6.43" transform="translate(-12.35 7.78) rotate(-45)" style="fill:#6091f8"/></g></g></svg>