<svg xmlns="http://www.w3.org/2000/svg" xmlns:xlink="http://www.w3.org/1999/xlink" viewBox="0 0 1400.65 924.54"><defs><linearGradient id="Безымянный_градиент_207" x1="700.86" y1="241.63" x2="700.86" y2="810.01" gradientTransform="translate(-0.3 5.11) rotate(-0.09)" gradientUnits="userSpaceOnUse"><stop offset="0.62" stop-color="#ff9b63"/><stop offset="0.7" stop-color="#ff9b63" stop-opacity="0.76"/><stop offset="0.85" stop-color="#ff9b63" stop-opacity="0.36"/><stop offset="0.95" stop-color="#ff9b63" stop-opacity="0.1"/><stop offset="1" stop-color="#ff9b63" stop-opacity="0"/></linearGradient><linearGradient id="Безымянный_градиент_24" x1="1463.46" y1="-166.59" x2="300.74" y2="1097.24" gradientTransform="translate(-0.3 5.11) rotate(-0.09)" gradientUnits="userSpaceOnUse"><stop offset="0" stop-color="#78e0f9"/><stop offset="1" stop-color="#6091f8"/></linearGradient><linearGradient id="Безымянный_градиент_140" x1="-79.42" y1="1478.17" x2="1169.62" y2="76.04" gradientTransform="translate(-0.3 5.11) rotate(-0.09)" gradientUnits="userSpaceOnUse"><stop offset="0" stop-color="#f8d87f"/><stop offset="1" stop-color="#ff9b63"/></linearGradient><linearGradient id="Безымянный_градиент_51" x1="827.41" y1="556.97" x2="827.41" y2="737.23" gradientTransform="translate(-0.3 5.11) rotate(-0.09)" gradientUnits="userSpaceOnUse"><stop offset="0" stop-color="#78caf9"/><stop offset="1" stop-color="#6091f8"/></linearGradient><linearGradient id="Безымянный_градиент_51-2" x1="852.13" y1="556.97" x2="852.13" y2="737.23" xlink:href="#Безымянный_градиент_51"/><linearGradient id="Безымянный_градиент_51-3" x1="876.84" y1="556.97" x2="876.84" y2="737.23" xlink:href="#Безымянный_градиент_51"/><linearGradient id="Безымянный_градиент_51-4" x1="901.56" y1="556.97" x2="901.56" y2="737.23" xlink:href="#Безымянный_градиент_51"/><linearGradient id="Безымянный_градиент_51-5" x1="926.27" y1="556.97" x2="926.27" y2="737.23" xlink:href="#Безымянный_градиент_51"/><linearGradient id="Безымянный_градиент_51-6" x1="950.99" y1="556.97" x2="950.99" y2="737.23" xlink:href="#Безымянный_градиент_51"/><linearGradient id="Безымянный_градиент_51-7" x1="975.71" y1="556.97" x2="975.71" y2="737.23" xlink:href="#Безымянный_градиент_51"/><linearGradient id="Безымянный_градиент_51-8" x1="1000.42" y1="556.97" x2="1000.42" y2="737.23" xlink:href="#Безымянный_градиент_51"/><linearGradient id="Безымянный_градиент_51-9" x1="1025.14" y1="556.97" x2="1025.14" y2="737.23" xlink:href="#Безымянный_градиент_51"/><linearGradient id="Безымянный_градиент_51-10" x1="1049.85" y1="556.97" x2="1049.85" y2="737.23" xlink:href="#Безымянный_градиент_51"/><linearGradient id="Безымянный_градиент_51-11" x1="1243.72" y1="622.75" x2="982.33" y2="666.94" xlink:href="#Безымянный_градиент_51"/><linearGradient id="Безымянный_градиент_51-12" x1="827.41" y1="540.68" x2="827.41" y2="720.94" xlink:href="#Безымянный_градиент_51"/><linearGradient id="Безымянный_градиент_51-13" x1="852.13" y1="540.68" x2="852.13" y2="720.94" xlink:href="#Безымянный_градиент_51"/><linearGradient id="Безымянный_градиент_51-14" x1="876.84" y1="540.68" x2="876.84" y2="720.94" xlink:href="#Безымянный_градиент_51"/><linearGradient id="Безымянный_градиент_51-15" x1="901.56" y1="540.68" x2="901.56" y2="720.94" xlink:href="#Безымянный_градиент_51"/><linearGradient id="Безымянный_градиент_51-16" x1="926.28" y1="540.68" x2="926.28" y2="720.94" xlink:href="#Безымянный_градиент_51"/><linearGradient id="Безымянный_градиент_51-17" x1="950.99" y1="540.68" x2="950.99" y2="720.94" xlink:href="#Безымянный_градиент_51"/><linearGradient id="Безымянный_градиент_51-18" x1="975.71" y1="540.68" x2="975.71" y2="720.94" xlink:href="#Безымянный_градиент_51"/><linearGradient id="Безымянный_градиент_51-19" x1="1000.42" y1="540.68" x2="1000.42" y2="720.94" xlink:href="#Безымянный_градиент_51"/><linearGradient id="Безымянный_градиент_51-20" x1="1025.14" y1="540.68" x2="1025.14" y2="720.94" xlink:href="#Безымянный_градиент_51"/><linearGradient id="Безымянный_градиент_51-21" x1="1049.86" y1="540.68" x2="1049.86" y2="720.94" xlink:href="#Безымянный_градиент_51"/><linearGradient id="Безымянный_градиент_51-22" x1="1243.72" y1="606.46" x2="982.33" y2="650.65" xlink:href="#Безымянный_градиент_51"/><linearGradient id="Безымянный_градиент_51-23" x1="827.47" y1="521.94" x2="827.47" y2="702.2" xlink:href="#Безымянный_градиент_51"/><linearGradient id="Безымянный_градиент_51-24" x1="852.19" y1="521.94" x2="852.19" y2="702.2" xlink:href="#Безымянный_градиент_51"/><linearGradient id="Безымянный_градиент_51-25" x1="876.91" y1="521.94" x2="876.91" y2="702.2" xlink:href="#Безымянный_градиент_51"/><linearGradient id="Безымянный_градиент_51-26" x1="901.62" y1="521.94" x2="901.62" y2="702.2" xlink:href="#Безымянный_градиент_51"/><linearGradient id="Безымянный_градиент_51-27" x1="926.34" y1="521.94" x2="926.34" y2="702.2" xlink:href="#Безымянный_градиент_51"/><linearGradient id="Безымянный_градиент_51-28" x1="951.05" y1="521.94" x2="951.05" y2="702.2" xlink:href="#Безымянный_градиент_51"/><linearGradient id="Безымянный_градиент_51-29" x1="975.77" y1="521.94" x2="975.77" y2="702.2" xlink:href="#Безымянный_градиент_51"/><linearGradient id="Безымянный_градиент_51-30" x1="1000.49" y1="521.94" x2="1000.49" y2="702.2" xlink:href="#Безымянный_градиент_51"/><linearGradient id="Безымянный_градиент_51-31" x1="1025.2" y1="521.94" x2="1025.2" y2="702.2" xlink:href="#Безымянный_градиент_51"/><linearGradient id="Безымянный_градиент_51-32" x1="1049.92" y1="521.94" x2="1049.92" y2="702.2" xlink:href="#Безымянный_градиент_51"/><linearGradient id="Безымянный_градиент_51-33" x1="1243.78" y1="587.72" x2="982.39" y2="631.91" xlink:href="#Безымянный_градиент_51"/><linearGradient id="Безымянный_градиент_51-34" x1="827.47" y1="503.24" x2="827.47" y2="683.5" xlink:href="#Безымянный_градиент_51"/><linearGradient id="Безымянный_градиент_51-35" x1="852.19" y1="503.24" x2="852.19" y2="683.5" xlink:href="#Безымянный_градиент_51"/><linearGradient id="Безымянный_градиент_51-36" x1="876.91" y1="503.24" x2="876.91" y2="683.5" xlink:href="#Безымянный_градиент_51"/><linearGradient id="Безымянный_градиент_51-37" x1="901.62" y1="503.24" x2="901.62" y2="683.5" xlink:href="#Безымянный_градиент_51"/><linearGradient id="Безымянный_градиент_51-38" x1="926.34" y1="503.24" x2="926.34" y2="683.5" xlink:href="#Безымянный_градиент_51"/><linearGradient id="Безымянный_градиент_51-39" x1="951.05" y1="503.24" x2="951.05" y2="683.5" xlink:href="#Безымянный_градиент_51"/><linearGradient id="Безымянный_градиент_51-40" x1="975.77" y1="503.24" x2="975.77" y2="683.5" xlink:href="#Безымянный_градиент_51"/><linearGradient id="Безымянный_градиент_51-41" x1="1000.49" y1="503.24" x2="1000.49" y2="683.5" xlink:href="#Безымянный_градиент_51"/><linearGradient id="Безымянный_градиент_51-42" x1="1025.2" y1="503.24" x2="1025.2" y2="683.5" xlink:href="#Безымянный_градиент_51"/><linearGradient id="Безымянный_градиент_51-43" x1="1049.92" y1="503.24" x2="1049.92" y2="683.5" xlink:href="#Безымянный_градиент_51"/><linearGradient id="Безымянный_градиент_51-44" x1="1243.78" y1="569.02" x2="982.39" y2="613.21" xlink:href="#Безымянный_градиент_51"/><linearGradient id="Безымянный_градиент_49" x1="938.69" y1="810.59" x2="938.69" y2="495.22" gradientTransform="translate(-0.3 5.11) rotate(-0.09)" gradientUnits="userSpaceOnUse"><stop offset="0" stop-color="#78caf9"/><stop offset="0.2" stop-color="#78caf9" stop-opacity="0.78"/><stop offset="0.6" stop-color="#78caf9" stop-opacity="0.36"/><stop offset="0.87" stop-color="#78caf9" stop-opacity="0.1"/><stop offset="1" stop-color="#78caf9" stop-opacity="0"/></linearGradient><linearGradient id="Безымянный_градиент_49-2" x1="938.69" y1="801.89" x2="938.69" y2="395.7" xlink:href="#Безымянный_градиент_49"/><linearGradient id="Безымянный_градиент_51-45" x1="391.31" y1="559.2" x2="391.31" y2="799.88" xlink:href="#Безымянный_градиент_51"/><linearGradient id="Безымянный_градиент_51-46" x1="424.31" y1="559.2" x2="424.31" y2="799.88" xlink:href="#Безымянный_градиент_51"/><linearGradient id="Безымянный_градиент_51-47" x1="457.31" y1="559.2" x2="457.31" y2="799.88" xlink:href="#Безымянный_градиент_51"/><linearGradient id="Безымянный_градиент_51-48" x1="490.31" y1="559.2" x2="490.31" y2="799.88" xlink:href="#Безымянный_градиент_51"/><linearGradient id="Безымянный_градиент_51-49" x1="523.31" y1="559.2" x2="523.31" y2="799.88" xlink:href="#Безымянный_градиент_51"/><linearGradient id="Безымянный_градиент_51-50" x1="556.31" y1="559.2" x2="556.31" y2="799.88" xlink:href="#Безымянный_градиент_51"/><linearGradient id="Безымянный_градиент_51-51" x1="589.31" y1="559.2" x2="589.31" y2="799.88" xlink:href="#Безымянный_градиент_51"/><linearGradient id="Безымянный_градиент_51-52" x1="622.31" y1="559.2" x2="622.31" y2="799.88" xlink:href="#Безымянный_градиент_51"/><linearGradient id="Безымянный_градиент_51-53" x1="655.31" y1="559.2" x2="655.31" y2="799.88" xlink:href="#Безымянный_градиент_51"/><linearGradient id="Безымянный_градиент_51-54" x1="688.31" y1="559.2" x2="688.31" y2="799.88" xlink:href="#Безымянный_градиент_51"/><linearGradient id="Безымянный_градиент_51-55" x1="947.15" y1="647.03" x2="598.15" y2="706.03" xlink:href="#Безымянный_градиент_51"/><linearGradient id="Безымянный_градиент_51-56" x1="404.11" y1="511.2" x2="404.11" y2="751.88" xlink:href="#Безымянный_градиент_51"/><linearGradient id="Безымянный_градиент_51-57" x1="437.11" y1="511.2" x2="437.11" y2="751.88" xlink:href="#Безымянный_градиент_51"/><linearGradient id="Безымянный_градиент_51-58" x1="470.11" y1="511.2" x2="470.11" y2="751.88" xlink:href="#Безымянный_градиент_51"/><linearGradient id="Безымянный_градиент_51-59" x1="503.11" y1="511.2" x2="503.11" y2="751.88" xlink:href="#Безымянный_градиент_51"/><linearGradient id="Безымянный_градиент_51-60" x1="536.11" y1="511.2" x2="536.11" y2="751.88" xlink:href="#Безымянный_градиент_51"/><linearGradient id="Безымянный_градиент_51-61" x1="569.11" y1="511.2" x2="569.11" y2="751.88" xlink:href="#Безымянный_градиент_51"/><linearGradient id="Безымянный_градиент_51-62" x1="602.11" y1="511.2" x2="602.11" y2="751.88" xlink:href="#Безымянный_градиент_51"/><linearGradient id="Безымянный_градиент_51-63" x1="635.11" y1="511.2" x2="635.11" y2="751.88" xlink:href="#Безымянный_градиент_51"/><linearGradient id="Безымянный_градиент_51-64" x1="668.11" y1="511.2" x2="668.11" y2="751.88" xlink:href="#Безымянный_градиент_51"/><linearGradient id="Безымянный_градиент_51-65" x1="701.11" y1="511.2" x2="701.11" y2="751.88" xlink:href="#Безымянный_градиент_51"/><linearGradient id="Безымянный_градиент_51-66" x1="959.95" y1="599.03" x2="610.95" y2="658.03" xlink:href="#Безымянный_градиент_51"/><linearGradient id="Безымянный_градиент_51-67" x1="386.1" y1="474.14" x2="386.1" y2="714.82" xlink:href="#Безымянный_градиент_51"/><linearGradient id="Безымянный_градиент_51-68" x1="419.1" y1="474.14" x2="419.1" y2="714.82" xlink:href="#Безымянный_градиент_51"/><linearGradient id="Безымянный_градиент_51-69" x1="452.1" y1="474.14" x2="452.1" y2="714.82" xlink:href="#Безымянный_градиент_51"/><linearGradient id="Безымянный_градиент_51-70" x1="485.1" y1="474.14" x2="485.1" y2="714.82" xlink:href="#Безымянный_градиент_51"/><linearGradient id="Безымянный_градиент_51-71" x1="518.1" y1="474.14" x2="518.1" y2="714.82" xlink:href="#Безымянный_градиент_51"/><linearGradient id="Безымянный_градиент_51-72" x1="551.1" y1="474.14" x2="551.1" y2="714.82" xlink:href="#Безымянный_градиент_51"/><linearGradient id="Безымянный_градиент_51-73" x1="584.1" y1="474.14" x2="584.1" y2="714.82" xlink:href="#Безымянный_градиент_51"/><linearGradient id="Безымянный_градиент_51-74" x1="617.1" y1="474.14" x2="617.1" y2="714.82" xlink:href="#Безымянный_градиент_51"/><linearGradient id="Безымянный_градиент_51-75" x1="650.1" y1="474.14" x2="650.1" y2="714.82" xlink:href="#Безымянный_градиент_51"/><linearGradient id="Безымянный_градиент_51-76" x1="683.1" y1="474.14" x2="683.1" y2="714.82" xlink:href="#Безымянный_градиент_51"/><linearGradient id="Безымянный_градиент_51-77" x1="941.95" y1="561.97" x2="592.95" y2="620.97" xlink:href="#Безымянный_градиент_51"/><linearGradient id="Безымянный_градиент_51-78" x1="406.31" y1="421.53" x2="406.31" y2="662.21" xlink:href="#Безымянный_градиент_51"/><linearGradient id="Безымянный_градиент_51-79" x1="439.31" y1="421.53" x2="439.31" y2="662.21" xlink:href="#Безымянный_градиент_51"/><linearGradient id="Безымянный_градиент_51-80" x1="472.31" y1="421.53" x2="472.31" y2="662.21" xlink:href="#Безымянный_градиент_51"/><linearGradient id="Безымянный_градиент_51-81" x1="505.31" y1="421.53" x2="505.31" y2="662.21" xlink:href="#Безымянный_градиент_51"/><linearGradient id="Безымянный_градиент_51-82" x1="538.31" y1="421.53" x2="538.31" y2="662.21" xlink:href="#Безымянный_градиент_51"/><linearGradient id="Безымянный_градиент_51-83" x1="571.31" y1="421.53" x2="571.31" y2="662.21" xlink:href="#Безымянный_градиент_51"/><linearGradient id="Безымянный_градиент_51-84" x1="604.31" y1="421.53" x2="604.31" y2="662.21" xlink:href="#Безымянный_градиент_51"/><linearGradient id="Безымянный_градиент_51-85" x1="637.31" y1="421.53" x2="637.31" y2="662.21" xlink:href="#Безымянный_градиент_51"/><linearGradient id="Безымянный_градиент_51-86" x1="670.31" y1="421.53" x2="670.31" y2="662.21" xlink:href="#Безымянный_градиент_51"/><linearGradient id="Безымянный_градиент_51-87" x1="703.31" y1="421.53" x2="703.31" y2="662.21" xlink:href="#Безымянный_градиент_51"/><linearGradient id="Безымянный_градиент_51-88" x1="962.15" y1="509.36" x2="613.15" y2="568.36" xlink:href="#Безымянный_градиент_51"/><linearGradient id="Безымянный_градиент_51-89" x1="406.31" y1="396.56" x2="406.31" y2="637.24" xlink:href="#Безымянный_градиент_51"/><linearGradient id="Безымянный_градиент_51-90" x1="439.31" y1="396.56" x2="439.31" y2="637.24" xlink:href="#Безымянный_градиент_51"/><linearGradient id="Безымянный_градиент_51-91" x1="472.31" y1="396.56" x2="472.31" y2="637.24" xlink:href="#Безымянный_градиент_51"/><linearGradient id="Безымянный_градиент_51-92" x1="505.31" y1="396.56" x2="505.31" y2="637.24" xlink:href="#Безымянный_градиент_51"/><linearGradient id="Безымянный_градиент_51-93" x1="538.31" y1="396.56" x2="538.31" y2="637.24" xlink:href="#Безымянный_градиент_51"/><linearGradient id="Безымянный_градиент_51-94" x1="571.31" y1="396.56" x2="571.31" y2="637.24" xlink:href="#Безымянный_градиент_51"/><linearGradient id="Безымянный_градиент_51-95" x1="604.31" y1="396.56" x2="604.31" y2="637.24" xlink:href="#Безымянный_градиент_51"/><linearGradient id="Безымянный_градиент_51-96" x1="637.31" y1="396.56" x2="637.31" y2="637.24" xlink:href="#Безымянный_градиент_51"/><linearGradient id="Безымянный_градиент_51-97" x1="670.31" y1="396.56" x2="670.31" y2="637.24" xlink:href="#Безымянный_градиент_51"/><linearGradient id="Безымянный_градиент_51-98" x1="703.31" y1="396.56" x2="703.31" y2="637.24" xlink:href="#Безымянный_градиент_51"/><linearGradient id="Безымянный_градиент_51-99" x1="962.15" y1="484.39" x2="613.15" y2="543.39" xlink:href="#Безымянный_градиент_51"/><linearGradient id="Безымянный_градиент_49-3" x1="554.8" y1="806.93" x2="554.8" y2="385.85" xlink:href="#Безымянный_градиент_49"/><linearGradient id="Безымянный_градиент_49-4" x1="554.8" y1="795.3" x2="554.8" y2="252.97" xlink:href="#Безымянный_градиент_49"/><linearGradient id="Безымянный_градиент_140-2" x1="215.5" y1="184.58" x2="215.5" y2="326.52" gradientTransform="translate(0.2 4.79)" xlink:href="#Безымянный_градиент_140"/><linearGradient id="Безымянный_градиент_24-2" x1="821.18" y1="413.07" x2="821.18" y2="485.18" gradientTransform="translate(0.43 3.88)" xlink:href="#Безымянный_градиент_24"/><linearGradient id="Безымянный_градиент_24-3" x1="1145.29" y1="-48.9" x2="1145.29" y2="143.21" gradientTransform="translate(-0.07 3.39)" xlink:href="#Безымянный_градиент_24"/><linearGradient id="Безымянный_градиент_24-4" x1="404.81" y1="315.98" x2="404.81" y2="362.21" gradientTransform="translate(0.24 4.5)" xlink:href="#Безымянный_градиент_24"/><linearGradient id="Безымянный_градиент_24-5" x1="656.81" y1="220.39" x2="656.81" y2="243.51" gradientTransform="translate(0.06 4.12)" xlink:href="#Безымянный_градиент_24"/><linearGradient id="Безымянный_градиент_24-6" x1="8.93" y1="262.47" x2="8.93" y2="276.34" gradientTransform="translate(0.11 5.1)" xlink:href="#Безымянный_градиент_24"/><linearGradient id="Безымянный_градиент_24-7" x1="458.81" y1="80.35" x2="458.81" y2="94.21" gradientTransform="translate(-0.16 4.42)" xlink:href="#Безымянный_градиент_24"/><linearGradient id="Безымянный_градиент_24-8" x1="750.22" y1="397.2" x2="750.22" y2="406.44" gradientTransform="translate(0.31 3.98)" xlink:href="#Безымянный_градиент_24"/><linearGradient id="Безымянный_градиент_140-3" x1="784.22" y1="140.51" x2="784.22" y2="149.75" gradientTransform="translate(-0.08 3.93)" xlink:href="#Безымянный_градиент_140"/><linearGradient id="Безымянный_градиент_140-4" x1="1126.59" y1="-11.12" x2="1126.59" y2="-1.88" gradientTransform="translate(-0.31 3.42)" xlink:href="#Безымянный_градиент_140"/><linearGradient id="Безымянный_градиент_140-5" x1="1368.22" y1="469.52" x2="1368.22" y2="478.77" gradientTransform="translate(0.42 3.05)" xlink:href="#Безымянный_градиент_140"/><linearGradient id="Безымянный_градиент_140-6" x1="1189.12" y1="299.65" x2="1178.95" y2="276.15" gradientTransform="translate(0.13 3.33)" xlink:href="#Безымянный_градиент_140"/><linearGradient id="Безымянный_градиент_140-7" x1="1332.26" y1="302.87" x2="1326.86" y2="290.39" gradientTransform="translate(0.14 3.11)" xlink:href="#Безымянный_градиент_140"/><linearGradient id="Безымянный_градиент_140-8" x1="884.94" y1="279.04" x2="879.54" y2="266.56" gradientTransform="translate(0.11 3.78)" xlink:href="#Безымянный_градиент_140"/><linearGradient id="Безымянный_градиент_140-9" x1="41.65" y1="508.96" x2="37.33" y2="498.98" gradientTransform="translate(0.45 5.05)" xlink:href="#Безымянный_градиент_140"/></defs><title>illustration1</title><g id="Слой_2" data-name="Слой 2"><g id="Слой_1-2" data-name="Слой 1"><path d="M2.5,680.91c89.35,62.5,126,120.43,134.93,158.86,1.92,8.24,4,20.41,12.93,23.53C184,875,232.41,730.09,342.73,709.4c45.14-8.47,45.41,14.23,117.77,8.86,79.58-5.91,95.4-34.56,155.39-27.82,48.51,5.45,41.64,24.58,105.77,36.93,19.74,3.8,77.8,14.38,144.44-2.59,46.57-11.86,47.11-24.39,70.1-21.51,46.56,5.84,43.79,57.16,112.66,94.47,39.39,21.34,58.93,14.64,77.52,38.88,13.33,17.38,12.92,33.39,35.16,60.82,12.64,15.59,19.84,24.46,28.82,26.59,30.47,7.2,61.53-63.88,123.82-146.18a946.23,946.23,0,0,1,86.47-99C937,681.25,466.11,678.47,2.5,680.91Z" style="fill:url(#Безымянный_градиент_207)"/><path d="M9.65,681.49c55.62-90,98.1-106.33,127-104,23,1.89,41.72,16,70.65,1.71,16.18-8,19.06-16.7,58.79-56.52C299.89,488.86,317,472,328.44,473.48c23.33,3.1,26.92,36.61,63.69,72.72,16.86,16.56,31.67,23.75,61.29,38.14,39.08,19,75.62,36.73,115.45,36.24,26.19-.33,57.82-18.49,120-54.79C793.07,505,800.6,485.65,834.78,490.92c41,6.31,57.6,38.28,87.17,21.71,25.15-14.09,36.44-50.3,49.32-87.46,42.47-122.5,88.87-256.32,133.84-260.53,30.3-2.84,55.11,53.61,75.51,100,61.16,139.13,31.07,244.59,82.92,333,18.09,30.86,51.28,68.36,116.69,79.93Z" style="fill:url(#Безымянный_градиент_24)"/><path d="M0,683.07C89.1,576.37,125.49,477.66,134.28,412.23c1.89-14,3.89-34.75,12.84-40.08,33.63-20.05,82.58,226.3,193,261.06,45.18,14.22,45.35-24.39,117.73-15.55,79.61,9.73,95.54,58.41,155.51,46.7,48.49-9.47,41.54-42,105.62-63.27,19.72-6.55,77.74-24.79,144.45,3.83,46.62,20,47.21,41.3,70.18,36.31,46.53-10.12,43.55-97.43,112.28-161.19,39.3-36.46,58.87-25.15,77.36-66.47,13.25-29.62,12.78-56.87,34.91-103.62,12.58-26.58,19.74-41.7,28.72-45.35,30.44-12.38,61.79,108.44,124.41,248.22A1650.57,1650.57,0,0,0,1398.14,681C934.53,678.7,463.61,685.34,0,683.07Z" style="fill:url(#Безымянный_градиент_140)"/><path d="M1076.93,678.21l0,13.94c-.31,15.78-8.69,31.51-25.17,45q-1.1.9-2.24,1.78a118.44,118.44,0,0,1-12.79,8.54q-4.66,2.7-9.65,5.09c-.74.37-1.49.71-2.25,1.05a168.22,168.22,0,0,1-22.46,8.41l-2.25.66a203.15,203.15,0,0,1-22.46,5c-.75.14-1.5.26-2.25.37-7.38,1.16-14.9,2-22.47,2.4l-2.25.12c-7.47.37-15,.38-22.47,0l-2.25-.11c-7.57-.42-15.09-1.19-22.47-2.33-.75-.11-1.5-.23-2.25-.36a203.15,203.15,0,0,1-22.48-5l-2.25-.65a168.22,168.22,0,0,1-22.48-8.34c-.76-.34-1.51-.68-2.25-1q-5-2.36-9.67-5.06a114.83,114.83,0,0,1-12.82-8.5q-1.16-.87-2.25-1.77c-16.62-13.49-25-29.31-25.3-45.18h0l0-13.92.71,5.24a48.23,48.23,0,0,1,1.75-7c3.25-9.82,9.72-19.38,19.42-28.07-7.41,8.88-11.58,18.43-12.51,28.06-1.33,13.8,4,27.76,15.93,40.16q1.08,1.13,2.25,2.24a99.88,99.88,0,0,0,19.31,14.2q1.57.91,3.18,1.76,1.11.62,2.25,1.19a150.67,150.67,0,0,0,22.48,9.25l2.25.71a186.58,186.58,0,0,0,22.48,5.39l2.25.39A213.86,213.86,0,0,0,926,754.36l2.25.12a220.42,220.42,0,0,0,22.47,0l2.25-.13a213.87,213.87,0,0,0,22.47-2.57l2.25-.4a186.6,186.6,0,0,0,22.46-5.46l2.25-.71a150.69,150.69,0,0,0,22.46-9.31q1.13-.57,2.25-1.19,1.6-.86,3.17-1.76a99.82,99.82,0,0,0,19.27-14.26c.77-.74,1.53-1.49,2.24-2.24,11.92-12.44,17.19-26.42,15.8-40.21-1-9.63-5.16-19.17-12.59-28,9.73,8.67,16.23,18.19,19.51,28A50.2,50.2,0,0,1,1076,682Z" style="fill:#376cb7"/><path d="M829.22,658.7l.12,80.53q-1.16-.87-2.25-1.77L827,658.7Z" style="fill:url(#Безымянный_градиент_51)"/><path d="M853.93,658.66l.14,95.16c-.76-.34-1.51-.68-2.25-1l-.14-94.12Z" style="fill:url(#Безымянный_градиент_51-2)"/><path d="M878.65,658.63l.16,104.19-2.25-.65-.16-103.54Z" style="fill:url(#Безымянный_градиент_51-3)"/><path d="M903.36,658.59l.16,109.56c-.75-.11-1.5-.23-2.25-.36l-.16-109.19Z" style="fill:url(#Безымянный_градиент_51-4)"/><path d="M928.08,658.55l.17,112-2.25-.11-.17-111.93Z" style="fill:url(#Безымянный_градиент_51-5)"/><path d="M952.8,658.52,953,770.44l-2.25.12-.17-112Z" style="fill:url(#Безымянный_градиент_51-6)"/><path d="M977.51,658.48l.16,109.19c-.75.14-1.5.26-2.25.37l-.16-109.56Z" style="fill:url(#Безымянный_градиент_51-7)"/><path d="M1002.23,658.44l.16,103.54-2.25.66L1000,658.44Z" style="fill:url(#Безымянный_градиент_51-8)"/><path d="M1026.94,658.4l.14,94.12c-.74.37-1.49.71-2.25,1.05l-.14-95.16Z" style="fill:url(#Безымянный_градиент_51-9)"/><path d="M1051.66,658.37l.12,78.75q-1.1.9-2.24,1.78l-.12-80.53Z" style="fill:url(#Безымянный_градиент_51-10)"/><path d="M1036.72,734.05c-53.69,31.1-140.8,31.23-194.58.29S788.28,653.1,842,622s140.8-31.23,194.58-.29S1090.4,702.95,1036.72,734.05Z" style="fill:#5187e5"/><path d="M1030.23,730.32c-50.11,29-131.42,29.15-181.61.27s-50.27-75.82-.16-104.85,131.42-29.15,181.61-.27S1080.33,701.29,1030.23,730.32Z" style="fill:url(#Безымянный_градиент_51-11)"/><path d="M1076.91,661.93l0,13.94c-.31,15.78-8.69,31.51-25.17,45q-1.1.9-2.24,1.78a118.44,118.44,0,0,1-12.79,8.54q-4.66,2.7-9.65,5.09c-.74.37-1.49.71-2.25,1.05a168.22,168.22,0,0,1-22.46,8.41l-2.25.66a203.15,203.15,0,0,1-22.46,5c-.75.14-1.5.26-2.25.37-7.38,1.16-14.9,2-22.47,2.4l-2.25.12c-7.47.37-15,.38-22.47,0l-2.25-.11c-7.57-.42-15.09-1.19-22.47-2.33-.75-.11-1.5-.23-2.25-.36a203.15,203.15,0,0,1-22.48-5l-2.25-.65a168.22,168.22,0,0,1-22.48-8.34c-.76-.34-1.51-.68-2.25-1q-5-2.36-9.67-5.06a114.83,114.83,0,0,1-12.82-8.5q-1.16-.87-2.25-1.77c-16.62-13.49-25-29.31-25.3-45.18h0l0-13.92.71,5.24a48.23,48.23,0,0,1,1.75-7c3.25-9.82,9.72-19.38,19.42-28.07-7.41,8.88-11.58,18.43-12.51,28.06-1.33,13.8,4,27.76,15.93,40.16q1.08,1.13,2.25,2.24a99.88,99.88,0,0,0,19.31,14.2q1.57.91,3.18,1.76,1.11.62,2.25,1.19a150.67,150.67,0,0,0,22.48,9.25l2.25.71a186.58,186.58,0,0,0,22.48,5.39l2.25.39A213.86,213.86,0,0,0,926,738.08l2.25.12a220.42,220.42,0,0,0,22.47,0l2.25-.13a213.87,213.87,0,0,0,22.47-2.57l2.25-.4a186.6,186.6,0,0,0,22.46-5.46l2.25-.71a150.69,150.69,0,0,0,22.46-9.31q1.13-.57,2.25-1.19,1.6-.86,3.17-1.76a99.82,99.82,0,0,0,19.27-14.26c.77-.74,1.53-1.49,2.24-2.24,11.92-12.44,17.19-26.42,15.8-40.21-1-9.63-5.16-19.17-12.59-28,9.73,8.67,16.23,18.19,19.51,28a50.2,50.2,0,0,1,1.54,5.78Z" style="fill:#376cb7"/><path d="M829.19,642.41l.12,80.53q-1.16-.87-2.25-1.77l-.12-78.75Z" style="fill:url(#Безымянный_градиент_51-12)"/><path d="M853.91,642.38l.14,95.16c-.76-.34-1.51-.68-2.25-1l-.14-94.12Z" style="fill:url(#Безымянный_градиент_51-13)"/><path d="M878.62,642.34l.16,104.19-2.25-.65-.16-103.54Z" style="fill:url(#Безымянный_градиент_51-14)"/><path d="M903.34,642.3l.16,109.56c-.75-.11-1.5-.23-2.25-.36l-.16-109.19Z" style="fill:url(#Безымянный_градиент_51-15)"/><path d="M928.06,642.26l.17,112-2.25-.11-.17-111.93Z" style="fill:url(#Безымянный_градиент_51-16)"/><path d="M952.77,642.23l.17,111.93-2.25.12-.17-112Z" style="fill:url(#Безымянный_градиент_51-17)"/><path d="M977.49,642.19l.16,109.19c-.75.14-1.5.26-2.25.37l-.16-109.56Z" style="fill:url(#Безымянный_градиент_51-18)"/><path d="M1002.2,642.15l.16,103.54-2.25.66L1000,642.16Z" style="fill:url(#Безымянный_градиент_51-19)"/><path d="M1026.92,642.12l.14,94.12c-.74.37-1.49.71-2.25,1.05l-.14-95.16Z" style="fill:url(#Безымянный_градиент_51-20)"/><path d="M1051.64,642.08l.12,78.75q-1.1.9-2.24,1.78l-.12-80.53Z" style="fill:url(#Безымянный_градиент_51-21)"/><path d="M1036.69,717.76c-53.69,31.1-140.8,31.23-194.58.29s-53.86-81.24-.17-112.34,140.8-31.23,194.58-.29S1090.38,686.66,1036.69,717.76Z" style="fill:#5187e5"/><path d="M1030.2,714c-50.11,29-131.42,29.15-181.61.27s-50.27-75.82-.16-104.85,131.42-29.15,181.61-.27S1080.31,685,1030.2,714Z" style="fill:url(#Безымянный_градиент_51-22)"/><path d="M1076.94,643.19l0,13.94c-.31,15.78-8.69,31.51-25.17,45q-1.1.9-2.24,1.78a118.44,118.44,0,0,1-12.79,8.54q-4.66,2.7-9.65,5.09c-.74.37-1.49.71-2.25,1.05a168.22,168.22,0,0,1-22.46,8.41l-2.25.66a203.15,203.15,0,0,1-22.46,5c-.75.14-1.5.26-2.25.37-7.38,1.16-14.9,2-22.47,2.4l-2.25.12c-7.47.37-15,.38-22.47,0l-2.25-.11c-7.57-.42-15.09-1.19-22.47-2.33-.75-.11-1.5-.23-2.25-.36a203.15,203.15,0,0,1-22.48-5l-2.25-.65a168.22,168.22,0,0,1-22.48-8.34c-.76-.34-1.51-.68-2.25-1q-5-2.36-9.67-5.06a114.83,114.83,0,0,1-12.82-8.5q-1.16-.87-2.25-1.77c-16.62-13.49-25-29.31-25.3-45.18h0l0-13.92.71,5.24a48.23,48.23,0,0,1,1.75-7c3.25-9.82,9.72-19.38,19.42-28.07-7.41,8.88-11.58,18.43-12.51,28.06-1.33,13.8,4,27.76,15.93,40.16q1.08,1.13,2.25,2.24a99.88,99.88,0,0,0,19.31,14.2q1.57.91,3.18,1.76,1.11.62,2.25,1.19a150.67,150.67,0,0,0,22.48,9.25l2.25.71a186.58,186.58,0,0,0,22.48,5.39l2.25.39A213.86,213.86,0,0,0,926,719.34l2.25.12a220.42,220.42,0,0,0,22.47,0l2.25-.13a213.87,213.87,0,0,0,22.47-2.57l2.25-.4a186.6,186.6,0,0,0,22.46-5.46l2.25-.71a150.69,150.69,0,0,0,22.46-9.31q1.13-.57,2.25-1.19,1.6-.86,3.17-1.76a99.82,99.82,0,0,0,19.27-14.26c.77-.74,1.53-1.49,2.24-2.24,11.92-12.44,17.19-26.42,15.8-40.21-1-9.63-5.16-19.17-12.59-28,9.73,8.67,16.23,18.19,19.51,28a50.2,50.2,0,0,1,1.54,5.78Z" style="fill:#376cb7"/><path d="M829.23,623.68l.12,80.53q-1.16-.87-2.25-1.77L827,623.68Z" style="fill:url(#Безымянный_градиент_51-23)"/><path d="M853.94,623.64l.14,95.16c-.76-.34-1.51-.68-2.25-1l-.14-94.12Z" style="fill:url(#Безымянный_градиент_51-24)"/><path d="M878.66,623.6l.16,104.19-2.25-.65-.16-103.54Z" style="fill:url(#Безымянный_градиент_51-25)"/><path d="M903.37,623.56l.16,109.56c-.75-.11-1.5-.23-2.25-.36l-.16-109.19Z" style="fill:url(#Безымянный_градиент_51-26)"/><path d="M928.09,623.53l.17,112-2.25-.11-.17-111.93Z" style="fill:url(#Безымянный_градиент_51-27)"/><path d="M952.81,623.49,953,735.42l-2.25.12-.17-112Z" style="fill:url(#Безымянный_градиент_51-28)"/><path d="M977.52,623.45l.16,109.19c-.75.14-1.5.26-2.25.37l-.16-109.56Z" style="fill:url(#Безымянный_градиент_51-29)"/><path d="M1002.24,623.42l.16,103.54-2.25.66L1000,623.42Z" style="fill:url(#Безымянный_градиент_51-30)"/><path d="M1027,623.38l.14,94.12c-.74.37-1.49.71-2.25,1.05l-.14-95.16Z" style="fill:url(#Безымянный_градиент_51-31)"/><path d="M1051.67,623.34l.12,78.75q-1.1.9-2.24,1.78l-.12-80.53Z" style="fill:url(#Безымянный_градиент_51-32)"/><path d="M1036.73,699c-53.69,31.1-140.8,31.23-194.58.29S788.29,618.08,842,587s140.8-31.23,194.58-.29S1090.41,667.92,1036.73,699Z" style="fill:#5187e5"/><path d="M1030.24,695.29c-50.11,29-131.42,29.15-181.61.27s-50.27-75.82-.16-104.85,131.42-29.15,181.61-.27S1080.34,666.26,1030.24,695.29Z" style="fill:url(#Безымянный_градиент_51-33)"/><path d="M1076.91,624.49l0,13.94c-.31,15.78-8.69,31.51-25.17,45q-1.1.9-2.24,1.78a118.44,118.44,0,0,1-12.79,8.54q-4.66,2.7-9.65,5.09c-.74.37-1.49.71-2.25,1.05a168.22,168.22,0,0,1-22.46,8.41l-2.25.66a203.15,203.15,0,0,1-22.46,5c-.75.14-1.5.26-2.25.37-7.38,1.16-14.9,2-22.47,2.4l-2.25.12c-7.47.37-15,.38-22.47,0l-2.25-.11c-7.57-.42-15.09-1.19-22.47-2.33-.75-.11-1.5-.23-2.25-.36a203.15,203.15,0,0,1-22.48-5l-2.25-.65a168.22,168.22,0,0,1-22.48-8.34c-.76-.34-1.51-.68-2.25-1q-5-2.36-9.67-5.06a114.83,114.83,0,0,1-12.82-8.5q-1.16-.87-2.25-1.77c-16.62-13.49-25-29.31-25.3-45.18h0l0-13.92.71,5.24a48.23,48.23,0,0,1,1.75-7c3.25-9.82,9.72-19.38,19.42-28.07-7.41,8.88-11.58,18.43-12.51,28.06-1.33,13.8,4,27.76,15.93,40.16q1.08,1.13,2.25,2.24a99.88,99.88,0,0,0,19.31,14.2q1.57.91,3.18,1.76,1.11.62,2.25,1.19a150.67,150.67,0,0,0,22.48,9.25l2.25.71a186.58,186.58,0,0,0,22.48,5.39l2.25.39A213.86,213.86,0,0,0,926,700.64l2.25.12a220.42,220.42,0,0,0,22.47,0l2.25-.13A213.87,213.87,0,0,0,975.39,698l2.25-.4a186.6,186.6,0,0,0,22.46-5.46l2.25-.71a150.69,150.69,0,0,0,22.46-9.31q1.13-.57,2.25-1.19,1.6-.86,3.17-1.76a99.82,99.82,0,0,0,19.27-14.26c.77-.74,1.53-1.49,2.24-2.24,11.92-12.44,17.19-26.42,15.8-40.21-1-9.63-5.16-19.17-12.59-28,9.73,8.67,16.23,18.19,19.51,28a50.2,50.2,0,0,1,1.54,5.78Z" style="fill:#376cb7"/><path d="M829.2,605l.12,80.53q-1.16-.87-2.25-1.77L827,605Z" style="fill:url(#Безымянный_градиент_51-34)"/><path d="M853.91,604.94l.14,95.16c-.76-.34-1.51-.68-2.25-1l-.14-94.12Z" style="fill:url(#Безымянный_градиент_51-35)"/><path d="M878.63,604.9l.16,104.19-2.25-.65-.16-103.54Z" style="fill:url(#Безымянный_градиент_51-36)"/><path d="M903.35,604.87l.16,109.56c-.75-.11-1.5-.23-2.25-.36l-.16-109.19Z" style="fill:url(#Безымянный_градиент_51-37)"/><path d="M928.06,604.83l.17,112-2.25-.11-.17-111.93Z" style="fill:url(#Безымянный_градиент_51-38)"/><path d="M952.78,604.79l.17,111.93-2.25.12-.17-112Z" style="fill:url(#Безымянный_градиент_51-39)"/><path d="M977.49,604.75l.16,109.19c-.75.14-1.5.26-2.25.37l-.16-109.56Z" style="fill:url(#Безымянный_градиент_51-40)"/><path d="M1002.21,604.72l.16,103.54-2.25.66L1000,604.72Z" style="fill:url(#Безымянный_градиент_51-41)"/><path d="M1026.93,604.68l.14,94.12c-.74.37-1.49.71-2.25,1.05l-.14-95.16Z" style="fill:url(#Безымянный_градиент_51-42)"/><path d="M1051.64,604.64l.12,78.75q-1.1.9-2.24,1.78l-.12-80.53Z" style="fill:url(#Безымянный_градиент_51-43)"/><path d="M1036.7,680.33c-53.69,31.1-140.8,31.23-194.58.29s-53.86-81.24-.17-112.34S982.75,537,1036.53,568,1090.39,649.22,1036.7,680.33Z" style="fill:#5187e5"/><path d="M1030.21,676.59c-50.11,29-131.42,29.15-181.61.27S798.33,601,848.44,572s131.42-29.15,181.61-.27S1080.32,647.56,1030.21,676.59Z" style="fill:url(#Безымянный_градиент_51-44)"/><path d="M989.15,661.53" style="fill:#fff"/><polygon points="902.29 648 1007.85 647.36 976.95 629.57 932.72 630.34 934.3 604.9 903.02 587.04 902.29 648" style="fill:#fff"/><polygon points="944.04 600.83 942.69 624.48 942.75 624.56 984.09 623.86 944.04 600.83" style="fill:#fff"/><path d="M1076.56,393l.35,231.13c0,20.33-13.37,40.67-40.21,56.23-53.68,31.1-140.8,31.23-194.59.29-26.89-15.47-40.35-35.78-40.38-56.11l-.35-231.13c0,20.33,13.49,40.64,40.38,56.11a141.87,141.87,0,0,0,13.78,6.94c49.19,21.66,117.91,21.56,167-.25a142,142,0,0,0,13.77-7C1063.2,433.64,1076.59,413.3,1076.56,393Z" style="fill:url(#Безымянный_градиент_49)"/><path d="M1071.57,371.79c-6.14-12.81-17.93-24.88-35.39-34.92-53.78-30.94-140.9-30.82-194.58.28-17.42,10.1-29.18,22.22-35.28,35a48.88,48.88,0,0,0-4.93,21.2l.35,231.13c0-20.33,13.37-40.68,40.21-56.23a142.71,142.71,0,0,1,13.76-7c49.11-21.81,117.84-21.91,167-.24a140.29,140.29,0,0,1,13.79,6.94c26.9,15.47,40.36,35.78,40.39,56.11L1076.56,393A48.89,48.89,0,0,0,1071.57,371.79Z" style="fill:url(#Безымянный_градиент_49-2)"/><path d="M724.28,720.44l0,18.61c-.41,21.07-11.61,42.08-33.61,60q-1.47,1.2-3,2.37a158.13,158.13,0,0,1-17.08,11.4q-6.22,3.61-12.89,6.79c-1,.49-2,1-3,1.4a224.6,224.6,0,0,1-30,11.23c-1,.3-2,.59-3,.87a271.24,271.24,0,0,1-30,6.73c-1,.18-2,.34-3,.49-9.86,1.55-19.9,2.62-30,3.21l-3,.15c-10,.49-20,.51-30,0l-3-.15c-10.1-.55-20.14-1.59-30-3.11-1-.15-2-.31-3-.49a271.24,271.24,0,0,1-30-6.63c-1-.28-2-.57-3-.87a224.6,224.6,0,0,1-30-11.13c-1-.45-2-.91-3-1.4q-6.67-3.16-12.91-6.75a153.31,153.31,0,0,1-17.12-11.34q-1.55-1.17-3-2.37c-22.19-18-33.44-39.14-33.78-60.32h0l0-18.59,1,7a64.39,64.39,0,0,1,2.34-9.36c4.34-13.12,13-25.87,25.93-37.48-9.89,11.85-15.46,24.6-16.7,37.47-1.78,18.42,5.31,37.06,21.27,53.62q1.44,1.51,3,3a133.36,133.36,0,0,0,25.79,19q2.1,1.21,4.24,2.34,1.49.82,3,1.59a201.17,201.17,0,0,0,30,12.34l3,.95a249.11,249.11,0,0,0,30,7.19c1,.19,2,.36,3,.53a285.53,285.53,0,0,0,30,3.34c1,.07,2,.12,3,.17a294.3,294.3,0,0,0,30,0c1-.05,2-.1,3-.17a285.55,285.55,0,0,0,30-3.44c1-.17,2-.34,3-.53a249.14,249.14,0,0,0,30-7.29l3-1a201.19,201.19,0,0,0,30-12.44q1.51-.77,3-1.59,2.14-1.14,4.24-2.36a133.28,133.28,0,0,0,25.73-19c1-1,2-2,3-3,15.92-16.6,22.95-35.27,21.1-53.69-1.28-12.86-6.89-25.59-16.82-37.4,13,11.57,21.68,24.29,26,37.39a67,67,0,0,1,2.05,7.72Z" style="fill:#376cb7"/><path d="M393.54,694.39l.16,107.52q-1.55-1.17-3-2.37l-.16-105.15Z" style="fill:url(#Безымянный_градиент_51-45)"/><path d="M426.54,694.34l.19,127.06c-1-.45-2-.91-3-1.4l-.19-125.66Z" style="fill:url(#Безымянный_градиент_51-46)"/><path d="M459.54,694.29l.21,139.11c-1-.28-2-.57-3-.87l-.21-138.24Z" style="fill:url(#Безымянный_градиент_51-47)"/><path d="M492.54,694.24l.22,146.28c-1-.15-2-.31-3-.49l-.22-145.79Z" style="fill:url(#Безымянный_градиент_51-48)"/><path d="M525.54,694.19l.22,149.59-3-.15-.22-149.44Z" style="fill:url(#Безымянный_градиент_51-49)"/><path d="M558.54,694.14l.22,149.44-3,.15-.22-149.59Z" style="fill:url(#Безымянный_градиент_51-50)"/><path d="M591.54,694.09l.22,145.79c-1,.18-2,.34-3,.49l-.22-146.28Z" style="fill:url(#Безымянный_градиент_51-51)"/><path d="M624.54,694l.21,138.24c-1,.3-2,.59-3,.87L621.54,694Z" style="fill:url(#Безымянный_градиент_51-52)"/><path d="M657.54,694l.19,125.66c-1,.49-2,1-3,1.4L654.54,694Z" style="fill:url(#Безымянный_градиент_51-53)"/><path d="M690.54,693.95l.16,105.15q-1.47,1.2-3,2.37l-.16-107.52Z" style="fill:url(#Безымянный_градиент_51-54)"/><path d="M670.59,795c-71.68,41.53-188,41.7-259.8.39s-71.91-108.47-.23-150,188-41.7,259.8-.39S742.27,753.47,670.59,795Z" style="fill:#5187e5"/><path d="M661.93,790c-66.9,38.76-175.46,38.92-242.48.36s-67.11-101.24-.21-140,175.46-38.92,242.48-.36S728.83,751.25,661.93,790Z" style="fill:url(#Безымянный_градиент_51-55)"/><path d="M737,672.43,737,691c-.41,21.07-11.61,42.08-33.61,60q-1.47,1.2-3,2.37a158.13,158.13,0,0,1-17.08,11.4q-6.22,3.61-12.89,6.79c-1,.49-2,1-3,1.4a224.6,224.6,0,0,1-30,11.23c-1,.3-2,.59-3,.87a271.24,271.24,0,0,1-30,6.73c-1,.18-2,.34-3,.49-9.86,1.55-19.9,2.62-30,3.21l-3,.15c-10,.49-20,.51-30,0l-3-.15c-10.1-.55-20.14-1.59-30-3.11-1-.15-2-.31-3-.49a271.24,271.24,0,0,1-30-6.63c-1-.28-2-.57-3-.87a224.6,224.6,0,0,1-30-11.13c-1-.45-2-.91-3-1.4q-6.67-3.16-12.91-6.75a153.31,153.31,0,0,1-17.12-11.34q-1.55-1.17-3-2.37c-22.19-18-33.44-39.14-33.78-60.32h0l0-18.59,1,7a64.39,64.39,0,0,1,2.34-9.36c4.34-13.12,13-25.87,25.93-37.48-9.89,11.85-15.46,24.6-16.7,37.47-1.78,18.42,5.31,37.06,21.27,53.62q1.44,1.51,3,3a133.36,133.36,0,0,0,25.79,19q2.1,1.21,4.24,2.34,1.49.82,3,1.59a201.17,201.17,0,0,0,30,12.34l3,.95a249.11,249.11,0,0,0,30,7.19c1,.19,2,.36,3,.53a285.53,285.53,0,0,0,30,3.34c1,.07,2,.12,3,.17a294.3,294.3,0,0,0,30,0c1-.05,2-.1,3-.17a285.55,285.55,0,0,0,30-3.44c1-.17,2-.34,3-.53a249.14,249.14,0,0,0,30-7.29l3-1a201.19,201.19,0,0,0,30-12.44q1.51-.77,3-1.59,2.14-1.14,4.24-2.36a133.28,133.28,0,0,0,25.73-19c1-1,2-2,3-3,15.92-16.6,22.95-35.27,21.1-53.69-1.28-12.86-6.89-25.59-16.82-37.4,13,11.57,21.68,24.29,26,37.39a67,67,0,0,1,2.05,7.72Z" style="fill:#376cb7"/><path d="M406.27,646.37l.16,107.52q-1.55-1.17-3-2.37l-.16-105.15Z" style="fill:url(#Безымянный_градиент_51-56)"/><path d="M439.27,646.32l.19,127.06c-1-.45-2-.91-3-1.4l-.19-125.66Z" style="fill:url(#Безымянный_градиент_51-57)"/><path d="M472.27,646.27l.21,139.11c-1-.28-2-.57-3-.87l-.21-138.24Z" style="fill:url(#Безымянный_градиент_51-58)"/><path d="M505.27,646.22l.22,146.28c-1-.15-2-.31-3-.49l-.22-145.79Z" style="fill:url(#Безымянный_градиент_51-59)"/><path d="M538.27,646.17l.22,149.59-3-.15-.22-149.44Z" style="fill:url(#Безымянный_градиент_51-60)"/><path d="M571.27,646.12l.22,149.44-3,.15-.22-149.59Z" style="fill:url(#Безымянный_градиент_51-61)"/><path d="M604.27,646.07l.22,145.79c-1,.18-2,.34-3,.49l-.22-146.28Z" style="fill:url(#Безымянный_градиент_51-62)"/><path d="M637.27,646l.21,138.24c-1,.3-2,.59-3,.87L634.27,646Z" style="fill:url(#Безымянный_градиент_51-63)"/><path d="M670.27,646l.19,125.66c-1,.49-2,1-3,1.4L667.27,646Z" style="fill:url(#Безымянный_градиент_51-64)"/><path d="M703.27,645.93l.16,105.15q-1.47,1.2-3,2.37l-.16-107.52Z" style="fill:url(#Безымянный_градиент_51-65)"/><path d="M683.32,747c-71.68,41.53-188,41.7-259.8.39s-71.91-108.47-.23-150,188-41.7,259.8-.39S755,705.45,683.32,747Z" style="fill:#5187e5"/><path d="M674.65,742c-66.9,38.76-175.46,38.92-242.48.36s-67.11-101.24-.21-140,175.46-38.92,242.48-.36S741.55,703.23,674.65,742Z" style="fill:url(#Безымянный_градиент_51-66)"/><path d="M718.95,635.39,719,654c-.41,21.07-11.61,42.08-33.61,60q-1.47,1.2-3,2.37a158.13,158.13,0,0,1-17.08,11.4q-6.22,3.61-12.89,6.79c-1,.49-2,1-3,1.4a224.6,224.6,0,0,1-30,11.23c-1,.3-2,.59-3,.87a271.24,271.24,0,0,1-30,6.73c-1,.18-2,.34-3,.49-9.86,1.55-19.9,2.62-30,3.21l-3,.15c-10,.49-20,.51-30,0l-3-.15c-10.1-.55-20.14-1.59-30-3.11-1-.15-2-.31-3-.49a271.24,271.24,0,0,1-30-6.63c-1-.28-2-.57-3-.87a224.6,224.6,0,0,1-30-11.13c-1-.45-2-.91-3-1.4q-6.67-3.16-12.91-6.75a153.31,153.31,0,0,1-17.12-11.34q-1.55-1.17-3-2.37c-22.19-18-33.44-39.14-33.78-60.32h0l0-18.59,1,7a64.39,64.39,0,0,1,2.34-9.36c4.34-13.12,13-25.87,25.93-37.48-9.89,11.85-15.46,24.6-16.7,37.47-1.78,18.42,5.31,37.06,21.27,53.62q1.44,1.51,3,3a133.36,133.36,0,0,0,25.79,19q2.1,1.21,4.24,2.34,1.49.82,3,1.59a201.17,201.17,0,0,0,30,12.34l3,.95a249.11,249.11,0,0,0,30,7.19c1,.19,2,.36,3,.53a285.53,285.53,0,0,0,30,3.34c1,.07,2,.12,3,.17a294.3,294.3,0,0,0,30,0c1-.05,2-.1,3-.17a285.55,285.55,0,0,0,30-3.44c1-.17,2-.34,3-.53a249.14,249.14,0,0,0,30-7.29l3-1a201.19,201.19,0,0,0,30-12.44q1.51-.77,3-1.59,2.14-1.14,4.24-2.36a133.28,133.28,0,0,0,25.73-19c1-1,2-2,3-3,15.92-16.6,22.95-35.27,21.1-53.69-1.28-12.86-6.89-25.59-16.82-37.4,13,11.57,21.68,24.29,26,37.39a67,67,0,0,1,2.05,7.72Z" style="fill:#376cb7"/><path d="M388.21,609.34l.16,107.52q-1.55-1.17-3-2.37l-.16-105.15Z" style="fill:url(#Безымянный_градиент_51-67)"/><path d="M421.21,609.29l.19,127.06c-1-.45-2-.91-3-1.4l-.19-125.66Z" style="fill:url(#Безымянный_градиент_51-68)"/><path d="M454.21,609.24l.21,139.11c-1-.28-2-.57-3-.87l-.21-138.24Z" style="fill:url(#Безымянный_градиент_51-69)"/><path d="M487.21,609.19l.22,146.28c-1-.15-2-.31-3-.49l-.22-145.79Z" style="fill:url(#Безымянный_градиент_51-70)"/><path d="M520.21,609.14l.22,149.59-3-.15-.22-149.44Z" style="fill:url(#Безымянный_градиент_51-71)"/><path d="M553.21,609.09l.22,149.44-3,.15-.22-149.59Z" style="fill:url(#Безымянный_градиент_51-72)"/><path d="M586.21,609l.22,145.79c-1,.18-2,.34-3,.49L583.21,609Z" style="fill:url(#Безымянный_градиент_51-73)"/><path d="M619.21,609l.21,138.24c-1,.3-2,.59-3,.87L616.21,609Z" style="fill:url(#Безымянный_градиент_51-74)"/><path d="M652.21,608.94l.19,125.66c-1,.49-2,1-3,1.4l-.19-127.06Z" style="fill:url(#Безымянный_градиент_51-75)"/><path d="M685.21,608.89,685.37,714q-1.47,1.2-3,2.37l-.16-107.52Z" style="fill:url(#Безымянный_градиент_51-76)"/><path d="M665.26,709.94c-71.68,41.53-188,41.7-259.8.39s-71.91-108.47-.23-150,188-41.7,259.8-.39S736.94,668.42,665.26,709.94Z" style="fill:#5187e5"/><path d="M656.59,705c-66.9,38.76-175.46,38.92-242.48.36s-67.11-101.24-.21-140S589.36,526.4,656.38,565,723.5,666.2,656.59,705Z" style="fill:url(#Безымянный_градиент_51-77)"/><path d="M739.07,582.75l0,18.61c-.41,21.07-11.61,42.08-33.61,60q-1.47,1.2-3,2.37a158.13,158.13,0,0,1-17.08,11.4q-6.22,3.61-12.89,6.79c-1,.49-2,1-3,1.4a224.6,224.6,0,0,1-30,11.23c-1,.3-2,.59-3,.87a271.24,271.24,0,0,1-30,6.73c-1,.18-2,.34-3,.49-9.86,1.55-19.9,2.62-30,3.21l-3,.15c-10,.49-20,.51-30,0l-3-.15c-10.1-.55-20.14-1.59-30-3.11-1-.15-2-.31-3-.49a271.24,271.24,0,0,1-30-6.63c-1-.28-2-.57-3-.87a224.6,224.6,0,0,1-30-11.13c-1-.45-2-.91-3-1.4q-6.67-3.16-12.91-6.75a153.31,153.31,0,0,1-17.12-11.34q-1.55-1.17-3-2.37c-22.19-18-33.44-39.14-33.78-60.32h0l0-18.59,1,7a64.39,64.39,0,0,1,2.34-9.36c4.34-13.12,13-25.87,25.93-37.48-9.89,11.85-15.46,24.6-16.7,37.47-1.78,18.42,5.31,37.06,21.27,53.62q1.44,1.51,3,3a133.36,133.36,0,0,0,25.79,19q2.1,1.21,4.24,2.34,1.49.82,3,1.59a201.17,201.17,0,0,0,30,12.34l3,.95a249.11,249.11,0,0,0,30,7.19c1,.19,2,.36,3,.53a285.53,285.53,0,0,0,30,3.34c1,.07,2,.12,3,.17a294.3,294.3,0,0,0,30,0c1-.05,2-.1,3-.17a285.55,285.55,0,0,0,30-3.44c1-.17,2-.34,3-.53a249.14,249.14,0,0,0,30-7.29l3-1a201.19,201.19,0,0,0,30-12.44q1.51-.77,3-1.59,2.14-1.14,4.24-2.36a133.28,133.28,0,0,0,25.73-19c1-1,2-2,3-3,15.92-16.6,22.95-35.27,21.1-53.69-1.28-12.86-6.89-25.59-16.82-37.4,13,11.57,21.68,24.29,26,37.39a67,67,0,0,1,2.05,7.72Z" style="fill:#376cb7"/><path d="M408.33,556.7l.16,107.52q-1.55-1.17-3-2.37l-.16-105.15Z" style="fill:url(#Безымянный_градиент_51-78)"/><path d="M441.33,556.65l.19,127.06c-1-.45-2-.91-3-1.4l-.19-125.66Z" style="fill:url(#Безымянный_градиент_51-79)"/><path d="M474.33,556.6l.21,139.11c-1-.28-2-.57-3-.87l-.21-138.24Z" style="fill:url(#Безымянный_градиент_51-80)"/><path d="M507.33,556.55l.22,146.28c-1-.15-2-.31-3-.49l-.22-145.79Z" style="fill:url(#Безымянный_градиент_51-81)"/><path d="M540.33,556.5l.22,149.59-3-.15-.22-149.44Z" style="fill:url(#Безымянный_градиент_51-82)"/><path d="M573.33,556.45l.22,149.44-3,.15-.22-149.59Z" style="fill:url(#Безымянный_градиент_51-83)"/><path d="M606.33,556.4l.22,145.79c-1,.18-2,.34-3,.49l-.22-146.28Z" style="fill:url(#Безымянный_градиент_51-84)"/><path d="M639.33,556.35l.21,138.24c-1,.3-2,.59-3,.87l-.21-139.11Z" style="fill:url(#Безымянный_градиент_51-85)"/><path d="M672.33,556.3,672.52,682c-1,.49-2,1-3,1.4l-.19-127.06Z" style="fill:url(#Безымянный_градиент_51-86)"/><path d="M705.33,556.25l.16,105.15q-1.47,1.2-3,2.37l-.16-107.52Z" style="fill:url(#Безымянный_градиент_51-87)"/><path d="M685.38,657.3c-71.68,41.53-188,41.7-259.8.39s-71.91-108.47-.23-150,188-41.7,259.8-.39S757.06,615.78,685.38,657.3Z" style="fill:#5187e5"/><path d="M676.72,652.32c-66.9,38.76-175.46,38.92-242.48.36s-67.11-101.24-.21-140,175.46-38.92,242.48-.36S743.62,613.56,676.72,652.32Z" style="fill:url(#Безымянный_градиент_51-88)"/><path d="M332.95,603.88c9.89-11.43,22.79-22.21,38.69-32q2.29-1.4,4.66-2.78" style="fill:none;stroke:#6091f8;stroke-linecap:round;stroke-miterlimit:10;stroke-width:4px"/><path d="M739,557.79l0,18.61c-.41,21.07-11.61,42.08-33.61,60q-1.47,1.2-3,2.37a158.13,158.13,0,0,1-17.08,11.4q-6.22,3.61-12.89,6.79c-1,.49-2,1-3,1.4a224.6,224.6,0,0,1-30,11.23c-1,.3-2,.59-3,.87a271.24,271.24,0,0,1-30,6.73c-1,.18-2,.34-3,.49-9.86,1.55-19.9,2.62-30,3.21l-3,.15c-10,.49-20,.51-30,0l-3-.15c-10.1-.55-20.14-1.59-30-3.11-1-.15-2-.31-3-.49a271.24,271.24,0,0,1-30-6.63c-1-.28-2-.57-3-.87a224.6,224.6,0,0,1-30-11.13c-1-.45-2-.91-3-1.4q-6.67-3.16-12.91-6.75a153.31,153.31,0,0,1-17.12-11.34q-1.55-1.17-3-2.37c-22.19-18-33.44-39.14-33.78-60.32h0l0-18.59,1,7a64.39,64.39,0,0,1,2.34-9.36c4.34-13.12,13-25.87,25.93-37.48-9.89,11.85-15.46,24.6-16.7,37.47-1.78,18.42,5.31,37.06,21.27,53.62q1.44,1.51,3,3a133.36,133.36,0,0,0,25.79,19q2.1,1.21,4.24,2.34,1.49.82,3,1.59a201.17,201.17,0,0,0,30,12.34l3,.95a249.11,249.11,0,0,0,30,7.19c1,.19,2,.36,3,.53a285.53,285.53,0,0,0,30,3.34c1,.07,2,.12,3,.17a294.3,294.3,0,0,0,30,0c1-.05,2-.1,3-.17a285.55,285.55,0,0,0,30-3.44c1-.17,2-.34,3-.53a249.14,249.14,0,0,0,30-7.29l3-1a201.19,201.19,0,0,0,30-12.44q1.51-.77,3-1.59,2.14-1.14,4.24-2.36a133.28,133.28,0,0,0,25.73-19c1-1,2-2,3-3,15.92-16.6,22.95-35.27,21.1-53.69-1.28-12.86-6.89-25.59-16.82-37.4,13,11.57,21.68,24.29,26,37.39a67,67,0,0,1,2.05,7.72Z" style="fill:#376cb7"/><path d="M408.3,531.73l.16,107.52q-1.55-1.17-3-2.37l-.16-105.15Z" style="fill:url(#Безымянный_градиент_51-89)"/><path d="M441.3,531.68l.19,127.06c-1-.45-2-.91-3-1.4l-.19-125.66Z" style="fill:url(#Безымянный_градиент_51-90)"/><path d="M474.29,531.63l.21,139.11c-1-.28-2-.57-3-.87l-.21-138.24Z" style="fill:url(#Безымянный_градиент_51-91)"/><path d="M507.29,531.58l.22,146.28c-1-.15-2-.31-3-.49l-.22-145.79Z" style="fill:url(#Безымянный_градиент_51-92)"/><path d="M540.29,531.53l.22,149.59-3-.15-.22-149.44Z" style="fill:url(#Безымянный_градиент_51-93)"/><path d="M573.29,531.48l.22,149.44-3,.15-.22-149.59Z" style="fill:url(#Безымянный_градиент_51-94)"/><path d="M606.29,531.43l.22,145.79c-1,.18-2,.34-3,.49l-.22-146.28Z" style="fill:url(#Безымянный_градиент_51-95)"/><path d="M639.29,531.38l.21,138.24c-1,.3-2,.59-3,.87l-.21-139.11Z" style="fill:url(#Безымянный_градиент_51-96)"/><path d="M672.29,531.34,672.48,657c-1,.49-2,1-3,1.4l-.19-127.06Z" style="fill:url(#Безымянный_градиент_51-97)"/><path d="M705.29,531.29l.16,105.15q-1.47,1.2-3,2.37l-.16-107.52Z" style="fill:url(#Безымянный_градиент_51-98)"/><path d="M685.35,632.34c-71.68,41.53-188,41.7-259.8.39s-71.91-108.47-.23-150,188-41.7,259.8-.39S757,590.81,685.35,632.34Z" style="fill:#5187e5"/><path d="M676.68,627.35c-66.9,38.76-175.46,38.92-242.48.36s-67.11-101.24-.21-140,175.46-38.92,242.48-.36S743.58,588.59,676.68,627.35Z" style="fill:url(#Безымянный_градиент_51-99)"/><path d="M621.86,607.25" style="fill:#fff"/><polygon points="505.88 589.17 646.83 588.32 605.57 564.57 546.52 565.6 548.62 531.63 506.86 507.79 505.88 589.17" style="fill:#fff"/><polygon points="561.63 526.19 559.83 557.77 559.9 557.87 615.1 556.95 561.63 526.19" style="fill:#fff"/><path d="M738.57,248.67l.46,308.6c0,27.14-17.85,54.31-53.69,75.07-71.68,41.53-188,41.7-259.81.39-35.9-20.66-53.87-47.77-53.91-74.92l-.46-308.6c0,27.15,18,54.26,53.91,74.92a189.42,189.42,0,0,0,18.4,9.27c65.67,28.92,157.43,28.78,223-.34a189.59,189.59,0,0,0,18.39-9.33C720.72,303,738.61,275.81,738.57,248.67Z" style="fill:url(#Безымянный_градиент_49-3)"/><path d="M731.9,220.39c-8.2-17.1-23.94-33.22-47.25-46.63-71.8-41.31-188.12-41.15-259.8.38-23.26,13.48-39,29.67-47.1,46.78a65.27,65.27,0,0,0-6.59,28.3l.46,308.6c0-27.14,17.85-54.32,53.69-75.08a190.54,190.54,0,0,1,18.38-9.33c65.58-29.12,157.34-29.26,223-.32a187.32,187.32,0,0,1,18.41,9.27C721,503,739,530.13,739,557.28l-.46-308.6A65.28,65.28,0,0,0,731.9,220.39Z" style="fill:url(#Безымянный_градиент_49-4)"/><path d="M313.28,691c-7.62-21.35-6.15-43.57,4.42-64.6" style="fill:none;stroke:#6091f8;stroke-linecap:round;stroke-miterlimit:10;stroke-width:4px"/><path d="M376.59,758.58a182.74,182.74,0,0,1-33.3-24.16,122.2,122.2,0,0,1-22.59-27.64" style="fill:none;stroke:#6091f8;stroke-linecap:round;stroke-miterlimit:10;stroke-width:4px"/><path d="M598.94,793.21a400.14,400.14,0,0,1-93.47,2.86" style="fill:none;stroke:#6091f8;stroke-linecap:round;stroke-miterlimit:10;stroke-width:4px"/><path d="M757.13,711.43c-9.72,14.64-24,28.5-43,40.84q-4.55,3-9.47,5.81" style="fill:none;stroke:#6091f8;stroke-linecap:round;stroke-miterlimit:10;stroke-width:4px"/><path d="M769.68,642.55a78.67,78.67,0,0,1,.27,40.67" style="fill:none;stroke:#6091f8;stroke-linecap:round;stroke-miterlimit:10;stroke-width:4px"/><circle cx="215.7" cy="338.36" r="30.71" transform="translate(-0.51 0.32) rotate(-0.09)" style="fill:url(#Безымянный_градиент_140-2)"/><circle cx="821.62" cy="492.64" r="15.6" transform="translate(-0.74 1.23) rotate(-0.09)" style="fill:url(#Безымянный_градиент_24-2)"/><circle cx="1145.22" cy="156.14" r="41.56" transform="translate(-0.23 1.72) rotate(-0.09)" style="fill:url(#Безымянный_градиент_24-3)"/><circle cx="405.05" cy="369.01" r="10" transform="translate(-0.55 0.61) rotate(-0.09)" style="fill:url(#Безымянный_градиент_24-4)"/><circle cx="656.87" cy="248.78" r="5" transform="translate(-0.37 0.99) rotate(-0.09)" style="fill:url(#Безымянный_градиент_24-5)"/><circle cx="9.05" cy="282.13" r="3" transform="translate(-0.42 0.01) rotate(-0.09)" style="fill:url(#Безымянный_градиент_24-6)"/><circle cx="458.65" cy="99.32" r="3" transform="matrix(1, 0, 0, 1, -0.15, 0.69)" style="fill:url(#Безымянный_градиент_24-7)"/><circle cx="750.53" cy="410.89" r="2" transform="matrix(1, 0, 0, 1, -0.62, 1.13)" style="fill:url(#Безымянный_градиент_24-8)"/><circle cx="784.15" cy="154.14" r="2" transform="matrix(1, 0, 0, 1, -0.23, 1.18)" style="fill:url(#Безымянный_градиент_140-3)"/><circle cx="1126.29" cy="2" r="2" transform="translate(0 1.69) rotate(-0.09)" style="fill:url(#Безымянный_градиент_140-4)"/><circle cx="1368.64" cy="482.28" r="2" transform="matrix(1, 0, 0, 1, -0.72, 2.06)" style="fill:url(#Безымянный_градиент_140-5)"/><circle cx="1183.54" cy="289.78" r="9.42" transform="translate(-0.43 1.78) rotate(-0.09)" style="fill:url(#Безымянный_градиент_140-6)"/><circle cx="1329.37" cy="298.97" r="5" transform="translate(-0.45 2) rotate(-0.09)" style="fill:url(#Безымянный_градиент_140-7)"/><circle cx="882.01" cy="275.81" r="5" transform="translate(-0.41 1.33) rotate(-0.09)" style="fill:url(#Безымянный_градиент_140-8)"/><circle cx="39.68" cy="508.41" r="4" transform="translate(-0.76 0.06) rotate(-0.09)" style="fill:url(#Безымянный_градиент_140-9)"/><g id="Shape_1" data-name="Shape 1"><path d="M220.29,336.84a39.76,39.76,0,0,0-4-1.82,9.08,9.08,0,0,1-2.22-1.24,1.93,1.93,0,0,1,.47-3.44,3.89,3.89,0,0,1,1.36-.28,10.31,10.31,0,0,1,5.11,1c.81.39,1.07.26,1.34-.58s.52-1.79.79-2.69a.94.94,0,0,0-.61-1.25,13,13,0,0,0-3.22-1c-1.46-.22-1.46-.23-1.47-1.7,0-2.07,0-2.07-2.09-2.07h-.9c-1,0-1.13.2-1.16,1.18,0,.44,0,.87,0,1.32,0,1.3,0,1.28-1.25,1.73-3,1.1-4.86,3.15-5.05,6.43-.17,2.9,1.35,4.86,3.73,6.29a41.1,41.1,0,0,0,4.65,2.08,6.91,6.91,0,0,1,1.69,1,2.32,2.32,0,0,1-.55,4.07,5.57,5.57,0,0,1-3,.39,13.32,13.32,0,0,1-4.55-1.35c-.84-.44-1.09-.32-1.37.59s-.46,1.58-.68,2.37c-.29,1.07-.18,1.32.84,1.82a14.52,14.52,0,0,0,4.1,1.17c1.11.18,1.14.22,1.16,1.37,0,.52,0,1,0,1.56a.93.93,0,0,0,1,1.05c.76,0,1.54,0,2.3,0a.88.88,0,0,0,.95-1c0-.71,0-1.43,0-2.14a1.13,1.13,0,0,1,1-1.29,7.72,7.72,0,0,0,4-2.59A7.26,7.26,0,0,0,220.29,336.84Z" style="fill:#fff;fill-rule:evenodd"/></g><g id="Shape_1-2" data-name="Shape 1"><path d="M1152.66,153.69a64.39,64.39,0,0,0-6.55-3,14.69,14.69,0,0,1-3.59-2,3.13,3.13,0,0,1,.77-5.56,6.3,6.3,0,0,1,2.2-.46,16.69,16.69,0,0,1,8.27,1.62c1.3.63,1.74.43,2.18-.93s.85-2.9,1.28-4.35a1.52,1.52,0,0,0-1-2,21,21,0,0,0-5.22-1.55c-2.37-.36-2.37-.37-2.38-2.75,0-3.35,0-3.35-3.38-3.34-.49,0-1,0-1.46,0-1.57,0-1.83.32-1.88,1.9,0,.71,0,1.41,0,2.13,0,2.1,0,2.07-2,2.8-4.86,1.78-7.86,5.1-8.17,10.4-.28,4.7,2.18,7.87,6,10.17a66.53,66.53,0,0,0,7.53,3.37,11.19,11.19,0,0,1,2.74,1.61,3.76,3.76,0,0,1-.89,6.59,9,9,0,0,1-4.83.64,21.55,21.55,0,0,1-7.36-2.19c-1.36-.71-1.76-.52-2.22,1-.4,1.27-.75,2.55-1.1,3.84-.47,1.73-.3,2.13,1.35,2.94a23.49,23.49,0,0,0,6.63,1.89c1.79.28,1.85.36,1.87,2.22,0,.84,0,1.69,0,2.53a1.5,1.5,0,0,0,1.62,1.7c1.24,0,2.49,0,3.72,0a1.42,1.42,0,0,0,1.53-1.61c0-1.15.05-2.31,0-3.46a1.83,1.83,0,0,1,1.58-2.08,12.49,12.49,0,0,0,6.5-4.19C1161.17,165.79,1159.36,157.38,1152.66,153.69Z" style="fill:#fff;fill-rule:evenodd"/></g><g id="Shape_1-3" data-name="Shape 1"><path d="M824.41,491.71a24.16,24.16,0,0,0-2.46-1.11,5.52,5.52,0,0,1-1.35-.75,1.17,1.17,0,0,1,.29-2.09,2.36,2.36,0,0,1,.82-.17,6.26,6.26,0,0,1,3.1.61c.49.24.65.16.82-.35s.32-1.09.48-1.63a.57.57,0,0,0-.37-.76,7.88,7.88,0,0,0-2-.58c-.89-.14-.89-.14-.89-1,0-1.26,0-1.26-1.27-1.26h-.55c-.59,0-.69.12-.7.71,0,.27,0,.53,0,.8,0,.79,0,.78-.76,1.05a4.21,4.21,0,0,0-3.07,3.9,4,4,0,0,0,2.27,3.82,25,25,0,0,0,2.83,1.27,4.19,4.19,0,0,1,1,.6,1.41,1.41,0,0,1-.33,2.47,3.38,3.38,0,0,1-1.81.24,8.09,8.09,0,0,1-2.76-.82c-.51-.26-.66-.19-.83.36s-.28,1-.41,1.44c-.18.65-.11.8.51,1.1a8.82,8.82,0,0,0,2.49.71c.67.11.69.14.7.83,0,.32,0,.63,0,1a.56.56,0,0,0,.61.64c.46,0,.93,0,1.4,0a.53.53,0,0,0,.58-.6c0-.43,0-.87,0-1.3a.69.69,0,0,1,.59-.78,4.69,4.69,0,0,0,2.44-1.57A4.41,4.41,0,0,0,824.41,491.71Z" style="fill:#fff;fill-rule:evenodd"/></g></g></g></svg>